%TF.GenerationSoftware,KiCad,Pcbnew,10.0.1*%
%TF.CreationDate,2026-08-11T13:48:14-07:00*%
%TF.ProjectId,RVSP_Pocket,52565350-5f50-46f6-936b-65742e6b6963,rev?*%
%TF.SameCoordinates,Original*%
%TF.FileFunction,Paste,Top*%
%TF.FilePolarity,Positive*%
%FSLAX46Y46*%
G04 Gerber Fmt 4.6, Leading zero omitted, Abs format (unit mm)*
G04 Created by KiCad (PCBNEW 10.0.1) date 2026-08-11 13:48:14*
%MOMM*%
%LPD*%
G01*
G04 APERTURE LIST*
G04 Aperture macros list*
%AMRoundRect*
0 Rectangle with rounded corners*
0 $1 Rounding radius*
0 $2 $3 $4 $5 $6 $7 $8 $9 X,Y pos of 4 corners*
0 Add a 4 corners polygon primitive as box body*
4,1,4,$2,$3,$4,$5,$6,$7,$8,$9,$2,$3,0*
0 Add four circle primitives for the rounded corners*
1,1,$1+$1,$2,$3*
1,1,$1+$1,$4,$5*
1,1,$1+$1,$6,$7*
1,1,$1+$1,$8,$9*
0 Add four rect primitives between the rounded corners*
20,1,$1+$1,$2,$3,$4,$5,0*
20,1,$1+$1,$4,$5,$6,$7,0*
20,1,$1+$1,$6,$7,$8,$9,0*
20,1,$1+$1,$8,$9,$2,$3,0*%
G04 Aperture macros list end*
%ADD10RoundRect,0.237500X-0.237500X0.250000X-0.237500X-0.250000X0.237500X-0.250000X0.237500X0.250000X0*%
%ADD11RoundRect,0.237500X-0.250000X-0.237500X0.250000X-0.237500X0.250000X0.237500X-0.250000X0.237500X0*%
%ADD12O,1.454000X0.353000*%
%ADD13RoundRect,0.250000X-0.325000X-0.450000X0.325000X-0.450000X0.325000X0.450000X-0.325000X0.450000X0*%
%ADD14RoundRect,0.237500X0.237500X-0.300000X0.237500X0.300000X-0.237500X0.300000X-0.237500X-0.300000X0*%
%ADD15RoundRect,0.237500X0.250000X0.237500X-0.250000X0.237500X-0.250000X-0.237500X0.250000X-0.237500X0*%
%ADD16RoundRect,0.237500X0.300000X0.237500X-0.300000X0.237500X-0.300000X-0.237500X0.300000X-0.237500X0*%
%ADD17R,0.700000X1.600000*%
%ADD18R,1.200000X1.500000*%
%ADD19R,1.200000X2.200000*%
%ADD20R,1.600000X1.500000*%
%ADD21RoundRect,0.237500X0.237500X-0.250000X0.237500X0.250000X-0.237500X0.250000X-0.237500X-0.250000X0*%
%ADD22RoundRect,0.250000X-0.400000X-0.625000X0.400000X-0.625000X0.400000X0.625000X-0.400000X0.625000X0*%
%ADD23RoundRect,0.150000X-0.512500X-0.150000X0.512500X-0.150000X0.512500X0.150000X-0.512500X0.150000X0*%
%ADD24RoundRect,0.237500X-0.237500X0.300000X-0.237500X-0.300000X0.237500X-0.300000X0.237500X0.300000X0*%
%ADD25R,2.700000X3.600000*%
%ADD26RoundRect,0.250000X-1.000000X-0.650000X1.000000X-0.650000X1.000000X0.650000X-1.000000X0.650000X0*%
%ADD27RoundRect,0.375000X-0.625000X-0.375000X0.625000X-0.375000X0.625000X0.375000X-0.625000X0.375000X0*%
%ADD28RoundRect,0.500000X-0.500000X-1.400000X0.500000X-1.400000X0.500000X1.400000X-0.500000X1.400000X0*%
%ADD29RoundRect,0.050000X-0.285000X-0.100000X0.285000X-0.100000X0.285000X0.100000X-0.285000X0.100000X0*%
%ADD30RoundRect,0.150000X-0.150000X-0.425000X0.150000X-0.425000X0.150000X0.425000X-0.150000X0.425000X0*%
%ADD31RoundRect,0.075000X-0.075000X-0.500000X0.075000X-0.500000X0.075000X0.500000X-0.075000X0.500000X0*%
%ADD32O,1.000000X2.100000*%
%ADD33O,1.000000X1.800000*%
%ADD34RoundRect,0.250000X-0.525000X-0.250000X0.525000X-0.250000X0.525000X0.250000X-0.525000X0.250000X0*%
%ADD35RoundRect,0.250000X-0.255000X-0.440000X0.255000X-0.440000X0.255000X0.440000X-0.255000X0.440000X0*%
%ADD36RoundRect,0.150000X-0.825000X-0.150000X0.825000X-0.150000X0.825000X0.150000X-0.825000X0.150000X0*%
%ADD37RoundRect,0.250000X0.800000X0.650000X-0.800000X0.650000X-0.800000X-0.650000X0.800000X-0.650000X0*%
%ADD38RoundRect,0.250000X-0.315000X0.315000X-0.315000X-0.315000X0.315000X-0.315000X0.315000X0.315000X0*%
%ADD39RoundRect,0.062500X-0.062500X0.375000X-0.062500X-0.375000X0.062500X-0.375000X0.062500X0.375000X0*%
%ADD40RoundRect,0.062500X-0.375000X0.062500X-0.375000X-0.062500X0.375000X-0.062500X0.375000X0.062500X0*%
%ADD41RoundRect,0.237500X-0.382475X0.010901X0.077151X-0.374772X0.382475X-0.010901X-0.077151X0.374772X0*%
G04 APERTURE END LIST*
D10*
%TO.C,R8*%
X97070000Y-71927500D03*
X97070000Y-73752500D03*
%TD*%
D11*
%TO.C,R1*%
X142327500Y-82650000D03*
X144152500Y-82650000D03*
%TD*%
D12*
%TO.C,Q1*%
X107815000Y-80030000D03*
X107815000Y-80690000D03*
X107815000Y-81340000D03*
X107815000Y-81990000D03*
X113675000Y-81990000D03*
X113675000Y-81340000D03*
X113675000Y-80690000D03*
X113675000Y-80030000D03*
%TD*%
D13*
%TO.C,D1*%
X113060000Y-60765000D03*
X115110000Y-60765000D03*
%TD*%
D14*
%TO.C,C12*%
X130930000Y-75232500D03*
X130930000Y-73507500D03*
%TD*%
D15*
%TO.C,R11*%
X106472500Y-88250000D03*
X104647500Y-88250000D03*
%TD*%
D16*
%TO.C,C16*%
X128850000Y-68175000D03*
X127125000Y-68175000D03*
%TD*%
D10*
%TO.C,R17*%
X91720000Y-87447500D03*
X91720000Y-89272500D03*
%TD*%
D17*
%TO.C,MicroSD_Card1*%
X135100000Y-77500000D03*
X134000000Y-77500000D03*
X132900000Y-77500000D03*
X131800000Y-77500000D03*
X130700000Y-77500000D03*
X129600000Y-77500000D03*
X128500000Y-77500000D03*
X127400000Y-77500000D03*
X126300000Y-77500000D03*
D18*
X125100000Y-78500000D03*
D19*
X125100000Y-88100000D03*
D20*
X139700000Y-78500000D03*
D19*
X140600000Y-88100000D03*
%TD*%
D21*
%TO.C,R15*%
X122887500Y-72657500D03*
X122887500Y-70832500D03*
%TD*%
D22*
%TO.C,FB1*%
X122905000Y-61337500D03*
X126005000Y-61337500D03*
%TD*%
D23*
%TO.C,U5*%
X98502500Y-80850000D03*
X98502500Y-81800000D03*
X98502500Y-82750000D03*
X100777500Y-82750000D03*
X100777500Y-81800000D03*
X100777500Y-80850000D03*
%TD*%
%TO.C,U3*%
X99090000Y-73240000D03*
X99090000Y-74190000D03*
X99090000Y-75140000D03*
X101365000Y-75140000D03*
X101365000Y-74190000D03*
X101365000Y-73240000D03*
%TD*%
D24*
%TO.C,C7*%
X126180000Y-63437500D03*
X126180000Y-65162500D03*
%TD*%
D10*
%TO.C,R19*%
X92092500Y-60287500D03*
X92092500Y-62112500D03*
%TD*%
D25*
%TO.C,L1*%
X105965000Y-72565000D03*
X114265000Y-72565000D03*
%TD*%
D26*
%TO.C,D2*%
X96515000Y-68815000D03*
X100515000Y-68815000D03*
%TD*%
D24*
%TO.C,C9*%
X122905000Y-63387500D03*
X122905000Y-65112500D03*
%TD*%
%TO.C,C17*%
X103140000Y-74065000D03*
X103140000Y-75790000D03*
%TD*%
D27*
%TO.C,U2*%
X103560000Y-58640000D03*
X103560000Y-60940000D03*
D28*
X109860000Y-60940000D03*
D27*
X103560000Y-63240000D03*
%TD*%
D15*
%TO.C,R2*%
X149912500Y-82650000D03*
X148087500Y-82650000D03*
%TD*%
D24*
%TO.C,C2*%
X139820000Y-63715000D03*
X139820000Y-65440000D03*
%TD*%
D15*
%TO.C,R10*%
X106472500Y-85570000D03*
X104647500Y-85570000D03*
%TD*%
D29*
%TO.C,U6*%
X93862500Y-59125000D03*
X93862500Y-59625000D03*
X93862500Y-60125000D03*
X93862500Y-60625000D03*
X95342500Y-60625000D03*
X95342500Y-60125000D03*
X95342500Y-59625000D03*
X95342500Y-59125000D03*
%TD*%
D10*
%TO.C,R9*%
X97050000Y-75680000D03*
X97050000Y-77505000D03*
%TD*%
%TO.C,R4*%
X134670000Y-73607500D03*
X134670000Y-75432500D03*
%TD*%
D14*
%TO.C,C5*%
X138230000Y-62390000D03*
X138230000Y-60665000D03*
%TD*%
D30*
%TO.C,USB_C1*%
X144090000Y-85170000D03*
X144890000Y-85170000D03*
D31*
X146040000Y-85170000D03*
X147040000Y-85170000D03*
X147540000Y-85170000D03*
X148540000Y-85170000D03*
D30*
X149690000Y-85170000D03*
X150490000Y-85170000D03*
X150490000Y-85170000D03*
X149690000Y-85170000D03*
D31*
X149040000Y-85170000D03*
X148040000Y-85170000D03*
X146540000Y-85170000D03*
X145540000Y-85170000D03*
D30*
X144890000Y-85170000D03*
X144090000Y-85170000D03*
D32*
X142970000Y-85745000D03*
D33*
X142970000Y-89925000D03*
D32*
X151610000Y-85745000D03*
D33*
X151610000Y-89925000D03*
%TD*%
D34*
%TO.C,SW1*%
X142375000Y-72675000D03*
X147625000Y-72675000D03*
X142375000Y-75875000D03*
X147625000Y-75875000D03*
%TD*%
D10*
%TO.C,R3*%
X113110000Y-62940000D03*
X113110000Y-64765000D03*
%TD*%
D16*
%TO.C,C8*%
X129700000Y-62475000D03*
X127975000Y-62475000D03*
%TD*%
D14*
%TO.C,C1*%
X137350000Y-58940000D03*
X137350000Y-57215000D03*
%TD*%
D15*
%TO.C,R7*%
X147550000Y-78000000D03*
X145725000Y-78000000D03*
%TD*%
D14*
%TO.C,C19*%
X102730000Y-82442500D03*
X102730000Y-80717500D03*
%TD*%
%TO.C,C14*%
X101360000Y-63395000D03*
X101360000Y-61670000D03*
%TD*%
D10*
%TO.C,R5*%
X132980000Y-73587500D03*
X132980000Y-75412500D03*
%TD*%
%TO.C,R18*%
X97692500Y-58725000D03*
X97692500Y-60550000D03*
%TD*%
D35*
%TO.C,U4*%
X99443810Y-86895000D03*
X99443810Y-88545000D03*
X100643810Y-86895000D03*
X100643810Y-88545000D03*
D36*
X97568810Y-85815000D03*
X97568810Y-87085000D03*
X97568810Y-88355000D03*
X97568810Y-89625000D03*
X102518810Y-89625000D03*
X102518810Y-88355000D03*
X102518810Y-87085000D03*
X102518810Y-85815000D03*
%TD*%
D37*
%TO.C,Y1*%
X135150000Y-58550000D03*
X132250000Y-58550000D03*
X132250000Y-60850000D03*
X135150000Y-60850000D03*
%TD*%
D24*
%TO.C,C6*%
X141490000Y-63687500D03*
X141490000Y-65412500D03*
%TD*%
D13*
%TO.C,D3*%
X108125000Y-85600000D03*
X110175000Y-85600000D03*
%TD*%
D16*
%TO.C,C4*%
X128770000Y-69810000D03*
X127045000Y-69810000D03*
%TD*%
D38*
%TO.C,U1*%
X136400000Y-64887500D03*
X135000000Y-64887500D03*
X133600000Y-64887500D03*
X132200000Y-64887500D03*
X136400000Y-66287500D03*
X135000000Y-66287500D03*
X133600000Y-66287500D03*
X132200000Y-66287500D03*
X136400000Y-67687500D03*
X135000000Y-67687500D03*
X133600000Y-67687500D03*
X132200000Y-67687500D03*
X136400000Y-69087500D03*
X135000000Y-69087500D03*
X133600000Y-69087500D03*
X132200000Y-69087500D03*
D39*
X137050000Y-63550000D03*
X136550000Y-63550000D03*
X136050000Y-63550000D03*
X135550000Y-63550000D03*
X135050000Y-63550000D03*
X134550000Y-63550000D03*
X134050000Y-63550000D03*
X133550000Y-63550000D03*
X133050000Y-63550000D03*
X132550000Y-63550000D03*
X132050000Y-63550000D03*
X131550000Y-63550000D03*
D40*
X130862500Y-64237500D03*
X130862500Y-64737500D03*
X130862500Y-65237500D03*
X130862500Y-65737500D03*
X130862500Y-66237500D03*
X130862500Y-66737500D03*
X130862500Y-67237500D03*
X130862500Y-67737500D03*
X130862500Y-68237500D03*
X130862500Y-68737500D03*
X130862500Y-69237500D03*
X130862500Y-69737500D03*
D39*
X131550000Y-70425000D03*
X132050000Y-70425000D03*
X132550000Y-70425000D03*
X133050000Y-70425000D03*
X133550000Y-70425000D03*
X134050000Y-70425000D03*
X134550000Y-70425000D03*
X135050000Y-70425000D03*
X135550000Y-70425000D03*
X136050000Y-70425000D03*
X136550000Y-70425000D03*
X137050000Y-70425000D03*
D40*
X137737500Y-69737500D03*
X137737500Y-69237500D03*
X137737500Y-68737500D03*
X137737500Y-68237500D03*
X137737500Y-67737500D03*
X137737500Y-67237500D03*
X137737500Y-66737500D03*
X137737500Y-66237500D03*
X137737500Y-65737500D03*
X137737500Y-65237500D03*
X137737500Y-64737500D03*
X137737500Y-64237500D03*
%TD*%
D16*
%TO.C,C11*%
X134675000Y-56350000D03*
X132950000Y-56350000D03*
%TD*%
%TO.C,C20*%
X95200000Y-89775000D03*
X93475000Y-89775000D03*
%TD*%
D41*
%TO.C,C3*%
X138329286Y-71655596D03*
X139650714Y-72764404D03*
%TD*%
D14*
%TO.C,C18*%
X93515000Y-69995000D03*
X93515000Y-68270000D03*
%TD*%
D15*
%TO.C,R14*%
X95225000Y-86650000D03*
X93400000Y-86650000D03*
%TD*%
D21*
%TO.C,R16*%
X122800000Y-69025000D03*
X122800000Y-67200000D03*
%TD*%
%TO.C,R13*%
X96150000Y-83225000D03*
X96150000Y-81400000D03*
%TD*%
D16*
%TO.C,C15*%
X126575000Y-74425000D03*
X124850000Y-74425000D03*
%TD*%
D10*
%TO.C,R6*%
X128525000Y-73550000D03*
X128525000Y-75375000D03*
%TD*%
D13*
%TO.C,D4*%
X108225000Y-88200000D03*
X110275000Y-88200000D03*
%TD*%
D14*
%TO.C,C10*%
X129925000Y-60800000D03*
X129925000Y-59075000D03*
%TD*%
%TO.C,C13*%
X101360000Y-59790000D03*
X101360000Y-58065000D03*
%TD*%
D11*
%TO.C,R20*%
X94017500Y-62700000D03*
X95842500Y-62700000D03*
%TD*%
D15*
%TO.C,R12*%
X106112500Y-82360000D03*
X104287500Y-82360000D03*
%TD*%
M02*
