%TF.GenerationSoftware,KiCad,Pcbnew,10.0.1*%
%TF.CreationDate,2026-08-11T12:08:08-07:00*%
%TF.ProjectId,RVSP_Pocket,52565350-5f50-46f6-936b-65742e6b6963,rev?*%
%TF.SameCoordinates,Original*%
%TF.FileFunction,Legend,Top*%
%TF.FilePolarity,Positive*%
%FSLAX46Y46*%
G04 Gerber Fmt 4.6, Leading zero omitted, Abs format (unit mm)*
G04 Created by KiCad (PCBNEW 10.0.1) date 2026-08-11 12:08:08*
%MOMM*%
%LPD*%
G01*
G04 APERTURE LIST*
%ADD10C,0.100000*%
%ADD11C,0.150000*%
%ADD12C,0.120000*%
%ADD13C,0.250000*%
%ADD14C,0.060000*%
%ADD15C,0.000000*%
G04 APERTURE END LIST*
D10*
X139070000Y-55980000D02*
G75*
G02*
X138557750Y-55980000I-256125J0D01*
G01*
X138557750Y-55980000D02*
G75*
G02*
X139070000Y-55980000I256125J0D01*
G01*
D11*
X96144819Y-75886666D02*
X95668628Y-76219999D01*
X96144819Y-76458094D02*
X95144819Y-76458094D01*
X95144819Y-76458094D02*
X95144819Y-76077142D01*
X95144819Y-76077142D02*
X95192438Y-75981904D01*
X95192438Y-75981904D02*
X95240057Y-75934285D01*
X95240057Y-75934285D02*
X95335295Y-75886666D01*
X95335295Y-75886666D02*
X95478152Y-75886666D01*
X95478152Y-75886666D02*
X95573390Y-75934285D01*
X95573390Y-75934285D02*
X95621009Y-75981904D01*
X95621009Y-75981904D02*
X95668628Y-76077142D01*
X95668628Y-76077142D02*
X95668628Y-76458094D01*
X95573390Y-75315237D02*
X95525771Y-75410475D01*
X95525771Y-75410475D02*
X95478152Y-75458094D01*
X95478152Y-75458094D02*
X95382914Y-75505713D01*
X95382914Y-75505713D02*
X95335295Y-75505713D01*
X95335295Y-75505713D02*
X95240057Y-75458094D01*
X95240057Y-75458094D02*
X95192438Y-75410475D01*
X95192438Y-75410475D02*
X95144819Y-75315237D01*
X95144819Y-75315237D02*
X95144819Y-75124761D01*
X95144819Y-75124761D02*
X95192438Y-75029523D01*
X95192438Y-75029523D02*
X95240057Y-74981904D01*
X95240057Y-74981904D02*
X95335295Y-74934285D01*
X95335295Y-74934285D02*
X95382914Y-74934285D01*
X95382914Y-74934285D02*
X95478152Y-74981904D01*
X95478152Y-74981904D02*
X95525771Y-75029523D01*
X95525771Y-75029523D02*
X95573390Y-75124761D01*
X95573390Y-75124761D02*
X95573390Y-75315237D01*
X95573390Y-75315237D02*
X95621009Y-75410475D01*
X95621009Y-75410475D02*
X95668628Y-75458094D01*
X95668628Y-75458094D02*
X95763866Y-75505713D01*
X95763866Y-75505713D02*
X95954342Y-75505713D01*
X95954342Y-75505713D02*
X96049580Y-75458094D01*
X96049580Y-75458094D02*
X96097200Y-75410475D01*
X96097200Y-75410475D02*
X96144819Y-75315237D01*
X96144819Y-75315237D02*
X96144819Y-75124761D01*
X96144819Y-75124761D02*
X96097200Y-75029523D01*
X96097200Y-75029523D02*
X96049580Y-74981904D01*
X96049580Y-74981904D02*
X95954342Y-74934285D01*
X95954342Y-74934285D02*
X95763866Y-74934285D01*
X95763866Y-74934285D02*
X95668628Y-74981904D01*
X95668628Y-74981904D02*
X95621009Y-75029523D01*
X95621009Y-75029523D02*
X95573390Y-75124761D01*
X143133333Y-81644819D02*
X142800000Y-81168628D01*
X142561905Y-81644819D02*
X142561905Y-80644819D01*
X142561905Y-80644819D02*
X142942857Y-80644819D01*
X142942857Y-80644819D02*
X143038095Y-80692438D01*
X143038095Y-80692438D02*
X143085714Y-80740057D01*
X143085714Y-80740057D02*
X143133333Y-80835295D01*
X143133333Y-80835295D02*
X143133333Y-80978152D01*
X143133333Y-80978152D02*
X143085714Y-81073390D01*
X143085714Y-81073390D02*
X143038095Y-81121009D01*
X143038095Y-81121009D02*
X142942857Y-81168628D01*
X142942857Y-81168628D02*
X142561905Y-81168628D01*
X144085714Y-81644819D02*
X143514286Y-81644819D01*
X143800000Y-81644819D02*
X143800000Y-80644819D01*
X143800000Y-80644819D02*
X143704762Y-80787676D01*
X143704762Y-80787676D02*
X143609524Y-80882914D01*
X143609524Y-80882914D02*
X143514286Y-80930533D01*
X101148095Y-77254819D02*
X101719523Y-77254819D01*
X101433809Y-78254819D02*
X101433809Y-77254819D01*
X102052857Y-78254819D02*
X102052857Y-77254819D01*
X102052857Y-77254819D02*
X102433809Y-77254819D01*
X102433809Y-77254819D02*
X102529047Y-77302438D01*
X102529047Y-77302438D02*
X102576666Y-77350057D01*
X102576666Y-77350057D02*
X102624285Y-77445295D01*
X102624285Y-77445295D02*
X102624285Y-77588152D01*
X102624285Y-77588152D02*
X102576666Y-77683390D01*
X102576666Y-77683390D02*
X102529047Y-77731009D01*
X102529047Y-77731009D02*
X102433809Y-77778628D01*
X102433809Y-77778628D02*
X102052857Y-77778628D01*
X103576666Y-78254819D02*
X103005238Y-78254819D01*
X103290952Y-78254819D02*
X103290952Y-77254819D01*
X103290952Y-77254819D02*
X103195714Y-77397676D01*
X103195714Y-77397676D02*
X103100476Y-77492914D01*
X103100476Y-77492914D02*
X103005238Y-77540533D01*
X110504761Y-81765057D02*
X110409523Y-81717438D01*
X110409523Y-81717438D02*
X110314285Y-81622200D01*
X110314285Y-81622200D02*
X110171428Y-81479342D01*
X110171428Y-81479342D02*
X110076190Y-81431723D01*
X110076190Y-81431723D02*
X109980952Y-81431723D01*
X110028571Y-81669819D02*
X109933333Y-81622200D01*
X109933333Y-81622200D02*
X109838095Y-81526961D01*
X109838095Y-81526961D02*
X109790476Y-81336485D01*
X109790476Y-81336485D02*
X109790476Y-81003152D01*
X109790476Y-81003152D02*
X109838095Y-80812676D01*
X109838095Y-80812676D02*
X109933333Y-80717438D01*
X109933333Y-80717438D02*
X110028571Y-80669819D01*
X110028571Y-80669819D02*
X110219047Y-80669819D01*
X110219047Y-80669819D02*
X110314285Y-80717438D01*
X110314285Y-80717438D02*
X110409523Y-80812676D01*
X110409523Y-80812676D02*
X110457142Y-81003152D01*
X110457142Y-81003152D02*
X110457142Y-81336485D01*
X110457142Y-81336485D02*
X110409523Y-81526961D01*
X110409523Y-81526961D02*
X110314285Y-81622200D01*
X110314285Y-81622200D02*
X110219047Y-81669819D01*
X110219047Y-81669819D02*
X110028571Y-81669819D01*
X111409523Y-81669819D02*
X110838095Y-81669819D01*
X111123809Y-81669819D02*
X111123809Y-80669819D01*
X111123809Y-80669819D02*
X111028571Y-80812676D01*
X111028571Y-80812676D02*
X110933333Y-80907914D01*
X110933333Y-80907914D02*
X110838095Y-80955533D01*
X113821905Y-59119819D02*
X113821905Y-58119819D01*
X113821905Y-58119819D02*
X114060000Y-58119819D01*
X114060000Y-58119819D02*
X114202857Y-58167438D01*
X114202857Y-58167438D02*
X114298095Y-58262676D01*
X114298095Y-58262676D02*
X114345714Y-58357914D01*
X114345714Y-58357914D02*
X114393333Y-58548390D01*
X114393333Y-58548390D02*
X114393333Y-58691247D01*
X114393333Y-58691247D02*
X114345714Y-58881723D01*
X114345714Y-58881723D02*
X114298095Y-58976961D01*
X114298095Y-58976961D02*
X114202857Y-59072200D01*
X114202857Y-59072200D02*
X114060000Y-59119819D01*
X114060000Y-59119819D02*
X113821905Y-59119819D01*
X115345714Y-59119819D02*
X114774286Y-59119819D01*
X115060000Y-59119819D02*
X115060000Y-58119819D01*
X115060000Y-58119819D02*
X114964762Y-58262676D01*
X114964762Y-58262676D02*
X114869524Y-58357914D01*
X114869524Y-58357914D02*
X114774286Y-58405533D01*
X130057142Y-72549580D02*
X130009523Y-72597200D01*
X130009523Y-72597200D02*
X129866666Y-72644819D01*
X129866666Y-72644819D02*
X129771428Y-72644819D01*
X129771428Y-72644819D02*
X129628571Y-72597200D01*
X129628571Y-72597200D02*
X129533333Y-72501961D01*
X129533333Y-72501961D02*
X129485714Y-72406723D01*
X129485714Y-72406723D02*
X129438095Y-72216247D01*
X129438095Y-72216247D02*
X129438095Y-72073390D01*
X129438095Y-72073390D02*
X129485714Y-71882914D01*
X129485714Y-71882914D02*
X129533333Y-71787676D01*
X129533333Y-71787676D02*
X129628571Y-71692438D01*
X129628571Y-71692438D02*
X129771428Y-71644819D01*
X129771428Y-71644819D02*
X129866666Y-71644819D01*
X129866666Y-71644819D02*
X130009523Y-71692438D01*
X130009523Y-71692438D02*
X130057142Y-71740057D01*
X131009523Y-72644819D02*
X130438095Y-72644819D01*
X130723809Y-72644819D02*
X130723809Y-71644819D01*
X130723809Y-71644819D02*
X130628571Y-71787676D01*
X130628571Y-71787676D02*
X130533333Y-71882914D01*
X130533333Y-71882914D02*
X130438095Y-71930533D01*
X131390476Y-71740057D02*
X131438095Y-71692438D01*
X131438095Y-71692438D02*
X131533333Y-71644819D01*
X131533333Y-71644819D02*
X131771428Y-71644819D01*
X131771428Y-71644819D02*
X131866666Y-71692438D01*
X131866666Y-71692438D02*
X131914285Y-71740057D01*
X131914285Y-71740057D02*
X131961904Y-71835295D01*
X131961904Y-71835295D02*
X131961904Y-71930533D01*
X131961904Y-71930533D02*
X131914285Y-72073390D01*
X131914285Y-72073390D02*
X131342857Y-72644819D01*
X131342857Y-72644819D02*
X131961904Y-72644819D01*
X105024642Y-90384819D02*
X104691309Y-89908628D01*
X104453214Y-90384819D02*
X104453214Y-89384819D01*
X104453214Y-89384819D02*
X104834166Y-89384819D01*
X104834166Y-89384819D02*
X104929404Y-89432438D01*
X104929404Y-89432438D02*
X104977023Y-89480057D01*
X104977023Y-89480057D02*
X105024642Y-89575295D01*
X105024642Y-89575295D02*
X105024642Y-89718152D01*
X105024642Y-89718152D02*
X104977023Y-89813390D01*
X104977023Y-89813390D02*
X104929404Y-89861009D01*
X104929404Y-89861009D02*
X104834166Y-89908628D01*
X104834166Y-89908628D02*
X104453214Y-89908628D01*
X105977023Y-90384819D02*
X105405595Y-90384819D01*
X105691309Y-90384819D02*
X105691309Y-89384819D01*
X105691309Y-89384819D02*
X105596071Y-89527676D01*
X105596071Y-89527676D02*
X105500833Y-89622914D01*
X105500833Y-89622914D02*
X105405595Y-89670533D01*
X106929404Y-90384819D02*
X106357976Y-90384819D01*
X106643690Y-90384819D02*
X106643690Y-89384819D01*
X106643690Y-89384819D02*
X106548452Y-89527676D01*
X106548452Y-89527676D02*
X106453214Y-89622914D01*
X106453214Y-89622914D02*
X106357976Y-89670533D01*
X127097142Y-67179580D02*
X127049523Y-67227200D01*
X127049523Y-67227200D02*
X126906666Y-67274819D01*
X126906666Y-67274819D02*
X126811428Y-67274819D01*
X126811428Y-67274819D02*
X126668571Y-67227200D01*
X126668571Y-67227200D02*
X126573333Y-67131961D01*
X126573333Y-67131961D02*
X126525714Y-67036723D01*
X126525714Y-67036723D02*
X126478095Y-66846247D01*
X126478095Y-66846247D02*
X126478095Y-66703390D01*
X126478095Y-66703390D02*
X126525714Y-66512914D01*
X126525714Y-66512914D02*
X126573333Y-66417676D01*
X126573333Y-66417676D02*
X126668571Y-66322438D01*
X126668571Y-66322438D02*
X126811428Y-66274819D01*
X126811428Y-66274819D02*
X126906666Y-66274819D01*
X126906666Y-66274819D02*
X127049523Y-66322438D01*
X127049523Y-66322438D02*
X127097142Y-66370057D01*
X128049523Y-67274819D02*
X127478095Y-67274819D01*
X127763809Y-67274819D02*
X127763809Y-66274819D01*
X127763809Y-66274819D02*
X127668571Y-66417676D01*
X127668571Y-66417676D02*
X127573333Y-66512914D01*
X127573333Y-66512914D02*
X127478095Y-66560533D01*
X128906666Y-66274819D02*
X128716190Y-66274819D01*
X128716190Y-66274819D02*
X128620952Y-66322438D01*
X128620952Y-66322438D02*
X128573333Y-66370057D01*
X128573333Y-66370057D02*
X128478095Y-66512914D01*
X128478095Y-66512914D02*
X128430476Y-66703390D01*
X128430476Y-66703390D02*
X128430476Y-67084342D01*
X128430476Y-67084342D02*
X128478095Y-67179580D01*
X128478095Y-67179580D02*
X128525714Y-67227200D01*
X128525714Y-67227200D02*
X128620952Y-67274819D01*
X128620952Y-67274819D02*
X128811428Y-67274819D01*
X128811428Y-67274819D02*
X128906666Y-67227200D01*
X128906666Y-67227200D02*
X128954285Y-67179580D01*
X128954285Y-67179580D02*
X129001904Y-67084342D01*
X129001904Y-67084342D02*
X129001904Y-66846247D01*
X129001904Y-66846247D02*
X128954285Y-66751009D01*
X128954285Y-66751009D02*
X128906666Y-66703390D01*
X128906666Y-66703390D02*
X128811428Y-66655771D01*
X128811428Y-66655771D02*
X128620952Y-66655771D01*
X128620952Y-66655771D02*
X128525714Y-66703390D01*
X128525714Y-66703390D02*
X128478095Y-66751009D01*
X128478095Y-66751009D02*
X128430476Y-66846247D01*
X92274819Y-85822857D02*
X91798628Y-86156190D01*
X92274819Y-86394285D02*
X91274819Y-86394285D01*
X91274819Y-86394285D02*
X91274819Y-86013333D01*
X91274819Y-86013333D02*
X91322438Y-85918095D01*
X91322438Y-85918095D02*
X91370057Y-85870476D01*
X91370057Y-85870476D02*
X91465295Y-85822857D01*
X91465295Y-85822857D02*
X91608152Y-85822857D01*
X91608152Y-85822857D02*
X91703390Y-85870476D01*
X91703390Y-85870476D02*
X91751009Y-85918095D01*
X91751009Y-85918095D02*
X91798628Y-86013333D01*
X91798628Y-86013333D02*
X91798628Y-86394285D01*
X92274819Y-84870476D02*
X92274819Y-85441904D01*
X92274819Y-85156190D02*
X91274819Y-85156190D01*
X91274819Y-85156190D02*
X91417676Y-85251428D01*
X91417676Y-85251428D02*
X91512914Y-85346666D01*
X91512914Y-85346666D02*
X91560533Y-85441904D01*
X91274819Y-84537142D02*
X91274819Y-83870476D01*
X91274819Y-83870476D02*
X92274819Y-84299047D01*
X127650476Y-83164819D02*
X127650476Y-82164819D01*
X127650476Y-82164819D02*
X127983809Y-82879104D01*
X127983809Y-82879104D02*
X128317142Y-82164819D01*
X128317142Y-82164819D02*
X128317142Y-83164819D01*
X128793333Y-83164819D02*
X128793333Y-82498152D01*
X128793333Y-82164819D02*
X128745714Y-82212438D01*
X128745714Y-82212438D02*
X128793333Y-82260057D01*
X128793333Y-82260057D02*
X128840952Y-82212438D01*
X128840952Y-82212438D02*
X128793333Y-82164819D01*
X128793333Y-82164819D02*
X128793333Y-82260057D01*
X129698094Y-83117200D02*
X129602856Y-83164819D01*
X129602856Y-83164819D02*
X129412380Y-83164819D01*
X129412380Y-83164819D02*
X129317142Y-83117200D01*
X129317142Y-83117200D02*
X129269523Y-83069580D01*
X129269523Y-83069580D02*
X129221904Y-82974342D01*
X129221904Y-82974342D02*
X129221904Y-82688628D01*
X129221904Y-82688628D02*
X129269523Y-82593390D01*
X129269523Y-82593390D02*
X129317142Y-82545771D01*
X129317142Y-82545771D02*
X129412380Y-82498152D01*
X129412380Y-82498152D02*
X129602856Y-82498152D01*
X129602856Y-82498152D02*
X129698094Y-82545771D01*
X130126666Y-83164819D02*
X130126666Y-82498152D01*
X130126666Y-82688628D02*
X130174285Y-82593390D01*
X130174285Y-82593390D02*
X130221904Y-82545771D01*
X130221904Y-82545771D02*
X130317142Y-82498152D01*
X130317142Y-82498152D02*
X130412380Y-82498152D01*
X130888571Y-83164819D02*
X130793333Y-83117200D01*
X130793333Y-83117200D02*
X130745714Y-83069580D01*
X130745714Y-83069580D02*
X130698095Y-82974342D01*
X130698095Y-82974342D02*
X130698095Y-82688628D01*
X130698095Y-82688628D02*
X130745714Y-82593390D01*
X130745714Y-82593390D02*
X130793333Y-82545771D01*
X130793333Y-82545771D02*
X130888571Y-82498152D01*
X130888571Y-82498152D02*
X131031428Y-82498152D01*
X131031428Y-82498152D02*
X131126666Y-82545771D01*
X131126666Y-82545771D02*
X131174285Y-82593390D01*
X131174285Y-82593390D02*
X131221904Y-82688628D01*
X131221904Y-82688628D02*
X131221904Y-82974342D01*
X131221904Y-82974342D02*
X131174285Y-83069580D01*
X131174285Y-83069580D02*
X131126666Y-83117200D01*
X131126666Y-83117200D02*
X131031428Y-83164819D01*
X131031428Y-83164819D02*
X130888571Y-83164819D01*
X131602857Y-83117200D02*
X131745714Y-83164819D01*
X131745714Y-83164819D02*
X131983809Y-83164819D01*
X131983809Y-83164819D02*
X132079047Y-83117200D01*
X132079047Y-83117200D02*
X132126666Y-83069580D01*
X132126666Y-83069580D02*
X132174285Y-82974342D01*
X132174285Y-82974342D02*
X132174285Y-82879104D01*
X132174285Y-82879104D02*
X132126666Y-82783866D01*
X132126666Y-82783866D02*
X132079047Y-82736247D01*
X132079047Y-82736247D02*
X131983809Y-82688628D01*
X131983809Y-82688628D02*
X131793333Y-82641009D01*
X131793333Y-82641009D02*
X131698095Y-82593390D01*
X131698095Y-82593390D02*
X131650476Y-82545771D01*
X131650476Y-82545771D02*
X131602857Y-82450533D01*
X131602857Y-82450533D02*
X131602857Y-82355295D01*
X131602857Y-82355295D02*
X131650476Y-82260057D01*
X131650476Y-82260057D02*
X131698095Y-82212438D01*
X131698095Y-82212438D02*
X131793333Y-82164819D01*
X131793333Y-82164819D02*
X132031428Y-82164819D01*
X132031428Y-82164819D02*
X132174285Y-82212438D01*
X132602857Y-83164819D02*
X132602857Y-82164819D01*
X132602857Y-82164819D02*
X132840952Y-82164819D01*
X132840952Y-82164819D02*
X132983809Y-82212438D01*
X132983809Y-82212438D02*
X133079047Y-82307676D01*
X133079047Y-82307676D02*
X133126666Y-82402914D01*
X133126666Y-82402914D02*
X133174285Y-82593390D01*
X133174285Y-82593390D02*
X133174285Y-82736247D01*
X133174285Y-82736247D02*
X133126666Y-82926723D01*
X133126666Y-82926723D02*
X133079047Y-83021961D01*
X133079047Y-83021961D02*
X132983809Y-83117200D01*
X132983809Y-83117200D02*
X132840952Y-83164819D01*
X132840952Y-83164819D02*
X132602857Y-83164819D01*
X133364762Y-83260057D02*
X134126666Y-83260057D01*
X134936190Y-83069580D02*
X134888571Y-83117200D01*
X134888571Y-83117200D02*
X134745714Y-83164819D01*
X134745714Y-83164819D02*
X134650476Y-83164819D01*
X134650476Y-83164819D02*
X134507619Y-83117200D01*
X134507619Y-83117200D02*
X134412381Y-83021961D01*
X134412381Y-83021961D02*
X134364762Y-82926723D01*
X134364762Y-82926723D02*
X134317143Y-82736247D01*
X134317143Y-82736247D02*
X134317143Y-82593390D01*
X134317143Y-82593390D02*
X134364762Y-82402914D01*
X134364762Y-82402914D02*
X134412381Y-82307676D01*
X134412381Y-82307676D02*
X134507619Y-82212438D01*
X134507619Y-82212438D02*
X134650476Y-82164819D01*
X134650476Y-82164819D02*
X134745714Y-82164819D01*
X134745714Y-82164819D02*
X134888571Y-82212438D01*
X134888571Y-82212438D02*
X134936190Y-82260057D01*
X135793333Y-83164819D02*
X135793333Y-82641009D01*
X135793333Y-82641009D02*
X135745714Y-82545771D01*
X135745714Y-82545771D02*
X135650476Y-82498152D01*
X135650476Y-82498152D02*
X135460000Y-82498152D01*
X135460000Y-82498152D02*
X135364762Y-82545771D01*
X135793333Y-83117200D02*
X135698095Y-83164819D01*
X135698095Y-83164819D02*
X135460000Y-83164819D01*
X135460000Y-83164819D02*
X135364762Y-83117200D01*
X135364762Y-83117200D02*
X135317143Y-83021961D01*
X135317143Y-83021961D02*
X135317143Y-82926723D01*
X135317143Y-82926723D02*
X135364762Y-82831485D01*
X135364762Y-82831485D02*
X135460000Y-82783866D01*
X135460000Y-82783866D02*
X135698095Y-82783866D01*
X135698095Y-82783866D02*
X135793333Y-82736247D01*
X136269524Y-83164819D02*
X136269524Y-82498152D01*
X136269524Y-82688628D02*
X136317143Y-82593390D01*
X136317143Y-82593390D02*
X136364762Y-82545771D01*
X136364762Y-82545771D02*
X136460000Y-82498152D01*
X136460000Y-82498152D02*
X136555238Y-82498152D01*
X137317143Y-83164819D02*
X137317143Y-82164819D01*
X137317143Y-83117200D02*
X137221905Y-83164819D01*
X137221905Y-83164819D02*
X137031429Y-83164819D01*
X137031429Y-83164819D02*
X136936191Y-83117200D01*
X136936191Y-83117200D02*
X136888572Y-83069580D01*
X136888572Y-83069580D02*
X136840953Y-82974342D01*
X136840953Y-82974342D02*
X136840953Y-82688628D01*
X136840953Y-82688628D02*
X136888572Y-82593390D01*
X136888572Y-82593390D02*
X136936191Y-82545771D01*
X136936191Y-82545771D02*
X137031429Y-82498152D01*
X137031429Y-82498152D02*
X137221905Y-82498152D01*
X137221905Y-82498152D02*
X137317143Y-82545771D01*
X138317143Y-83164819D02*
X137745715Y-83164819D01*
X138031429Y-83164819D02*
X138031429Y-82164819D01*
X138031429Y-82164819D02*
X137936191Y-82307676D01*
X137936191Y-82307676D02*
X137840953Y-82402914D01*
X137840953Y-82402914D02*
X137745715Y-82450533D01*
X121912319Y-72387857D02*
X121436128Y-72721190D01*
X121912319Y-72959285D02*
X120912319Y-72959285D01*
X120912319Y-72959285D02*
X120912319Y-72578333D01*
X120912319Y-72578333D02*
X120959938Y-72483095D01*
X120959938Y-72483095D02*
X121007557Y-72435476D01*
X121007557Y-72435476D02*
X121102795Y-72387857D01*
X121102795Y-72387857D02*
X121245652Y-72387857D01*
X121245652Y-72387857D02*
X121340890Y-72435476D01*
X121340890Y-72435476D02*
X121388509Y-72483095D01*
X121388509Y-72483095D02*
X121436128Y-72578333D01*
X121436128Y-72578333D02*
X121436128Y-72959285D01*
X121912319Y-71435476D02*
X121912319Y-72006904D01*
X121912319Y-71721190D02*
X120912319Y-71721190D01*
X120912319Y-71721190D02*
X121055176Y-71816428D01*
X121055176Y-71816428D02*
X121150414Y-71911666D01*
X121150414Y-71911666D02*
X121198033Y-72006904D01*
X120912319Y-70530714D02*
X120912319Y-71006904D01*
X120912319Y-71006904D02*
X121388509Y-71054523D01*
X121388509Y-71054523D02*
X121340890Y-71006904D01*
X121340890Y-71006904D02*
X121293271Y-70911666D01*
X121293271Y-70911666D02*
X121293271Y-70673571D01*
X121293271Y-70673571D02*
X121340890Y-70578333D01*
X121340890Y-70578333D02*
X121388509Y-70530714D01*
X121388509Y-70530714D02*
X121483747Y-70483095D01*
X121483747Y-70483095D02*
X121721842Y-70483095D01*
X121721842Y-70483095D02*
X121817080Y-70530714D01*
X121817080Y-70530714D02*
X121864700Y-70578333D01*
X121864700Y-70578333D02*
X121912319Y-70673571D01*
X121912319Y-70673571D02*
X121912319Y-70911666D01*
X121912319Y-70911666D02*
X121864700Y-71006904D01*
X121864700Y-71006904D02*
X121817080Y-71054523D01*
X150157200Y-71803332D02*
X150204819Y-71660475D01*
X150204819Y-71660475D02*
X150204819Y-71422380D01*
X150204819Y-71422380D02*
X150157200Y-71327142D01*
X150157200Y-71327142D02*
X150109580Y-71279523D01*
X150109580Y-71279523D02*
X150014342Y-71231904D01*
X150014342Y-71231904D02*
X149919104Y-71231904D01*
X149919104Y-71231904D02*
X149823866Y-71279523D01*
X149823866Y-71279523D02*
X149776247Y-71327142D01*
X149776247Y-71327142D02*
X149728628Y-71422380D01*
X149728628Y-71422380D02*
X149681009Y-71612856D01*
X149681009Y-71612856D02*
X149633390Y-71708094D01*
X149633390Y-71708094D02*
X149585771Y-71755713D01*
X149585771Y-71755713D02*
X149490533Y-71803332D01*
X149490533Y-71803332D02*
X149395295Y-71803332D01*
X149395295Y-71803332D02*
X149300057Y-71755713D01*
X149300057Y-71755713D02*
X149252438Y-71708094D01*
X149252438Y-71708094D02*
X149204819Y-71612856D01*
X149204819Y-71612856D02*
X149204819Y-71374761D01*
X149204819Y-71374761D02*
X149252438Y-71231904D01*
X149204819Y-70898570D02*
X150204819Y-70660475D01*
X150204819Y-70660475D02*
X149490533Y-70469999D01*
X149490533Y-70469999D02*
X150204819Y-70279523D01*
X150204819Y-70279523D02*
X149204819Y-70041428D01*
X149204819Y-69231904D02*
X149204819Y-69422380D01*
X149204819Y-69422380D02*
X149252438Y-69517618D01*
X149252438Y-69517618D02*
X149300057Y-69565237D01*
X149300057Y-69565237D02*
X149442914Y-69660475D01*
X149442914Y-69660475D02*
X149633390Y-69708094D01*
X149633390Y-69708094D02*
X150014342Y-69708094D01*
X150014342Y-69708094D02*
X150109580Y-69660475D01*
X150109580Y-69660475D02*
X150157200Y-69612856D01*
X150157200Y-69612856D02*
X150204819Y-69517618D01*
X150204819Y-69517618D02*
X150204819Y-69327142D01*
X150204819Y-69327142D02*
X150157200Y-69231904D01*
X150157200Y-69231904D02*
X150109580Y-69184285D01*
X150109580Y-69184285D02*
X150014342Y-69136666D01*
X150014342Y-69136666D02*
X149776247Y-69136666D01*
X149776247Y-69136666D02*
X149681009Y-69184285D01*
X149681009Y-69184285D02*
X149633390Y-69231904D01*
X149633390Y-69231904D02*
X149585771Y-69327142D01*
X149585771Y-69327142D02*
X149585771Y-69517618D01*
X149585771Y-69517618D02*
X149633390Y-69612856D01*
X149633390Y-69612856D02*
X149681009Y-69660475D01*
X149681009Y-69660475D02*
X149776247Y-69708094D01*
X123621666Y-59438509D02*
X123288333Y-59438509D01*
X123288333Y-59962319D02*
X123288333Y-58962319D01*
X123288333Y-58962319D02*
X123764523Y-58962319D01*
X124478809Y-59438509D02*
X124621666Y-59486128D01*
X124621666Y-59486128D02*
X124669285Y-59533747D01*
X124669285Y-59533747D02*
X124716904Y-59628985D01*
X124716904Y-59628985D02*
X124716904Y-59771842D01*
X124716904Y-59771842D02*
X124669285Y-59867080D01*
X124669285Y-59867080D02*
X124621666Y-59914700D01*
X124621666Y-59914700D02*
X124526428Y-59962319D01*
X124526428Y-59962319D02*
X124145476Y-59962319D01*
X124145476Y-59962319D02*
X124145476Y-58962319D01*
X124145476Y-58962319D02*
X124478809Y-58962319D01*
X124478809Y-58962319D02*
X124574047Y-59009938D01*
X124574047Y-59009938D02*
X124621666Y-59057557D01*
X124621666Y-59057557D02*
X124669285Y-59152795D01*
X124669285Y-59152795D02*
X124669285Y-59248033D01*
X124669285Y-59248033D02*
X124621666Y-59343271D01*
X124621666Y-59343271D02*
X124574047Y-59390890D01*
X124574047Y-59390890D02*
X124478809Y-59438509D01*
X124478809Y-59438509D02*
X124145476Y-59438509D01*
X125669285Y-59962319D02*
X125097857Y-59962319D01*
X125383571Y-59962319D02*
X125383571Y-58962319D01*
X125383571Y-58962319D02*
X125288333Y-59105176D01*
X125288333Y-59105176D02*
X125193095Y-59200414D01*
X125193095Y-59200414D02*
X125097857Y-59248033D01*
X143926667Y-60387200D02*
X144069524Y-60434819D01*
X144069524Y-60434819D02*
X144307619Y-60434819D01*
X144307619Y-60434819D02*
X144402857Y-60387200D01*
X144402857Y-60387200D02*
X144450476Y-60339580D01*
X144450476Y-60339580D02*
X144498095Y-60244342D01*
X144498095Y-60244342D02*
X144498095Y-60149104D01*
X144498095Y-60149104D02*
X144450476Y-60053866D01*
X144450476Y-60053866D02*
X144402857Y-60006247D01*
X144402857Y-60006247D02*
X144307619Y-59958628D01*
X144307619Y-59958628D02*
X144117143Y-59911009D01*
X144117143Y-59911009D02*
X144021905Y-59863390D01*
X144021905Y-59863390D02*
X143974286Y-59815771D01*
X143974286Y-59815771D02*
X143926667Y-59720533D01*
X143926667Y-59720533D02*
X143926667Y-59625295D01*
X143926667Y-59625295D02*
X143974286Y-59530057D01*
X143974286Y-59530057D02*
X144021905Y-59482438D01*
X144021905Y-59482438D02*
X144117143Y-59434819D01*
X144117143Y-59434819D02*
X144355238Y-59434819D01*
X144355238Y-59434819D02*
X144498095Y-59482438D01*
X144831429Y-59434819D02*
X145069524Y-60434819D01*
X145069524Y-60434819D02*
X145260000Y-59720533D01*
X145260000Y-59720533D02*
X145450476Y-60434819D01*
X145450476Y-60434819D02*
X145688572Y-59434819D01*
X146069524Y-60434819D02*
X146069524Y-59434819D01*
X146069524Y-59434819D02*
X146307619Y-59434819D01*
X146307619Y-59434819D02*
X146450476Y-59482438D01*
X146450476Y-59482438D02*
X146545714Y-59577676D01*
X146545714Y-59577676D02*
X146593333Y-59672914D01*
X146593333Y-59672914D02*
X146640952Y-59863390D01*
X146640952Y-59863390D02*
X146640952Y-60006247D01*
X146640952Y-60006247D02*
X146593333Y-60196723D01*
X146593333Y-60196723D02*
X146545714Y-60291961D01*
X146545714Y-60291961D02*
X146450476Y-60387200D01*
X146450476Y-60387200D02*
X146307619Y-60434819D01*
X146307619Y-60434819D02*
X146069524Y-60434819D01*
X147593333Y-60434819D02*
X147021905Y-60434819D01*
X147307619Y-60434819D02*
X147307619Y-59434819D01*
X147307619Y-59434819D02*
X147212381Y-59577676D01*
X147212381Y-59577676D02*
X147117143Y-59672914D01*
X147117143Y-59672914D02*
X147021905Y-59720533D01*
X98878095Y-78854819D02*
X98878095Y-79664342D01*
X98878095Y-79664342D02*
X98925714Y-79759580D01*
X98925714Y-79759580D02*
X98973333Y-79807200D01*
X98973333Y-79807200D02*
X99068571Y-79854819D01*
X99068571Y-79854819D02*
X99259047Y-79854819D01*
X99259047Y-79854819D02*
X99354285Y-79807200D01*
X99354285Y-79807200D02*
X99401904Y-79759580D01*
X99401904Y-79759580D02*
X99449523Y-79664342D01*
X99449523Y-79664342D02*
X99449523Y-78854819D01*
X100401904Y-78854819D02*
X99925714Y-78854819D01*
X99925714Y-78854819D02*
X99878095Y-79331009D01*
X99878095Y-79331009D02*
X99925714Y-79283390D01*
X99925714Y-79283390D02*
X100020952Y-79235771D01*
X100020952Y-79235771D02*
X100259047Y-79235771D01*
X100259047Y-79235771D02*
X100354285Y-79283390D01*
X100354285Y-79283390D02*
X100401904Y-79331009D01*
X100401904Y-79331009D02*
X100449523Y-79426247D01*
X100449523Y-79426247D02*
X100449523Y-79664342D01*
X100449523Y-79664342D02*
X100401904Y-79759580D01*
X100401904Y-79759580D02*
X100354285Y-79807200D01*
X100354285Y-79807200D02*
X100259047Y-79854819D01*
X100259047Y-79854819D02*
X100020952Y-79854819D01*
X100020952Y-79854819D02*
X99925714Y-79807200D01*
X99925714Y-79807200D02*
X99878095Y-79759580D01*
X99465595Y-71244819D02*
X99465595Y-72054342D01*
X99465595Y-72054342D02*
X99513214Y-72149580D01*
X99513214Y-72149580D02*
X99560833Y-72197200D01*
X99560833Y-72197200D02*
X99656071Y-72244819D01*
X99656071Y-72244819D02*
X99846547Y-72244819D01*
X99846547Y-72244819D02*
X99941785Y-72197200D01*
X99941785Y-72197200D02*
X99989404Y-72149580D01*
X99989404Y-72149580D02*
X100037023Y-72054342D01*
X100037023Y-72054342D02*
X100037023Y-71244819D01*
X100417976Y-71244819D02*
X101037023Y-71244819D01*
X101037023Y-71244819D02*
X100703690Y-71625771D01*
X100703690Y-71625771D02*
X100846547Y-71625771D01*
X100846547Y-71625771D02*
X100941785Y-71673390D01*
X100941785Y-71673390D02*
X100989404Y-71721009D01*
X100989404Y-71721009D02*
X101037023Y-71816247D01*
X101037023Y-71816247D02*
X101037023Y-72054342D01*
X101037023Y-72054342D02*
X100989404Y-72149580D01*
X100989404Y-72149580D02*
X100941785Y-72197200D01*
X100941785Y-72197200D02*
X100846547Y-72244819D01*
X100846547Y-72244819D02*
X100560833Y-72244819D01*
X100560833Y-72244819D02*
X100465595Y-72197200D01*
X100465595Y-72197200D02*
X100417976Y-72149580D01*
X153906667Y-57307200D02*
X154049524Y-57354819D01*
X154049524Y-57354819D02*
X154287619Y-57354819D01*
X154287619Y-57354819D02*
X154382857Y-57307200D01*
X154382857Y-57307200D02*
X154430476Y-57259580D01*
X154430476Y-57259580D02*
X154478095Y-57164342D01*
X154478095Y-57164342D02*
X154478095Y-57069104D01*
X154478095Y-57069104D02*
X154430476Y-56973866D01*
X154430476Y-56973866D02*
X154382857Y-56926247D01*
X154382857Y-56926247D02*
X154287619Y-56878628D01*
X154287619Y-56878628D02*
X154097143Y-56831009D01*
X154097143Y-56831009D02*
X154001905Y-56783390D01*
X154001905Y-56783390D02*
X153954286Y-56735771D01*
X153954286Y-56735771D02*
X153906667Y-56640533D01*
X153906667Y-56640533D02*
X153906667Y-56545295D01*
X153906667Y-56545295D02*
X153954286Y-56450057D01*
X153954286Y-56450057D02*
X154001905Y-56402438D01*
X154001905Y-56402438D02*
X154097143Y-56354819D01*
X154097143Y-56354819D02*
X154335238Y-56354819D01*
X154335238Y-56354819D02*
X154478095Y-56402438D01*
X154811429Y-56354819D02*
X155049524Y-57354819D01*
X155049524Y-57354819D02*
X155240000Y-56640533D01*
X155240000Y-56640533D02*
X155430476Y-57354819D01*
X155430476Y-57354819D02*
X155668572Y-56354819D01*
X156478095Y-56688152D02*
X156478095Y-57354819D01*
X156240000Y-56307200D02*
X156001905Y-57021485D01*
X156001905Y-57021485D02*
X156620952Y-57021485D01*
X127969580Y-64466666D02*
X128017200Y-64514285D01*
X128017200Y-64514285D02*
X128064819Y-64657142D01*
X128064819Y-64657142D02*
X128064819Y-64752380D01*
X128064819Y-64752380D02*
X128017200Y-64895237D01*
X128017200Y-64895237D02*
X127921961Y-64990475D01*
X127921961Y-64990475D02*
X127826723Y-65038094D01*
X127826723Y-65038094D02*
X127636247Y-65085713D01*
X127636247Y-65085713D02*
X127493390Y-65085713D01*
X127493390Y-65085713D02*
X127302914Y-65038094D01*
X127302914Y-65038094D02*
X127207676Y-64990475D01*
X127207676Y-64990475D02*
X127112438Y-64895237D01*
X127112438Y-64895237D02*
X127064819Y-64752380D01*
X127064819Y-64752380D02*
X127064819Y-64657142D01*
X127064819Y-64657142D02*
X127112438Y-64514285D01*
X127112438Y-64514285D02*
X127160057Y-64466666D01*
X127064819Y-64133332D02*
X127064819Y-63466666D01*
X127064819Y-63466666D02*
X128064819Y-63895237D01*
X92664819Y-65272857D02*
X92188628Y-65606190D01*
X92664819Y-65844285D02*
X91664819Y-65844285D01*
X91664819Y-65844285D02*
X91664819Y-65463333D01*
X91664819Y-65463333D02*
X91712438Y-65368095D01*
X91712438Y-65368095D02*
X91760057Y-65320476D01*
X91760057Y-65320476D02*
X91855295Y-65272857D01*
X91855295Y-65272857D02*
X91998152Y-65272857D01*
X91998152Y-65272857D02*
X92093390Y-65320476D01*
X92093390Y-65320476D02*
X92141009Y-65368095D01*
X92141009Y-65368095D02*
X92188628Y-65463333D01*
X92188628Y-65463333D02*
X92188628Y-65844285D01*
X92664819Y-64320476D02*
X92664819Y-64891904D01*
X92664819Y-64606190D02*
X91664819Y-64606190D01*
X91664819Y-64606190D02*
X91807676Y-64701428D01*
X91807676Y-64701428D02*
X91902914Y-64796666D01*
X91902914Y-64796666D02*
X91950533Y-64891904D01*
X92664819Y-63844285D02*
X92664819Y-63653809D01*
X92664819Y-63653809D02*
X92617200Y-63558571D01*
X92617200Y-63558571D02*
X92569580Y-63510952D01*
X92569580Y-63510952D02*
X92426723Y-63415714D01*
X92426723Y-63415714D02*
X92236247Y-63368095D01*
X92236247Y-63368095D02*
X91855295Y-63368095D01*
X91855295Y-63368095D02*
X91760057Y-63415714D01*
X91760057Y-63415714D02*
X91712438Y-63463333D01*
X91712438Y-63463333D02*
X91664819Y-63558571D01*
X91664819Y-63558571D02*
X91664819Y-63749047D01*
X91664819Y-63749047D02*
X91712438Y-63844285D01*
X91712438Y-63844285D02*
X91760057Y-63891904D01*
X91760057Y-63891904D02*
X91855295Y-63939523D01*
X91855295Y-63939523D02*
X92093390Y-63939523D01*
X92093390Y-63939523D02*
X92188628Y-63891904D01*
X92188628Y-63891904D02*
X92236247Y-63844285D01*
X92236247Y-63844285D02*
X92283866Y-63749047D01*
X92283866Y-63749047D02*
X92283866Y-63558571D01*
X92283866Y-63558571D02*
X92236247Y-63463333D01*
X92236247Y-63463333D02*
X92188628Y-63415714D01*
X92188628Y-63415714D02*
X92093390Y-63368095D01*
X109948333Y-66669819D02*
X109472143Y-66669819D01*
X109472143Y-66669819D02*
X109472143Y-65669819D01*
X110805476Y-66669819D02*
X110234048Y-66669819D01*
X110519762Y-66669819D02*
X110519762Y-65669819D01*
X110519762Y-65669819D02*
X110424524Y-65812676D01*
X110424524Y-65812676D02*
X110329286Y-65907914D01*
X110329286Y-65907914D02*
X110234048Y-65955533D01*
X97776905Y-66769819D02*
X97776905Y-65769819D01*
X97776905Y-65769819D02*
X98015000Y-65769819D01*
X98015000Y-65769819D02*
X98157857Y-65817438D01*
X98157857Y-65817438D02*
X98253095Y-65912676D01*
X98253095Y-65912676D02*
X98300714Y-66007914D01*
X98300714Y-66007914D02*
X98348333Y-66198390D01*
X98348333Y-66198390D02*
X98348333Y-66341247D01*
X98348333Y-66341247D02*
X98300714Y-66531723D01*
X98300714Y-66531723D02*
X98253095Y-66626961D01*
X98253095Y-66626961D02*
X98157857Y-66722200D01*
X98157857Y-66722200D02*
X98015000Y-66769819D01*
X98015000Y-66769819D02*
X97776905Y-66769819D01*
X98729286Y-65865057D02*
X98776905Y-65817438D01*
X98776905Y-65817438D02*
X98872143Y-65769819D01*
X98872143Y-65769819D02*
X99110238Y-65769819D01*
X99110238Y-65769819D02*
X99205476Y-65817438D01*
X99205476Y-65817438D02*
X99253095Y-65865057D01*
X99253095Y-65865057D02*
X99300714Y-65960295D01*
X99300714Y-65960295D02*
X99300714Y-66055533D01*
X99300714Y-66055533D02*
X99253095Y-66198390D01*
X99253095Y-66198390D02*
X98681667Y-66769819D01*
X98681667Y-66769819D02*
X99300714Y-66769819D01*
X124694580Y-64416666D02*
X124742200Y-64464285D01*
X124742200Y-64464285D02*
X124789819Y-64607142D01*
X124789819Y-64607142D02*
X124789819Y-64702380D01*
X124789819Y-64702380D02*
X124742200Y-64845237D01*
X124742200Y-64845237D02*
X124646961Y-64940475D01*
X124646961Y-64940475D02*
X124551723Y-64988094D01*
X124551723Y-64988094D02*
X124361247Y-65035713D01*
X124361247Y-65035713D02*
X124218390Y-65035713D01*
X124218390Y-65035713D02*
X124027914Y-64988094D01*
X124027914Y-64988094D02*
X123932676Y-64940475D01*
X123932676Y-64940475D02*
X123837438Y-64845237D01*
X123837438Y-64845237D02*
X123789819Y-64702380D01*
X123789819Y-64702380D02*
X123789819Y-64607142D01*
X123789819Y-64607142D02*
X123837438Y-64464285D01*
X123837438Y-64464285D02*
X123885057Y-64416666D01*
X124789819Y-63940475D02*
X124789819Y-63749999D01*
X124789819Y-63749999D02*
X124742200Y-63654761D01*
X124742200Y-63654761D02*
X124694580Y-63607142D01*
X124694580Y-63607142D02*
X124551723Y-63511904D01*
X124551723Y-63511904D02*
X124361247Y-63464285D01*
X124361247Y-63464285D02*
X123980295Y-63464285D01*
X123980295Y-63464285D02*
X123885057Y-63511904D01*
X123885057Y-63511904D02*
X123837438Y-63559523D01*
X123837438Y-63559523D02*
X123789819Y-63654761D01*
X123789819Y-63654761D02*
X123789819Y-63845237D01*
X123789819Y-63845237D02*
X123837438Y-63940475D01*
X123837438Y-63940475D02*
X123885057Y-63988094D01*
X123885057Y-63988094D02*
X123980295Y-64035713D01*
X123980295Y-64035713D02*
X124218390Y-64035713D01*
X124218390Y-64035713D02*
X124313628Y-63988094D01*
X124313628Y-63988094D02*
X124361247Y-63940475D01*
X124361247Y-63940475D02*
X124408866Y-63845237D01*
X124408866Y-63845237D02*
X124408866Y-63654761D01*
X124408866Y-63654761D02*
X124361247Y-63559523D01*
X124361247Y-63559523D02*
X124313628Y-63511904D01*
X124313628Y-63511904D02*
X124218390Y-63464285D01*
X103499580Y-71982857D02*
X103547200Y-72030476D01*
X103547200Y-72030476D02*
X103594819Y-72173333D01*
X103594819Y-72173333D02*
X103594819Y-72268571D01*
X103594819Y-72268571D02*
X103547200Y-72411428D01*
X103547200Y-72411428D02*
X103451961Y-72506666D01*
X103451961Y-72506666D02*
X103356723Y-72554285D01*
X103356723Y-72554285D02*
X103166247Y-72601904D01*
X103166247Y-72601904D02*
X103023390Y-72601904D01*
X103023390Y-72601904D02*
X102832914Y-72554285D01*
X102832914Y-72554285D02*
X102737676Y-72506666D01*
X102737676Y-72506666D02*
X102642438Y-72411428D01*
X102642438Y-72411428D02*
X102594819Y-72268571D01*
X102594819Y-72268571D02*
X102594819Y-72173333D01*
X102594819Y-72173333D02*
X102642438Y-72030476D01*
X102642438Y-72030476D02*
X102690057Y-71982857D01*
X103594819Y-71030476D02*
X103594819Y-71601904D01*
X103594819Y-71316190D02*
X102594819Y-71316190D01*
X102594819Y-71316190D02*
X102737676Y-71411428D01*
X102737676Y-71411428D02*
X102832914Y-71506666D01*
X102832914Y-71506666D02*
X102880533Y-71601904D01*
X102594819Y-70697142D02*
X102594819Y-70030476D01*
X102594819Y-70030476D02*
X103594819Y-70459047D01*
X105548095Y-65054819D02*
X105548095Y-65864342D01*
X105548095Y-65864342D02*
X105595714Y-65959580D01*
X105595714Y-65959580D02*
X105643333Y-66007200D01*
X105643333Y-66007200D02*
X105738571Y-66054819D01*
X105738571Y-66054819D02*
X105929047Y-66054819D01*
X105929047Y-66054819D02*
X106024285Y-66007200D01*
X106024285Y-66007200D02*
X106071904Y-65959580D01*
X106071904Y-65959580D02*
X106119523Y-65864342D01*
X106119523Y-65864342D02*
X106119523Y-65054819D01*
X106548095Y-65150057D02*
X106595714Y-65102438D01*
X106595714Y-65102438D02*
X106690952Y-65054819D01*
X106690952Y-65054819D02*
X106929047Y-65054819D01*
X106929047Y-65054819D02*
X107024285Y-65102438D01*
X107024285Y-65102438D02*
X107071904Y-65150057D01*
X107071904Y-65150057D02*
X107119523Y-65245295D01*
X107119523Y-65245295D02*
X107119523Y-65340533D01*
X107119523Y-65340533D02*
X107071904Y-65483390D01*
X107071904Y-65483390D02*
X106500476Y-66054819D01*
X106500476Y-66054819D02*
X107119523Y-66054819D01*
X163216667Y-75477200D02*
X163359524Y-75524819D01*
X163359524Y-75524819D02*
X163597619Y-75524819D01*
X163597619Y-75524819D02*
X163692857Y-75477200D01*
X163692857Y-75477200D02*
X163740476Y-75429580D01*
X163740476Y-75429580D02*
X163788095Y-75334342D01*
X163788095Y-75334342D02*
X163788095Y-75239104D01*
X163788095Y-75239104D02*
X163740476Y-75143866D01*
X163740476Y-75143866D02*
X163692857Y-75096247D01*
X163692857Y-75096247D02*
X163597619Y-75048628D01*
X163597619Y-75048628D02*
X163407143Y-75001009D01*
X163407143Y-75001009D02*
X163311905Y-74953390D01*
X163311905Y-74953390D02*
X163264286Y-74905771D01*
X163264286Y-74905771D02*
X163216667Y-74810533D01*
X163216667Y-74810533D02*
X163216667Y-74715295D01*
X163216667Y-74715295D02*
X163264286Y-74620057D01*
X163264286Y-74620057D02*
X163311905Y-74572438D01*
X163311905Y-74572438D02*
X163407143Y-74524819D01*
X163407143Y-74524819D02*
X163645238Y-74524819D01*
X163645238Y-74524819D02*
X163788095Y-74572438D01*
X164121429Y-74524819D02*
X164359524Y-75524819D01*
X164359524Y-75524819D02*
X164550000Y-74810533D01*
X164550000Y-74810533D02*
X164740476Y-75524819D01*
X164740476Y-75524819D02*
X164978572Y-74524819D01*
X165311905Y-74620057D02*
X165359524Y-74572438D01*
X165359524Y-74572438D02*
X165454762Y-74524819D01*
X165454762Y-74524819D02*
X165692857Y-74524819D01*
X165692857Y-74524819D02*
X165788095Y-74572438D01*
X165788095Y-74572438D02*
X165835714Y-74620057D01*
X165835714Y-74620057D02*
X165883333Y-74715295D01*
X165883333Y-74715295D02*
X165883333Y-74810533D01*
X165883333Y-74810533D02*
X165835714Y-74953390D01*
X165835714Y-74953390D02*
X165264286Y-75524819D01*
X165264286Y-75524819D02*
X165883333Y-75524819D01*
X148643333Y-81444819D02*
X148310000Y-80968628D01*
X148071905Y-81444819D02*
X148071905Y-80444819D01*
X148071905Y-80444819D02*
X148452857Y-80444819D01*
X148452857Y-80444819D02*
X148548095Y-80492438D01*
X148548095Y-80492438D02*
X148595714Y-80540057D01*
X148595714Y-80540057D02*
X148643333Y-80635295D01*
X148643333Y-80635295D02*
X148643333Y-80778152D01*
X148643333Y-80778152D02*
X148595714Y-80873390D01*
X148595714Y-80873390D02*
X148548095Y-80921009D01*
X148548095Y-80921009D02*
X148452857Y-80968628D01*
X148452857Y-80968628D02*
X148071905Y-80968628D01*
X149024286Y-80540057D02*
X149071905Y-80492438D01*
X149071905Y-80492438D02*
X149167143Y-80444819D01*
X149167143Y-80444819D02*
X149405238Y-80444819D01*
X149405238Y-80444819D02*
X149500476Y-80492438D01*
X149500476Y-80492438D02*
X149548095Y-80540057D01*
X149548095Y-80540057D02*
X149595714Y-80635295D01*
X149595714Y-80635295D02*
X149595714Y-80730533D01*
X149595714Y-80730533D02*
X149548095Y-80873390D01*
X149548095Y-80873390D02*
X148976667Y-81444819D01*
X148976667Y-81444819D02*
X149595714Y-81444819D01*
X139583333Y-62599580D02*
X139535714Y-62647200D01*
X139535714Y-62647200D02*
X139392857Y-62694819D01*
X139392857Y-62694819D02*
X139297619Y-62694819D01*
X139297619Y-62694819D02*
X139154762Y-62647200D01*
X139154762Y-62647200D02*
X139059524Y-62551961D01*
X139059524Y-62551961D02*
X139011905Y-62456723D01*
X139011905Y-62456723D02*
X138964286Y-62266247D01*
X138964286Y-62266247D02*
X138964286Y-62123390D01*
X138964286Y-62123390D02*
X139011905Y-61932914D01*
X139011905Y-61932914D02*
X139059524Y-61837676D01*
X139059524Y-61837676D02*
X139154762Y-61742438D01*
X139154762Y-61742438D02*
X139297619Y-61694819D01*
X139297619Y-61694819D02*
X139392857Y-61694819D01*
X139392857Y-61694819D02*
X139535714Y-61742438D01*
X139535714Y-61742438D02*
X139583333Y-61790057D01*
X139964286Y-61790057D02*
X140011905Y-61742438D01*
X140011905Y-61742438D02*
X140107143Y-61694819D01*
X140107143Y-61694819D02*
X140345238Y-61694819D01*
X140345238Y-61694819D02*
X140440476Y-61742438D01*
X140440476Y-61742438D02*
X140488095Y-61790057D01*
X140488095Y-61790057D02*
X140535714Y-61885295D01*
X140535714Y-61885295D02*
X140535714Y-61980533D01*
X140535714Y-61980533D02*
X140488095Y-62123390D01*
X140488095Y-62123390D02*
X139916667Y-62694819D01*
X139916667Y-62694819D02*
X140535714Y-62694819D01*
X91884819Y-74431904D02*
X91884819Y-73860476D01*
X92884819Y-74146190D02*
X91884819Y-74146190D01*
X92884819Y-73527142D02*
X91884819Y-73527142D01*
X91884819Y-73527142D02*
X91884819Y-73146190D01*
X91884819Y-73146190D02*
X91932438Y-73050952D01*
X91932438Y-73050952D02*
X91980057Y-73003333D01*
X91980057Y-73003333D02*
X92075295Y-72955714D01*
X92075295Y-72955714D02*
X92218152Y-72955714D01*
X92218152Y-72955714D02*
X92313390Y-73003333D01*
X92313390Y-73003333D02*
X92361009Y-73050952D01*
X92361009Y-73050952D02*
X92408628Y-73146190D01*
X92408628Y-73146190D02*
X92408628Y-73527142D01*
X91980057Y-72574761D02*
X91932438Y-72527142D01*
X91932438Y-72527142D02*
X91884819Y-72431904D01*
X91884819Y-72431904D02*
X91884819Y-72193809D01*
X91884819Y-72193809D02*
X91932438Y-72098571D01*
X91932438Y-72098571D02*
X91980057Y-72050952D01*
X91980057Y-72050952D02*
X92075295Y-72003333D01*
X92075295Y-72003333D02*
X92170533Y-72003333D01*
X92170533Y-72003333D02*
X92313390Y-72050952D01*
X92313390Y-72050952D02*
X92884819Y-72622380D01*
X92884819Y-72622380D02*
X92884819Y-72003333D01*
X104917142Y-87454819D02*
X104583809Y-86978628D01*
X104345714Y-87454819D02*
X104345714Y-86454819D01*
X104345714Y-86454819D02*
X104726666Y-86454819D01*
X104726666Y-86454819D02*
X104821904Y-86502438D01*
X104821904Y-86502438D02*
X104869523Y-86550057D01*
X104869523Y-86550057D02*
X104917142Y-86645295D01*
X104917142Y-86645295D02*
X104917142Y-86788152D01*
X104917142Y-86788152D02*
X104869523Y-86883390D01*
X104869523Y-86883390D02*
X104821904Y-86931009D01*
X104821904Y-86931009D02*
X104726666Y-86978628D01*
X104726666Y-86978628D02*
X104345714Y-86978628D01*
X105869523Y-87454819D02*
X105298095Y-87454819D01*
X105583809Y-87454819D02*
X105583809Y-86454819D01*
X105583809Y-86454819D02*
X105488571Y-86597676D01*
X105488571Y-86597676D02*
X105393333Y-86692914D01*
X105393333Y-86692914D02*
X105298095Y-86740533D01*
X106488571Y-86454819D02*
X106583809Y-86454819D01*
X106583809Y-86454819D02*
X106679047Y-86502438D01*
X106679047Y-86502438D02*
X106726666Y-86550057D01*
X106726666Y-86550057D02*
X106774285Y-86645295D01*
X106774285Y-86645295D02*
X106821904Y-86835771D01*
X106821904Y-86835771D02*
X106821904Y-87073866D01*
X106821904Y-87073866D02*
X106774285Y-87264342D01*
X106774285Y-87264342D02*
X106726666Y-87359580D01*
X106726666Y-87359580D02*
X106679047Y-87407200D01*
X106679047Y-87407200D02*
X106583809Y-87454819D01*
X106583809Y-87454819D02*
X106488571Y-87454819D01*
X106488571Y-87454819D02*
X106393333Y-87407200D01*
X106393333Y-87407200D02*
X106345714Y-87359580D01*
X106345714Y-87359580D02*
X106298095Y-87264342D01*
X106298095Y-87264342D02*
X106250476Y-87073866D01*
X106250476Y-87073866D02*
X106250476Y-86835771D01*
X106250476Y-86835771D02*
X106298095Y-86645295D01*
X106298095Y-86645295D02*
X106345714Y-86550057D01*
X106345714Y-86550057D02*
X106393333Y-86502438D01*
X106393333Y-86502438D02*
X106488571Y-86454819D01*
X94011785Y-57154819D02*
X94011785Y-57964342D01*
X94011785Y-57964342D02*
X94059404Y-58059580D01*
X94059404Y-58059580D02*
X94107023Y-58107200D01*
X94107023Y-58107200D02*
X94202261Y-58154819D01*
X94202261Y-58154819D02*
X94392737Y-58154819D01*
X94392737Y-58154819D02*
X94487975Y-58107200D01*
X94487975Y-58107200D02*
X94535594Y-58059580D01*
X94535594Y-58059580D02*
X94583213Y-57964342D01*
X94583213Y-57964342D02*
X94583213Y-57154819D01*
X95487975Y-57154819D02*
X95297499Y-57154819D01*
X95297499Y-57154819D02*
X95202261Y-57202438D01*
X95202261Y-57202438D02*
X95154642Y-57250057D01*
X95154642Y-57250057D02*
X95059404Y-57392914D01*
X95059404Y-57392914D02*
X95011785Y-57583390D01*
X95011785Y-57583390D02*
X95011785Y-57964342D01*
X95011785Y-57964342D02*
X95059404Y-58059580D01*
X95059404Y-58059580D02*
X95107023Y-58107200D01*
X95107023Y-58107200D02*
X95202261Y-58154819D01*
X95202261Y-58154819D02*
X95392737Y-58154819D01*
X95392737Y-58154819D02*
X95487975Y-58107200D01*
X95487975Y-58107200D02*
X95535594Y-58059580D01*
X95535594Y-58059580D02*
X95583213Y-57964342D01*
X95583213Y-57964342D02*
X95583213Y-57726247D01*
X95583213Y-57726247D02*
X95535594Y-57631009D01*
X95535594Y-57631009D02*
X95487975Y-57583390D01*
X95487975Y-57583390D02*
X95392737Y-57535771D01*
X95392737Y-57535771D02*
X95202261Y-57535771D01*
X95202261Y-57535771D02*
X95107023Y-57583390D01*
X95107023Y-57583390D02*
X95059404Y-57631009D01*
X95059404Y-57631009D02*
X95011785Y-57726247D01*
X95944819Y-78516666D02*
X95468628Y-78849999D01*
X95944819Y-79088094D02*
X94944819Y-79088094D01*
X94944819Y-79088094D02*
X94944819Y-78707142D01*
X94944819Y-78707142D02*
X94992438Y-78611904D01*
X94992438Y-78611904D02*
X95040057Y-78564285D01*
X95040057Y-78564285D02*
X95135295Y-78516666D01*
X95135295Y-78516666D02*
X95278152Y-78516666D01*
X95278152Y-78516666D02*
X95373390Y-78564285D01*
X95373390Y-78564285D02*
X95421009Y-78611904D01*
X95421009Y-78611904D02*
X95468628Y-78707142D01*
X95468628Y-78707142D02*
X95468628Y-79088094D01*
X95944819Y-78040475D02*
X95944819Y-77849999D01*
X95944819Y-77849999D02*
X95897200Y-77754761D01*
X95897200Y-77754761D02*
X95849580Y-77707142D01*
X95849580Y-77707142D02*
X95706723Y-77611904D01*
X95706723Y-77611904D02*
X95516247Y-77564285D01*
X95516247Y-77564285D02*
X95135295Y-77564285D01*
X95135295Y-77564285D02*
X95040057Y-77611904D01*
X95040057Y-77611904D02*
X94992438Y-77659523D01*
X94992438Y-77659523D02*
X94944819Y-77754761D01*
X94944819Y-77754761D02*
X94944819Y-77945237D01*
X94944819Y-77945237D02*
X94992438Y-78040475D01*
X94992438Y-78040475D02*
X95040057Y-78088094D01*
X95040057Y-78088094D02*
X95135295Y-78135713D01*
X95135295Y-78135713D02*
X95373390Y-78135713D01*
X95373390Y-78135713D02*
X95468628Y-78088094D01*
X95468628Y-78088094D02*
X95516247Y-78040475D01*
X95516247Y-78040475D02*
X95563866Y-77945237D01*
X95563866Y-77945237D02*
X95563866Y-77754761D01*
X95563866Y-77754761D02*
X95516247Y-77659523D01*
X95516247Y-77659523D02*
X95468628Y-77611904D01*
X95468628Y-77611904D02*
X95373390Y-77564285D01*
X136603333Y-75667319D02*
X136270000Y-75191128D01*
X136031905Y-75667319D02*
X136031905Y-74667319D01*
X136031905Y-74667319D02*
X136412857Y-74667319D01*
X136412857Y-74667319D02*
X136508095Y-74714938D01*
X136508095Y-74714938D02*
X136555714Y-74762557D01*
X136555714Y-74762557D02*
X136603333Y-74857795D01*
X136603333Y-74857795D02*
X136603333Y-75000652D01*
X136603333Y-75000652D02*
X136555714Y-75095890D01*
X136555714Y-75095890D02*
X136508095Y-75143509D01*
X136508095Y-75143509D02*
X136412857Y-75191128D01*
X136412857Y-75191128D02*
X136031905Y-75191128D01*
X137460476Y-75000652D02*
X137460476Y-75667319D01*
X137222381Y-74619700D02*
X136984286Y-75333985D01*
X136984286Y-75333985D02*
X137603333Y-75333985D01*
X138633333Y-60059580D02*
X138585714Y-60107200D01*
X138585714Y-60107200D02*
X138442857Y-60154819D01*
X138442857Y-60154819D02*
X138347619Y-60154819D01*
X138347619Y-60154819D02*
X138204762Y-60107200D01*
X138204762Y-60107200D02*
X138109524Y-60011961D01*
X138109524Y-60011961D02*
X138061905Y-59916723D01*
X138061905Y-59916723D02*
X138014286Y-59726247D01*
X138014286Y-59726247D02*
X138014286Y-59583390D01*
X138014286Y-59583390D02*
X138061905Y-59392914D01*
X138061905Y-59392914D02*
X138109524Y-59297676D01*
X138109524Y-59297676D02*
X138204762Y-59202438D01*
X138204762Y-59202438D02*
X138347619Y-59154819D01*
X138347619Y-59154819D02*
X138442857Y-59154819D01*
X138442857Y-59154819D02*
X138585714Y-59202438D01*
X138585714Y-59202438D02*
X138633333Y-59250057D01*
X139538095Y-59154819D02*
X139061905Y-59154819D01*
X139061905Y-59154819D02*
X139014286Y-59631009D01*
X139014286Y-59631009D02*
X139061905Y-59583390D01*
X139061905Y-59583390D02*
X139157143Y-59535771D01*
X139157143Y-59535771D02*
X139395238Y-59535771D01*
X139395238Y-59535771D02*
X139490476Y-59583390D01*
X139490476Y-59583390D02*
X139538095Y-59631009D01*
X139538095Y-59631009D02*
X139585714Y-59726247D01*
X139585714Y-59726247D02*
X139585714Y-59964342D01*
X139585714Y-59964342D02*
X139538095Y-60059580D01*
X139538095Y-60059580D02*
X139490476Y-60107200D01*
X139490476Y-60107200D02*
X139395238Y-60154819D01*
X139395238Y-60154819D02*
X139157143Y-60154819D01*
X139157143Y-60154819D02*
X139061905Y-60107200D01*
X139061905Y-60107200D02*
X139014286Y-60059580D01*
X144670952Y-88014819D02*
X144670952Y-88824342D01*
X144670952Y-88824342D02*
X144718571Y-88919580D01*
X144718571Y-88919580D02*
X144766190Y-88967200D01*
X144766190Y-88967200D02*
X144861428Y-89014819D01*
X144861428Y-89014819D02*
X145051904Y-89014819D01*
X145051904Y-89014819D02*
X145147142Y-88967200D01*
X145147142Y-88967200D02*
X145194761Y-88919580D01*
X145194761Y-88919580D02*
X145242380Y-88824342D01*
X145242380Y-88824342D02*
X145242380Y-88014819D01*
X145670952Y-88967200D02*
X145813809Y-89014819D01*
X145813809Y-89014819D02*
X146051904Y-89014819D01*
X146051904Y-89014819D02*
X146147142Y-88967200D01*
X146147142Y-88967200D02*
X146194761Y-88919580D01*
X146194761Y-88919580D02*
X146242380Y-88824342D01*
X146242380Y-88824342D02*
X146242380Y-88729104D01*
X146242380Y-88729104D02*
X146194761Y-88633866D01*
X146194761Y-88633866D02*
X146147142Y-88586247D01*
X146147142Y-88586247D02*
X146051904Y-88538628D01*
X146051904Y-88538628D02*
X145861428Y-88491009D01*
X145861428Y-88491009D02*
X145766190Y-88443390D01*
X145766190Y-88443390D02*
X145718571Y-88395771D01*
X145718571Y-88395771D02*
X145670952Y-88300533D01*
X145670952Y-88300533D02*
X145670952Y-88205295D01*
X145670952Y-88205295D02*
X145718571Y-88110057D01*
X145718571Y-88110057D02*
X145766190Y-88062438D01*
X145766190Y-88062438D02*
X145861428Y-88014819D01*
X145861428Y-88014819D02*
X146099523Y-88014819D01*
X146099523Y-88014819D02*
X146242380Y-88062438D01*
X147004285Y-88491009D02*
X147147142Y-88538628D01*
X147147142Y-88538628D02*
X147194761Y-88586247D01*
X147194761Y-88586247D02*
X147242380Y-88681485D01*
X147242380Y-88681485D02*
X147242380Y-88824342D01*
X147242380Y-88824342D02*
X147194761Y-88919580D01*
X147194761Y-88919580D02*
X147147142Y-88967200D01*
X147147142Y-88967200D02*
X147051904Y-89014819D01*
X147051904Y-89014819D02*
X146670952Y-89014819D01*
X146670952Y-89014819D02*
X146670952Y-88014819D01*
X146670952Y-88014819D02*
X147004285Y-88014819D01*
X147004285Y-88014819D02*
X147099523Y-88062438D01*
X147099523Y-88062438D02*
X147147142Y-88110057D01*
X147147142Y-88110057D02*
X147194761Y-88205295D01*
X147194761Y-88205295D02*
X147194761Y-88300533D01*
X147194761Y-88300533D02*
X147147142Y-88395771D01*
X147147142Y-88395771D02*
X147099523Y-88443390D01*
X147099523Y-88443390D02*
X147004285Y-88491009D01*
X147004285Y-88491009D02*
X146670952Y-88491009D01*
X147432857Y-89110057D02*
X148194761Y-89110057D01*
X149004285Y-88919580D02*
X148956666Y-88967200D01*
X148956666Y-88967200D02*
X148813809Y-89014819D01*
X148813809Y-89014819D02*
X148718571Y-89014819D01*
X148718571Y-89014819D02*
X148575714Y-88967200D01*
X148575714Y-88967200D02*
X148480476Y-88871961D01*
X148480476Y-88871961D02*
X148432857Y-88776723D01*
X148432857Y-88776723D02*
X148385238Y-88586247D01*
X148385238Y-88586247D02*
X148385238Y-88443390D01*
X148385238Y-88443390D02*
X148432857Y-88252914D01*
X148432857Y-88252914D02*
X148480476Y-88157676D01*
X148480476Y-88157676D02*
X148575714Y-88062438D01*
X148575714Y-88062438D02*
X148718571Y-88014819D01*
X148718571Y-88014819D02*
X148813809Y-88014819D01*
X148813809Y-88014819D02*
X148956666Y-88062438D01*
X148956666Y-88062438D02*
X149004285Y-88110057D01*
X149956666Y-89014819D02*
X149385238Y-89014819D01*
X149670952Y-89014819D02*
X149670952Y-88014819D01*
X149670952Y-88014819D02*
X149575714Y-88157676D01*
X149575714Y-88157676D02*
X149480476Y-88252914D01*
X149480476Y-88252914D02*
X149385238Y-88300533D01*
X143666667Y-70632200D02*
X143809524Y-70679819D01*
X143809524Y-70679819D02*
X144047619Y-70679819D01*
X144047619Y-70679819D02*
X144142857Y-70632200D01*
X144142857Y-70632200D02*
X144190476Y-70584580D01*
X144190476Y-70584580D02*
X144238095Y-70489342D01*
X144238095Y-70489342D02*
X144238095Y-70394104D01*
X144238095Y-70394104D02*
X144190476Y-70298866D01*
X144190476Y-70298866D02*
X144142857Y-70251247D01*
X144142857Y-70251247D02*
X144047619Y-70203628D01*
X144047619Y-70203628D02*
X143857143Y-70156009D01*
X143857143Y-70156009D02*
X143761905Y-70108390D01*
X143761905Y-70108390D02*
X143714286Y-70060771D01*
X143714286Y-70060771D02*
X143666667Y-69965533D01*
X143666667Y-69965533D02*
X143666667Y-69870295D01*
X143666667Y-69870295D02*
X143714286Y-69775057D01*
X143714286Y-69775057D02*
X143761905Y-69727438D01*
X143761905Y-69727438D02*
X143857143Y-69679819D01*
X143857143Y-69679819D02*
X144095238Y-69679819D01*
X144095238Y-69679819D02*
X144238095Y-69727438D01*
X144571429Y-69679819D02*
X144809524Y-70679819D01*
X144809524Y-70679819D02*
X145000000Y-69965533D01*
X145000000Y-69965533D02*
X145190476Y-70679819D01*
X145190476Y-70679819D02*
X145428572Y-69679819D01*
X146333333Y-70679819D02*
X145761905Y-70679819D01*
X146047619Y-70679819D02*
X146047619Y-69679819D01*
X146047619Y-69679819D02*
X145952381Y-69822676D01*
X145952381Y-69822676D02*
X145857143Y-69917914D01*
X145857143Y-69917914D02*
X145761905Y-69965533D01*
X115344819Y-63916666D02*
X114868628Y-64249999D01*
X115344819Y-64488094D02*
X114344819Y-64488094D01*
X114344819Y-64488094D02*
X114344819Y-64107142D01*
X114344819Y-64107142D02*
X114392438Y-64011904D01*
X114392438Y-64011904D02*
X114440057Y-63964285D01*
X114440057Y-63964285D02*
X114535295Y-63916666D01*
X114535295Y-63916666D02*
X114678152Y-63916666D01*
X114678152Y-63916666D02*
X114773390Y-63964285D01*
X114773390Y-63964285D02*
X114821009Y-64011904D01*
X114821009Y-64011904D02*
X114868628Y-64107142D01*
X114868628Y-64107142D02*
X114868628Y-64488094D01*
X114344819Y-63583332D02*
X114344819Y-62964285D01*
X114344819Y-62964285D02*
X114725771Y-63297618D01*
X114725771Y-63297618D02*
X114725771Y-63154761D01*
X114725771Y-63154761D02*
X114773390Y-63059523D01*
X114773390Y-63059523D02*
X114821009Y-63011904D01*
X114821009Y-63011904D02*
X114916247Y-62964285D01*
X114916247Y-62964285D02*
X115154342Y-62964285D01*
X115154342Y-62964285D02*
X115249580Y-63011904D01*
X115249580Y-63011904D02*
X115297200Y-63059523D01*
X115297200Y-63059523D02*
X115344819Y-63154761D01*
X115344819Y-63154761D02*
X115344819Y-63440475D01*
X115344819Y-63440475D02*
X115297200Y-63535713D01*
X115297200Y-63535713D02*
X115249580Y-63583332D01*
X153826667Y-83537200D02*
X153969524Y-83584819D01*
X153969524Y-83584819D02*
X154207619Y-83584819D01*
X154207619Y-83584819D02*
X154302857Y-83537200D01*
X154302857Y-83537200D02*
X154350476Y-83489580D01*
X154350476Y-83489580D02*
X154398095Y-83394342D01*
X154398095Y-83394342D02*
X154398095Y-83299104D01*
X154398095Y-83299104D02*
X154350476Y-83203866D01*
X154350476Y-83203866D02*
X154302857Y-83156247D01*
X154302857Y-83156247D02*
X154207619Y-83108628D01*
X154207619Y-83108628D02*
X154017143Y-83061009D01*
X154017143Y-83061009D02*
X153921905Y-83013390D01*
X153921905Y-83013390D02*
X153874286Y-82965771D01*
X153874286Y-82965771D02*
X153826667Y-82870533D01*
X153826667Y-82870533D02*
X153826667Y-82775295D01*
X153826667Y-82775295D02*
X153874286Y-82680057D01*
X153874286Y-82680057D02*
X153921905Y-82632438D01*
X153921905Y-82632438D02*
X154017143Y-82584819D01*
X154017143Y-82584819D02*
X154255238Y-82584819D01*
X154255238Y-82584819D02*
X154398095Y-82632438D01*
X154731429Y-82584819D02*
X154969524Y-83584819D01*
X154969524Y-83584819D02*
X155160000Y-82870533D01*
X155160000Y-82870533D02*
X155350476Y-83584819D01*
X155350476Y-83584819D02*
X155588572Y-82584819D01*
X155874286Y-82584819D02*
X156493333Y-82584819D01*
X156493333Y-82584819D02*
X156160000Y-82965771D01*
X156160000Y-82965771D02*
X156302857Y-82965771D01*
X156302857Y-82965771D02*
X156398095Y-83013390D01*
X156398095Y-83013390D02*
X156445714Y-83061009D01*
X156445714Y-83061009D02*
X156493333Y-83156247D01*
X156493333Y-83156247D02*
X156493333Y-83394342D01*
X156493333Y-83394342D02*
X156445714Y-83489580D01*
X156445714Y-83489580D02*
X156398095Y-83537200D01*
X156398095Y-83537200D02*
X156302857Y-83584819D01*
X156302857Y-83584819D02*
X156017143Y-83584819D01*
X156017143Y-83584819D02*
X155921905Y-83537200D01*
X155921905Y-83537200D02*
X155874286Y-83489580D01*
X129093333Y-64264580D02*
X129045714Y-64312200D01*
X129045714Y-64312200D02*
X128902857Y-64359819D01*
X128902857Y-64359819D02*
X128807619Y-64359819D01*
X128807619Y-64359819D02*
X128664762Y-64312200D01*
X128664762Y-64312200D02*
X128569524Y-64216961D01*
X128569524Y-64216961D02*
X128521905Y-64121723D01*
X128521905Y-64121723D02*
X128474286Y-63931247D01*
X128474286Y-63931247D02*
X128474286Y-63788390D01*
X128474286Y-63788390D02*
X128521905Y-63597914D01*
X128521905Y-63597914D02*
X128569524Y-63502676D01*
X128569524Y-63502676D02*
X128664762Y-63407438D01*
X128664762Y-63407438D02*
X128807619Y-63359819D01*
X128807619Y-63359819D02*
X128902857Y-63359819D01*
X128902857Y-63359819D02*
X129045714Y-63407438D01*
X129045714Y-63407438D02*
X129093333Y-63455057D01*
X129664762Y-63788390D02*
X129569524Y-63740771D01*
X129569524Y-63740771D02*
X129521905Y-63693152D01*
X129521905Y-63693152D02*
X129474286Y-63597914D01*
X129474286Y-63597914D02*
X129474286Y-63550295D01*
X129474286Y-63550295D02*
X129521905Y-63455057D01*
X129521905Y-63455057D02*
X129569524Y-63407438D01*
X129569524Y-63407438D02*
X129664762Y-63359819D01*
X129664762Y-63359819D02*
X129855238Y-63359819D01*
X129855238Y-63359819D02*
X129950476Y-63407438D01*
X129950476Y-63407438D02*
X129998095Y-63455057D01*
X129998095Y-63455057D02*
X130045714Y-63550295D01*
X130045714Y-63550295D02*
X130045714Y-63597914D01*
X130045714Y-63597914D02*
X129998095Y-63693152D01*
X129998095Y-63693152D02*
X129950476Y-63740771D01*
X129950476Y-63740771D02*
X129855238Y-63788390D01*
X129855238Y-63788390D02*
X129664762Y-63788390D01*
X129664762Y-63788390D02*
X129569524Y-63836009D01*
X129569524Y-63836009D02*
X129521905Y-63883628D01*
X129521905Y-63883628D02*
X129474286Y-63978866D01*
X129474286Y-63978866D02*
X129474286Y-64169342D01*
X129474286Y-64169342D02*
X129521905Y-64264580D01*
X129521905Y-64264580D02*
X129569524Y-64312200D01*
X129569524Y-64312200D02*
X129664762Y-64359819D01*
X129664762Y-64359819D02*
X129855238Y-64359819D01*
X129855238Y-64359819D02*
X129950476Y-64312200D01*
X129950476Y-64312200D02*
X129998095Y-64264580D01*
X129998095Y-64264580D02*
X130045714Y-64169342D01*
X130045714Y-64169342D02*
X130045714Y-63978866D01*
X130045714Y-63978866D02*
X129998095Y-63883628D01*
X129998095Y-63883628D02*
X129950476Y-63836009D01*
X129950476Y-63836009D02*
X129855238Y-63788390D01*
X137083333Y-56089580D02*
X137035714Y-56137200D01*
X137035714Y-56137200D02*
X136892857Y-56184819D01*
X136892857Y-56184819D02*
X136797619Y-56184819D01*
X136797619Y-56184819D02*
X136654762Y-56137200D01*
X136654762Y-56137200D02*
X136559524Y-56041961D01*
X136559524Y-56041961D02*
X136511905Y-55946723D01*
X136511905Y-55946723D02*
X136464286Y-55756247D01*
X136464286Y-55756247D02*
X136464286Y-55613390D01*
X136464286Y-55613390D02*
X136511905Y-55422914D01*
X136511905Y-55422914D02*
X136559524Y-55327676D01*
X136559524Y-55327676D02*
X136654762Y-55232438D01*
X136654762Y-55232438D02*
X136797619Y-55184819D01*
X136797619Y-55184819D02*
X136892857Y-55184819D01*
X136892857Y-55184819D02*
X137035714Y-55232438D01*
X137035714Y-55232438D02*
X137083333Y-55280057D01*
X138035714Y-56184819D02*
X137464286Y-56184819D01*
X137750000Y-56184819D02*
X137750000Y-55184819D01*
X137750000Y-55184819D02*
X137654762Y-55327676D01*
X137654762Y-55327676D02*
X137559524Y-55422914D01*
X137559524Y-55422914D02*
X137464286Y-55470533D01*
X113534760Y-86481009D02*
X113677617Y-86528628D01*
X113677617Y-86528628D02*
X113725236Y-86576247D01*
X113725236Y-86576247D02*
X113772855Y-86671485D01*
X113772855Y-86671485D02*
X113772855Y-86814342D01*
X113772855Y-86814342D02*
X113725236Y-86909580D01*
X113725236Y-86909580D02*
X113677617Y-86957200D01*
X113677617Y-86957200D02*
X113582379Y-87004819D01*
X113582379Y-87004819D02*
X113201427Y-87004819D01*
X113201427Y-87004819D02*
X113201427Y-86004819D01*
X113201427Y-86004819D02*
X113534760Y-86004819D01*
X113534760Y-86004819D02*
X113629998Y-86052438D01*
X113629998Y-86052438D02*
X113677617Y-86100057D01*
X113677617Y-86100057D02*
X113725236Y-86195295D01*
X113725236Y-86195295D02*
X113725236Y-86290533D01*
X113725236Y-86290533D02*
X113677617Y-86385771D01*
X113677617Y-86385771D02*
X113629998Y-86433390D01*
X113629998Y-86433390D02*
X113534760Y-86481009D01*
X113534760Y-86481009D02*
X113201427Y-86481009D01*
X114629998Y-87004819D02*
X114629998Y-86481009D01*
X114629998Y-86481009D02*
X114582379Y-86385771D01*
X114582379Y-86385771D02*
X114487141Y-86338152D01*
X114487141Y-86338152D02*
X114296665Y-86338152D01*
X114296665Y-86338152D02*
X114201427Y-86385771D01*
X114629998Y-86957200D02*
X114534760Y-87004819D01*
X114534760Y-87004819D02*
X114296665Y-87004819D01*
X114296665Y-87004819D02*
X114201427Y-86957200D01*
X114201427Y-86957200D02*
X114153808Y-86861961D01*
X114153808Y-86861961D02*
X114153808Y-86766723D01*
X114153808Y-86766723D02*
X114201427Y-86671485D01*
X114201427Y-86671485D02*
X114296665Y-86623866D01*
X114296665Y-86623866D02*
X114534760Y-86623866D01*
X114534760Y-86623866D02*
X114629998Y-86576247D01*
X114963332Y-86338152D02*
X115344284Y-86338152D01*
X115106189Y-86004819D02*
X115106189Y-86861961D01*
X115106189Y-86861961D02*
X115153808Y-86957200D01*
X115153808Y-86957200D02*
X115249046Y-87004819D01*
X115249046Y-87004819D02*
X115344284Y-87004819D01*
X115534761Y-86338152D02*
X115915713Y-86338152D01*
X115677618Y-86004819D02*
X115677618Y-86861961D01*
X115677618Y-86861961D02*
X115725237Y-86957200D01*
X115725237Y-86957200D02*
X115820475Y-87004819D01*
X115820475Y-87004819D02*
X115915713Y-87004819D01*
X116629999Y-86957200D02*
X116534761Y-87004819D01*
X116534761Y-87004819D02*
X116344285Y-87004819D01*
X116344285Y-87004819D02*
X116249047Y-86957200D01*
X116249047Y-86957200D02*
X116201428Y-86861961D01*
X116201428Y-86861961D02*
X116201428Y-86481009D01*
X116201428Y-86481009D02*
X116249047Y-86385771D01*
X116249047Y-86385771D02*
X116344285Y-86338152D01*
X116344285Y-86338152D02*
X116534761Y-86338152D01*
X116534761Y-86338152D02*
X116629999Y-86385771D01*
X116629999Y-86385771D02*
X116677618Y-86481009D01*
X116677618Y-86481009D02*
X116677618Y-86576247D01*
X116677618Y-86576247D02*
X116201428Y-86671485D01*
X117106190Y-87004819D02*
X117106190Y-86338152D01*
X117106190Y-86528628D02*
X117153809Y-86433390D01*
X117153809Y-86433390D02*
X117201428Y-86385771D01*
X117201428Y-86385771D02*
X117296666Y-86338152D01*
X117296666Y-86338152D02*
X117391904Y-86338152D01*
X117630000Y-86338152D02*
X117868095Y-87004819D01*
X118106190Y-86338152D02*
X117868095Y-87004819D01*
X117868095Y-87004819D02*
X117772857Y-87242914D01*
X117772857Y-87242914D02*
X117725238Y-87290533D01*
X117725238Y-87290533D02*
X117630000Y-87338152D01*
X118487143Y-87004819D02*
X118487143Y-86004819D01*
X118487143Y-86004819D02*
X118868095Y-86004819D01*
X118868095Y-86004819D02*
X118963333Y-86052438D01*
X118963333Y-86052438D02*
X119010952Y-86100057D01*
X119010952Y-86100057D02*
X119058571Y-86195295D01*
X119058571Y-86195295D02*
X119058571Y-86338152D01*
X119058571Y-86338152D02*
X119010952Y-86433390D01*
X119010952Y-86433390D02*
X118963333Y-86481009D01*
X118963333Y-86481009D02*
X118868095Y-86528628D01*
X118868095Y-86528628D02*
X118487143Y-86528628D01*
X119630000Y-87004819D02*
X119534762Y-86957200D01*
X119534762Y-86957200D02*
X119487143Y-86909580D01*
X119487143Y-86909580D02*
X119439524Y-86814342D01*
X119439524Y-86814342D02*
X119439524Y-86528628D01*
X119439524Y-86528628D02*
X119487143Y-86433390D01*
X119487143Y-86433390D02*
X119534762Y-86385771D01*
X119534762Y-86385771D02*
X119630000Y-86338152D01*
X119630000Y-86338152D02*
X119772857Y-86338152D01*
X119772857Y-86338152D02*
X119868095Y-86385771D01*
X119868095Y-86385771D02*
X119915714Y-86433390D01*
X119915714Y-86433390D02*
X119963333Y-86528628D01*
X119963333Y-86528628D02*
X119963333Y-86814342D01*
X119963333Y-86814342D02*
X119915714Y-86909580D01*
X119915714Y-86909580D02*
X119868095Y-86957200D01*
X119868095Y-86957200D02*
X119772857Y-87004819D01*
X119772857Y-87004819D02*
X119630000Y-87004819D01*
X120391905Y-87004819D02*
X120391905Y-86338152D01*
X120391905Y-86528628D02*
X120439524Y-86433390D01*
X120439524Y-86433390D02*
X120487143Y-86385771D01*
X120487143Y-86385771D02*
X120582381Y-86338152D01*
X120582381Y-86338152D02*
X120677619Y-86338152D01*
X120868096Y-86338152D02*
X121249048Y-86338152D01*
X121010953Y-86004819D02*
X121010953Y-86861961D01*
X121010953Y-86861961D02*
X121058572Y-86957200D01*
X121058572Y-86957200D02*
X121153810Y-87004819D01*
X121153810Y-87004819D02*
X121249048Y-87004819D01*
X122106191Y-87004819D02*
X121534763Y-87004819D01*
X121820477Y-87004819D02*
X121820477Y-86004819D01*
X121820477Y-86004819D02*
X121725239Y-86147676D01*
X121725239Y-86147676D02*
X121630001Y-86242914D01*
X121630001Y-86242914D02*
X121534763Y-86290533D01*
X143368333Y-78474819D02*
X143035000Y-77998628D01*
X142796905Y-78474819D02*
X142796905Y-77474819D01*
X142796905Y-77474819D02*
X143177857Y-77474819D01*
X143177857Y-77474819D02*
X143273095Y-77522438D01*
X143273095Y-77522438D02*
X143320714Y-77570057D01*
X143320714Y-77570057D02*
X143368333Y-77665295D01*
X143368333Y-77665295D02*
X143368333Y-77808152D01*
X143368333Y-77808152D02*
X143320714Y-77903390D01*
X143320714Y-77903390D02*
X143273095Y-77951009D01*
X143273095Y-77951009D02*
X143177857Y-77998628D01*
X143177857Y-77998628D02*
X142796905Y-77998628D01*
X143701667Y-77474819D02*
X144368333Y-77474819D01*
X144368333Y-77474819D02*
X143939762Y-78474819D01*
X102112142Y-79552080D02*
X102064523Y-79599700D01*
X102064523Y-79599700D02*
X101921666Y-79647319D01*
X101921666Y-79647319D02*
X101826428Y-79647319D01*
X101826428Y-79647319D02*
X101683571Y-79599700D01*
X101683571Y-79599700D02*
X101588333Y-79504461D01*
X101588333Y-79504461D02*
X101540714Y-79409223D01*
X101540714Y-79409223D02*
X101493095Y-79218747D01*
X101493095Y-79218747D02*
X101493095Y-79075890D01*
X101493095Y-79075890D02*
X101540714Y-78885414D01*
X101540714Y-78885414D02*
X101588333Y-78790176D01*
X101588333Y-78790176D02*
X101683571Y-78694938D01*
X101683571Y-78694938D02*
X101826428Y-78647319D01*
X101826428Y-78647319D02*
X101921666Y-78647319D01*
X101921666Y-78647319D02*
X102064523Y-78694938D01*
X102064523Y-78694938D02*
X102112142Y-78742557D01*
X103064523Y-79647319D02*
X102493095Y-79647319D01*
X102778809Y-79647319D02*
X102778809Y-78647319D01*
X102778809Y-78647319D02*
X102683571Y-78790176D01*
X102683571Y-78790176D02*
X102588333Y-78885414D01*
X102588333Y-78885414D02*
X102493095Y-78933033D01*
X103540714Y-79647319D02*
X103731190Y-79647319D01*
X103731190Y-79647319D02*
X103826428Y-79599700D01*
X103826428Y-79599700D02*
X103874047Y-79552080D01*
X103874047Y-79552080D02*
X103969285Y-79409223D01*
X103969285Y-79409223D02*
X104016904Y-79218747D01*
X104016904Y-79218747D02*
X104016904Y-78837795D01*
X104016904Y-78837795D02*
X103969285Y-78742557D01*
X103969285Y-78742557D02*
X103921666Y-78694938D01*
X103921666Y-78694938D02*
X103826428Y-78647319D01*
X103826428Y-78647319D02*
X103635952Y-78647319D01*
X103635952Y-78647319D02*
X103540714Y-78694938D01*
X103540714Y-78694938D02*
X103493095Y-78742557D01*
X103493095Y-78742557D02*
X103445476Y-78837795D01*
X103445476Y-78837795D02*
X103445476Y-79075890D01*
X103445476Y-79075890D02*
X103493095Y-79171128D01*
X103493095Y-79171128D02*
X103540714Y-79218747D01*
X103540714Y-79218747D02*
X103635952Y-79266366D01*
X103635952Y-79266366D02*
X103826428Y-79266366D01*
X103826428Y-79266366D02*
X103921666Y-79218747D01*
X103921666Y-79218747D02*
X103969285Y-79171128D01*
X103969285Y-79171128D02*
X104016904Y-79075890D01*
X100289580Y-63175357D02*
X100337200Y-63222976D01*
X100337200Y-63222976D02*
X100384819Y-63365833D01*
X100384819Y-63365833D02*
X100384819Y-63461071D01*
X100384819Y-63461071D02*
X100337200Y-63603928D01*
X100337200Y-63603928D02*
X100241961Y-63699166D01*
X100241961Y-63699166D02*
X100146723Y-63746785D01*
X100146723Y-63746785D02*
X99956247Y-63794404D01*
X99956247Y-63794404D02*
X99813390Y-63794404D01*
X99813390Y-63794404D02*
X99622914Y-63746785D01*
X99622914Y-63746785D02*
X99527676Y-63699166D01*
X99527676Y-63699166D02*
X99432438Y-63603928D01*
X99432438Y-63603928D02*
X99384819Y-63461071D01*
X99384819Y-63461071D02*
X99384819Y-63365833D01*
X99384819Y-63365833D02*
X99432438Y-63222976D01*
X99432438Y-63222976D02*
X99480057Y-63175357D01*
X100384819Y-62222976D02*
X100384819Y-62794404D01*
X100384819Y-62508690D02*
X99384819Y-62508690D01*
X99384819Y-62508690D02*
X99527676Y-62603928D01*
X99527676Y-62603928D02*
X99622914Y-62699166D01*
X99622914Y-62699166D02*
X99670533Y-62794404D01*
X99718152Y-61365833D02*
X100384819Y-61365833D01*
X99337200Y-61603928D02*
X100051485Y-61842023D01*
X100051485Y-61842023D02*
X100051485Y-61222976D01*
X132883333Y-72634819D02*
X132550000Y-72158628D01*
X132311905Y-72634819D02*
X132311905Y-71634819D01*
X132311905Y-71634819D02*
X132692857Y-71634819D01*
X132692857Y-71634819D02*
X132788095Y-71682438D01*
X132788095Y-71682438D02*
X132835714Y-71730057D01*
X132835714Y-71730057D02*
X132883333Y-71825295D01*
X132883333Y-71825295D02*
X132883333Y-71968152D01*
X132883333Y-71968152D02*
X132835714Y-72063390D01*
X132835714Y-72063390D02*
X132788095Y-72111009D01*
X132788095Y-72111009D02*
X132692857Y-72158628D01*
X132692857Y-72158628D02*
X132311905Y-72158628D01*
X133788095Y-71634819D02*
X133311905Y-71634819D01*
X133311905Y-71634819D02*
X133264286Y-72111009D01*
X133264286Y-72111009D02*
X133311905Y-72063390D01*
X133311905Y-72063390D02*
X133407143Y-72015771D01*
X133407143Y-72015771D02*
X133645238Y-72015771D01*
X133645238Y-72015771D02*
X133740476Y-72063390D01*
X133740476Y-72063390D02*
X133788095Y-72111009D01*
X133788095Y-72111009D02*
X133835714Y-72206247D01*
X133835714Y-72206247D02*
X133835714Y-72444342D01*
X133835714Y-72444342D02*
X133788095Y-72539580D01*
X133788095Y-72539580D02*
X133740476Y-72587200D01*
X133740476Y-72587200D02*
X133645238Y-72634819D01*
X133645238Y-72634819D02*
X133407143Y-72634819D01*
X133407143Y-72634819D02*
X133311905Y-72587200D01*
X133311905Y-72587200D02*
X133264286Y-72539580D01*
X98204819Y-63712857D02*
X97728628Y-64046190D01*
X98204819Y-64284285D02*
X97204819Y-64284285D01*
X97204819Y-64284285D02*
X97204819Y-63903333D01*
X97204819Y-63903333D02*
X97252438Y-63808095D01*
X97252438Y-63808095D02*
X97300057Y-63760476D01*
X97300057Y-63760476D02*
X97395295Y-63712857D01*
X97395295Y-63712857D02*
X97538152Y-63712857D01*
X97538152Y-63712857D02*
X97633390Y-63760476D01*
X97633390Y-63760476D02*
X97681009Y-63808095D01*
X97681009Y-63808095D02*
X97728628Y-63903333D01*
X97728628Y-63903333D02*
X97728628Y-64284285D01*
X98204819Y-62760476D02*
X98204819Y-63331904D01*
X98204819Y-63046190D02*
X97204819Y-63046190D01*
X97204819Y-63046190D02*
X97347676Y-63141428D01*
X97347676Y-63141428D02*
X97442914Y-63236666D01*
X97442914Y-63236666D02*
X97490533Y-63331904D01*
X97633390Y-62189047D02*
X97585771Y-62284285D01*
X97585771Y-62284285D02*
X97538152Y-62331904D01*
X97538152Y-62331904D02*
X97442914Y-62379523D01*
X97442914Y-62379523D02*
X97395295Y-62379523D01*
X97395295Y-62379523D02*
X97300057Y-62331904D01*
X97300057Y-62331904D02*
X97252438Y-62284285D01*
X97252438Y-62284285D02*
X97204819Y-62189047D01*
X97204819Y-62189047D02*
X97204819Y-61998571D01*
X97204819Y-61998571D02*
X97252438Y-61903333D01*
X97252438Y-61903333D02*
X97300057Y-61855714D01*
X97300057Y-61855714D02*
X97395295Y-61808095D01*
X97395295Y-61808095D02*
X97442914Y-61808095D01*
X97442914Y-61808095D02*
X97538152Y-61855714D01*
X97538152Y-61855714D02*
X97585771Y-61903333D01*
X97585771Y-61903333D02*
X97633390Y-61998571D01*
X97633390Y-61998571D02*
X97633390Y-62189047D01*
X97633390Y-62189047D02*
X97681009Y-62284285D01*
X97681009Y-62284285D02*
X97728628Y-62331904D01*
X97728628Y-62331904D02*
X97823866Y-62379523D01*
X97823866Y-62379523D02*
X98014342Y-62379523D01*
X98014342Y-62379523D02*
X98109580Y-62331904D01*
X98109580Y-62331904D02*
X98157200Y-62284285D01*
X98157200Y-62284285D02*
X98204819Y-62189047D01*
X98204819Y-62189047D02*
X98204819Y-61998571D01*
X98204819Y-61998571D02*
X98157200Y-61903333D01*
X98157200Y-61903333D02*
X98109580Y-61855714D01*
X98109580Y-61855714D02*
X98014342Y-61808095D01*
X98014342Y-61808095D02*
X97823866Y-61808095D01*
X97823866Y-61808095D02*
X97728628Y-61855714D01*
X97728628Y-61855714D02*
X97681009Y-61903333D01*
X97681009Y-61903333D02*
X97633390Y-61998571D01*
X97213095Y-90804819D02*
X97213095Y-91614342D01*
X97213095Y-91614342D02*
X97260714Y-91709580D01*
X97260714Y-91709580D02*
X97308333Y-91757200D01*
X97308333Y-91757200D02*
X97403571Y-91804819D01*
X97403571Y-91804819D02*
X97594047Y-91804819D01*
X97594047Y-91804819D02*
X97689285Y-91757200D01*
X97689285Y-91757200D02*
X97736904Y-91709580D01*
X97736904Y-91709580D02*
X97784523Y-91614342D01*
X97784523Y-91614342D02*
X97784523Y-90804819D01*
X98689285Y-91138152D02*
X98689285Y-91804819D01*
X98451190Y-90757200D02*
X98213095Y-91471485D01*
X98213095Y-91471485D02*
X98832142Y-91471485D01*
X133243809Y-62338628D02*
X133243809Y-62814819D01*
X132910476Y-61814819D02*
X133243809Y-62338628D01*
X133243809Y-62338628D02*
X133577142Y-61814819D01*
X134434285Y-62814819D02*
X133862857Y-62814819D01*
X134148571Y-62814819D02*
X134148571Y-61814819D01*
X134148571Y-61814819D02*
X134053333Y-61957676D01*
X134053333Y-61957676D02*
X133958095Y-62052914D01*
X133958095Y-62052914D02*
X133862857Y-62100533D01*
X141443333Y-62569580D02*
X141395714Y-62617200D01*
X141395714Y-62617200D02*
X141252857Y-62664819D01*
X141252857Y-62664819D02*
X141157619Y-62664819D01*
X141157619Y-62664819D02*
X141014762Y-62617200D01*
X141014762Y-62617200D02*
X140919524Y-62521961D01*
X140919524Y-62521961D02*
X140871905Y-62426723D01*
X140871905Y-62426723D02*
X140824286Y-62236247D01*
X140824286Y-62236247D02*
X140824286Y-62093390D01*
X140824286Y-62093390D02*
X140871905Y-61902914D01*
X140871905Y-61902914D02*
X140919524Y-61807676D01*
X140919524Y-61807676D02*
X141014762Y-61712438D01*
X141014762Y-61712438D02*
X141157619Y-61664819D01*
X141157619Y-61664819D02*
X141252857Y-61664819D01*
X141252857Y-61664819D02*
X141395714Y-61712438D01*
X141395714Y-61712438D02*
X141443333Y-61760057D01*
X142300476Y-61664819D02*
X142110000Y-61664819D01*
X142110000Y-61664819D02*
X142014762Y-61712438D01*
X142014762Y-61712438D02*
X141967143Y-61760057D01*
X141967143Y-61760057D02*
X141871905Y-61902914D01*
X141871905Y-61902914D02*
X141824286Y-62093390D01*
X141824286Y-62093390D02*
X141824286Y-62474342D01*
X141824286Y-62474342D02*
X141871905Y-62569580D01*
X141871905Y-62569580D02*
X141919524Y-62617200D01*
X141919524Y-62617200D02*
X142014762Y-62664819D01*
X142014762Y-62664819D02*
X142205238Y-62664819D01*
X142205238Y-62664819D02*
X142300476Y-62617200D01*
X142300476Y-62617200D02*
X142348095Y-62569580D01*
X142348095Y-62569580D02*
X142395714Y-62474342D01*
X142395714Y-62474342D02*
X142395714Y-62236247D01*
X142395714Y-62236247D02*
X142348095Y-62141009D01*
X142348095Y-62141009D02*
X142300476Y-62093390D01*
X142300476Y-62093390D02*
X142205238Y-62045771D01*
X142205238Y-62045771D02*
X142014762Y-62045771D01*
X142014762Y-62045771D02*
X141919524Y-62093390D01*
X141919524Y-62093390D02*
X141871905Y-62141009D01*
X141871905Y-62141009D02*
X141824286Y-62236247D01*
X108036905Y-84154819D02*
X108036905Y-83154819D01*
X108036905Y-83154819D02*
X108275000Y-83154819D01*
X108275000Y-83154819D02*
X108417857Y-83202438D01*
X108417857Y-83202438D02*
X108513095Y-83297676D01*
X108513095Y-83297676D02*
X108560714Y-83392914D01*
X108560714Y-83392914D02*
X108608333Y-83583390D01*
X108608333Y-83583390D02*
X108608333Y-83726247D01*
X108608333Y-83726247D02*
X108560714Y-83916723D01*
X108560714Y-83916723D02*
X108513095Y-84011961D01*
X108513095Y-84011961D02*
X108417857Y-84107200D01*
X108417857Y-84107200D02*
X108275000Y-84154819D01*
X108275000Y-84154819D02*
X108036905Y-84154819D01*
X108941667Y-83154819D02*
X109560714Y-83154819D01*
X109560714Y-83154819D02*
X109227381Y-83535771D01*
X109227381Y-83535771D02*
X109370238Y-83535771D01*
X109370238Y-83535771D02*
X109465476Y-83583390D01*
X109465476Y-83583390D02*
X109513095Y-83631009D01*
X109513095Y-83631009D02*
X109560714Y-83726247D01*
X109560714Y-83726247D02*
X109560714Y-83964342D01*
X109560714Y-83964342D02*
X109513095Y-84059580D01*
X109513095Y-84059580D02*
X109465476Y-84107200D01*
X109465476Y-84107200D02*
X109370238Y-84154819D01*
X109370238Y-84154819D02*
X109084524Y-84154819D01*
X109084524Y-84154819D02*
X108989286Y-84107200D01*
X108989286Y-84107200D02*
X108941667Y-84059580D01*
X125103333Y-70219580D02*
X125055714Y-70267200D01*
X125055714Y-70267200D02*
X124912857Y-70314819D01*
X124912857Y-70314819D02*
X124817619Y-70314819D01*
X124817619Y-70314819D02*
X124674762Y-70267200D01*
X124674762Y-70267200D02*
X124579524Y-70171961D01*
X124579524Y-70171961D02*
X124531905Y-70076723D01*
X124531905Y-70076723D02*
X124484286Y-69886247D01*
X124484286Y-69886247D02*
X124484286Y-69743390D01*
X124484286Y-69743390D02*
X124531905Y-69552914D01*
X124531905Y-69552914D02*
X124579524Y-69457676D01*
X124579524Y-69457676D02*
X124674762Y-69362438D01*
X124674762Y-69362438D02*
X124817619Y-69314819D01*
X124817619Y-69314819D02*
X124912857Y-69314819D01*
X124912857Y-69314819D02*
X125055714Y-69362438D01*
X125055714Y-69362438D02*
X125103333Y-69410057D01*
X125960476Y-69648152D02*
X125960476Y-70314819D01*
X125722381Y-69267200D02*
X125484286Y-69981485D01*
X125484286Y-69981485D02*
X126103333Y-69981485D01*
X138458095Y-70024819D02*
X138458095Y-70834342D01*
X138458095Y-70834342D02*
X138505714Y-70929580D01*
X138505714Y-70929580D02*
X138553333Y-70977200D01*
X138553333Y-70977200D02*
X138648571Y-71024819D01*
X138648571Y-71024819D02*
X138839047Y-71024819D01*
X138839047Y-71024819D02*
X138934285Y-70977200D01*
X138934285Y-70977200D02*
X138981904Y-70929580D01*
X138981904Y-70929580D02*
X139029523Y-70834342D01*
X139029523Y-70834342D02*
X139029523Y-70024819D01*
X140029523Y-71024819D02*
X139458095Y-71024819D01*
X139743809Y-71024819D02*
X139743809Y-70024819D01*
X139743809Y-70024819D02*
X139648571Y-70167676D01*
X139648571Y-70167676D02*
X139553333Y-70262914D01*
X139553333Y-70262914D02*
X139458095Y-70310533D01*
X128777142Y-56729580D02*
X128729523Y-56777200D01*
X128729523Y-56777200D02*
X128586666Y-56824819D01*
X128586666Y-56824819D02*
X128491428Y-56824819D01*
X128491428Y-56824819D02*
X128348571Y-56777200D01*
X128348571Y-56777200D02*
X128253333Y-56681961D01*
X128253333Y-56681961D02*
X128205714Y-56586723D01*
X128205714Y-56586723D02*
X128158095Y-56396247D01*
X128158095Y-56396247D02*
X128158095Y-56253390D01*
X128158095Y-56253390D02*
X128205714Y-56062914D01*
X128205714Y-56062914D02*
X128253333Y-55967676D01*
X128253333Y-55967676D02*
X128348571Y-55872438D01*
X128348571Y-55872438D02*
X128491428Y-55824819D01*
X128491428Y-55824819D02*
X128586666Y-55824819D01*
X128586666Y-55824819D02*
X128729523Y-55872438D01*
X128729523Y-55872438D02*
X128777142Y-55920057D01*
X129729523Y-56824819D02*
X129158095Y-56824819D01*
X129443809Y-56824819D02*
X129443809Y-55824819D01*
X129443809Y-55824819D02*
X129348571Y-55967676D01*
X129348571Y-55967676D02*
X129253333Y-56062914D01*
X129253333Y-56062914D02*
X129158095Y-56110533D01*
X130681904Y-56824819D02*
X130110476Y-56824819D01*
X130396190Y-56824819D02*
X130396190Y-55824819D01*
X130396190Y-55824819D02*
X130300952Y-55967676D01*
X130300952Y-55967676D02*
X130205714Y-56062914D01*
X130205714Y-56062914D02*
X130110476Y-56110533D01*
X93694642Y-91564580D02*
X93647023Y-91612200D01*
X93647023Y-91612200D02*
X93504166Y-91659819D01*
X93504166Y-91659819D02*
X93408928Y-91659819D01*
X93408928Y-91659819D02*
X93266071Y-91612200D01*
X93266071Y-91612200D02*
X93170833Y-91516961D01*
X93170833Y-91516961D02*
X93123214Y-91421723D01*
X93123214Y-91421723D02*
X93075595Y-91231247D01*
X93075595Y-91231247D02*
X93075595Y-91088390D01*
X93075595Y-91088390D02*
X93123214Y-90897914D01*
X93123214Y-90897914D02*
X93170833Y-90802676D01*
X93170833Y-90802676D02*
X93266071Y-90707438D01*
X93266071Y-90707438D02*
X93408928Y-90659819D01*
X93408928Y-90659819D02*
X93504166Y-90659819D01*
X93504166Y-90659819D02*
X93647023Y-90707438D01*
X93647023Y-90707438D02*
X93694642Y-90755057D01*
X94075595Y-90755057D02*
X94123214Y-90707438D01*
X94123214Y-90707438D02*
X94218452Y-90659819D01*
X94218452Y-90659819D02*
X94456547Y-90659819D01*
X94456547Y-90659819D02*
X94551785Y-90707438D01*
X94551785Y-90707438D02*
X94599404Y-90755057D01*
X94599404Y-90755057D02*
X94647023Y-90850295D01*
X94647023Y-90850295D02*
X94647023Y-90945533D01*
X94647023Y-90945533D02*
X94599404Y-91088390D01*
X94599404Y-91088390D02*
X94027976Y-91659819D01*
X94027976Y-91659819D02*
X94647023Y-91659819D01*
X95266071Y-90659819D02*
X95361309Y-90659819D01*
X95361309Y-90659819D02*
X95456547Y-90707438D01*
X95456547Y-90707438D02*
X95504166Y-90755057D01*
X95504166Y-90755057D02*
X95551785Y-90850295D01*
X95551785Y-90850295D02*
X95599404Y-91040771D01*
X95599404Y-91040771D02*
X95599404Y-91278866D01*
X95599404Y-91278866D02*
X95551785Y-91469342D01*
X95551785Y-91469342D02*
X95504166Y-91564580D01*
X95504166Y-91564580D02*
X95456547Y-91612200D01*
X95456547Y-91612200D02*
X95361309Y-91659819D01*
X95361309Y-91659819D02*
X95266071Y-91659819D01*
X95266071Y-91659819D02*
X95170833Y-91612200D01*
X95170833Y-91612200D02*
X95123214Y-91564580D01*
X95123214Y-91564580D02*
X95075595Y-91469342D01*
X95075595Y-91469342D02*
X95027976Y-91278866D01*
X95027976Y-91278866D02*
X95027976Y-91040771D01*
X95027976Y-91040771D02*
X95075595Y-90850295D01*
X95075595Y-90850295D02*
X95123214Y-90755057D01*
X95123214Y-90755057D02*
X95170833Y-90707438D01*
X95170833Y-90707438D02*
X95266071Y-90659819D01*
X136721192Y-73458324D02*
X136654104Y-73464193D01*
X136654104Y-73464193D02*
X136514061Y-73408844D01*
X136514061Y-73408844D02*
X136441104Y-73347627D01*
X136441104Y-73347627D02*
X136362278Y-73219321D01*
X136362278Y-73219321D02*
X136350539Y-73085147D01*
X136350539Y-73085147D02*
X136375279Y-72981581D01*
X136375279Y-72981581D02*
X136461236Y-72805059D01*
X136461236Y-72805059D02*
X136553063Y-72695624D01*
X136553063Y-72695624D02*
X136711977Y-72580320D01*
X136711977Y-72580320D02*
X136809673Y-72537972D01*
X136809673Y-72537972D02*
X136943848Y-72526234D01*
X136943848Y-72526234D02*
X137083892Y-72581582D01*
X137083892Y-72581582D02*
X137156848Y-72642800D01*
X137156848Y-72642800D02*
X137235674Y-72771105D01*
X137235674Y-72771105D02*
X137241543Y-72838192D01*
X137558109Y-72979498D02*
X138032327Y-73377414D01*
X138032327Y-73377414D02*
X137532108Y-73454978D01*
X137532108Y-73454978D02*
X137641543Y-73546805D01*
X137641543Y-73546805D02*
X137683890Y-73644501D01*
X137683890Y-73644501D02*
X137689760Y-73711589D01*
X137689760Y-73711589D02*
X137665020Y-73815154D01*
X137665020Y-73815154D02*
X137511976Y-73997546D01*
X137511976Y-73997546D02*
X137414279Y-74039893D01*
X137414279Y-74039893D02*
X137347192Y-74045763D01*
X137347192Y-74045763D02*
X137243627Y-74021023D01*
X137243627Y-74021023D02*
X137024757Y-73837369D01*
X137024757Y-73837369D02*
X136982409Y-73739673D01*
X136982409Y-73739673D02*
X136976540Y-73672586D01*
X92444580Y-69775357D02*
X92492200Y-69822976D01*
X92492200Y-69822976D02*
X92539819Y-69965833D01*
X92539819Y-69965833D02*
X92539819Y-70061071D01*
X92539819Y-70061071D02*
X92492200Y-70203928D01*
X92492200Y-70203928D02*
X92396961Y-70299166D01*
X92396961Y-70299166D02*
X92301723Y-70346785D01*
X92301723Y-70346785D02*
X92111247Y-70394404D01*
X92111247Y-70394404D02*
X91968390Y-70394404D01*
X91968390Y-70394404D02*
X91777914Y-70346785D01*
X91777914Y-70346785D02*
X91682676Y-70299166D01*
X91682676Y-70299166D02*
X91587438Y-70203928D01*
X91587438Y-70203928D02*
X91539819Y-70061071D01*
X91539819Y-70061071D02*
X91539819Y-69965833D01*
X91539819Y-69965833D02*
X91587438Y-69822976D01*
X91587438Y-69822976D02*
X91635057Y-69775357D01*
X92539819Y-68822976D02*
X92539819Y-69394404D01*
X92539819Y-69108690D02*
X91539819Y-69108690D01*
X91539819Y-69108690D02*
X91682676Y-69203928D01*
X91682676Y-69203928D02*
X91777914Y-69299166D01*
X91777914Y-69299166D02*
X91825533Y-69394404D01*
X91968390Y-68251547D02*
X91920771Y-68346785D01*
X91920771Y-68346785D02*
X91873152Y-68394404D01*
X91873152Y-68394404D02*
X91777914Y-68442023D01*
X91777914Y-68442023D02*
X91730295Y-68442023D01*
X91730295Y-68442023D02*
X91635057Y-68394404D01*
X91635057Y-68394404D02*
X91587438Y-68346785D01*
X91587438Y-68346785D02*
X91539819Y-68251547D01*
X91539819Y-68251547D02*
X91539819Y-68061071D01*
X91539819Y-68061071D02*
X91587438Y-67965833D01*
X91587438Y-67965833D02*
X91635057Y-67918214D01*
X91635057Y-67918214D02*
X91730295Y-67870595D01*
X91730295Y-67870595D02*
X91777914Y-67870595D01*
X91777914Y-67870595D02*
X91873152Y-67918214D01*
X91873152Y-67918214D02*
X91920771Y-67965833D01*
X91920771Y-67965833D02*
X91968390Y-68061071D01*
X91968390Y-68061071D02*
X91968390Y-68251547D01*
X91968390Y-68251547D02*
X92016009Y-68346785D01*
X92016009Y-68346785D02*
X92063628Y-68394404D01*
X92063628Y-68394404D02*
X92158866Y-68442023D01*
X92158866Y-68442023D02*
X92349342Y-68442023D01*
X92349342Y-68442023D02*
X92444580Y-68394404D01*
X92444580Y-68394404D02*
X92492200Y-68346785D01*
X92492200Y-68346785D02*
X92539819Y-68251547D01*
X92539819Y-68251547D02*
X92539819Y-68061071D01*
X92539819Y-68061071D02*
X92492200Y-67965833D01*
X92492200Y-67965833D02*
X92444580Y-67918214D01*
X92444580Y-67918214D02*
X92349342Y-67870595D01*
X92349342Y-67870595D02*
X92158866Y-67870595D01*
X92158866Y-67870595D02*
X92063628Y-67918214D01*
X92063628Y-67918214D02*
X92016009Y-67965833D01*
X92016009Y-67965833D02*
X91968390Y-68061071D01*
X93669642Y-88534819D02*
X93336309Y-88058628D01*
X93098214Y-88534819D02*
X93098214Y-87534819D01*
X93098214Y-87534819D02*
X93479166Y-87534819D01*
X93479166Y-87534819D02*
X93574404Y-87582438D01*
X93574404Y-87582438D02*
X93622023Y-87630057D01*
X93622023Y-87630057D02*
X93669642Y-87725295D01*
X93669642Y-87725295D02*
X93669642Y-87868152D01*
X93669642Y-87868152D02*
X93622023Y-87963390D01*
X93622023Y-87963390D02*
X93574404Y-88011009D01*
X93574404Y-88011009D02*
X93479166Y-88058628D01*
X93479166Y-88058628D02*
X93098214Y-88058628D01*
X94622023Y-88534819D02*
X94050595Y-88534819D01*
X94336309Y-88534819D02*
X94336309Y-87534819D01*
X94336309Y-87534819D02*
X94241071Y-87677676D01*
X94241071Y-87677676D02*
X94145833Y-87772914D01*
X94145833Y-87772914D02*
X94050595Y-87820533D01*
X95479166Y-87868152D02*
X95479166Y-88534819D01*
X95241071Y-87487200D02*
X95002976Y-88201485D01*
X95002976Y-88201485D02*
X95622023Y-88201485D01*
X116698571Y-78844819D02*
X117269999Y-78844819D01*
X116984285Y-79844819D02*
X116984285Y-78844819D01*
X117936666Y-79321009D02*
X117603333Y-79321009D01*
X117603333Y-79844819D02*
X117603333Y-78844819D01*
X117603333Y-78844819D02*
X118079523Y-78844819D01*
X118317619Y-78844819D02*
X118889047Y-78844819D01*
X118603333Y-79844819D02*
X118603333Y-78844819D01*
X119746190Y-79844819D02*
X119174762Y-79844819D01*
X119460476Y-79844819D02*
X119460476Y-78844819D01*
X119460476Y-78844819D02*
X119365238Y-78987676D01*
X119365238Y-78987676D02*
X119270000Y-79082914D01*
X119270000Y-79082914D02*
X119174762Y-79130533D01*
X121824819Y-68755357D02*
X121348628Y-69088690D01*
X121824819Y-69326785D02*
X120824819Y-69326785D01*
X120824819Y-69326785D02*
X120824819Y-68945833D01*
X120824819Y-68945833D02*
X120872438Y-68850595D01*
X120872438Y-68850595D02*
X120920057Y-68802976D01*
X120920057Y-68802976D02*
X121015295Y-68755357D01*
X121015295Y-68755357D02*
X121158152Y-68755357D01*
X121158152Y-68755357D02*
X121253390Y-68802976D01*
X121253390Y-68802976D02*
X121301009Y-68850595D01*
X121301009Y-68850595D02*
X121348628Y-68945833D01*
X121348628Y-68945833D02*
X121348628Y-69326785D01*
X121824819Y-67802976D02*
X121824819Y-68374404D01*
X121824819Y-68088690D02*
X120824819Y-68088690D01*
X120824819Y-68088690D02*
X120967676Y-68183928D01*
X120967676Y-68183928D02*
X121062914Y-68279166D01*
X121062914Y-68279166D02*
X121110533Y-68374404D01*
X120824819Y-66945833D02*
X120824819Y-67136309D01*
X120824819Y-67136309D02*
X120872438Y-67231547D01*
X120872438Y-67231547D02*
X120920057Y-67279166D01*
X120920057Y-67279166D02*
X121062914Y-67374404D01*
X121062914Y-67374404D02*
X121253390Y-67422023D01*
X121253390Y-67422023D02*
X121634342Y-67422023D01*
X121634342Y-67422023D02*
X121729580Y-67374404D01*
X121729580Y-67374404D02*
X121777200Y-67326785D01*
X121777200Y-67326785D02*
X121824819Y-67231547D01*
X121824819Y-67231547D02*
X121824819Y-67041071D01*
X121824819Y-67041071D02*
X121777200Y-66945833D01*
X121777200Y-66945833D02*
X121729580Y-66898214D01*
X121729580Y-66898214D02*
X121634342Y-66850595D01*
X121634342Y-66850595D02*
X121396247Y-66850595D01*
X121396247Y-66850595D02*
X121301009Y-66898214D01*
X121301009Y-66898214D02*
X121253390Y-66945833D01*
X121253390Y-66945833D02*
X121205771Y-67041071D01*
X121205771Y-67041071D02*
X121205771Y-67231547D01*
X121205771Y-67231547D02*
X121253390Y-67326785D01*
X121253390Y-67326785D02*
X121301009Y-67374404D01*
X121301009Y-67374404D02*
X121396247Y-67422023D01*
X95174819Y-82955357D02*
X94698628Y-83288690D01*
X95174819Y-83526785D02*
X94174819Y-83526785D01*
X94174819Y-83526785D02*
X94174819Y-83145833D01*
X94174819Y-83145833D02*
X94222438Y-83050595D01*
X94222438Y-83050595D02*
X94270057Y-83002976D01*
X94270057Y-83002976D02*
X94365295Y-82955357D01*
X94365295Y-82955357D02*
X94508152Y-82955357D01*
X94508152Y-82955357D02*
X94603390Y-83002976D01*
X94603390Y-83002976D02*
X94651009Y-83050595D01*
X94651009Y-83050595D02*
X94698628Y-83145833D01*
X94698628Y-83145833D02*
X94698628Y-83526785D01*
X95174819Y-82002976D02*
X95174819Y-82574404D01*
X95174819Y-82288690D02*
X94174819Y-82288690D01*
X94174819Y-82288690D02*
X94317676Y-82383928D01*
X94317676Y-82383928D02*
X94412914Y-82479166D01*
X94412914Y-82479166D02*
X94460533Y-82574404D01*
X94174819Y-81669642D02*
X94174819Y-81050595D01*
X94174819Y-81050595D02*
X94555771Y-81383928D01*
X94555771Y-81383928D02*
X94555771Y-81241071D01*
X94555771Y-81241071D02*
X94603390Y-81145833D01*
X94603390Y-81145833D02*
X94651009Y-81098214D01*
X94651009Y-81098214D02*
X94746247Y-81050595D01*
X94746247Y-81050595D02*
X94984342Y-81050595D01*
X94984342Y-81050595D02*
X95079580Y-81098214D01*
X95079580Y-81098214D02*
X95127200Y-81145833D01*
X95127200Y-81145833D02*
X95174819Y-81241071D01*
X95174819Y-81241071D02*
X95174819Y-81526785D01*
X95174819Y-81526785D02*
X95127200Y-81622023D01*
X95127200Y-81622023D02*
X95079580Y-81669642D01*
X125067142Y-73239580D02*
X125019523Y-73287200D01*
X125019523Y-73287200D02*
X124876666Y-73334819D01*
X124876666Y-73334819D02*
X124781428Y-73334819D01*
X124781428Y-73334819D02*
X124638571Y-73287200D01*
X124638571Y-73287200D02*
X124543333Y-73191961D01*
X124543333Y-73191961D02*
X124495714Y-73096723D01*
X124495714Y-73096723D02*
X124448095Y-72906247D01*
X124448095Y-72906247D02*
X124448095Y-72763390D01*
X124448095Y-72763390D02*
X124495714Y-72572914D01*
X124495714Y-72572914D02*
X124543333Y-72477676D01*
X124543333Y-72477676D02*
X124638571Y-72382438D01*
X124638571Y-72382438D02*
X124781428Y-72334819D01*
X124781428Y-72334819D02*
X124876666Y-72334819D01*
X124876666Y-72334819D02*
X125019523Y-72382438D01*
X125019523Y-72382438D02*
X125067142Y-72430057D01*
X126019523Y-73334819D02*
X125448095Y-73334819D01*
X125733809Y-73334819D02*
X125733809Y-72334819D01*
X125733809Y-72334819D02*
X125638571Y-72477676D01*
X125638571Y-72477676D02*
X125543333Y-72572914D01*
X125543333Y-72572914D02*
X125448095Y-72620533D01*
X126924285Y-72334819D02*
X126448095Y-72334819D01*
X126448095Y-72334819D02*
X126400476Y-72811009D01*
X126400476Y-72811009D02*
X126448095Y-72763390D01*
X126448095Y-72763390D02*
X126543333Y-72715771D01*
X126543333Y-72715771D02*
X126781428Y-72715771D01*
X126781428Y-72715771D02*
X126876666Y-72763390D01*
X126876666Y-72763390D02*
X126924285Y-72811009D01*
X126924285Y-72811009D02*
X126971904Y-72906247D01*
X126971904Y-72906247D02*
X126971904Y-73144342D01*
X126971904Y-73144342D02*
X126924285Y-73239580D01*
X126924285Y-73239580D02*
X126876666Y-73287200D01*
X126876666Y-73287200D02*
X126781428Y-73334819D01*
X126781428Y-73334819D02*
X126543333Y-73334819D01*
X126543333Y-73334819D02*
X126448095Y-73287200D01*
X126448095Y-73287200D02*
X126400476Y-73239580D01*
X128043333Y-72554819D02*
X127710000Y-72078628D01*
X127471905Y-72554819D02*
X127471905Y-71554819D01*
X127471905Y-71554819D02*
X127852857Y-71554819D01*
X127852857Y-71554819D02*
X127948095Y-71602438D01*
X127948095Y-71602438D02*
X127995714Y-71650057D01*
X127995714Y-71650057D02*
X128043333Y-71745295D01*
X128043333Y-71745295D02*
X128043333Y-71888152D01*
X128043333Y-71888152D02*
X127995714Y-71983390D01*
X127995714Y-71983390D02*
X127948095Y-72031009D01*
X127948095Y-72031009D02*
X127852857Y-72078628D01*
X127852857Y-72078628D02*
X127471905Y-72078628D01*
X128900476Y-71554819D02*
X128710000Y-71554819D01*
X128710000Y-71554819D02*
X128614762Y-71602438D01*
X128614762Y-71602438D02*
X128567143Y-71650057D01*
X128567143Y-71650057D02*
X128471905Y-71792914D01*
X128471905Y-71792914D02*
X128424286Y-71983390D01*
X128424286Y-71983390D02*
X128424286Y-72364342D01*
X128424286Y-72364342D02*
X128471905Y-72459580D01*
X128471905Y-72459580D02*
X128519524Y-72507200D01*
X128519524Y-72507200D02*
X128614762Y-72554819D01*
X128614762Y-72554819D02*
X128805238Y-72554819D01*
X128805238Y-72554819D02*
X128900476Y-72507200D01*
X128900476Y-72507200D02*
X128948095Y-72459580D01*
X128948095Y-72459580D02*
X128995714Y-72364342D01*
X128995714Y-72364342D02*
X128995714Y-72126247D01*
X128995714Y-72126247D02*
X128948095Y-72031009D01*
X128948095Y-72031009D02*
X128900476Y-71983390D01*
X128900476Y-71983390D02*
X128805238Y-71935771D01*
X128805238Y-71935771D02*
X128614762Y-71935771D01*
X128614762Y-71935771D02*
X128519524Y-71983390D01*
X128519524Y-71983390D02*
X128471905Y-72031009D01*
X128471905Y-72031009D02*
X128424286Y-72126247D01*
X108386905Y-90604819D02*
X108386905Y-89604819D01*
X108386905Y-89604819D02*
X108625000Y-89604819D01*
X108625000Y-89604819D02*
X108767857Y-89652438D01*
X108767857Y-89652438D02*
X108863095Y-89747676D01*
X108863095Y-89747676D02*
X108910714Y-89842914D01*
X108910714Y-89842914D02*
X108958333Y-90033390D01*
X108958333Y-90033390D02*
X108958333Y-90176247D01*
X108958333Y-90176247D02*
X108910714Y-90366723D01*
X108910714Y-90366723D02*
X108863095Y-90461961D01*
X108863095Y-90461961D02*
X108767857Y-90557200D01*
X108767857Y-90557200D02*
X108625000Y-90604819D01*
X108625000Y-90604819D02*
X108386905Y-90604819D01*
X109815476Y-89938152D02*
X109815476Y-90604819D01*
X109577381Y-89557200D02*
X109339286Y-90271485D01*
X109339286Y-90271485D02*
X109958333Y-90271485D01*
X128854580Y-60580357D02*
X128902200Y-60627976D01*
X128902200Y-60627976D02*
X128949819Y-60770833D01*
X128949819Y-60770833D02*
X128949819Y-60866071D01*
X128949819Y-60866071D02*
X128902200Y-61008928D01*
X128902200Y-61008928D02*
X128806961Y-61104166D01*
X128806961Y-61104166D02*
X128711723Y-61151785D01*
X128711723Y-61151785D02*
X128521247Y-61199404D01*
X128521247Y-61199404D02*
X128378390Y-61199404D01*
X128378390Y-61199404D02*
X128187914Y-61151785D01*
X128187914Y-61151785D02*
X128092676Y-61104166D01*
X128092676Y-61104166D02*
X127997438Y-61008928D01*
X127997438Y-61008928D02*
X127949819Y-60866071D01*
X127949819Y-60866071D02*
X127949819Y-60770833D01*
X127949819Y-60770833D02*
X127997438Y-60627976D01*
X127997438Y-60627976D02*
X128045057Y-60580357D01*
X128949819Y-59627976D02*
X128949819Y-60199404D01*
X128949819Y-59913690D02*
X127949819Y-59913690D01*
X127949819Y-59913690D02*
X128092676Y-60008928D01*
X128092676Y-60008928D02*
X128187914Y-60104166D01*
X128187914Y-60104166D02*
X128235533Y-60199404D01*
X127949819Y-59008928D02*
X127949819Y-58913690D01*
X127949819Y-58913690D02*
X127997438Y-58818452D01*
X127997438Y-58818452D02*
X128045057Y-58770833D01*
X128045057Y-58770833D02*
X128140295Y-58723214D01*
X128140295Y-58723214D02*
X128330771Y-58675595D01*
X128330771Y-58675595D02*
X128568866Y-58675595D01*
X128568866Y-58675595D02*
X128759342Y-58723214D01*
X128759342Y-58723214D02*
X128854580Y-58770833D01*
X128854580Y-58770833D02*
X128902200Y-58818452D01*
X128902200Y-58818452D02*
X128949819Y-58913690D01*
X128949819Y-58913690D02*
X128949819Y-59008928D01*
X128949819Y-59008928D02*
X128902200Y-59104166D01*
X128902200Y-59104166D02*
X128854580Y-59151785D01*
X128854580Y-59151785D02*
X128759342Y-59199404D01*
X128759342Y-59199404D02*
X128568866Y-59247023D01*
X128568866Y-59247023D02*
X128330771Y-59247023D01*
X128330771Y-59247023D02*
X128140295Y-59199404D01*
X128140295Y-59199404D02*
X128045057Y-59151785D01*
X128045057Y-59151785D02*
X127997438Y-59104166D01*
X127997438Y-59104166D02*
X127949819Y-59008928D01*
X100289580Y-59570357D02*
X100337200Y-59617976D01*
X100337200Y-59617976D02*
X100384819Y-59760833D01*
X100384819Y-59760833D02*
X100384819Y-59856071D01*
X100384819Y-59856071D02*
X100337200Y-59998928D01*
X100337200Y-59998928D02*
X100241961Y-60094166D01*
X100241961Y-60094166D02*
X100146723Y-60141785D01*
X100146723Y-60141785D02*
X99956247Y-60189404D01*
X99956247Y-60189404D02*
X99813390Y-60189404D01*
X99813390Y-60189404D02*
X99622914Y-60141785D01*
X99622914Y-60141785D02*
X99527676Y-60094166D01*
X99527676Y-60094166D02*
X99432438Y-59998928D01*
X99432438Y-59998928D02*
X99384819Y-59856071D01*
X99384819Y-59856071D02*
X99384819Y-59760833D01*
X99384819Y-59760833D02*
X99432438Y-59617976D01*
X99432438Y-59617976D02*
X99480057Y-59570357D01*
X100384819Y-58617976D02*
X100384819Y-59189404D01*
X100384819Y-58903690D02*
X99384819Y-58903690D01*
X99384819Y-58903690D02*
X99527676Y-58998928D01*
X99527676Y-58998928D02*
X99622914Y-59094166D01*
X99622914Y-59094166D02*
X99670533Y-59189404D01*
X99384819Y-58284642D02*
X99384819Y-57665595D01*
X99384819Y-57665595D02*
X99765771Y-57998928D01*
X99765771Y-57998928D02*
X99765771Y-57856071D01*
X99765771Y-57856071D02*
X99813390Y-57760833D01*
X99813390Y-57760833D02*
X99861009Y-57713214D01*
X99861009Y-57713214D02*
X99956247Y-57665595D01*
X99956247Y-57665595D02*
X100194342Y-57665595D01*
X100194342Y-57665595D02*
X100289580Y-57713214D01*
X100289580Y-57713214D02*
X100337200Y-57760833D01*
X100337200Y-57760833D02*
X100384819Y-57856071D01*
X100384819Y-57856071D02*
X100384819Y-58141785D01*
X100384819Y-58141785D02*
X100337200Y-58237023D01*
X100337200Y-58237023D02*
X100289580Y-58284642D01*
X94330832Y-64754819D02*
X93997499Y-64278628D01*
X93759404Y-64754819D02*
X93759404Y-63754819D01*
X93759404Y-63754819D02*
X94140356Y-63754819D01*
X94140356Y-63754819D02*
X94235594Y-63802438D01*
X94235594Y-63802438D02*
X94283213Y-63850057D01*
X94283213Y-63850057D02*
X94330832Y-63945295D01*
X94330832Y-63945295D02*
X94330832Y-64088152D01*
X94330832Y-64088152D02*
X94283213Y-64183390D01*
X94283213Y-64183390D02*
X94235594Y-64231009D01*
X94235594Y-64231009D02*
X94140356Y-64278628D01*
X94140356Y-64278628D02*
X93759404Y-64278628D01*
X94711785Y-63850057D02*
X94759404Y-63802438D01*
X94759404Y-63802438D02*
X94854642Y-63754819D01*
X94854642Y-63754819D02*
X95092737Y-63754819D01*
X95092737Y-63754819D02*
X95187975Y-63802438D01*
X95187975Y-63802438D02*
X95235594Y-63850057D01*
X95235594Y-63850057D02*
X95283213Y-63945295D01*
X95283213Y-63945295D02*
X95283213Y-64040533D01*
X95283213Y-64040533D02*
X95235594Y-64183390D01*
X95235594Y-64183390D02*
X94664166Y-64754819D01*
X94664166Y-64754819D02*
X95283213Y-64754819D01*
X95902261Y-63754819D02*
X95997499Y-63754819D01*
X95997499Y-63754819D02*
X96092737Y-63802438D01*
X96092737Y-63802438D02*
X96140356Y-63850057D01*
X96140356Y-63850057D02*
X96187975Y-63945295D01*
X96187975Y-63945295D02*
X96235594Y-64135771D01*
X96235594Y-64135771D02*
X96235594Y-64373866D01*
X96235594Y-64373866D02*
X96187975Y-64564342D01*
X96187975Y-64564342D02*
X96140356Y-64659580D01*
X96140356Y-64659580D02*
X96092737Y-64707200D01*
X96092737Y-64707200D02*
X95997499Y-64754819D01*
X95997499Y-64754819D02*
X95902261Y-64754819D01*
X95902261Y-64754819D02*
X95807023Y-64707200D01*
X95807023Y-64707200D02*
X95759404Y-64659580D01*
X95759404Y-64659580D02*
X95711785Y-64564342D01*
X95711785Y-64564342D02*
X95664166Y-64373866D01*
X95664166Y-64373866D02*
X95664166Y-64135771D01*
X95664166Y-64135771D02*
X95711785Y-63945295D01*
X95711785Y-63945295D02*
X95759404Y-63850057D01*
X95759404Y-63850057D02*
X95807023Y-63802438D01*
X95807023Y-63802438D02*
X95902261Y-63754819D01*
X104619642Y-81339819D02*
X104286309Y-80863628D01*
X104048214Y-81339819D02*
X104048214Y-80339819D01*
X104048214Y-80339819D02*
X104429166Y-80339819D01*
X104429166Y-80339819D02*
X104524404Y-80387438D01*
X104524404Y-80387438D02*
X104572023Y-80435057D01*
X104572023Y-80435057D02*
X104619642Y-80530295D01*
X104619642Y-80530295D02*
X104619642Y-80673152D01*
X104619642Y-80673152D02*
X104572023Y-80768390D01*
X104572023Y-80768390D02*
X104524404Y-80816009D01*
X104524404Y-80816009D02*
X104429166Y-80863628D01*
X104429166Y-80863628D02*
X104048214Y-80863628D01*
X105572023Y-81339819D02*
X105000595Y-81339819D01*
X105286309Y-81339819D02*
X105286309Y-80339819D01*
X105286309Y-80339819D02*
X105191071Y-80482676D01*
X105191071Y-80482676D02*
X105095833Y-80577914D01*
X105095833Y-80577914D02*
X105000595Y-80625533D01*
X105952976Y-80435057D02*
X106000595Y-80387438D01*
X106000595Y-80387438D02*
X106095833Y-80339819D01*
X106095833Y-80339819D02*
X106333928Y-80339819D01*
X106333928Y-80339819D02*
X106429166Y-80387438D01*
X106429166Y-80387438D02*
X106476785Y-80435057D01*
X106476785Y-80435057D02*
X106524404Y-80530295D01*
X106524404Y-80530295D02*
X106524404Y-80625533D01*
X106524404Y-80625533D02*
X106476785Y-80768390D01*
X106476785Y-80768390D02*
X105905357Y-81339819D01*
X105905357Y-81339819D02*
X106524404Y-81339819D01*
%TO.C,R8*%
D12*
X96547500Y-72585276D02*
X96547500Y-73094724D01*
X97592500Y-72585276D02*
X97592500Y-73094724D01*
%TO.C,R1*%
X142985276Y-82127500D02*
X143494724Y-82127500D01*
X142985276Y-83172500D02*
X143494724Y-83172500D01*
%TO.C,TP1*%
X100680000Y-77520000D02*
G75*
G02*
X98280000Y-77520000I-1200000J0D01*
G01*
X98280000Y-77520000D02*
G75*
G02*
X100680000Y-77520000I1200000J0D01*
G01*
%TO.C,Q1*%
D13*
X108805000Y-79510000D02*
X108805000Y-82510000D01*
X110235000Y-79510000D02*
X108805000Y-79510000D01*
X111255000Y-79510000D02*
X112715000Y-79510000D01*
X112715000Y-79510000D02*
X112715000Y-82510000D01*
X112715000Y-82510000D02*
X108805000Y-82510000D01*
X111255000Y-79510000D02*
G75*
G02*
X110235000Y-79510000I-510000J0D01*
G01*
D14*
X109505000Y-80120000D02*
G75*
G02*
X109445000Y-80120000I-30000J0D01*
G01*
X109445000Y-80120000D02*
G75*
G02*
X109505000Y-80120000I30000J0D01*
G01*
D15*
%TO.C,D1*%
D12*
X112225000Y-59805000D02*
X112225000Y-61725000D01*
X112225000Y-61725000D02*
X115085000Y-61725000D01*
X115085000Y-59805000D02*
X112225000Y-59805000D01*
%TO.C,C12*%
X130420000Y-74516267D02*
X130420000Y-74223733D01*
X131440000Y-74516267D02*
X131440000Y-74223733D01*
%TO.C,R11*%
X105814724Y-87727500D02*
X105305276Y-87727500D01*
X105814724Y-88772500D02*
X105305276Y-88772500D01*
%TO.C,C16*%
X128133767Y-67665000D02*
X127841233Y-67665000D01*
X128133767Y-68685000D02*
X127841233Y-68685000D01*
%TO.C,R17*%
X91197500Y-88105276D02*
X91197500Y-88614724D01*
X92242500Y-88105276D02*
X92242500Y-88614724D01*
%TO.C,MicroSD_Card1*%
D13*
X125230000Y-76400000D02*
X140600000Y-76400000D01*
X125230000Y-77200000D02*
X125230000Y-76400000D01*
X125230000Y-79230000D02*
X125230000Y-86720000D01*
X125230000Y-89520000D02*
X125230000Y-91800000D01*
X125230000Y-91800000D02*
X140470000Y-91800000D01*
X140470000Y-91800000D02*
X140470000Y-89520000D01*
X140600000Y-76400000D02*
X140600000Y-77540000D01*
X140600000Y-79460000D02*
X140600000Y-86600000D01*
D14*
X140950000Y-77300000D02*
G75*
G02*
X140890000Y-77300000I-30000J0D01*
G01*
X140890000Y-77300000D02*
G75*
G02*
X140950000Y-77300000I30000J0D01*
G01*
%TO.C,R15*%
D12*
X122365000Y-71999724D02*
X122365000Y-71490276D01*
X123410000Y-71999724D02*
X123410000Y-71490276D01*
%TO.C,SW6*%
X153315000Y-73490000D02*
X157815000Y-73490000D01*
X157815000Y-66990000D02*
X153315000Y-66990000D01*
%TO.C,FB1*%
X123727936Y-60427500D02*
X125182064Y-60427500D01*
X123727936Y-62247500D02*
X125182064Y-62247500D01*
%TO.C,SWD1*%
X139760000Y-58810000D02*
X139760000Y-57430000D01*
X141140000Y-58810000D02*
X139760000Y-58810000D01*
X142410000Y-56050000D02*
X150140000Y-56050000D01*
X142410000Y-58810000D02*
X142410000Y-56050000D01*
X142410000Y-58810000D02*
X150140000Y-58810000D01*
X150140000Y-58810000D02*
X150140000Y-56050000D01*
%TO.C,U5*%
X98730000Y-80240000D02*
X100550000Y-80240000D01*
X98730000Y-80290000D02*
X98730000Y-80240000D01*
X98730000Y-83360000D02*
X98730000Y-83310000D01*
X100550000Y-80240000D02*
X100550000Y-80290000D01*
X100550000Y-83310000D02*
X100550000Y-83360000D01*
X100550000Y-83360000D02*
X98730000Y-83360000D01*
X98190000Y-80290000D02*
X97950000Y-79960000D01*
X98430000Y-79960000D01*
X98190000Y-80290000D01*
G36*
X98190000Y-80290000D02*
G01*
X97950000Y-79960000D01*
X98430000Y-79960000D01*
X98190000Y-80290000D01*
G37*
%TO.C,U3*%
X99317500Y-72630000D02*
X101137500Y-72630000D01*
X99317500Y-72680000D02*
X99317500Y-72630000D01*
X99317500Y-75750000D02*
X99317500Y-75700000D01*
X101137500Y-72630000D02*
X101137500Y-72680000D01*
X101137500Y-75700000D02*
X101137500Y-75750000D01*
X101137500Y-75750000D02*
X99317500Y-75750000D01*
X98777500Y-72680000D02*
X98537500Y-72350000D01*
X99017500Y-72350000D01*
X98777500Y-72680000D01*
G36*
X98777500Y-72680000D02*
G01*
X98537500Y-72350000D01*
X99017500Y-72350000D01*
X98777500Y-72680000D01*
G37*
%TO.C,SW4*%
X153360000Y-65340000D02*
X157860000Y-65340000D01*
X157860000Y-58840000D02*
X153360000Y-58840000D01*
%TO.C,C7*%
X125670000Y-64153733D02*
X125670000Y-64446267D01*
X126690000Y-64153733D02*
X126690000Y-64446267D01*
%TO.C,R19*%
X91570000Y-60945276D02*
X91570000Y-61454724D01*
X92615000Y-60945276D02*
X92615000Y-61454724D01*
%TO.C,L1*%
X104815000Y-67265000D02*
X115415000Y-67265000D01*
X104815000Y-70465000D02*
X104815000Y-67265000D01*
X104815000Y-77865000D02*
X104815000Y-74665000D01*
X115415000Y-67265000D02*
X115415000Y-70465000D01*
X115415000Y-74665000D02*
X115415000Y-77865000D01*
X115415000Y-77865000D02*
X104815000Y-77865000D01*
%TO.C,D2*%
X95005000Y-67165000D02*
X95005000Y-70465000D01*
X95005000Y-67165000D02*
X100515000Y-67165000D01*
X95005000Y-70465000D02*
X100515000Y-70465000D01*
%TO.C,C9*%
X122395000Y-64103733D02*
X122395000Y-64396267D01*
X123415000Y-64103733D02*
X123415000Y-64396267D01*
%TO.C,C17*%
X102630000Y-74781233D02*
X102630000Y-75073767D01*
X103650000Y-74781233D02*
X103650000Y-75073767D01*
%TO.C,U2*%
X104860000Y-57530000D02*
X108620000Y-57530000D01*
X104860000Y-64350000D02*
X108620000Y-64350000D01*
X108620000Y-57530000D02*
X108620000Y-58790000D01*
X108620000Y-64350000D02*
X108620000Y-63090000D01*
X103580000Y-57630000D02*
X103340000Y-57300000D01*
X103820000Y-57300000D01*
X103580000Y-57630000D01*
G36*
X103580000Y-57630000D02*
G01*
X103340000Y-57300000D01*
X103820000Y-57300000D01*
X103580000Y-57630000D01*
G37*
%TO.C,SW2*%
X163235000Y-73365000D02*
X167735000Y-73365000D01*
X167735000Y-66865000D02*
X163235000Y-66865000D01*
%TO.C,R2*%
X149254724Y-82127500D02*
X148745276Y-82127500D01*
X149254724Y-83172500D02*
X148745276Y-83172500D01*
%TO.C,C2*%
X139310000Y-64431233D02*
X139310000Y-64723767D01*
X140330000Y-64431233D02*
X140330000Y-64723767D01*
%TO.C,TP2*%
X96030000Y-73370000D02*
G75*
G02*
X93630000Y-73370000I-1200000J0D01*
G01*
X93630000Y-73370000D02*
G75*
G02*
X96030000Y-73370000I1200000J0D01*
G01*
%TO.C,R10*%
X105814724Y-85047500D02*
X105305276Y-85047500D01*
X105814724Y-86092500D02*
X105305276Y-86092500D01*
%TO.C,U6*%
X95252500Y-58715000D02*
X94202500Y-58715000D01*
X95252500Y-61035000D02*
X93952500Y-61035000D01*
X93842500Y-58715000D02*
X93562500Y-58715000D01*
X93842500Y-58435000D01*
X93842500Y-58715000D01*
G36*
X93842500Y-58715000D02*
G01*
X93562500Y-58715000D01*
X93842500Y-58435000D01*
X93842500Y-58715000D01*
G37*
%TO.C,R9*%
X96527500Y-76337776D02*
X96527500Y-76847224D01*
X97572500Y-76337776D02*
X97572500Y-76847224D01*
%TO.C,R4*%
X134147500Y-74265276D02*
X134147500Y-74774724D01*
X135192500Y-74265276D02*
X135192500Y-74774724D01*
%TO.C,C5*%
X137720000Y-61673767D02*
X137720000Y-61381233D01*
X138740000Y-61673767D02*
X138740000Y-61381233D01*
%TO.C,USB_C1*%
X142620000Y-88750000D02*
X142620000Y-87050000D01*
X151960000Y-88750000D02*
X151960000Y-87050000D01*
%TO.C,SW1*%
X142550000Y-71825000D02*
X142550000Y-71875000D01*
X142550000Y-71825000D02*
X147450000Y-71825000D01*
X142550000Y-73525000D02*
X142550000Y-75025000D01*
X142550000Y-76725000D02*
X142550000Y-76675000D01*
X142550000Y-76725000D02*
X147450000Y-76725000D01*
X147450000Y-71825000D02*
X147450000Y-71875000D01*
X147450000Y-73525000D02*
X147450000Y-75025000D01*
X147450000Y-76725000D02*
X147450000Y-76675000D01*
%TO.C,R3*%
X112587500Y-63597776D02*
X112587500Y-64107224D01*
X113632500Y-63597776D02*
X113632500Y-64107224D01*
%TO.C,SW3*%
X153160000Y-81565000D02*
X157660000Y-81565000D01*
X157660000Y-75065000D02*
X153160000Y-75065000D01*
%TO.C,C8*%
X128983767Y-61965000D02*
X128691233Y-61965000D01*
X128983767Y-62985000D02*
X128691233Y-62985000D01*
%TO.C,C1*%
X136840000Y-58223767D02*
X136840000Y-57931233D01*
X137860000Y-58223767D02*
X137860000Y-57931233D01*
%TO.C,BatteryPort1*%
X113375000Y-87850000D02*
X113375000Y-90850000D01*
X113375000Y-87850000D02*
X121475000Y-87850000D01*
X121475000Y-90850000D02*
X113375000Y-90850000D01*
X121475000Y-90850000D02*
X121475000Y-87850000D01*
%TO.C,R7*%
X146892224Y-77477500D02*
X146382776Y-77477500D01*
X146892224Y-78522500D02*
X146382776Y-78522500D01*
%TO.C,C19*%
X102220000Y-81726267D02*
X102220000Y-81433733D01*
X103240000Y-81726267D02*
X103240000Y-81433733D01*
%TO.C,C14*%
X100850000Y-62678767D02*
X100850000Y-62386233D01*
X101870000Y-62678767D02*
X101870000Y-62386233D01*
%TO.C,R5*%
X132457500Y-74245276D02*
X132457500Y-74754724D01*
X133502500Y-74245276D02*
X133502500Y-74754724D01*
%TO.C,R18*%
X97170000Y-59382776D02*
X97170000Y-59892224D01*
X98215000Y-59382776D02*
X98215000Y-59892224D01*
%TO.C,U4*%
X97983810Y-85160000D02*
X102103810Y-85160000D01*
X97983810Y-85255000D02*
X97983810Y-85160000D01*
X97983810Y-90280000D02*
X97983810Y-90185000D01*
X102103810Y-85160000D02*
X102103810Y-85255000D01*
X102103810Y-90185000D02*
X102103810Y-90280000D01*
X102103810Y-90280000D02*
X97983810Y-90280000D01*
X97443810Y-85250000D02*
X97203810Y-84920000D01*
X97683810Y-84920000D01*
X97443810Y-85250000D01*
G36*
X97443810Y-85250000D02*
G01*
X97203810Y-84920000D01*
X97683810Y-84920000D01*
X97443810Y-85250000D01*
G37*
%TO.C,Y1*%
X136460000Y-57390000D02*
X130940000Y-57390000D01*
X136460000Y-62010000D02*
X136460000Y-57390000D01*
%TO.C,C6*%
X140980000Y-64403733D02*
X140980000Y-64696267D01*
X142000000Y-64403733D02*
X142000000Y-64696267D01*
%TO.C,D3*%
X107290000Y-84640000D02*
X107290000Y-86560000D01*
X107290000Y-86560000D02*
X110150000Y-86560000D01*
X110150000Y-84640000D02*
X107290000Y-84640000D01*
%TO.C,C4*%
X128053767Y-69300000D02*
X127761233Y-69300000D01*
X128053767Y-70320000D02*
X127761233Y-70320000D01*
%TO.C,U1*%
X130690000Y-63377500D02*
X131165000Y-63377500D01*
X130690000Y-63852500D02*
X130690000Y-63377500D01*
X130690000Y-70597500D02*
X130690000Y-70122500D01*
X131165000Y-70597500D02*
X130690000Y-70597500D01*
X137435000Y-63377500D02*
X137910000Y-63377500D01*
X137910000Y-63377500D02*
X137910000Y-63852500D01*
X137910000Y-70122500D02*
X137910000Y-70597500D01*
X137910000Y-70597500D02*
X137435000Y-70597500D01*
X137050000Y-62847500D02*
X136810000Y-62517500D01*
X137290000Y-62517500D01*
X137050000Y-62847500D01*
G36*
X137050000Y-62847500D02*
G01*
X136810000Y-62517500D01*
X137290000Y-62517500D01*
X137050000Y-62847500D01*
G37*
%TO.C,C11*%
X133958767Y-55840000D02*
X133666233Y-55840000D01*
X133958767Y-56860000D02*
X133666233Y-56860000D01*
%TO.C,C20*%
X94483767Y-89265000D02*
X94191233Y-89265000D01*
X94483767Y-90285000D02*
X94191233Y-90285000D01*
%TO.C,C3*%
X138550132Y-72506665D02*
X138774226Y-72694701D01*
X139205774Y-71725299D02*
X139429868Y-71913335D01*
%TO.C,C18*%
X93005000Y-69278767D02*
X93005000Y-68986233D01*
X94025000Y-69278767D02*
X94025000Y-68986233D01*
%TO.C,R14*%
X94567224Y-86127500D02*
X94057776Y-86127500D01*
X94567224Y-87172500D02*
X94057776Y-87172500D01*
%TO.C,TFT1*%
X117210000Y-57140000D02*
X118590000Y-57140000D01*
X117210000Y-58520000D02*
X117210000Y-57140000D01*
X117210000Y-59790000D02*
X117210000Y-77680000D01*
X117210000Y-59790000D02*
X119970000Y-59790000D01*
X117210000Y-77680000D02*
X119970000Y-77680000D01*
X119970000Y-59790000D02*
X119970000Y-77680000D01*
%TO.C,R16*%
X122277500Y-68367224D02*
X122277500Y-67857776D01*
X123322500Y-68367224D02*
X123322500Y-67857776D01*
%TO.C,R13*%
X95627500Y-82567224D02*
X95627500Y-82057776D01*
X96672500Y-82567224D02*
X96672500Y-82057776D01*
%TO.C,C15*%
X125858767Y-73915000D02*
X125566233Y-73915000D01*
X125858767Y-74935000D02*
X125566233Y-74935000D01*
%TO.C,R6*%
X128002500Y-74207776D02*
X128002500Y-74717224D01*
X129047500Y-74207776D02*
X129047500Y-74717224D01*
%TO.C,D4*%
X107390000Y-87240000D02*
X107390000Y-89160000D01*
X107390000Y-89160000D02*
X110250000Y-89160000D01*
X110250000Y-87240000D02*
X107390000Y-87240000D01*
%TO.C,C10*%
X129415000Y-60083767D02*
X129415000Y-59791233D01*
X130435000Y-60083767D02*
X130435000Y-59791233D01*
%TO.C,C13*%
X100850000Y-59073767D02*
X100850000Y-58781233D01*
X101870000Y-59073767D02*
X101870000Y-58781233D01*
%TO.C,R20*%
X94675276Y-62177500D02*
X95184724Y-62177500D01*
X94675276Y-63222500D02*
X95184724Y-63222500D01*
%TO.C,R12*%
X105454724Y-81837500D02*
X104945276Y-81837500D01*
X105454724Y-82882500D02*
X104945276Y-82882500D01*
%TD*%
M02*
