%TF.GenerationSoftware,KiCad,Pcbnew,10.0.1*%
%TF.CreationDate,2026-08-11T13:48:14-07:00*%
%TF.ProjectId,RVSP_Pocket,52565350-5f50-46f6-936b-65742e6b6963,rev?*%
%TF.SameCoordinates,Original*%
%TF.FileFunction,Copper,L4,Bot*%
%TF.FilePolarity,Positive*%
%FSLAX46Y46*%
G04 Gerber Fmt 4.6, Leading zero omitted, Abs format (unit mm)*
G04 Created by KiCad (PCBNEW 10.0.1) date 2026-08-11 13:48:14*
%MOMM*%
%LPD*%
G01*
G04 APERTURE LIST*
G04 Aperture macros list*
%AMRoundRect*
0 Rectangle with rounded corners*
0 $1 Rounding radius*
0 $2 $3 $4 $5 $6 $7 $8 $9 X,Y pos of 4 corners*
0 Add a 4 corners polygon primitive as box body*
4,1,4,$2,$3,$4,$5,$6,$7,$8,$9,$2,$3,0*
0 Add four circle primitives for the rounded corners*
1,1,$1+$1,$2,$3*
1,1,$1+$1,$4,$5*
1,1,$1+$1,$6,$7*
1,1,$1+$1,$8,$9*
0 Add four rect primitives between the rounded corners*
20,1,$1+$1,$2,$3,$4,$5,0*
20,1,$1+$1,$4,$5,$6,$7,0*
20,1,$1+$1,$6,$7,$8,$9,0*
20,1,$1+$1,$8,$9,$2,$3,0*%
G04 Aperture macros list end*
%TA.AperFunction,ComponentPad*%
%ADD10C,1.500000*%
%TD*%
%TA.AperFunction,ComponentPad*%
%ADD11C,2.000000*%
%TD*%
%TA.AperFunction,ComponentPad*%
%ADD12R,1.700000X1.700000*%
%TD*%
%TA.AperFunction,ComponentPad*%
%ADD13C,1.700000*%
%TD*%
%TA.AperFunction,ComponentPad*%
%ADD14O,1.000000X2.100000*%
%TD*%
%TA.AperFunction,ComponentPad*%
%ADD15O,1.000000X1.800000*%
%TD*%
%TA.AperFunction,ComponentPad*%
%ADD16RoundRect,0.650000X-0.650000X-0.650000X0.650000X-0.650000X0.650000X0.650000X-0.650000X0.650000X0*%
%TD*%
%TA.AperFunction,ComponentPad*%
%ADD17C,2.600000*%
%TD*%
%TA.AperFunction,HeatsinkPad*%
%ADD18C,0.500000*%
%TD*%
%TA.AperFunction,HeatsinkPad*%
%ADD19R,1.900000X2.900000*%
%TD*%
%TA.AperFunction,ViaPad*%
%ADD20C,0.700000*%
%TD*%
%TA.AperFunction,ViaPad*%
%ADD21C,0.450000*%
%TD*%
%TA.AperFunction,ViaPad*%
%ADD22C,0.500000*%
%TD*%
%TA.AperFunction,ViaPad*%
%ADD23C,0.600000*%
%TD*%
%TA.AperFunction,Conductor*%
%ADD24C,0.250000*%
%TD*%
%TA.AperFunction,Conductor*%
%ADD25C,0.500000*%
%TD*%
%TA.AperFunction,Conductor*%
%ADD26C,0.300000*%
%TD*%
%TA.AperFunction,Conductor*%
%ADD27C,0.200000*%
%TD*%
G04 APERTURE END LIST*
D10*
%TO.P,MicroSD_Card1,*%
%TO.N,*%
X127900000Y-88500000D03*
X135900000Y-88500000D03*
%TD*%
D11*
%TO.P,SELECT1,1,1_1*%
%TO.N,/SELECT_BTN*%
X153065000Y-70240000D03*
%TO.P,SELECT1,2,2_2*%
%TO.N,GND*%
X158065000Y-70240000D03*
%TD*%
D12*
%TO.P,SWD1,1,Pin_1_1*%
%TO.N,+3V3*%
X141140000Y-57430000D03*
D13*
%TO.P,SWD1,2,Pin_2_2*%
%TO.N,/SWDIO*%
X143680000Y-57430000D03*
%TO.P,SWD1,3,Pin_3_3*%
%TO.N,/SWCLK*%
X146220000Y-57430000D03*
%TO.P,SWD1,4,Pin_4_4*%
%TO.N,GND*%
X148760000Y-57430000D03*
%TD*%
D11*
%TO.P,UP1,1,1_1*%
%TO.N,/UP_BTN*%
X153110000Y-62090000D03*
%TO.P,UP1,2,2_2*%
%TO.N,GND*%
X158110000Y-62090000D03*
%TD*%
%TO.P,RIGHT1,1,1_1*%
%TO.N,/RIGHT_BTN*%
X162985000Y-70115000D03*
%TO.P,RIGHT1,2,2_2*%
%TO.N,GND*%
X167985000Y-70115000D03*
%TD*%
D14*
%TO.P,USB_C1,SH,SHIELD_SH*%
%TO.N,unconnected-(USB_C1-SHIELD-PadSH)_2*%
X142970000Y-85745000D03*
D15*
%TO.N,unconnected-(USB_C1-SHIELD-PadSH)_1*%
X142970000Y-89925000D03*
D14*
%TO.N,unconnected-(USB_C1-SHIELD-PadSH)_3*%
X151610000Y-85745000D03*
D15*
%TO.N,unconnected-(USB_C1-SHIELD-PadSH)*%
X151610000Y-89925000D03*
%TD*%
D11*
%TO.P,DOWN1,1,1_1*%
%TO.N,/DWN_BTN*%
X152910000Y-78315000D03*
%TO.P,DOWN1,2,2_2*%
%TO.N,GND*%
X157910000Y-78315000D03*
%TD*%
D16*
%TO.P,BatteryPort1,1,Pin_1_1*%
%TO.N,BAT_Pos*%
X114875000Y-89350000D03*
D17*
%TO.P,BatteryPort1,2,Pin_2_2*%
%TO.N,/BAT_Neg*%
X119955000Y-89350000D03*
%TD*%
D18*
%TO.P,U4,9,EPAD_9*%
%TO.N,GND*%
X99343810Y-86520000D03*
X99343810Y-87720000D03*
X99343810Y-88920000D03*
D19*
X100043810Y-87720000D03*
D18*
X100743810Y-86520000D03*
X100743810Y-87720000D03*
X100743810Y-88920000D03*
%TD*%
D12*
%TO.P,TFT1,1,Pin_1_1*%
%TO.N,GND*%
X118590000Y-58520000D03*
D13*
%TO.P,TFT1,2,Pin_2_2*%
%TO.N,+3V3*%
X118590000Y-61060000D03*
%TO.P,TFT1,3,Pin_3_3*%
%TO.N,/TFT_SCLK*%
X118590000Y-63600000D03*
%TO.P,TFT1,4,Pin_4_4*%
%TO.N,/TFT_MOSI*%
X118590000Y-66140000D03*
%TO.P,TFT1,5,Pin_5_5*%
%TO.N,/TFT_RST*%
X118590000Y-68680000D03*
%TO.P,TFT1,6,Pin_6_6*%
%TO.N,/TFT_DC*%
X118590000Y-71220000D03*
%TO.P,TFT1,7,Pin_7_7*%
%TO.N,/TFT_CS*%
X118590000Y-73760000D03*
%TO.P,TFT1,8,Pin_8_8*%
%TO.N,/TFT_BL*%
X118590000Y-76300000D03*
%TD*%
D20*
%TO.N,BAT_5V*%
X97230000Y-70300000D03*
D21*
X94620000Y-61430000D03*
D20*
X97330000Y-67460000D03*
X96050000Y-70250000D03*
X95730000Y-67490000D03*
X94810000Y-70160000D03*
D22*
%TO.N,GND*%
X106570000Y-80320000D03*
D20*
X113080000Y-65950000D03*
D22*
X93410000Y-90750000D03*
X129670000Y-75950000D03*
D21*
X137210000Y-72310000D03*
D22*
X130600000Y-57930000D03*
D20*
X100200000Y-58070000D03*
D22*
X91670000Y-90350000D03*
D21*
X129872500Y-69287500D03*
X96910000Y-62750000D03*
X128870000Y-61660000D03*
X125610000Y-68050000D03*
X124462500Y-65235000D03*
X97920000Y-74710000D03*
D22*
X96010000Y-88400000D03*
X94580000Y-68290000D03*
D21*
X137100000Y-60680000D03*
D23*
X140460000Y-72010000D03*
D22*
X123760000Y-74450000D03*
D21*
X130150000Y-72380000D03*
D20*
X100150000Y-61480000D03*
D22*
X136860000Y-61180000D03*
D21*
X104330000Y-75900000D03*
D22*
X127650000Y-61400000D03*
X96130000Y-84270000D03*
X131830000Y-56340000D03*
D21*
X137340000Y-56090000D03*
D20*
X103510000Y-57270000D03*
D23*
X151150000Y-83690000D03*
D21*
X127710000Y-71120000D03*
D22*
X96030000Y-85570000D03*
D21*
X93040000Y-58380000D03*
D22*
X144650000Y-78040000D03*
D21*
X143040000Y-83730000D03*
D22*
X97080000Y-78610000D03*
D20*
X142630000Y-65380000D03*
%TO.N,BAT_Pos*%
X103540000Y-71830000D03*
X115050000Y-87410000D03*
X101920000Y-76050000D03*
D21*
X101970000Y-90310000D03*
D20*
X103550000Y-70980000D03*
X101060000Y-76030000D03*
X122910000Y-75600000D03*
X106110000Y-83450000D03*
X115940000Y-87420000D03*
X114030000Y-87400000D03*
D21*
X103220000Y-90310000D03*
D20*
X116210000Y-80120000D03*
X103530000Y-72690000D03*
%TO.N,/BAT_Neg*%
X119820000Y-87420000D03*
X101230000Y-79810000D03*
D22*
X115460000Y-80740000D03*
D20*
X102010000Y-79810000D03*
X118780000Y-87440000D03*
X120940000Y-87440000D03*
X100470000Y-79800000D03*
D22*
X114880000Y-80730000D03*
D20*
%TO.N,+3V3*%
X111630000Y-59710000D03*
D21*
X138230000Y-73080000D03*
D20*
X111610000Y-63160000D03*
X111630000Y-62000000D03*
D21*
X137120000Y-62160000D03*
X135810000Y-73580000D03*
X129970000Y-70350000D03*
D20*
X111660000Y-60780000D03*
X120960000Y-61070000D03*
X111660000Y-58360000D03*
X145030000Y-72700000D03*
X110330000Y-58370000D03*
X142630000Y-63340000D03*
X142640000Y-64130000D03*
D22*
X129970000Y-75190000D03*
X129610000Y-73580000D03*
%TO.N,/SD_CS*%
X133830000Y-74600000D03*
X133830000Y-72200000D03*
%TO.N,/SD_MOSI*%
X132980000Y-74590000D03*
X133057024Y-72713000D03*
%TO.N,/SD_CLK*%
X130700000Y-76330000D03*
X132050000Y-71230000D03*
%TO.N,/SD_MISO*%
X131455000Y-72060000D03*
X129530000Y-74350000D03*
D21*
%TO.N,/BAT_LVL*%
X126170000Y-71570000D03*
X129840000Y-68010000D03*
D20*
%TO.N,/SELECT_BTN*%
X145060000Y-69055000D03*
D21*
%TO.N,/SWDIO*%
X136430000Y-71570000D03*
D20*
%TO.N,/SWCLK*%
X140870000Y-69830000D03*
%TO.N,/UP_BTN*%
X146547702Y-68005000D03*
D21*
%TO.N,VBUS*%
X96145126Y-61108322D03*
D20*
X110700000Y-86825000D03*
D21*
X96120000Y-90040000D03*
X96750000Y-60810000D03*
X92530000Y-59360000D03*
D20*
X146600000Y-86930000D03*
X144860000Y-84030000D03*
X145470000Y-86950000D03*
X148960000Y-86890000D03*
D21*
X93050000Y-60090000D03*
X96140000Y-89510000D03*
D20*
X109775000Y-86875000D03*
D21*
X91710000Y-59360000D03*
X96190000Y-60510000D03*
D20*
X149780000Y-83970000D03*
D21*
X103200000Y-84810000D03*
X102140000Y-84810000D03*
D20*
X147740000Y-86940000D03*
%TO.N,REG_IN*%
X100180000Y-62800000D03*
X96360000Y-59630000D03*
%TO.N,/RIGHT_BTN*%
X146300000Y-68920000D03*
%TO.N,/BAT_ON*%
X138660000Y-57290000D03*
X139595000Y-69705000D03*
X142067298Y-60617298D03*
X126920000Y-56540000D03*
%TO.N,/DWN_BTN*%
X142890000Y-66655000D03*
D21*
%TO.N,/NRST*%
X136610000Y-58020000D03*
X133346091Y-62223909D03*
D22*
%TO.N,/HSE_IN*%
X135060000Y-62340000D03*
X133680000Y-59750000D03*
D21*
%TO.N,/TFT_CS*%
X129770000Y-63820000D03*
%TO.N,/TFT_BL*%
X130626232Y-63606232D03*
%TO.N,/TFT_SCLK*%
X128700000Y-64710000D03*
%TO.N,/TFT_MOSI*%
X128740000Y-66230000D03*
%TO.N,/TFT_DC*%
X127960000Y-66755000D03*
%TO.N,/TFT_RST*%
X124020000Y-66755000D03*
%TD*%
%TO.N,BAT_Pos*%
D24*
X116210000Y-80120000D02*
X116210000Y-80030000D01*
X122750000Y-75760000D02*
X122910000Y-75600000D01*
%TO.N,/SD_CS*%
X133830000Y-74600000D02*
X133830000Y-72200000D01*
%TO.N,/SD_MOSI*%
X132980000Y-74590000D02*
X132980000Y-72790024D01*
X132980000Y-72790024D02*
X133057024Y-72713000D01*
%TO.N,/SD_CLK*%
X132050000Y-71230000D02*
X132030000Y-71250000D01*
X132030000Y-71250000D02*
X132030000Y-75000000D01*
X132030000Y-75000000D02*
X130700000Y-76330000D01*
%TO.N,/SD_MISO*%
X131455000Y-73585000D02*
X131455000Y-72060000D01*
X130690000Y-74350000D02*
X131455000Y-73585000D01*
X129530000Y-74350000D02*
X130690000Y-74350000D01*
%TO.N,/BAT_LVL*%
X126170000Y-71570000D02*
X126420000Y-71570000D01*
X129840000Y-68150000D02*
X129840000Y-68010000D01*
X126420000Y-71570000D02*
X129840000Y-68150000D01*
%TO.N,/SELECT_BTN*%
X145060000Y-69140000D02*
X146190000Y-70270000D01*
X146220000Y-70240000D02*
X153065000Y-70240000D01*
X145060000Y-69055000D02*
X145060000Y-69140000D01*
X146190000Y-70270000D02*
X146220000Y-70240000D01*
%TO.N,/SWDIO*%
X143680000Y-57430000D02*
X143680000Y-58050000D01*
X138920000Y-69080000D02*
X136430000Y-71570000D01*
X143680000Y-58050000D02*
X138920000Y-62810000D01*
X138920000Y-62810000D02*
X138920000Y-69080000D01*
%TO.N,/SWCLK*%
X140870000Y-69830000D02*
X140870000Y-62780000D01*
X140870000Y-62780000D02*
X146220000Y-57430000D01*
%TO.N,/UP_BTN*%
X146547702Y-63592298D02*
X148050000Y-62090000D01*
X148050000Y-62090000D02*
X153110000Y-62090000D01*
X146547702Y-68005000D02*
X146547702Y-63592298D01*
%TO.N,REG_IN*%
D25*
X96360000Y-59630000D02*
X97010000Y-59630000D01*
X97010000Y-59630000D02*
X100180000Y-62800000D01*
%TO.N,/RIGHT_BTN*%
D24*
X150250000Y-65380000D02*
X158250000Y-65380000D01*
X158250000Y-65380000D02*
X162985000Y-70115000D01*
X146710000Y-68920000D02*
X150250000Y-65380000D01*
X146300000Y-68920000D02*
X146710000Y-68920000D01*
%TO.N,/BAT_ON*%
D26*
X142067298Y-60617298D02*
X139595000Y-63089596D01*
X139595000Y-63089596D02*
X139595000Y-69705000D01*
X127670000Y-57290000D02*
X138660000Y-57290000D01*
X126920000Y-56540000D02*
X127670000Y-57290000D01*
%TO.N,/DWN_BTN*%
D24*
X152165000Y-78315000D02*
X152910000Y-78315000D01*
X142890000Y-66655000D02*
X142880000Y-66665000D01*
X142880000Y-66665000D02*
X142880000Y-69030000D01*
X142880000Y-69030000D02*
X152165000Y-78315000D01*
%TO.N,/NRST*%
X134596827Y-58020000D02*
X136610000Y-58020000D01*
X133105000Y-59511827D02*
X134596827Y-58020000D01*
X133346091Y-62223909D02*
X133105000Y-61982818D01*
X133105000Y-61982818D02*
X133105000Y-59511827D01*
%TO.N,/HSE_IN*%
X134960000Y-62340000D02*
X135060000Y-62340000D01*
X133680000Y-59750000D02*
X133680000Y-61060000D01*
X133680000Y-61060000D02*
X134960000Y-62340000D01*
%TO.N,/TFT_CS*%
D27*
X121980000Y-73760000D02*
X118590000Y-73760000D01*
X129770000Y-65970000D02*
X121980000Y-73760000D01*
X129770000Y-63820000D02*
X129770000Y-65970000D01*
%TO.N,/TFT_BL*%
X120470000Y-76300000D02*
X130610000Y-66160000D01*
X130610000Y-63622464D02*
X130626232Y-63606232D01*
X118590000Y-76300000D02*
X120470000Y-76300000D01*
X130610000Y-66160000D02*
X130610000Y-63622464D01*
%TO.N,/TFT_SCLK*%
X121810000Y-63600000D02*
X118590000Y-63600000D01*
X122920000Y-64710000D02*
X121810000Y-63600000D01*
X128700000Y-64710000D02*
X122920000Y-64710000D01*
%TO.N,/TFT_MOSI*%
X128740000Y-66230000D02*
X128650000Y-66140000D01*
X128650000Y-66140000D02*
X118590000Y-66140000D01*
%TO.N,/TFT_DC*%
X123470000Y-71220000D02*
X118590000Y-71220000D01*
X127935000Y-66755000D02*
X123470000Y-71220000D01*
X127960000Y-66755000D02*
X127935000Y-66755000D01*
%TO.N,/TFT_RST*%
X122105000Y-68670000D02*
X118600000Y-68670000D01*
X118600000Y-68670000D02*
X118590000Y-68680000D01*
X124020000Y-66755000D02*
X122105000Y-68670000D01*
%TD*%
%TA.AperFunction,Conductor*%
%TO.N,BAT_5V*%
G36*
X94796963Y-59950060D02*
G01*
X94843091Y-60002538D01*
X94854574Y-60050128D01*
X94854863Y-60057713D01*
X95114947Y-66887463D01*
X97868886Y-66966523D01*
X97935333Y-66988123D01*
X97979554Y-67042219D01*
X97989326Y-67091161D01*
X97970675Y-70448327D01*
X97950618Y-70515256D01*
X97897561Y-70560717D01*
X97848336Y-70571627D01*
X95105659Y-70608318D01*
X95038362Y-70589532D01*
X94991905Y-70537345D01*
X94980000Y-70484329D01*
X94980000Y-69099999D01*
X94979999Y-69099999D01*
X92656186Y-69118969D01*
X92588988Y-69099832D01*
X92542804Y-69047403D01*
X92531179Y-68993814D01*
X92533547Y-68740500D01*
X92538311Y-68230691D01*
X94129500Y-68230691D01*
X94129500Y-68349309D01*
X94160201Y-68463886D01*
X94219511Y-68566613D01*
X94303387Y-68650489D01*
X94406114Y-68709799D01*
X94520691Y-68740500D01*
X94520694Y-68740500D01*
X94639306Y-68740500D01*
X94639309Y-68740500D01*
X94753886Y-68709799D01*
X94856613Y-68650489D01*
X94940489Y-68566613D01*
X94999799Y-68463886D01*
X95030500Y-68349309D01*
X95030500Y-68230691D01*
X94999799Y-68116114D01*
X94940489Y-68013387D01*
X94856613Y-67929511D01*
X94753886Y-67870201D01*
X94639309Y-67839500D01*
X94520691Y-67839500D01*
X94406114Y-67870201D01*
X94406112Y-67870201D01*
X94406112Y-67870202D01*
X94303387Y-67929511D01*
X94303384Y-67929513D01*
X94219513Y-68013384D01*
X94219511Y-68013387D01*
X94160201Y-68116114D01*
X94129500Y-68230691D01*
X92538311Y-68230691D01*
X92548842Y-67103845D01*
X92569153Y-67036995D01*
X92622382Y-66991735D01*
X92673844Y-66981010D01*
X94374965Y-66994897D01*
X94325865Y-60057710D01*
X94345075Y-59990536D01*
X94397554Y-59944408D01*
X94448982Y-59932838D01*
X94729788Y-59930850D01*
X94796963Y-59950060D01*
G37*
%TD.AperFunction*%
%TD*%
%TA.AperFunction,Conductor*%
%TO.N,BAT_Pos*%
G36*
X107307948Y-69952226D02*
G01*
X107485051Y-69967360D01*
X107508947Y-69971793D01*
X107673796Y-70019481D01*
X107696371Y-70028493D01*
X107848754Y-70107429D01*
X107869138Y-70120671D01*
X107983485Y-70212065D01*
X108003185Y-70227810D01*
X108020594Y-70244774D01*
X108131168Y-70376011D01*
X108144934Y-70396047D01*
X108227782Y-70546339D01*
X108237373Y-70568675D01*
X108289304Y-70732228D01*
X108294355Y-70756006D01*
X108314060Y-70932641D01*
X108314814Y-70944786D01*
X108424738Y-79447720D01*
X115962908Y-79352806D01*
X115975144Y-79353256D01*
X116153459Y-79368678D01*
X116177509Y-79373183D01*
X116343395Y-79421601D01*
X116366093Y-79430742D01*
X116444988Y-79471988D01*
X116519235Y-79510804D01*
X116539702Y-79524230D01*
X116674129Y-79632811D01*
X116691560Y-79649996D01*
X116802041Y-79782870D01*
X116815756Y-79803144D01*
X116897981Y-79955126D01*
X116907447Y-79977700D01*
X116958215Y-80142877D01*
X116963062Y-80166870D01*
X116981013Y-80344937D01*
X116981638Y-80357174D01*
X116998129Y-90589386D01*
X116997561Y-90601443D01*
X116980704Y-90776926D01*
X116976076Y-90800588D01*
X116927317Y-90963675D01*
X116918197Y-90985995D01*
X116838801Y-91136559D01*
X116825534Y-91156693D01*
X116718498Y-91289048D01*
X116701586Y-91306233D01*
X116570959Y-91415373D01*
X116551041Y-91428959D01*
X116401759Y-91510759D01*
X116379589Y-91520234D01*
X116217309Y-91571595D01*
X116193724Y-91576600D01*
X116018534Y-91596262D01*
X116006488Y-91597023D01*
X101705095Y-91802809D01*
X101692933Y-91802387D01*
X101515823Y-91787512D01*
X101491918Y-91783113D01*
X101327003Y-91735668D01*
X101304412Y-91726690D01*
X101151917Y-91647979D01*
X101131513Y-91634766D01*
X100997307Y-91527820D01*
X100979873Y-91510880D01*
X100869107Y-91379802D01*
X100855313Y-91359788D01*
X100772247Y-91209621D01*
X100762623Y-91187299D01*
X100710451Y-91023817D01*
X100705366Y-91000047D01*
X100702566Y-90975280D01*
X100685401Y-90823436D01*
X100684630Y-90811297D01*
X100684309Y-90788982D01*
X100665708Y-89496284D01*
X100684426Y-89428968D01*
X100736566Y-89382458D01*
X100789695Y-89370500D01*
X101013560Y-89370500D01*
X101013561Y-89370499D01*
X101028378Y-89367552D01*
X101072039Y-89358868D01*
X101072039Y-89358867D01*
X101072041Y-89358867D01*
X101138362Y-89314552D01*
X101182677Y-89248231D01*
X101182677Y-89248229D01*
X101182678Y-89248229D01*
X101194309Y-89189752D01*
X101194310Y-89189750D01*
X101194310Y-86802525D01*
X109224500Y-86802525D01*
X109224500Y-86947475D01*
X109262016Y-87087485D01*
X109262017Y-87087488D01*
X109334488Y-87213011D01*
X109334490Y-87213013D01*
X109334491Y-87213015D01*
X109436985Y-87315509D01*
X109436986Y-87315510D01*
X109436988Y-87315511D01*
X109562511Y-87387982D01*
X109562512Y-87387982D01*
X109562515Y-87387984D01*
X109702525Y-87425500D01*
X109702528Y-87425500D01*
X109847472Y-87425500D01*
X109847475Y-87425500D01*
X109987485Y-87387984D01*
X110113015Y-87315509D01*
X110174821Y-87253702D01*
X110236140Y-87220220D01*
X110305832Y-87225204D01*
X110350178Y-87253702D01*
X110361985Y-87265509D01*
X110361987Y-87265510D01*
X110361988Y-87265511D01*
X110487511Y-87337982D01*
X110487512Y-87337982D01*
X110487515Y-87337984D01*
X110627525Y-87375500D01*
X110627528Y-87375500D01*
X110772472Y-87375500D01*
X110772475Y-87375500D01*
X110912485Y-87337984D01*
X111038015Y-87265509D01*
X111140509Y-87163015D01*
X111212984Y-87037485D01*
X111250500Y-86897475D01*
X111250500Y-86752525D01*
X111212984Y-86612515D01*
X111169378Y-86536988D01*
X111140511Y-86486988D01*
X111140506Y-86486982D01*
X111038017Y-86384493D01*
X111038011Y-86384488D01*
X110912488Y-86312017D01*
X110912489Y-86312017D01*
X110901006Y-86308940D01*
X110772475Y-86274500D01*
X110627525Y-86274500D01*
X110498993Y-86308940D01*
X110487511Y-86312017D01*
X110361988Y-86384488D01*
X110361982Y-86384493D01*
X110300181Y-86446295D01*
X110238858Y-86479780D01*
X110169166Y-86474796D01*
X110124819Y-86446295D01*
X110113017Y-86434493D01*
X110113011Y-86434488D01*
X109987488Y-86362017D01*
X109987489Y-86362017D01*
X109976006Y-86358940D01*
X109847475Y-86324500D01*
X109702525Y-86324500D01*
X109573993Y-86358940D01*
X109562511Y-86362017D01*
X109436988Y-86434488D01*
X109436982Y-86434493D01*
X109334493Y-86536982D01*
X109334488Y-86536988D01*
X109262017Y-86662511D01*
X109262016Y-86662515D01*
X109224500Y-86802525D01*
X101194310Y-86802525D01*
X101194310Y-86250249D01*
X101194309Y-86250247D01*
X101182678Y-86191770D01*
X101182677Y-86191769D01*
X101138362Y-86125447D01*
X101072040Y-86081132D01*
X101072039Y-86081131D01*
X101013562Y-86069500D01*
X101013558Y-86069500D01*
X100738628Y-86069500D01*
X100671589Y-86049815D01*
X100625834Y-85997011D01*
X100614641Y-85947284D01*
X100597470Y-84753982D01*
X101714500Y-84753982D01*
X101714500Y-84866018D01*
X101743497Y-84974237D01*
X101799515Y-85071263D01*
X101878737Y-85150485D01*
X101975763Y-85206503D01*
X102083982Y-85235500D01*
X102083984Y-85235500D01*
X102196016Y-85235500D01*
X102196018Y-85235500D01*
X102304237Y-85206503D01*
X102401263Y-85150485D01*
X102480485Y-85071263D01*
X102536503Y-84974237D01*
X102550225Y-84923022D01*
X102586590Y-84863363D01*
X102649437Y-84832834D01*
X102718812Y-84841129D01*
X102772690Y-84885614D01*
X102789774Y-84923021D01*
X102803497Y-84974237D01*
X102859515Y-85071263D01*
X102938737Y-85150485D01*
X103035763Y-85206503D01*
X103143982Y-85235500D01*
X103143984Y-85235500D01*
X103256016Y-85235500D01*
X103256018Y-85235500D01*
X103364237Y-85206503D01*
X103461263Y-85150485D01*
X103540485Y-85071263D01*
X103596503Y-84974237D01*
X103625500Y-84866018D01*
X103625500Y-84753982D01*
X103596503Y-84645763D01*
X103540485Y-84548737D01*
X103461263Y-84469515D01*
X103364237Y-84413497D01*
X103256018Y-84384500D01*
X103143982Y-84384500D01*
X103035763Y-84413497D01*
X103035760Y-84413498D01*
X102938740Y-84469513D01*
X102938734Y-84469517D01*
X102859517Y-84548734D01*
X102859513Y-84548740D01*
X102803498Y-84645760D01*
X102803497Y-84645761D01*
X102789775Y-84696976D01*
X102753410Y-84756636D01*
X102690563Y-84787165D01*
X102621187Y-84778870D01*
X102567309Y-84734385D01*
X102550225Y-84696976D01*
X102536502Y-84645761D01*
X102536501Y-84645760D01*
X102480485Y-84548737D01*
X102401263Y-84469515D01*
X102304237Y-84413497D01*
X102196018Y-84384500D01*
X102083982Y-84384500D01*
X101975763Y-84413497D01*
X101975760Y-84413498D01*
X101878740Y-84469513D01*
X101878734Y-84469517D01*
X101799517Y-84548734D01*
X101799513Y-84548740D01*
X101743498Y-84645760D01*
X101743498Y-84645761D01*
X101743497Y-84645763D01*
X101714500Y-84753982D01*
X100597470Y-84753982D01*
X100597379Y-84747639D01*
X100592154Y-84384500D01*
X100535529Y-80449294D01*
X100554247Y-80381980D01*
X100606387Y-80335470D01*
X100607992Y-80334724D01*
X100617413Y-80330420D01*
X100682485Y-80312984D01*
X100784453Y-80254112D01*
X100789815Y-80251663D01*
X100818785Y-80247493D01*
X100847237Y-80240591D01*
X100853656Y-80242475D01*
X100858972Y-80241711D01*
X100873245Y-80248227D01*
X100903337Y-80257063D01*
X101017515Y-80322984D01*
X101157525Y-80360500D01*
X101157528Y-80360500D01*
X101302472Y-80360500D01*
X101302475Y-80360500D01*
X101442485Y-80322984D01*
X101558001Y-80256290D01*
X101625899Y-80239818D01*
X101681998Y-80256290D01*
X101797515Y-80322984D01*
X101937525Y-80360500D01*
X101937528Y-80360500D01*
X102082472Y-80360500D01*
X102082475Y-80360500D01*
X102222485Y-80322984D01*
X102330379Y-80260691D01*
X106119500Y-80260691D01*
X106119500Y-80379309D01*
X106150201Y-80493886D01*
X106209511Y-80596613D01*
X106293387Y-80680489D01*
X106396114Y-80739799D01*
X106510691Y-80770500D01*
X106510694Y-80770500D01*
X106629306Y-80770500D01*
X106629309Y-80770500D01*
X106743886Y-80739799D01*
X106846613Y-80680489D01*
X106856411Y-80670691D01*
X114429500Y-80670691D01*
X114429500Y-80789309D01*
X114460201Y-80903886D01*
X114519511Y-81006613D01*
X114603387Y-81090489D01*
X114706114Y-81149799D01*
X114820691Y-81180500D01*
X114820694Y-81180500D01*
X114939306Y-81180500D01*
X114939309Y-81180500D01*
X115053886Y-81149799D01*
X115099338Y-81123556D01*
X115167237Y-81107083D01*
X115223339Y-81123555D01*
X115286114Y-81159799D01*
X115400691Y-81190500D01*
X115400694Y-81190500D01*
X115519306Y-81190500D01*
X115519309Y-81190500D01*
X115633886Y-81159799D01*
X115736613Y-81100489D01*
X115820489Y-81016613D01*
X115879799Y-80913886D01*
X115910500Y-80799309D01*
X115910500Y-80680691D01*
X115879799Y-80566114D01*
X115820489Y-80463387D01*
X115736613Y-80379511D01*
X115633886Y-80320201D01*
X115519309Y-80289500D01*
X115400691Y-80289500D01*
X115295505Y-80317684D01*
X115286110Y-80320202D01*
X115240660Y-80346443D01*
X115172759Y-80362916D01*
X115116660Y-80346443D01*
X115053889Y-80310202D01*
X115053890Y-80310202D01*
X115044494Y-80307684D01*
X114939309Y-80279500D01*
X114820691Y-80279500D01*
X114706114Y-80310201D01*
X114706112Y-80310201D01*
X114706112Y-80310202D01*
X114603387Y-80369511D01*
X114603384Y-80369513D01*
X114519513Y-80453384D01*
X114519511Y-80453387D01*
X114460201Y-80556114D01*
X114429500Y-80670691D01*
X106856411Y-80670691D01*
X106930489Y-80596613D01*
X106989799Y-80493886D01*
X107020500Y-80379309D01*
X107020500Y-80260691D01*
X106989799Y-80146114D01*
X106930489Y-80043387D01*
X106846613Y-79959511D01*
X106743886Y-79900201D01*
X106629309Y-79869500D01*
X106510691Y-79869500D01*
X106396114Y-79900201D01*
X106396112Y-79900201D01*
X106396112Y-79900202D01*
X106293387Y-79959511D01*
X106293384Y-79959513D01*
X106209513Y-80043384D01*
X106209511Y-80043387D01*
X106150201Y-80146114D01*
X106119500Y-80260691D01*
X102330379Y-80260691D01*
X102348015Y-80250509D01*
X102450509Y-80148015D01*
X102522984Y-80022485D01*
X102560500Y-79882475D01*
X102560500Y-79737525D01*
X102522984Y-79597515D01*
X102517210Y-79587515D01*
X102450511Y-79471988D01*
X102450506Y-79471982D01*
X102348017Y-79369493D01*
X102348011Y-79369488D01*
X102222488Y-79297017D01*
X102222489Y-79297017D01*
X102211006Y-79293940D01*
X102082475Y-79259500D01*
X101937525Y-79259500D01*
X101808993Y-79293940D01*
X101797511Y-79297017D01*
X101682000Y-79363708D01*
X101614100Y-79380181D01*
X101558000Y-79363708D01*
X101442488Y-79297017D01*
X101442489Y-79297017D01*
X101431006Y-79293940D01*
X101302475Y-79259500D01*
X101157525Y-79259500D01*
X101028993Y-79293940D01*
X101017511Y-79297017D01*
X100920660Y-79352935D01*
X100915089Y-79354286D01*
X100910778Y-79358063D01*
X100881518Y-79362430D01*
X100852760Y-79369408D01*
X100845861Y-79367754D01*
X100841675Y-79368379D01*
X100825911Y-79362970D01*
X100807757Y-79358618D01*
X100802063Y-79356054D01*
X100682485Y-79287016D01*
X100599043Y-79264657D01*
X100589906Y-79260544D01*
X100570677Y-79244063D01*
X100549054Y-79230883D01*
X100544598Y-79221711D01*
X100536856Y-79215075D01*
X100529590Y-79190813D01*
X100518526Y-79168036D01*
X100516823Y-79149269D01*
X100469262Y-75843982D01*
X103904500Y-75843982D01*
X103904500Y-75956018D01*
X103933497Y-76064237D01*
X103989515Y-76161263D01*
X104068737Y-76240485D01*
X104165763Y-76296503D01*
X104273982Y-76325500D01*
X104273984Y-76325500D01*
X104386016Y-76325500D01*
X104386018Y-76325500D01*
X104494237Y-76296503D01*
X104591263Y-76240485D01*
X104670485Y-76161263D01*
X104726503Y-76064237D01*
X104755500Y-75956018D01*
X104755500Y-75843982D01*
X104726503Y-75735763D01*
X104670485Y-75638737D01*
X104591263Y-75559515D01*
X104494237Y-75503497D01*
X104386018Y-75474500D01*
X104273982Y-75474500D01*
X104165763Y-75503497D01*
X104165760Y-75503498D01*
X104068740Y-75559513D01*
X104068734Y-75559517D01*
X103989517Y-75638734D01*
X103989513Y-75638740D01*
X103933498Y-75735760D01*
X103933497Y-75735763D01*
X103904500Y-75843982D01*
X100469262Y-75843982D01*
X100400260Y-71048561D01*
X100400682Y-71036419D01*
X100415588Y-70859125D01*
X100419992Y-70835216D01*
X100467531Y-70670145D01*
X100476526Y-70647540D01*
X100555377Y-70494944D01*
X100568613Y-70474529D01*
X100675746Y-70340264D01*
X100692714Y-70322826D01*
X100824004Y-70212065D01*
X100844042Y-70198281D01*
X100994444Y-70115281D01*
X101016780Y-70105680D01*
X101180497Y-70053647D01*
X101204279Y-70048592D01*
X101381078Y-70028851D01*
X101393225Y-70028096D01*
X106319423Y-69964410D01*
X107295817Y-69951787D01*
X107307948Y-69952226D01*
G37*
%TD.AperFunction*%
%TD*%
M02*
