%TF.GenerationSoftware,KiCad,Pcbnew,10.0.1*%
%TF.CreationDate,2026-08-11T13:48:14-07:00*%
%TF.ProjectId,RVSP_Pocket,52565350-5f50-46f6-936b-65742e6b6963,rev?*%
%TF.SameCoordinates,Original*%
%TF.FileFunction,Legend,Bot*%
%TF.FilePolarity,Positive*%
%FSLAX46Y46*%
G04 Gerber Fmt 4.6, Leading zero omitted, Abs format (unit mm)*
G04 Created by KiCad (PCBNEW 10.0.1) date 2026-08-11 13:48:14*
%MOMM*%
%LPD*%
G01*
G04 APERTURE LIST*
%ADD10C,0.300000*%
%ADD11C,0.450000*%
%ADD12C,0.150000*%
%ADD13C,0.000000*%
G04 APERTURE END LIST*
D10*
X164405489Y-65940828D02*
X163262632Y-66369400D01*
X163262632Y-66369400D02*
X164405489Y-66797971D01*
X162548346Y-65940828D02*
X161405489Y-66369400D01*
X161405489Y-66369400D02*
X162548346Y-66797971D01*
X159548346Y-66940828D02*
X159548346Y-65440828D01*
X159548346Y-66155114D02*
X158691203Y-66155114D01*
X158691203Y-66940828D02*
X158691203Y-65440828D01*
X157762631Y-66940828D02*
X157905488Y-66869400D01*
X157905488Y-66869400D02*
X157976917Y-66797971D01*
X157976917Y-66797971D02*
X158048345Y-66655114D01*
X158048345Y-66655114D02*
X158048345Y-66226542D01*
X158048345Y-66226542D02*
X157976917Y-66083685D01*
X157976917Y-66083685D02*
X157905488Y-66012257D01*
X157905488Y-66012257D02*
X157762631Y-65940828D01*
X157762631Y-65940828D02*
X157548345Y-65940828D01*
X157548345Y-65940828D02*
X157405488Y-66012257D01*
X157405488Y-66012257D02*
X157334060Y-66083685D01*
X157334060Y-66083685D02*
X157262631Y-66226542D01*
X157262631Y-66226542D02*
X157262631Y-66655114D01*
X157262631Y-66655114D02*
X157334060Y-66797971D01*
X157334060Y-66797971D02*
X157405488Y-66869400D01*
X157405488Y-66869400D02*
X157548345Y-66940828D01*
X157548345Y-66940828D02*
X157762631Y-66940828D01*
X156762631Y-65940828D02*
X156476917Y-66940828D01*
X156476917Y-66940828D02*
X156191202Y-66226542D01*
X156191202Y-66226542D02*
X155905488Y-66940828D01*
X155905488Y-66940828D02*
X155619774Y-65940828D01*
X154119773Y-65940828D02*
X153548345Y-65940828D01*
X153905488Y-66940828D02*
X153905488Y-65655114D01*
X153905488Y-65655114D02*
X153834059Y-65512257D01*
X153834059Y-65512257D02*
X153691202Y-65440828D01*
X153691202Y-65440828D02*
X153548345Y-65440828D01*
X152405488Y-66940828D02*
X152405488Y-66155114D01*
X152405488Y-66155114D02*
X152476916Y-66012257D01*
X152476916Y-66012257D02*
X152619773Y-65940828D01*
X152619773Y-65940828D02*
X152905488Y-65940828D01*
X152905488Y-65940828D02*
X153048345Y-66012257D01*
X152405488Y-66869400D02*
X152548345Y-66940828D01*
X152548345Y-66940828D02*
X152905488Y-66940828D01*
X152905488Y-66940828D02*
X153048345Y-66869400D01*
X153048345Y-66869400D02*
X153119773Y-66726542D01*
X153119773Y-66726542D02*
X153119773Y-66583685D01*
X153119773Y-66583685D02*
X153048345Y-66440828D01*
X153048345Y-66440828D02*
X152905488Y-66369400D01*
X152905488Y-66369400D02*
X152548345Y-66369400D01*
X152548345Y-66369400D02*
X152405488Y-66297971D01*
X151762630Y-66869400D02*
X151619773Y-66940828D01*
X151619773Y-66940828D02*
X151334059Y-66940828D01*
X151334059Y-66940828D02*
X151191202Y-66869400D01*
X151191202Y-66869400D02*
X151119773Y-66726542D01*
X151119773Y-66726542D02*
X151119773Y-66655114D01*
X151119773Y-66655114D02*
X151191202Y-66512257D01*
X151191202Y-66512257D02*
X151334059Y-66440828D01*
X151334059Y-66440828D02*
X151548345Y-66440828D01*
X151548345Y-66440828D02*
X151691202Y-66369400D01*
X151691202Y-66369400D02*
X151762630Y-66226542D01*
X151762630Y-66226542D02*
X151762630Y-66155114D01*
X151762630Y-66155114D02*
X151691202Y-66012257D01*
X151691202Y-66012257D02*
X151548345Y-65940828D01*
X151548345Y-65940828D02*
X151334059Y-65940828D01*
X151334059Y-65940828D02*
X151191202Y-66012257D01*
X150691201Y-65940828D02*
X150119773Y-65940828D01*
X150476916Y-65440828D02*
X150476916Y-66726542D01*
X150476916Y-66726542D02*
X150405487Y-66869400D01*
X150405487Y-66869400D02*
X150262630Y-66940828D01*
X150262630Y-66940828D02*
X150119773Y-66940828D01*
X147834059Y-66869400D02*
X147976916Y-66940828D01*
X147976916Y-66940828D02*
X148262630Y-66940828D01*
X148262630Y-66940828D02*
X148405487Y-66869400D01*
X148405487Y-66869400D02*
X148476916Y-66797971D01*
X148476916Y-66797971D02*
X148548344Y-66655114D01*
X148548344Y-66655114D02*
X148548344Y-66226542D01*
X148548344Y-66226542D02*
X148476916Y-66083685D01*
X148476916Y-66083685D02*
X148405487Y-66012257D01*
X148405487Y-66012257D02*
X148262630Y-65940828D01*
X148262630Y-65940828D02*
X147976916Y-65940828D01*
X147976916Y-65940828D02*
X147834059Y-66012257D01*
X146548345Y-66940828D02*
X146548345Y-66155114D01*
X146548345Y-66155114D02*
X146619773Y-66012257D01*
X146619773Y-66012257D02*
X146762630Y-65940828D01*
X146762630Y-65940828D02*
X147048345Y-65940828D01*
X147048345Y-65940828D02*
X147191202Y-66012257D01*
X146548345Y-66869400D02*
X146691202Y-66940828D01*
X146691202Y-66940828D02*
X147048345Y-66940828D01*
X147048345Y-66940828D02*
X147191202Y-66869400D01*
X147191202Y-66869400D02*
X147262630Y-66726542D01*
X147262630Y-66726542D02*
X147262630Y-66583685D01*
X147262630Y-66583685D02*
X147191202Y-66440828D01*
X147191202Y-66440828D02*
X147048345Y-66369400D01*
X147048345Y-66369400D02*
X146691202Y-66369400D01*
X146691202Y-66369400D02*
X146548345Y-66297971D01*
X145834059Y-65940828D02*
X145834059Y-66940828D01*
X145834059Y-66083685D02*
X145762630Y-66012257D01*
X145762630Y-66012257D02*
X145619773Y-65940828D01*
X145619773Y-65940828D02*
X145405487Y-65940828D01*
X145405487Y-65940828D02*
X145262630Y-66012257D01*
X145262630Y-66012257D02*
X145191202Y-66155114D01*
X145191202Y-66155114D02*
X145191202Y-66940828D01*
X143476916Y-65940828D02*
X143119773Y-66940828D01*
X142762630Y-65940828D02*
X143119773Y-66940828D01*
X143119773Y-66940828D02*
X143262630Y-67297971D01*
X143262630Y-67297971D02*
X143334059Y-67369400D01*
X143334059Y-67369400D02*
X143476916Y-67440828D01*
X141976916Y-66940828D02*
X142119773Y-66869400D01*
X142119773Y-66869400D02*
X142191202Y-66797971D01*
X142191202Y-66797971D02*
X142262630Y-66655114D01*
X142262630Y-66655114D02*
X142262630Y-66226542D01*
X142262630Y-66226542D02*
X142191202Y-66083685D01*
X142191202Y-66083685D02*
X142119773Y-66012257D01*
X142119773Y-66012257D02*
X141976916Y-65940828D01*
X141976916Y-65940828D02*
X141762630Y-65940828D01*
X141762630Y-65940828D02*
X141619773Y-66012257D01*
X141619773Y-66012257D02*
X141548345Y-66083685D01*
X141548345Y-66083685D02*
X141476916Y-66226542D01*
X141476916Y-66226542D02*
X141476916Y-66655114D01*
X141476916Y-66655114D02*
X141548345Y-66797971D01*
X141548345Y-66797971D02*
X141619773Y-66869400D01*
X141619773Y-66869400D02*
X141762630Y-66940828D01*
X141762630Y-66940828D02*
X141976916Y-66940828D01*
X140191202Y-65940828D02*
X140191202Y-66940828D01*
X140834059Y-65940828D02*
X140834059Y-66726542D01*
X140834059Y-66726542D02*
X140762630Y-66869400D01*
X140762630Y-66869400D02*
X140619773Y-66940828D01*
X140619773Y-66940828D02*
X140405487Y-66940828D01*
X140405487Y-66940828D02*
X140262630Y-66869400D01*
X140262630Y-66869400D02*
X140191202Y-66797971D01*
X138334059Y-66940828D02*
X138334059Y-65940828D01*
X138334059Y-66226542D02*
X138262630Y-66083685D01*
X138262630Y-66083685D02*
X138191202Y-66012257D01*
X138191202Y-66012257D02*
X138048344Y-65940828D01*
X138048344Y-65940828D02*
X137905487Y-65940828D01*
X136834059Y-66869400D02*
X136976916Y-66940828D01*
X136976916Y-66940828D02*
X137262631Y-66940828D01*
X137262631Y-66940828D02*
X137405488Y-66869400D01*
X137405488Y-66869400D02*
X137476916Y-66726542D01*
X137476916Y-66726542D02*
X137476916Y-66155114D01*
X137476916Y-66155114D02*
X137405488Y-66012257D01*
X137405488Y-66012257D02*
X137262631Y-65940828D01*
X137262631Y-65940828D02*
X136976916Y-65940828D01*
X136976916Y-65940828D02*
X136834059Y-66012257D01*
X136834059Y-66012257D02*
X136762631Y-66155114D01*
X136762631Y-66155114D02*
X136762631Y-66297971D01*
X136762631Y-66297971D02*
X137476916Y-66440828D01*
X135476917Y-66940828D02*
X135476917Y-66155114D01*
X135476917Y-66155114D02*
X135548345Y-66012257D01*
X135548345Y-66012257D02*
X135691202Y-65940828D01*
X135691202Y-65940828D02*
X135976917Y-65940828D01*
X135976917Y-65940828D02*
X136119774Y-66012257D01*
X135476917Y-66869400D02*
X135619774Y-66940828D01*
X135619774Y-66940828D02*
X135976917Y-66940828D01*
X135976917Y-66940828D02*
X136119774Y-66869400D01*
X136119774Y-66869400D02*
X136191202Y-66726542D01*
X136191202Y-66726542D02*
X136191202Y-66583685D01*
X136191202Y-66583685D02*
X136119774Y-66440828D01*
X136119774Y-66440828D02*
X135976917Y-66369400D01*
X135976917Y-66369400D02*
X135619774Y-66369400D01*
X135619774Y-66369400D02*
X135476917Y-66297971D01*
X134119774Y-66940828D02*
X134119774Y-65440828D01*
X134119774Y-66869400D02*
X134262631Y-66940828D01*
X134262631Y-66940828D02*
X134548345Y-66940828D01*
X134548345Y-66940828D02*
X134691202Y-66869400D01*
X134691202Y-66869400D02*
X134762631Y-66797971D01*
X134762631Y-66797971D02*
X134834059Y-66655114D01*
X134834059Y-66655114D02*
X134834059Y-66226542D01*
X134834059Y-66226542D02*
X134762631Y-66083685D01*
X134762631Y-66083685D02*
X134691202Y-66012257D01*
X134691202Y-66012257D02*
X134548345Y-65940828D01*
X134548345Y-65940828D02*
X134262631Y-65940828D01*
X134262631Y-65940828D02*
X134119774Y-66012257D01*
X133191202Y-66797971D02*
X133119773Y-66869400D01*
X133119773Y-66869400D02*
X133191202Y-66940828D01*
X133191202Y-66940828D02*
X133262631Y-66869400D01*
X133262631Y-66869400D02*
X133191202Y-66797971D01*
X133191202Y-66797971D02*
X133191202Y-66940828D01*
X133476916Y-65512257D02*
X133334059Y-65440828D01*
X133334059Y-65440828D02*
X132976916Y-65440828D01*
X132976916Y-65440828D02*
X132834059Y-65512257D01*
X132834059Y-65512257D02*
X132762631Y-65655114D01*
X132762631Y-65655114D02*
X132762631Y-65797971D01*
X132762631Y-65797971D02*
X132834059Y-65940828D01*
X132834059Y-65940828D02*
X132905488Y-66012257D01*
X132905488Y-66012257D02*
X133048345Y-66083685D01*
X133048345Y-66083685D02*
X133119773Y-66155114D01*
X133119773Y-66155114D02*
X133191202Y-66297971D01*
X133191202Y-66297971D02*
X133191202Y-66369400D01*
X129834060Y-65940828D02*
X130976917Y-66369400D01*
X130976917Y-66369400D02*
X129834060Y-66797971D01*
X127976917Y-65940828D02*
X129119774Y-66369400D01*
X129119774Y-66369400D02*
X127976917Y-66797971D01*
D11*
X159410614Y-75926600D02*
X159601090Y-76021838D01*
X159601090Y-76021838D02*
X159982043Y-76021838D01*
X159982043Y-76021838D02*
X160172519Y-75926600D01*
X160172519Y-75926600D02*
X160267757Y-75831361D01*
X160267757Y-75831361D02*
X160362995Y-75640885D01*
X160362995Y-75640885D02*
X160362995Y-75069457D01*
X160362995Y-75069457D02*
X160267757Y-74878980D01*
X160267757Y-74878980D02*
X160172519Y-74783742D01*
X160172519Y-74783742D02*
X159982043Y-74688504D01*
X159982043Y-74688504D02*
X159601090Y-74688504D01*
X159601090Y-74688504D02*
X159410614Y-74783742D01*
X157696328Y-76021838D02*
X157696328Y-74974219D01*
X157696328Y-74974219D02*
X157791566Y-74783742D01*
X157791566Y-74783742D02*
X157982042Y-74688504D01*
X157982042Y-74688504D02*
X158362995Y-74688504D01*
X158362995Y-74688504D02*
X158553471Y-74783742D01*
X157696328Y-75926600D02*
X157886804Y-76021838D01*
X157886804Y-76021838D02*
X158362995Y-76021838D01*
X158362995Y-76021838D02*
X158553471Y-75926600D01*
X158553471Y-75926600D02*
X158648709Y-75736123D01*
X158648709Y-75736123D02*
X158648709Y-75545647D01*
X158648709Y-75545647D02*
X158553471Y-75355171D01*
X158553471Y-75355171D02*
X158362995Y-75259933D01*
X158362995Y-75259933D02*
X157886804Y-75259933D01*
X157886804Y-75259933D02*
X157696328Y-75164695D01*
X156743947Y-76021838D02*
X156743947Y-74688504D01*
X156743947Y-74878980D02*
X156648709Y-74783742D01*
X156648709Y-74783742D02*
X156458233Y-74688504D01*
X156458233Y-74688504D02*
X156172518Y-74688504D01*
X156172518Y-74688504D02*
X155982042Y-74783742D01*
X155982042Y-74783742D02*
X155886804Y-74974219D01*
X155886804Y-74974219D02*
X155886804Y-76021838D01*
X155886804Y-74974219D02*
X155791566Y-74783742D01*
X155791566Y-74783742D02*
X155601090Y-74688504D01*
X155601090Y-74688504D02*
X155315376Y-74688504D01*
X155315376Y-74688504D02*
X155124899Y-74783742D01*
X155124899Y-74783742D02*
X155029661Y-74974219D01*
X155029661Y-74974219D02*
X155029661Y-76021838D01*
X153315375Y-75926600D02*
X153505851Y-76021838D01*
X153505851Y-76021838D02*
X153886804Y-76021838D01*
X153886804Y-76021838D02*
X154077280Y-75926600D01*
X154077280Y-75926600D02*
X154172518Y-75736123D01*
X154172518Y-75736123D02*
X154172518Y-74974219D01*
X154172518Y-74974219D02*
X154077280Y-74783742D01*
X154077280Y-74783742D02*
X153886804Y-74688504D01*
X153886804Y-74688504D02*
X153505851Y-74688504D01*
X153505851Y-74688504D02*
X153315375Y-74783742D01*
X153315375Y-74783742D02*
X153220137Y-74974219D01*
X153220137Y-74974219D02*
X153220137Y-75164695D01*
X153220137Y-75164695D02*
X154172518Y-75355171D01*
X152077280Y-76021838D02*
X152267756Y-75926600D01*
X152267756Y-75926600D02*
X152362994Y-75736123D01*
X152362994Y-75736123D02*
X152362994Y-74021838D01*
X151315375Y-76021838D02*
X151315375Y-74021838D01*
X151315375Y-74021838D02*
X150172518Y-76021838D01*
X150172518Y-76021838D02*
X150172518Y-74021838D01*
X148934423Y-76021838D02*
X149124899Y-75926600D01*
X149124899Y-75926600D02*
X149220137Y-75831361D01*
X149220137Y-75831361D02*
X149315375Y-75640885D01*
X149315375Y-75640885D02*
X149315375Y-75069457D01*
X149315375Y-75069457D02*
X149220137Y-74878980D01*
X149220137Y-74878980D02*
X149124899Y-74783742D01*
X149124899Y-74783742D02*
X148934423Y-74688504D01*
X148934423Y-74688504D02*
X148648708Y-74688504D01*
X148648708Y-74688504D02*
X148458232Y-74783742D01*
X148458232Y-74783742D02*
X148362994Y-74878980D01*
X148362994Y-74878980D02*
X148267756Y-75069457D01*
X148267756Y-75069457D02*
X148267756Y-75640885D01*
X148267756Y-75640885D02*
X148362994Y-75831361D01*
X148362994Y-75831361D02*
X148458232Y-75926600D01*
X148458232Y-75926600D02*
X148648708Y-76021838D01*
X148648708Y-76021838D02*
X148934423Y-76021838D01*
X147696327Y-74688504D02*
X146934423Y-74688504D01*
X147410613Y-74021838D02*
X147410613Y-75736123D01*
X147410613Y-75736123D02*
X147315375Y-75926600D01*
X147315375Y-75926600D02*
X147124899Y-76021838D01*
X147124899Y-76021838D02*
X146934423Y-76021838D01*
X145505851Y-75926600D02*
X145696327Y-76021838D01*
X145696327Y-76021838D02*
X146077280Y-76021838D01*
X146077280Y-76021838D02*
X146267756Y-75926600D01*
X146267756Y-75926600D02*
X146362994Y-75736123D01*
X146362994Y-75736123D02*
X146362994Y-74974219D01*
X146362994Y-74974219D02*
X146267756Y-74783742D01*
X146267756Y-74783742D02*
X146077280Y-74688504D01*
X146077280Y-74688504D02*
X145696327Y-74688504D01*
X145696327Y-74688504D02*
X145505851Y-74783742D01*
X145505851Y-74783742D02*
X145410613Y-74974219D01*
X145410613Y-74974219D02*
X145410613Y-75164695D01*
X145410613Y-75164695D02*
X146362994Y-75355171D01*
X143124899Y-73926600D02*
X144839184Y-76498028D01*
X141315375Y-76021838D02*
X141982042Y-75069457D01*
X142458232Y-76021838D02*
X142458232Y-74021838D01*
X142458232Y-74021838D02*
X141696327Y-74021838D01*
X141696327Y-74021838D02*
X141505851Y-74117076D01*
X141505851Y-74117076D02*
X141410613Y-74212314D01*
X141410613Y-74212314D02*
X141315375Y-74402790D01*
X141315375Y-74402790D02*
X141315375Y-74688504D01*
X141315375Y-74688504D02*
X141410613Y-74878980D01*
X141410613Y-74878980D02*
X141505851Y-74974219D01*
X141505851Y-74974219D02*
X141696327Y-75069457D01*
X141696327Y-75069457D02*
X142458232Y-75069457D01*
X140743946Y-74021838D02*
X140077280Y-76021838D01*
X140077280Y-76021838D02*
X139410613Y-74021838D01*
X138839184Y-75926600D02*
X138553470Y-76021838D01*
X138553470Y-76021838D02*
X138077279Y-76021838D01*
X138077279Y-76021838D02*
X137886803Y-75926600D01*
X137886803Y-75926600D02*
X137791565Y-75831361D01*
X137791565Y-75831361D02*
X137696327Y-75640885D01*
X137696327Y-75640885D02*
X137696327Y-75450409D01*
X137696327Y-75450409D02*
X137791565Y-75259933D01*
X137791565Y-75259933D02*
X137886803Y-75164695D01*
X137886803Y-75164695D02*
X138077279Y-75069457D01*
X138077279Y-75069457D02*
X138458232Y-74974219D01*
X138458232Y-74974219D02*
X138648708Y-74878980D01*
X138648708Y-74878980D02*
X138743946Y-74783742D01*
X138743946Y-74783742D02*
X138839184Y-74593266D01*
X138839184Y-74593266D02*
X138839184Y-74402790D01*
X138839184Y-74402790D02*
X138743946Y-74212314D01*
X138743946Y-74212314D02*
X138648708Y-74117076D01*
X138648708Y-74117076D02*
X138458232Y-74021838D01*
X138458232Y-74021838D02*
X137982041Y-74021838D01*
X137982041Y-74021838D02*
X137696327Y-74117076D01*
X136839184Y-76021838D02*
X136839184Y-74021838D01*
X136839184Y-74021838D02*
X136077279Y-74021838D01*
X136077279Y-74021838D02*
X135886803Y-74117076D01*
X135886803Y-74117076D02*
X135791565Y-74212314D01*
X135791565Y-74212314D02*
X135696327Y-74402790D01*
X135696327Y-74402790D02*
X135696327Y-74688504D01*
X135696327Y-74688504D02*
X135791565Y-74878980D01*
X135791565Y-74878980D02*
X135886803Y-74974219D01*
X135886803Y-74974219D02*
X136077279Y-75069457D01*
X136077279Y-75069457D02*
X136839184Y-75069457D01*
X135315375Y-76212314D02*
X133791565Y-76212314D01*
X133315374Y-76021838D02*
X133315374Y-74021838D01*
X133315374Y-74021838D02*
X132553469Y-74021838D01*
X132553469Y-74021838D02*
X132362993Y-74117076D01*
X132362993Y-74117076D02*
X132267755Y-74212314D01*
X132267755Y-74212314D02*
X132172517Y-74402790D01*
X132172517Y-74402790D02*
X132172517Y-74688504D01*
X132172517Y-74688504D02*
X132267755Y-74878980D01*
X132267755Y-74878980D02*
X132362993Y-74974219D01*
X132362993Y-74974219D02*
X132553469Y-75069457D01*
X132553469Y-75069457D02*
X133315374Y-75069457D01*
X131029660Y-76021838D02*
X131220136Y-75926600D01*
X131220136Y-75926600D02*
X131315374Y-75831361D01*
X131315374Y-75831361D02*
X131410612Y-75640885D01*
X131410612Y-75640885D02*
X131410612Y-75069457D01*
X131410612Y-75069457D02*
X131315374Y-74878980D01*
X131315374Y-74878980D02*
X131220136Y-74783742D01*
X131220136Y-74783742D02*
X131029660Y-74688504D01*
X131029660Y-74688504D02*
X130743945Y-74688504D01*
X130743945Y-74688504D02*
X130553469Y-74783742D01*
X130553469Y-74783742D02*
X130458231Y-74878980D01*
X130458231Y-74878980D02*
X130362993Y-75069457D01*
X130362993Y-75069457D02*
X130362993Y-75640885D01*
X130362993Y-75640885D02*
X130458231Y-75831361D01*
X130458231Y-75831361D02*
X130553469Y-75926600D01*
X130553469Y-75926600D02*
X130743945Y-76021838D01*
X130743945Y-76021838D02*
X131029660Y-76021838D01*
X128648707Y-75926600D02*
X128839183Y-76021838D01*
X128839183Y-76021838D02*
X129220136Y-76021838D01*
X129220136Y-76021838D02*
X129410612Y-75926600D01*
X129410612Y-75926600D02*
X129505850Y-75831361D01*
X129505850Y-75831361D02*
X129601088Y-75640885D01*
X129601088Y-75640885D02*
X129601088Y-75069457D01*
X129601088Y-75069457D02*
X129505850Y-74878980D01*
X129505850Y-74878980D02*
X129410612Y-74783742D01*
X129410612Y-74783742D02*
X129220136Y-74688504D01*
X129220136Y-74688504D02*
X128839183Y-74688504D01*
X128839183Y-74688504D02*
X128648707Y-74783742D01*
X127791564Y-76021838D02*
X127791564Y-74021838D01*
X127601088Y-75259933D02*
X127029659Y-76021838D01*
X127029659Y-74688504D02*
X127791564Y-75450409D01*
X125410611Y-75926600D02*
X125601087Y-76021838D01*
X125601087Y-76021838D02*
X125982040Y-76021838D01*
X125982040Y-76021838D02*
X126172516Y-75926600D01*
X126172516Y-75926600D02*
X126267754Y-75736123D01*
X126267754Y-75736123D02*
X126267754Y-74974219D01*
X126267754Y-74974219D02*
X126172516Y-74783742D01*
X126172516Y-74783742D02*
X125982040Y-74688504D01*
X125982040Y-74688504D02*
X125601087Y-74688504D01*
X125601087Y-74688504D02*
X125410611Y-74783742D01*
X125410611Y-74783742D02*
X125315373Y-74974219D01*
X125315373Y-74974219D02*
X125315373Y-75164695D01*
X125315373Y-75164695D02*
X126267754Y-75355171D01*
X124743944Y-74688504D02*
X123982040Y-74688504D01*
X124458230Y-74021838D02*
X124458230Y-75736123D01*
X124458230Y-75736123D02*
X124362992Y-75926600D01*
X124362992Y-75926600D02*
X124172516Y-76021838D01*
X124172516Y-76021838D02*
X123982040Y-76021838D01*
X159712043Y-82531838D02*
X159902519Y-82436600D01*
X159902519Y-82436600D02*
X159997757Y-82246123D01*
X159997757Y-82246123D02*
X159997757Y-80531838D01*
X158092995Y-82531838D02*
X158092995Y-81484219D01*
X158092995Y-81484219D02*
X158188233Y-81293742D01*
X158188233Y-81293742D02*
X158378709Y-81198504D01*
X158378709Y-81198504D02*
X158759662Y-81198504D01*
X158759662Y-81198504D02*
X158950138Y-81293742D01*
X158092995Y-82436600D02*
X158283471Y-82531838D01*
X158283471Y-82531838D02*
X158759662Y-82531838D01*
X158759662Y-82531838D02*
X158950138Y-82436600D01*
X158950138Y-82436600D02*
X159045376Y-82246123D01*
X159045376Y-82246123D02*
X159045376Y-82055647D01*
X159045376Y-82055647D02*
X158950138Y-81865171D01*
X158950138Y-81865171D02*
X158759662Y-81769933D01*
X158759662Y-81769933D02*
X158283471Y-81769933D01*
X158283471Y-81769933D02*
X158092995Y-81674695D01*
X157140614Y-82531838D02*
X157140614Y-80531838D01*
X157140614Y-81293742D02*
X156950138Y-81198504D01*
X156950138Y-81198504D02*
X156569185Y-81198504D01*
X156569185Y-81198504D02*
X156378709Y-81293742D01*
X156378709Y-81293742D02*
X156283471Y-81388980D01*
X156283471Y-81388980D02*
X156188233Y-81579457D01*
X156188233Y-81579457D02*
X156188233Y-82150885D01*
X156188233Y-82150885D02*
X156283471Y-82341361D01*
X156283471Y-82341361D02*
X156378709Y-82436600D01*
X156378709Y-82436600D02*
X156569185Y-82531838D01*
X156569185Y-82531838D02*
X156950138Y-82531838D01*
X156950138Y-82531838D02*
X157140614Y-82436600D01*
X155331090Y-82531838D02*
X155331090Y-81198504D01*
X155331090Y-80531838D02*
X155426328Y-80627076D01*
X155426328Y-80627076D02*
X155331090Y-80722314D01*
X155331090Y-80722314D02*
X155235852Y-80627076D01*
X155235852Y-80627076D02*
X155331090Y-80531838D01*
X155331090Y-80531838D02*
X155331090Y-80722314D01*
X154378709Y-82531838D02*
X154378709Y-80531838D01*
X154378709Y-81293742D02*
X154188233Y-81198504D01*
X154188233Y-81198504D02*
X153807280Y-81198504D01*
X153807280Y-81198504D02*
X153616804Y-81293742D01*
X153616804Y-81293742D02*
X153521566Y-81388980D01*
X153521566Y-81388980D02*
X153426328Y-81579457D01*
X153426328Y-81579457D02*
X153426328Y-82150885D01*
X153426328Y-82150885D02*
X153521566Y-82341361D01*
X153521566Y-82341361D02*
X153616804Y-82436600D01*
X153616804Y-82436600D02*
X153807280Y-82531838D01*
X153807280Y-82531838D02*
X154188233Y-82531838D01*
X154188233Y-82531838D02*
X154378709Y-82436600D01*
X152569185Y-82531838D02*
X152569185Y-80531838D01*
X152378709Y-81769933D02*
X151807280Y-82531838D01*
X151807280Y-81198504D02*
X152569185Y-81960409D01*
X150664423Y-82531838D02*
X150854899Y-82436600D01*
X150854899Y-82436600D02*
X150950137Y-82341361D01*
X150950137Y-82341361D02*
X151045375Y-82150885D01*
X151045375Y-82150885D02*
X151045375Y-81579457D01*
X151045375Y-81579457D02*
X150950137Y-81388980D01*
X150950137Y-81388980D02*
X150854899Y-81293742D01*
X150854899Y-81293742D02*
X150664423Y-81198504D01*
X150664423Y-81198504D02*
X150378708Y-81198504D01*
X150378708Y-81198504D02*
X150188232Y-81293742D01*
X150188232Y-81293742D02*
X150092994Y-81388980D01*
X150092994Y-81388980D02*
X149997756Y-81579457D01*
X149997756Y-81579457D02*
X149997756Y-82150885D01*
X149997756Y-82150885D02*
X150092994Y-82341361D01*
X150092994Y-82341361D02*
X150188232Y-82436600D01*
X150188232Y-82436600D02*
X150378708Y-82531838D01*
X150378708Y-82531838D02*
X150664423Y-82531838D01*
X149331089Y-81198504D02*
X148950137Y-82531838D01*
X148950137Y-82531838D02*
X148569184Y-81579457D01*
X148569184Y-81579457D02*
X148188232Y-82531838D01*
X148188232Y-82531838D02*
X147807280Y-81198504D01*
X147045375Y-82341361D02*
X146950137Y-82436600D01*
X146950137Y-82436600D02*
X147045375Y-82531838D01*
X147045375Y-82531838D02*
X147140613Y-82436600D01*
X147140613Y-82436600D02*
X147045375Y-82341361D01*
X147045375Y-82341361D02*
X147045375Y-82531838D01*
X145235851Y-82436600D02*
X145426327Y-82531838D01*
X145426327Y-82531838D02*
X145807280Y-82531838D01*
X145807280Y-82531838D02*
X145997756Y-82436600D01*
X145997756Y-82436600D02*
X146092994Y-82341361D01*
X146092994Y-82341361D02*
X146188232Y-82150885D01*
X146188232Y-82150885D02*
X146188232Y-81579457D01*
X146188232Y-81579457D02*
X146092994Y-81388980D01*
X146092994Y-81388980D02*
X145997756Y-81293742D01*
X145997756Y-81293742D02*
X145807280Y-81198504D01*
X145807280Y-81198504D02*
X145426327Y-81198504D01*
X145426327Y-81198504D02*
X145235851Y-81293742D01*
X144092994Y-82531838D02*
X144283470Y-82436600D01*
X144283470Y-82436600D02*
X144378708Y-82341361D01*
X144378708Y-82341361D02*
X144473946Y-82150885D01*
X144473946Y-82150885D02*
X144473946Y-81579457D01*
X144473946Y-81579457D02*
X144378708Y-81388980D01*
X144378708Y-81388980D02*
X144283470Y-81293742D01*
X144283470Y-81293742D02*
X144092994Y-81198504D01*
X144092994Y-81198504D02*
X143807279Y-81198504D01*
X143807279Y-81198504D02*
X143616803Y-81293742D01*
X143616803Y-81293742D02*
X143521565Y-81388980D01*
X143521565Y-81388980D02*
X143426327Y-81579457D01*
X143426327Y-81579457D02*
X143426327Y-82150885D01*
X143426327Y-82150885D02*
X143521565Y-82341361D01*
X143521565Y-82341361D02*
X143616803Y-82436600D01*
X143616803Y-82436600D02*
X143807279Y-82531838D01*
X143807279Y-82531838D02*
X144092994Y-82531838D01*
X142569184Y-82531838D02*
X142569184Y-81198504D01*
X142569184Y-81388980D02*
X142473946Y-81293742D01*
X142473946Y-81293742D02*
X142283470Y-81198504D01*
X142283470Y-81198504D02*
X141997755Y-81198504D01*
X141997755Y-81198504D02*
X141807279Y-81293742D01*
X141807279Y-81293742D02*
X141712041Y-81484219D01*
X141712041Y-81484219D02*
X141712041Y-82531838D01*
X141712041Y-81484219D02*
X141616803Y-81293742D01*
X141616803Y-81293742D02*
X141426327Y-81198504D01*
X141426327Y-81198504D02*
X141140613Y-81198504D01*
X141140613Y-81198504D02*
X140950136Y-81293742D01*
X140950136Y-81293742D02*
X140854898Y-81484219D01*
X140854898Y-81484219D02*
X140854898Y-82531838D01*
D12*
X105676077Y-56549819D02*
X105342744Y-57549819D01*
X105342744Y-57549819D02*
X105009411Y-56549819D01*
X104152268Y-57549819D02*
X104723696Y-57549819D01*
X104437982Y-57549819D02*
X104437982Y-56549819D01*
X104437982Y-56549819D02*
X104533220Y-56692676D01*
X104533220Y-56692676D02*
X104628458Y-56787914D01*
X104628458Y-56787914D02*
X104723696Y-56835533D01*
X103723696Y-57454580D02*
X103676077Y-57502200D01*
X103676077Y-57502200D02*
X103723696Y-57549819D01*
X103723696Y-57549819D02*
X103771315Y-57502200D01*
X103771315Y-57502200D02*
X103723696Y-57454580D01*
X103723696Y-57454580D02*
X103723696Y-57549819D01*
X103057030Y-56549819D02*
X102961792Y-56549819D01*
X102961792Y-56549819D02*
X102866554Y-56597438D01*
X102866554Y-56597438D02*
X102818935Y-56645057D01*
X102818935Y-56645057D02*
X102771316Y-56740295D01*
X102771316Y-56740295D02*
X102723697Y-56930771D01*
X102723697Y-56930771D02*
X102723697Y-57168866D01*
X102723697Y-57168866D02*
X102771316Y-57359342D01*
X102771316Y-57359342D02*
X102818935Y-57454580D01*
X102818935Y-57454580D02*
X102866554Y-57502200D01*
X102866554Y-57502200D02*
X102961792Y-57549819D01*
X102961792Y-57549819D02*
X103057030Y-57549819D01*
X103057030Y-57549819D02*
X103152268Y-57502200D01*
X103152268Y-57502200D02*
X103199887Y-57454580D01*
X103199887Y-57454580D02*
X103247506Y-57359342D01*
X103247506Y-57359342D02*
X103295125Y-57168866D01*
X103295125Y-57168866D02*
X103295125Y-56930771D01*
X103295125Y-56930771D02*
X103247506Y-56740295D01*
X103247506Y-56740295D02*
X103199887Y-56645057D01*
X103199887Y-56645057D02*
X103152268Y-56597438D01*
X103152268Y-56597438D02*
X103057030Y-56549819D01*
D10*
X103550908Y-73604035D02*
X103693766Y-73532606D01*
X103693766Y-73532606D02*
X103908051Y-73532606D01*
X103908051Y-73532606D02*
X104122337Y-73604035D01*
X104122337Y-73604035D02*
X104265194Y-73746892D01*
X104265194Y-73746892D02*
X104336623Y-73889749D01*
X104336623Y-73889749D02*
X104408051Y-74175463D01*
X104408051Y-74175463D02*
X104408051Y-74389749D01*
X104408051Y-74389749D02*
X104336623Y-74675463D01*
X104336623Y-74675463D02*
X104265194Y-74818320D01*
X104265194Y-74818320D02*
X104122337Y-74961178D01*
X104122337Y-74961178D02*
X103908051Y-75032606D01*
X103908051Y-75032606D02*
X103765194Y-75032606D01*
X103765194Y-75032606D02*
X103550908Y-74961178D01*
X103550908Y-74961178D02*
X103479480Y-74889749D01*
X103479480Y-74889749D02*
X103479480Y-74389749D01*
X103479480Y-74389749D02*
X103765194Y-74389749D01*
X102622337Y-73532606D02*
X102622337Y-73889749D01*
X102979480Y-73746892D02*
X102622337Y-73889749D01*
X102622337Y-73889749D02*
X102265194Y-73746892D01*
X102836623Y-74175463D02*
X102622337Y-73889749D01*
X102622337Y-73889749D02*
X102408051Y-74175463D01*
X101479480Y-73532606D02*
X101479480Y-73889749D01*
X101836623Y-73746892D02*
X101479480Y-73889749D01*
X101479480Y-73889749D02*
X101122337Y-73746892D01*
X101693766Y-74175463D02*
X101479480Y-73889749D01*
X101479480Y-73889749D02*
X101265194Y-74175463D01*
X100336623Y-73532606D02*
X100336623Y-73889749D01*
X100693766Y-73746892D02*
X100336623Y-73889749D01*
X100336623Y-73889749D02*
X99979480Y-73746892D01*
X100550909Y-74175463D02*
X100336623Y-73889749D01*
X100336623Y-73889749D02*
X100122337Y-74175463D01*
D13*
%TO.C,G\u002A\u002A\u002A*%
G36*
X164321048Y-73030815D02*
G01*
X164470485Y-73041551D01*
X164608603Y-73061901D01*
X164745649Y-73093426D01*
X164891870Y-73137689D01*
X164949057Y-73157936D01*
X165125481Y-73234592D01*
X165305064Y-73331794D01*
X165479297Y-73444206D01*
X165639673Y-73566490D01*
X165777683Y-73693311D01*
X165936133Y-73874714D01*
X166085570Y-74090788D01*
X166209833Y-74324387D01*
X166308113Y-74573968D01*
X166379598Y-74837988D01*
X166398571Y-74956359D01*
X166410664Y-75095703D01*
X166415701Y-75245701D01*
X166413587Y-75396415D01*
X166404225Y-75537904D01*
X166387520Y-75660230D01*
X166356315Y-75802207D01*
X166277328Y-76052160D01*
X166171084Y-76289428D01*
X166039207Y-76511978D01*
X165883319Y-76717777D01*
X165705045Y-76904791D01*
X165506007Y-77070987D01*
X165287828Y-77214333D01*
X165052133Y-77332794D01*
X165028422Y-77342945D01*
X164964665Y-77367950D01*
X164919946Y-77378757D01*
X164887320Y-77375058D01*
X164859839Y-77356542D01*
X164830559Y-77322898D01*
X164827631Y-77319098D01*
X164816067Y-77300766D01*
X164807970Y-77278065D01*
X164802732Y-77245617D01*
X164799745Y-77198043D01*
X164798399Y-77129966D01*
X164798085Y-77036008D01*
X164798085Y-76790402D01*
X164951499Y-76797790D01*
X165095102Y-76795818D01*
X165217311Y-76773511D01*
X165320810Y-76728897D01*
X165408878Y-76660032D01*
X165484793Y-76564970D01*
X165551833Y-76441768D01*
X165600518Y-76351184D01*
X165670937Y-76260073D01*
X165763285Y-76176876D01*
X165803495Y-76142534D01*
X165833770Y-76110682D01*
X165845347Y-76090010D01*
X165833957Y-76068634D01*
X165800056Y-76055304D01*
X165750908Y-76052116D01*
X165693885Y-76058773D01*
X165636357Y-76074980D01*
X165585693Y-76100440D01*
X165560309Y-76121339D01*
X165517399Y-76163818D01*
X165467086Y-76218830D01*
X165415733Y-76279664D01*
X165362104Y-76343528D01*
X165299894Y-76407330D01*
X165241868Y-76450504D01*
X165181405Y-76476675D01*
X165111882Y-76489465D01*
X165026676Y-76492496D01*
X165017875Y-76492387D01*
X164948306Y-76488501D01*
X164884211Y-76480345D01*
X164838474Y-76469494D01*
X164835573Y-76468435D01*
X164796618Y-76449707D01*
X164773688Y-76422956D01*
X164756664Y-76376706D01*
X164744285Y-76344877D01*
X164712272Y-76287305D01*
X164673291Y-76234749D01*
X164644738Y-76201506D01*
X164620024Y-76170783D01*
X164610516Y-76156127D01*
X164620137Y-76151788D01*
X164653329Y-76145106D01*
X164702027Y-76138468D01*
X164746539Y-76132286D01*
X164862374Y-76108577D01*
X164985977Y-76074766D01*
X165104348Y-76034644D01*
X165204485Y-75992001D01*
X165234744Y-75976166D01*
X165349722Y-75899278D01*
X165456719Y-75802777D01*
X165548037Y-75694340D01*
X165615979Y-75581644D01*
X165649289Y-75507648D01*
X165680808Y-75421847D01*
X165702923Y-75335366D01*
X165717077Y-75240613D01*
X165724711Y-75129996D01*
X165727270Y-74995922D01*
X165726873Y-74908077D01*
X165722968Y-74804194D01*
X165713561Y-74719769D01*
X165696906Y-74647913D01*
X165671257Y-74581741D01*
X165634866Y-74514364D01*
X165585986Y-74438896D01*
X165499475Y-74311846D01*
X165519188Y-74172566D01*
X165526112Y-74107500D01*
X165527004Y-73970203D01*
X165510415Y-73839165D01*
X165477323Y-73724823D01*
X165474169Y-73717046D01*
X165455351Y-73679698D01*
X165434233Y-73663200D01*
X165401457Y-73659491D01*
X165394813Y-73659602D01*
X165322728Y-73669875D01*
X165233169Y-73694772D01*
X165133474Y-73731352D01*
X165030983Y-73776673D01*
X164933035Y-73827792D01*
X164846967Y-73881767D01*
X164794249Y-73918702D01*
X164682844Y-73888052D01*
X164648087Y-73879265D01*
X164606010Y-73871192D01*
X164557890Y-73865254D01*
X164498683Y-73861116D01*
X164423347Y-73858442D01*
X164326839Y-73856895D01*
X164204116Y-73856139D01*
X164162777Y-73856064D01*
X164010943Y-73857250D01*
X163889457Y-73860867D01*
X163797658Y-73866943D01*
X163734885Y-73875505D01*
X163632977Y-73896134D01*
X163523870Y-73832363D01*
X163421265Y-73776577D01*
X163315015Y-73727254D01*
X163215686Y-73689397D01*
X163127986Y-73664571D01*
X163056620Y-73654343D01*
X163006298Y-73660276D01*
X162987924Y-73672534D01*
X162960378Y-73716183D01*
X162939425Y-73785050D01*
X162926005Y-73875559D01*
X162921059Y-73984133D01*
X162921119Y-74009766D01*
X162922699Y-74083234D01*
X162925958Y-74148945D01*
X162930377Y-74195149D01*
X162931897Y-74205989D01*
X162933628Y-74239712D01*
X162926232Y-74269030D01*
X162906042Y-74303387D01*
X162869395Y-74352225D01*
X162780108Y-74488942D01*
X162713587Y-74644231D01*
X162673406Y-74814276D01*
X162659317Y-75000140D01*
X162671071Y-75202889D01*
X162675128Y-75236159D01*
X162700716Y-75392509D01*
X162735330Y-75524632D01*
X162781032Y-75637841D01*
X162839884Y-75737453D01*
X162913950Y-75828781D01*
X162966675Y-75879619D01*
X163088149Y-75965198D01*
X163236586Y-76035467D01*
X163411733Y-76090315D01*
X163613336Y-76129635D01*
X163749387Y-76149604D01*
X163682072Y-76224475D01*
X163656981Y-76253719D01*
X163627393Y-76294666D01*
X163604183Y-76338595D01*
X163586590Y-76389544D01*
X163573851Y-76451550D01*
X163565203Y-76528650D01*
X163559884Y-76624883D01*
X163557130Y-76744284D01*
X163556180Y-76890892D01*
X163555439Y-77285309D01*
X163499756Y-77340992D01*
X163444073Y-77396675D01*
X163312187Y-77341071D01*
X163160346Y-77270341D01*
X162934626Y-77137915D01*
X162727164Y-76981725D01*
X162539609Y-76803819D01*
X162373612Y-76606245D01*
X162230821Y-76391051D01*
X162112887Y-76160285D01*
X162021460Y-75915995D01*
X161958189Y-75660230D01*
X161957958Y-75658988D01*
X161941389Y-75536830D01*
X161932107Y-75395629D01*
X161930020Y-75245295D01*
X161935034Y-75095740D01*
X161947053Y-74956873D01*
X161965985Y-74838604D01*
X162029458Y-74598300D01*
X162125160Y-74346438D01*
X162247027Y-74111263D01*
X162394751Y-73893358D01*
X162568025Y-73693311D01*
X162633188Y-73630185D01*
X162778800Y-73508550D01*
X162941946Y-73393250D01*
X163114351Y-73289480D01*
X163287740Y-73202433D01*
X163453839Y-73137302D01*
X163585828Y-73097225D01*
X163723116Y-73064605D01*
X163859786Y-73043260D01*
X164006233Y-73031611D01*
X164172854Y-73028079D01*
X164321048Y-73030815D01*
G37*
G36*
X164897087Y-80962884D02*
G01*
X164898469Y-80970864D01*
X164914873Y-81099363D01*
X164922717Y-81223092D01*
X164924666Y-81349923D01*
X164417342Y-81349923D01*
X163910019Y-81349923D01*
X163911968Y-81223092D01*
X163912121Y-81215482D01*
X163920801Y-81089311D01*
X163937597Y-80962884D01*
X163961278Y-80829507D01*
X164417342Y-80829507D01*
X164873407Y-80829507D01*
X164897087Y-80962884D01*
G37*
G36*
X163811307Y-82374387D02*
G01*
X163843897Y-82456270D01*
X163849025Y-82471658D01*
X163896420Y-82594685D01*
X163950625Y-82714221D01*
X164015899Y-82844032D01*
X163937592Y-82819857D01*
X163886546Y-82801962D01*
X163766178Y-82747371D01*
X163645376Y-82679440D01*
X163539754Y-82608249D01*
X163464929Y-82543879D01*
X163436517Y-82496409D01*
X163442341Y-82483076D01*
X163496704Y-82443199D01*
X163596988Y-82396682D01*
X163729400Y-82350401D01*
X163776113Y-82344570D01*
X163811307Y-82374387D01*
G37*
G36*
X164911981Y-81793855D02*
G01*
X164911056Y-81803706D01*
X164898247Y-81923700D01*
X164885890Y-82014091D01*
X164876539Y-82055972D01*
X164873583Y-82057842D01*
X164823027Y-82065041D01*
X164720688Y-82070426D01*
X164579441Y-82073504D01*
X164412160Y-82073779D01*
X163960823Y-82070471D01*
X163937370Y-81938493D01*
X163936247Y-81932040D01*
X163919835Y-81803928D01*
X163911968Y-81679683D01*
X163910019Y-81552852D01*
X164422199Y-81552852D01*
X164934379Y-81552852D01*
X164911981Y-81793855D01*
G37*
G36*
X165855927Y-81676899D02*
G01*
X165852676Y-81693405D01*
X165812923Y-81842741D01*
X165756613Y-82000227D01*
X165693555Y-82141011D01*
X165633560Y-82240241D01*
X165567317Y-82324455D01*
X165339774Y-82228456D01*
X165327497Y-82223229D01*
X165216584Y-82171320D01*
X165134871Y-82124952D01*
X165099282Y-82093612D01*
X165098517Y-82090689D01*
X165096032Y-82033180D01*
X165100054Y-81930869D01*
X165109850Y-81803809D01*
X165133367Y-81552852D01*
X165506282Y-81552852D01*
X165879198Y-81552852D01*
X165855927Y-81676899D01*
G37*
G36*
X163984281Y-80068754D02*
G01*
X163981273Y-80112743D01*
X163949105Y-80191534D01*
X163943099Y-80203672D01*
X163888711Y-80326519D01*
X163843897Y-80446506D01*
X163814428Y-80522778D01*
X163780193Y-80557158D01*
X163729400Y-80552374D01*
X163669706Y-80533045D01*
X163549351Y-80485822D01*
X163467024Y-80441304D01*
X163436517Y-80406366D01*
X163445561Y-80385329D01*
X163500221Y-80330492D01*
X163590281Y-80262412D01*
X163699364Y-80191442D01*
X163811096Y-80127933D01*
X163909100Y-80082236D01*
X163977002Y-80064703D01*
X163984281Y-80068754D01*
G37*
G36*
X165105284Y-82350401D02*
G01*
X165164978Y-82369730D01*
X165285334Y-82416953D01*
X165367661Y-82461471D01*
X165398168Y-82496409D01*
X165393550Y-82511692D01*
X165345700Y-82566138D01*
X165258184Y-82634407D01*
X165146256Y-82705391D01*
X165025169Y-82767985D01*
X164974058Y-82790913D01*
X164885766Y-82825832D01*
X164846944Y-82826369D01*
X164849559Y-82789261D01*
X164885580Y-82711241D01*
X164891585Y-82699104D01*
X164945974Y-82576256D01*
X164990787Y-82456270D01*
X165020256Y-82379998D01*
X165054492Y-82345618D01*
X165105284Y-82350401D01*
G37*
G36*
X164895547Y-80073346D02*
G01*
X164980555Y-80110354D01*
X165088284Y-80166487D01*
X165199104Y-80230760D01*
X165293389Y-80292186D01*
X165351512Y-80339781D01*
X165382449Y-80383436D01*
X165380094Y-80428411D01*
X165325336Y-80470376D01*
X165211332Y-80518037D01*
X165183276Y-80528330D01*
X165094206Y-80558152D01*
X165045335Y-80558513D01*
X165017204Y-80522999D01*
X164990355Y-80445196D01*
X164986241Y-80432782D01*
X164939376Y-80310463D01*
X164885580Y-80191534D01*
X164872598Y-80164503D01*
X164847690Y-80091011D01*
X164860056Y-80064703D01*
X164895547Y-80073346D01*
G37*
G36*
X163724835Y-81803809D02*
G01*
X163726256Y-81819323D01*
X163735334Y-81944853D01*
X163738435Y-82043557D01*
X163734864Y-82095227D01*
X163710671Y-82120473D01*
X163638107Y-82165211D01*
X163536670Y-82213360D01*
X163455933Y-82246202D01*
X163344512Y-82282151D01*
X163269173Y-82284998D01*
X163214452Y-82253649D01*
X163164884Y-82187007D01*
X163148516Y-82157644D01*
X163101908Y-82054448D01*
X163052489Y-81925092D01*
X163007824Y-81791572D01*
X162975478Y-81675883D01*
X162963015Y-81600022D01*
X162964929Y-81590644D01*
X162990399Y-81572192D01*
X163053423Y-81560596D01*
X163164010Y-81554575D01*
X163332166Y-81552852D01*
X163701318Y-81552852D01*
X163724835Y-81803809D01*
G37*
G36*
X163365807Y-80620662D02*
G01*
X163488261Y-80671514D01*
X163506300Y-80679223D01*
X163617963Y-80731661D01*
X163699876Y-80778063D01*
X163735403Y-80809164D01*
X163736167Y-80812086D01*
X163738652Y-80869596D01*
X163734631Y-80971907D01*
X163724835Y-81098966D01*
X163701318Y-81349923D01*
X163332166Y-81349923D01*
X163163087Y-81347832D01*
X163046840Y-81340682D01*
X162982868Y-81327583D01*
X162963416Y-81307646D01*
X162966715Y-81272082D01*
X162990263Y-81164188D01*
X163029845Y-81031524D01*
X163077596Y-80899085D01*
X163125656Y-80791867D01*
X163132609Y-80778683D01*
X163190138Y-80672443D01*
X163235607Y-80614866D01*
X163287876Y-80599692D01*
X163365807Y-80620662D01*
G37*
G36*
X165603502Y-80618510D02*
G01*
X165649317Y-80680552D01*
X165709028Y-80791867D01*
X165731570Y-80838451D01*
X165780463Y-80960858D01*
X165825286Y-81096523D01*
X165858175Y-81220452D01*
X165871268Y-81307646D01*
X165853190Y-81327012D01*
X165790890Y-81340333D01*
X165676584Y-81347674D01*
X165502518Y-81349923D01*
X165133367Y-81349923D01*
X165109850Y-81098966D01*
X165108403Y-81083176D01*
X165099257Y-80958014D01*
X165095973Y-80859993D01*
X165099282Y-80809164D01*
X165100967Y-80805887D01*
X165144406Y-80771938D01*
X165231771Y-80724058D01*
X165346423Y-80671514D01*
X165360835Y-80665422D01*
X165478123Y-80617205D01*
X165552725Y-80599481D01*
X165603502Y-80618510D01*
G37*
G36*
X164546744Y-82281589D02*
G01*
X164671576Y-82285374D01*
X164763295Y-82291823D01*
X164804661Y-82300935D01*
X164809934Y-82331158D01*
X164792057Y-82408686D01*
X164753150Y-82512590D01*
X164700986Y-82624876D01*
X164643335Y-82727552D01*
X164587970Y-82802623D01*
X164567417Y-82823047D01*
X164486774Y-82882008D01*
X164417342Y-82905715D01*
X164400707Y-82903670D01*
X164325073Y-82868210D01*
X164246714Y-82802623D01*
X164205100Y-82748707D01*
X164147289Y-82651000D01*
X164093104Y-82539376D01*
X164050317Y-82431828D01*
X164026699Y-82346350D01*
X164030023Y-82300935D01*
X164061050Y-82293087D01*
X164145951Y-82286217D01*
X164266693Y-82282010D01*
X164406037Y-82280468D01*
X164546744Y-82281589D01*
G37*
G36*
X164502621Y-80027541D02*
G01*
X164594344Y-80111252D01*
X164681588Y-80235828D01*
X164753737Y-80388904D01*
X164788605Y-80481906D01*
X164812970Y-80555052D01*
X164814473Y-80591779D01*
X164792666Y-80607503D01*
X164747103Y-80617643D01*
X164742550Y-80618545D01*
X164668790Y-80625281D01*
X164555982Y-80628190D01*
X164421906Y-80627702D01*
X164284341Y-80624244D01*
X164161068Y-80618245D01*
X164069867Y-80610132D01*
X164028518Y-80600335D01*
X164023895Y-80569168D01*
X164042923Y-80491385D01*
X164082564Y-80387608D01*
X164134973Y-80275820D01*
X164192305Y-80174007D01*
X164246714Y-80100152D01*
X164267268Y-80079729D01*
X164347911Y-80020767D01*
X164417342Y-79997060D01*
X164502621Y-80027541D01*
G37*
G36*
X166897201Y-81811444D02*
G01*
X166813404Y-82200499D01*
X166667429Y-82563613D01*
X166458489Y-82902681D01*
X166185797Y-83219598D01*
X166035941Y-83359551D01*
X165705382Y-83602662D01*
X165345850Y-83784895D01*
X164958487Y-83905611D01*
X164829858Y-83928151D01*
X164580701Y-83948632D01*
X164311427Y-83948252D01*
X164049509Y-83927469D01*
X163822420Y-83886739D01*
X163558449Y-83805579D01*
X163194991Y-83639927D01*
X162871465Y-83426363D01*
X162590498Y-83170663D01*
X162354722Y-82878605D01*
X162166764Y-82555966D01*
X162029256Y-82208523D01*
X161944827Y-81842053D01*
X161923579Y-81561132D01*
X162771372Y-81561132D01*
X162825622Y-81875265D01*
X162827583Y-81882300D01*
X162930192Y-82166792D01*
X163070436Y-82408678D01*
X163259450Y-82627260D01*
X163461049Y-82793941D01*
X163743001Y-82952769D01*
X164053413Y-83057724D01*
X164115614Y-83071107D01*
X164437987Y-83100696D01*
X164756011Y-83065832D01*
X165061329Y-82968992D01*
X165345582Y-82812652D01*
X165600414Y-82599288D01*
X165781373Y-82382303D01*
X165937464Y-82105212D01*
X166033980Y-81809685D01*
X166070854Y-81503174D01*
X166048022Y-81193127D01*
X165965416Y-80886996D01*
X165822972Y-80592229D01*
X165620623Y-80316277D01*
X165529321Y-80222716D01*
X165292666Y-80044500D01*
X165018812Y-79909496D01*
X164722401Y-79824056D01*
X164418074Y-79794532D01*
X164153725Y-79816465D01*
X163852444Y-79896991D01*
X163577565Y-80030287D01*
X163334244Y-80209620D01*
X163127632Y-80428255D01*
X162962886Y-80679458D01*
X162845157Y-80956495D01*
X162779601Y-81252631D01*
X162771372Y-81561132D01*
X161923579Y-81561132D01*
X161916106Y-81462334D01*
X161945723Y-81075143D01*
X162036308Y-80686258D01*
X162190491Y-80301454D01*
X162239094Y-80206513D01*
X162312012Y-80083792D01*
X162397030Y-79968544D01*
X162507239Y-79843612D01*
X162655735Y-79691841D01*
X162729058Y-79620900D01*
X163033754Y-79368129D01*
X163347072Y-79178346D01*
X163677884Y-79047837D01*
X164035057Y-78972886D01*
X164427462Y-78949780D01*
X164786441Y-78973582D01*
X165175403Y-79057762D01*
X165536917Y-79203518D01*
X165873032Y-79411705D01*
X166185797Y-79683178D01*
X166426080Y-79956925D01*
X166643411Y-80292953D01*
X166797673Y-80652775D01*
X166889653Y-81038289D01*
X166920138Y-81451388D01*
X166916839Y-81503174D01*
X166897201Y-81811444D01*
G37*
G36*
X105917163Y-86515666D02*
G01*
X106196148Y-86603197D01*
X106384851Y-86742188D01*
X106579481Y-87018309D01*
X106669391Y-87241758D01*
X106723870Y-87608933D01*
X106663995Y-87951142D01*
X106495106Y-88246612D01*
X106222541Y-88473573D01*
X106125216Y-88522848D01*
X105761523Y-88617295D01*
X105371722Y-88601247D01*
X104993607Y-88474672D01*
X104968652Y-88462039D01*
X104811543Y-88374674D01*
X104728194Y-88288468D01*
X104691949Y-88158522D01*
X104676155Y-87939935D01*
X104656161Y-87555593D01*
X105159488Y-87555593D01*
X105254637Y-87555827D01*
X105474535Y-87561698D01*
X105597500Y-87581020D01*
X105651077Y-87621107D01*
X105662815Y-87689278D01*
X105661389Y-87720198D01*
X105629131Y-87786049D01*
X105529416Y-87815923D01*
X105329481Y-87822962D01*
X105197789Y-87824501D01*
X105063055Y-87841186D01*
X105007197Y-87890168D01*
X104996148Y-87988350D01*
X105042788Y-88129566D01*
X105188054Y-88253127D01*
X105398897Y-88331223D01*
X105641385Y-88356625D01*
X105881581Y-88322103D01*
X106085553Y-88220428D01*
X106152329Y-88159388D01*
X106308863Y-87909837D01*
X106374785Y-87606364D01*
X106338429Y-87291811D01*
X106329060Y-87262148D01*
X106178582Y-86988264D01*
X105951038Y-86814358D01*
X105662815Y-86753488D01*
X105474042Y-86783153D01*
X105272852Y-86871809D01*
X105122142Y-86994546D01*
X105062815Y-87125971D01*
X105055202Y-87157387D01*
X104973798Y-87212376D01*
X104855025Y-87214301D01*
X104764025Y-87156504D01*
X104758416Y-87145242D01*
X104767808Y-87021638D01*
X104850062Y-86859847D01*
X104978714Y-86701322D01*
X105127299Y-86587514D01*
X105287252Y-86529006D01*
X105593906Y-86490638D01*
X105917163Y-86515666D01*
G37*
G36*
X104329481Y-87856383D02*
G01*
X104329481Y-88625067D01*
X104162815Y-88625067D01*
X103996148Y-88625067D01*
X103996148Y-87856383D01*
X103996148Y-87087699D01*
X104162815Y-87087699D01*
X104329481Y-87087699D01*
X104329481Y-87856383D01*
G37*
G36*
X103467198Y-86622156D02*
G01*
X103549187Y-86699978D01*
X103596148Y-86889524D01*
X103616690Y-87028028D01*
X103696148Y-87087699D01*
X103742629Y-87098438D01*
X103796148Y-87180810D01*
X103784750Y-87228237D01*
X103696148Y-87312397D01*
X103658413Y-87340822D01*
X103621141Y-87436367D01*
X103601726Y-87617369D01*
X103596148Y-87907759D01*
X103586929Y-88207144D01*
X103559361Y-88431685D01*
X103516148Y-88544856D01*
X103486196Y-88568879D01*
X103347503Y-88618475D01*
X103185952Y-88624916D01*
X103052011Y-88590755D01*
X102996148Y-88518546D01*
X103021056Y-88450207D01*
X103129481Y-88377066D01*
X103152576Y-88370099D01*
X103211103Y-88330510D01*
X103244409Y-88244113D01*
X103259357Y-88081975D01*
X103262815Y-87815166D01*
X103262398Y-87685837D01*
X103255914Y-87471270D01*
X103236167Y-87351528D01*
X103196307Y-87299538D01*
X103129481Y-87288225D01*
X103051728Y-87269616D01*
X102996148Y-87187962D01*
X103020895Y-87129493D01*
X103129481Y-87087699D01*
X103206441Y-87072561D01*
X103251634Y-86995252D01*
X103262815Y-86820330D01*
X103264229Y-86706579D01*
X103283383Y-86586451D01*
X103343405Y-86565712D01*
X103467198Y-86622156D01*
G37*
G36*
X102696172Y-86488153D02*
G01*
X102736713Y-86508194D01*
X102764505Y-86565733D01*
X102781947Y-86680005D01*
X102791435Y-86870247D01*
X102795370Y-87155698D01*
X102796148Y-87555593D01*
X102795895Y-87823155D01*
X102793396Y-88148338D01*
X102786223Y-88371259D01*
X102771976Y-88511156D01*
X102748258Y-88587265D01*
X102712671Y-88618823D01*
X102662815Y-88625067D01*
X102644461Y-88624639D01*
X102582610Y-88605263D01*
X102547962Y-88536526D01*
X102532818Y-88390342D01*
X102529481Y-88138624D01*
X102529053Y-88077000D01*
X102503201Y-87740822D01*
X102432379Y-87517477D01*
X102309643Y-87393410D01*
X102128047Y-87355067D01*
X102043563Y-87361899D01*
X101922884Y-87419790D01*
X101846949Y-87552604D01*
X101807467Y-87779430D01*
X101796148Y-88119357D01*
X101795908Y-88216389D01*
X101790021Y-88436575D01*
X101770726Y-88559688D01*
X101730749Y-88613321D01*
X101662815Y-88625067D01*
X101603351Y-88616597D01*
X101563223Y-88573668D01*
X101541006Y-88471469D01*
X101531495Y-88285201D01*
X101529481Y-87990067D01*
X101530096Y-87841450D01*
X101537981Y-87582572D01*
X101559191Y-87413332D01*
X101599033Y-87303133D01*
X101662815Y-87221383D01*
X101722831Y-87174686D01*
X101932817Y-87100364D01*
X102178679Y-87092688D01*
X102400531Y-87156892D01*
X102463524Y-87184347D01*
X102507558Y-87165469D01*
X102525848Y-87064674D01*
X102529481Y-86856103D01*
X102530971Y-86723615D01*
X102545802Y-86570606D01*
X102585954Y-86501974D01*
X102662815Y-86486120D01*
X102696172Y-86488153D01*
G37*
G36*
X100015414Y-87089051D02*
G01*
X100080007Y-87109835D01*
X100114021Y-87178558D01*
X100127248Y-87323800D01*
X100129481Y-87574142D01*
X100131379Y-87703082D01*
X100163046Y-88018821D01*
X100239128Y-88222506D01*
X100366629Y-88326895D01*
X100552552Y-88344744D01*
X100762815Y-88324278D01*
X100781983Y-87705988D01*
X100783833Y-87646840D01*
X100794420Y-87377945D01*
X100810345Y-87212935D01*
X100839125Y-87126458D01*
X100888276Y-87093163D01*
X100965317Y-87087699D01*
X100991300Y-87087855D01*
X101058307Y-87097690D01*
X101099156Y-87141053D01*
X101120319Y-87242983D01*
X101128270Y-87428518D01*
X101129481Y-87722699D01*
X101128867Y-87871316D01*
X101120982Y-88130193D01*
X101099772Y-88299434D01*
X101059930Y-88409633D01*
X100996148Y-88491383D01*
X100936132Y-88538080D01*
X100726146Y-88612401D01*
X100480284Y-88620078D01*
X100258432Y-88555873D01*
X100170291Y-88520821D01*
X100129481Y-88555873D01*
X100088089Y-88601387D01*
X99962815Y-88625067D01*
X99796148Y-88625067D01*
X99796148Y-87856383D01*
X99796148Y-87087699D01*
X99962815Y-87087699D01*
X100015414Y-87089051D01*
G37*
G36*
X99462815Y-88608943D02*
G01*
X98988344Y-88613419D01*
X98682249Y-88601863D01*
X98429511Y-88545637D01*
X98257221Y-88433091D01*
X98139757Y-88253353D01*
X98095784Y-88127249D01*
X98071060Y-87882268D01*
X98397413Y-87882268D01*
X98432066Y-88094443D01*
X98512815Y-88236909D01*
X98528828Y-88250615D01*
X98679000Y-88360291D01*
X98796231Y-88384377D01*
X98932860Y-88335109D01*
X99036520Y-88242474D01*
X99121103Y-88048179D01*
X99145869Y-87812668D01*
X99107408Y-87581780D01*
X99002312Y-87401352D01*
X98958118Y-87370360D01*
X98795282Y-87339135D01*
X98615026Y-87371463D01*
X98484681Y-87459750D01*
X98474575Y-87474659D01*
X98410902Y-87656851D01*
X98397413Y-87882268D01*
X98071060Y-87882268D01*
X98067043Y-87842466D01*
X98113315Y-87557938D01*
X98224990Y-87315384D01*
X98392455Y-87156522D01*
X98507352Y-87114902D01*
X98715328Y-87090216D01*
X98915990Y-87108231D01*
X99049481Y-87167909D01*
X99061337Y-87178630D01*
X99102407Y-87177881D01*
X99123516Y-87080084D01*
X99129481Y-86867120D01*
X99132712Y-86664501D01*
X99152181Y-86543955D01*
X99201969Y-86495217D01*
X99296148Y-86486120D01*
X99462815Y-86486120D01*
X99462815Y-87547531D01*
X99462815Y-87812668D01*
X99462815Y-88608943D01*
G37*
G36*
X104193529Y-86486825D02*
G01*
X104301946Y-86526024D01*
X104329481Y-86653225D01*
X104328778Y-86684020D01*
X104289682Y-86792723D01*
X104162815Y-86820330D01*
X104132101Y-86819624D01*
X104023683Y-86780426D01*
X103996148Y-86653225D01*
X103996852Y-86622430D01*
X104035947Y-86513727D01*
X104162815Y-86486120D01*
X104193529Y-86486825D01*
G37*
G36*
X114729694Y-69704408D02*
G01*
X114729562Y-71047926D01*
X114729481Y-72519192D01*
X114729481Y-84092588D01*
X114580941Y-84303433D01*
X114510930Y-84398425D01*
X114256416Y-84665953D01*
X113962815Y-84849411D01*
X113932126Y-84859219D01*
X113864918Y-84870553D01*
X113760457Y-84880870D01*
X113613089Y-84890216D01*
X113417163Y-84898639D01*
X113167027Y-84906186D01*
X112857030Y-84912905D01*
X112481520Y-84918842D01*
X112034846Y-84924046D01*
X111511355Y-84928564D01*
X110905396Y-84932442D01*
X110211317Y-84935728D01*
X109423467Y-84938470D01*
X108536194Y-84940714D01*
X107543846Y-84942509D01*
X106440772Y-84943901D01*
X105221319Y-84944938D01*
X103879837Y-84945667D01*
X102410674Y-84946135D01*
X101064585Y-84946365D01*
X99727101Y-84946372D01*
X98511634Y-84946078D01*
X97412295Y-84945431D01*
X96423197Y-84944379D01*
X95538452Y-84942872D01*
X94752170Y-84940859D01*
X94058465Y-84938288D01*
X93451446Y-84935108D01*
X92925227Y-84931267D01*
X92473919Y-84926716D01*
X92091634Y-84921402D01*
X91772484Y-84915274D01*
X91510579Y-84908282D01*
X91300033Y-84900373D01*
X91134956Y-84891497D01*
X91009461Y-84881603D01*
X90917660Y-84870639D01*
X90853663Y-84858555D01*
X90811583Y-84845298D01*
X90636773Y-84759458D01*
X90337616Y-84518025D01*
X90122151Y-84180067D01*
X90112158Y-84156959D01*
X90097366Y-84114198D01*
X90083919Y-84058860D01*
X90071752Y-83984889D01*
X90060800Y-83886229D01*
X90050998Y-83756827D01*
X90042282Y-83590625D01*
X90034586Y-83381569D01*
X90027845Y-83123603D01*
X90021994Y-82810673D01*
X90016969Y-82436722D01*
X90012705Y-81995696D01*
X90009136Y-81481538D01*
X90006198Y-80888195D01*
X90003826Y-80209610D01*
X90001955Y-79439728D01*
X90000520Y-78572494D01*
X89999456Y-77601853D01*
X89998698Y-76521748D01*
X89998182Y-75326126D01*
X89997841Y-74008929D01*
X89997612Y-72564104D01*
X89997541Y-72099235D01*
X89997221Y-70681580D01*
X89996905Y-69389678D01*
X89996776Y-68217472D01*
X89997019Y-67158906D01*
X89997817Y-66207922D01*
X89999355Y-65358462D01*
X90001814Y-64604471D01*
X90005381Y-63939891D01*
X90010237Y-63358664D01*
X90016567Y-62854734D01*
X90024555Y-62422043D01*
X90034385Y-62054534D01*
X90037120Y-61983393D01*
X91062815Y-61983393D01*
X91062815Y-72532946D01*
X91062821Y-73509681D01*
X91062887Y-74809422D01*
X91063094Y-75986150D01*
X91063522Y-77046165D01*
X91064250Y-77995769D01*
X91065359Y-78841264D01*
X91066928Y-79588951D01*
X91069037Y-80245131D01*
X91071766Y-80816106D01*
X91075196Y-81308177D01*
X91079406Y-81727645D01*
X91084475Y-82080812D01*
X91090485Y-82373980D01*
X91097515Y-82613449D01*
X91105644Y-82805521D01*
X91114953Y-82956497D01*
X91125522Y-83072680D01*
X91137430Y-83160369D01*
X91150758Y-83225867D01*
X91165586Y-83275475D01*
X91181993Y-83315495D01*
X91200059Y-83352227D01*
X91360427Y-83578617D01*
X91616726Y-83749149D01*
X91620240Y-83750740D01*
X91660595Y-83767345D01*
X91708582Y-83782419D01*
X91770486Y-83796033D01*
X91852591Y-83808261D01*
X91961182Y-83819175D01*
X92102546Y-83828850D01*
X92282967Y-83837358D01*
X92508729Y-83844772D01*
X92786119Y-83851165D01*
X93121421Y-83856610D01*
X93520920Y-83861181D01*
X93990901Y-83864950D01*
X94537650Y-83867990D01*
X95167451Y-83870376D01*
X95886591Y-83872178D01*
X96701353Y-83873471D01*
X97618022Y-83874328D01*
X98642885Y-83874822D01*
X99782226Y-83875026D01*
X101042329Y-83875013D01*
X102429481Y-83874855D01*
X102999228Y-83874772D01*
X104334012Y-83874523D01*
X105544239Y-83874156D01*
X106636179Y-83873592D01*
X107616102Y-83872755D01*
X108490280Y-83871566D01*
X109264980Y-83869948D01*
X109946475Y-83867823D01*
X110541034Y-83865114D01*
X111054928Y-83861743D01*
X111494426Y-83857632D01*
X111865798Y-83852705D01*
X112175316Y-83846883D01*
X112429249Y-83840088D01*
X112633867Y-83832244D01*
X112795441Y-83823272D01*
X112920240Y-83813095D01*
X113014536Y-83801636D01*
X113084597Y-83788816D01*
X113136695Y-83774559D01*
X113177099Y-83758786D01*
X113212080Y-83741420D01*
X113409236Y-83594806D01*
X113595413Y-83345985D01*
X113605148Y-83326480D01*
X113621901Y-83288461D01*
X113637078Y-83242627D01*
X113650756Y-83182684D01*
X113663013Y-83102340D01*
X113673927Y-82995300D01*
X113683576Y-82855272D01*
X113692038Y-82675961D01*
X113699391Y-82451075D01*
X113705712Y-82174320D01*
X113711080Y-81839401D01*
X113715572Y-81440027D01*
X113719267Y-80969903D01*
X113722242Y-80422736D01*
X113724575Y-79792233D01*
X113726344Y-79072099D01*
X113727627Y-78256042D01*
X113728503Y-77337769D01*
X113729048Y-76310985D01*
X113729341Y-75169397D01*
X113729459Y-73906712D01*
X113729481Y-72516636D01*
X113729519Y-71734273D01*
X113729695Y-70391392D01*
X113729818Y-69172687D01*
X113729663Y-68071993D01*
X113729004Y-67083146D01*
X113727615Y-66199980D01*
X113725269Y-65416331D01*
X113721743Y-64726034D01*
X113716808Y-64122925D01*
X113710241Y-63600838D01*
X113701814Y-63153609D01*
X113691303Y-62775072D01*
X113678481Y-62459064D01*
X113663122Y-62199420D01*
X113645002Y-61989974D01*
X113623893Y-61824562D01*
X113599570Y-61697019D01*
X113571808Y-61601181D01*
X113540380Y-61530882D01*
X113505061Y-61479958D01*
X113465625Y-61442244D01*
X113421847Y-61411575D01*
X113373499Y-61381787D01*
X113320357Y-61346714D01*
X113096148Y-61186383D01*
X102462815Y-61169442D01*
X102075366Y-61168808D01*
X100689060Y-61166303D01*
X99428422Y-61163847D01*
X98287387Y-61161719D01*
X97259890Y-61160198D01*
X96339866Y-61159560D01*
X95521249Y-61160084D01*
X94797976Y-61162048D01*
X94163981Y-61165730D01*
X93613198Y-61171408D01*
X93139564Y-61179360D01*
X92737012Y-61189864D01*
X92399478Y-61203198D01*
X92120898Y-61219640D01*
X91895205Y-61239468D01*
X91716335Y-61262960D01*
X91578223Y-61290395D01*
X91474804Y-61322049D01*
X91400013Y-61358202D01*
X91347785Y-61399131D01*
X91312055Y-61445115D01*
X91286758Y-61496430D01*
X91265829Y-61553356D01*
X91243203Y-61616171D01*
X91212815Y-61685151D01*
X91062815Y-61983393D01*
X90037120Y-61983393D01*
X90046239Y-61746151D01*
X90060302Y-61490836D01*
X90076758Y-61282532D01*
X90095790Y-61115182D01*
X90117582Y-60982728D01*
X90142319Y-60879114D01*
X90170182Y-60798283D01*
X90201357Y-60734177D01*
X90236027Y-60680739D01*
X90274375Y-60631913D01*
X90316587Y-60581640D01*
X90362844Y-60523865D01*
X90388223Y-60488560D01*
X90422014Y-60436411D01*
X90452970Y-60388916D01*
X90487012Y-60345861D01*
X90530060Y-60307028D01*
X90588035Y-60272201D01*
X90666857Y-60241163D01*
X90772446Y-60213697D01*
X90910723Y-60189587D01*
X91087607Y-60168617D01*
X91309020Y-60150569D01*
X91580882Y-60135227D01*
X91909112Y-60122375D01*
X92299631Y-60111796D01*
X92758360Y-60103273D01*
X93291219Y-60096590D01*
X93904127Y-60091530D01*
X94603006Y-60087876D01*
X95393776Y-60085412D01*
X96282357Y-60083922D01*
X97274669Y-60083188D01*
X98376633Y-60082994D01*
X99594169Y-60083124D01*
X100933198Y-60083361D01*
X102399639Y-60083488D01*
X102754878Y-60083482D01*
X104183496Y-60083374D01*
X105486168Y-60083263D01*
X106668876Y-60083326D01*
X107737598Y-60083738D01*
X108698317Y-60084677D01*
X109557011Y-60086319D01*
X110319662Y-60088842D01*
X110992248Y-60092421D01*
X111580752Y-60097234D01*
X112091153Y-60103457D01*
X112529431Y-60111267D01*
X112901567Y-60120841D01*
X113213540Y-60132355D01*
X113471332Y-60145986D01*
X113680922Y-60161910D01*
X113848290Y-60180305D01*
X113979418Y-60201347D01*
X114080285Y-60225213D01*
X114156871Y-60252079D01*
X114215158Y-60282122D01*
X114261124Y-60315519D01*
X114300751Y-60352446D01*
X114340018Y-60393081D01*
X114384906Y-60437599D01*
X114402742Y-60453751D01*
X114444329Y-60488505D01*
X114482241Y-60520425D01*
X114516650Y-60555447D01*
X114547723Y-60599505D01*
X114575629Y-60658535D01*
X114600540Y-60738474D01*
X114622623Y-60845256D01*
X114642047Y-60984817D01*
X114658983Y-61163093D01*
X114673600Y-61386019D01*
X114686066Y-61659531D01*
X114696551Y-61989565D01*
X114705225Y-62382055D01*
X114712256Y-62842938D01*
X114717814Y-63378150D01*
X114722069Y-63993625D01*
X114725189Y-64695299D01*
X114727343Y-65489109D01*
X114728702Y-66380989D01*
X114729434Y-67376875D01*
X114729708Y-68482703D01*
X114729700Y-69172687D01*
X114729694Y-69704408D01*
G37*
G36*
X112329481Y-82475593D02*
G01*
X110429481Y-82475593D01*
X108529481Y-82475593D01*
X108529481Y-80570593D01*
X108529481Y-79267172D01*
X109129481Y-79267172D01*
X109129481Y-80570593D01*
X109129481Y-81874014D01*
X110429481Y-81874014D01*
X111729481Y-81874014D01*
X111729481Y-80570593D01*
X111729481Y-79267172D01*
X110429481Y-79267172D01*
X109129481Y-79267172D01*
X108529481Y-79267172D01*
X108529481Y-78665593D01*
X110429481Y-78665593D01*
X112329481Y-78665593D01*
X112329481Y-80570593D01*
X112329481Y-82475593D01*
G37*
G36*
X104862815Y-64160856D02*
G01*
X105362815Y-64160856D01*
X105862815Y-64160856D01*
X105862815Y-63893488D01*
X105862815Y-63626120D01*
X106129481Y-63626120D01*
X106396148Y-63626120D01*
X106396148Y-63358751D01*
X106396148Y-63091383D01*
X106929481Y-63091383D01*
X107462815Y-63091383D01*
X107462815Y-62824014D01*
X107462815Y-62556646D01*
X107762815Y-62556646D01*
X108062815Y-62556646D01*
X108062815Y-63392172D01*
X108062815Y-64227699D01*
X107762815Y-64227699D01*
X107462815Y-64227699D01*
X107462815Y-63960330D01*
X107462815Y-63692962D01*
X106962815Y-63692962D01*
X106462815Y-63692962D01*
X106462815Y-63960330D01*
X106462815Y-64227699D01*
X106196148Y-64227699D01*
X105929481Y-64227699D01*
X105929481Y-64729014D01*
X105929481Y-65230330D01*
X106996148Y-65230330D01*
X108062815Y-65230330D01*
X108062815Y-65297172D01*
X108062815Y-66299804D01*
X108062815Y-66333225D01*
X108062815Y-67369278D01*
X108296148Y-67369278D01*
X108364999Y-67368680D01*
X108478802Y-67349172D01*
X108522418Y-67273096D01*
X108529481Y-67101909D01*
X108529481Y-66834541D01*
X108829481Y-66834541D01*
X109129481Y-66834541D01*
X109129481Y-67101909D01*
X109130003Y-67180803D01*
X109147028Y-67311206D01*
X109213420Y-67361183D01*
X109362815Y-67369278D01*
X109431666Y-67368680D01*
X109545469Y-67349172D01*
X109589084Y-67273096D01*
X109596148Y-67101909D01*
X109596148Y-66834541D01*
X110429481Y-66834541D01*
X111262815Y-66834541D01*
X111262815Y-67402699D01*
X111262815Y-67670067D01*
X111262815Y-67970856D01*
X110996148Y-67970856D01*
X110917461Y-67971380D01*
X110787401Y-67988449D01*
X110737555Y-68055016D01*
X110729481Y-68204804D01*
X110729481Y-68438751D01*
X111262815Y-68438751D01*
X111796148Y-68438751D01*
X111796148Y-68739541D01*
X111796148Y-69040330D01*
X110996148Y-69040330D01*
X110196148Y-69040330D01*
X110196148Y-69274278D01*
X110196744Y-69343310D01*
X110216201Y-69457412D01*
X110292078Y-69501142D01*
X110462815Y-69508225D01*
X110729481Y-69508225D01*
X110729481Y-69575067D01*
X110729481Y-69775593D01*
X110729481Y-70042962D01*
X110996148Y-70042962D01*
X111262815Y-70042962D01*
X111262815Y-70343751D01*
X111262815Y-70644541D01*
X110962815Y-70644541D01*
X110662815Y-70644541D01*
X110662815Y-70377172D01*
X110662293Y-70298278D01*
X110645269Y-70167876D01*
X110578877Y-70117898D01*
X110429481Y-70109804D01*
X110196148Y-70109804D01*
X110196148Y-70611120D01*
X110196148Y-70878488D01*
X110196148Y-71112435D01*
X110462815Y-71112435D01*
X110729481Y-71112435D01*
X110729481Y-71413225D01*
X110729481Y-71446646D01*
X110729481Y-71714014D01*
X110996148Y-71714014D01*
X111262815Y-71714014D01*
X111262815Y-71981383D01*
X111262840Y-71985096D01*
X111263337Y-72060277D01*
X111280361Y-72190679D01*
X111346753Y-72240657D01*
X111496148Y-72248751D01*
X111564999Y-72248153D01*
X111678802Y-72228646D01*
X111722418Y-72152569D01*
X111729481Y-71981383D01*
X111729481Y-71714014D01*
X112029481Y-71714014D01*
X112329481Y-71714014D01*
X112329481Y-72816909D01*
X112329481Y-73619014D01*
X112329481Y-74955856D01*
X112329481Y-78197699D01*
X112029481Y-78197699D01*
X111729481Y-78197699D01*
X111729481Y-77395593D01*
X111729481Y-76593488D01*
X111496148Y-76593488D01*
X111427297Y-76594086D01*
X111313494Y-76613594D01*
X111269879Y-76689670D01*
X111262815Y-76860856D01*
X111262815Y-77128225D01*
X110996148Y-77128225D01*
X110917461Y-77128748D01*
X110787401Y-77145817D01*
X110737555Y-77212384D01*
X110729481Y-77362172D01*
X110730078Y-77431205D01*
X110749534Y-77545307D01*
X110825411Y-77589037D01*
X110996148Y-77596120D01*
X111262815Y-77596120D01*
X111262815Y-77896909D01*
X111262815Y-78197699D01*
X110962815Y-78197699D01*
X110662815Y-78197699D01*
X110662815Y-77930330D01*
X110662815Y-77662962D01*
X110396148Y-77662962D01*
X110129481Y-77662962D01*
X110129481Y-77362172D01*
X110129481Y-77061383D01*
X110396148Y-77061383D01*
X110662815Y-77061383D01*
X110662815Y-76526646D01*
X110662815Y-75991909D01*
X111196148Y-75991909D01*
X111729481Y-75991909D01*
X111729481Y-75223225D01*
X111729481Y-74454541D01*
X111229481Y-74454541D01*
X110729481Y-74454541D01*
X110729481Y-74688488D01*
X110730078Y-74757520D01*
X110749534Y-74871623D01*
X110825411Y-74915353D01*
X110996148Y-74922435D01*
X111262815Y-74922435D01*
X111262815Y-75223225D01*
X111262815Y-75524014D01*
X110729481Y-75524014D01*
X110196148Y-75524014D01*
X110196148Y-75791383D01*
X110196148Y-76058751D01*
X109929481Y-76058751D01*
X109662815Y-76058751D01*
X109662815Y-76292699D01*
X109662815Y-76326120D01*
X109662815Y-76593488D01*
X109396148Y-76593488D01*
X109129481Y-76593488D01*
X109129481Y-76860856D01*
X109129481Y-77128225D01*
X108862815Y-77128225D01*
X108784128Y-77128748D01*
X108654068Y-77145817D01*
X108604221Y-77212384D01*
X108596148Y-77362172D01*
X108596148Y-77596120D01*
X109129481Y-77596120D01*
X109662815Y-77596120D01*
X109662815Y-77629541D01*
X109662815Y-77896909D01*
X109662815Y-78197699D01*
X108862815Y-78197699D01*
X108062815Y-78197699D01*
X108062815Y-78431646D01*
X108062815Y-78465067D01*
X108062815Y-78732435D01*
X107796148Y-78732435D01*
X107529481Y-78732435D01*
X107529481Y-78999804D01*
X107529481Y-79267172D01*
X107229481Y-79267172D01*
X106929481Y-79267172D01*
X106929481Y-78999804D01*
X106929481Y-78732435D01*
X106429481Y-78732435D01*
X105929481Y-78732435D01*
X105929481Y-79501120D01*
X105929481Y-79768488D01*
X105929481Y-80035856D01*
X105929481Y-80269804D01*
X106196148Y-80269804D01*
X106462815Y-80269804D01*
X106462815Y-80537172D01*
X106462815Y-80570593D01*
X106462815Y-80804541D01*
X106729481Y-80804541D01*
X106996148Y-80804541D01*
X106996148Y-81071909D01*
X106996670Y-81150803D01*
X107013694Y-81281206D01*
X107080086Y-81331183D01*
X107229481Y-81339278D01*
X107462815Y-81339278D01*
X107462815Y-80837962D01*
X107462815Y-80336646D01*
X107196148Y-80336646D01*
X106929481Y-80336646D01*
X106929481Y-80035856D01*
X106929481Y-79735067D01*
X107496148Y-79735067D01*
X108062815Y-79735067D01*
X108062815Y-80570593D01*
X108062815Y-81406120D01*
X107796148Y-81406120D01*
X107529481Y-81406120D01*
X107529481Y-81940856D01*
X107529481Y-82475593D01*
X106429481Y-82475593D01*
X105329481Y-82475593D01*
X105329481Y-82174804D01*
X105329481Y-81874014D01*
X105862815Y-81874014D01*
X106396148Y-81874014D01*
X106396148Y-81372699D01*
X106396148Y-80871383D01*
X106162815Y-80871383D01*
X106093964Y-80871981D01*
X105980161Y-80891488D01*
X105936545Y-80967565D01*
X105929481Y-81138751D01*
X105929481Y-81406120D01*
X105396148Y-81406120D01*
X104862815Y-81406120D01*
X104862815Y-81673488D01*
X104862815Y-81940856D01*
X104296148Y-81940856D01*
X103729481Y-81940856D01*
X103723022Y-81656778D01*
X103722368Y-81623229D01*
X103722064Y-81362458D01*
X103728120Y-81122041D01*
X103731592Y-81029773D01*
X103716173Y-80918344D01*
X103640422Y-80877265D01*
X103467838Y-80871383D01*
X103195999Y-80871383D01*
X103201779Y-81389409D01*
X103201877Y-81398251D01*
X103203931Y-81695548D01*
X103203925Y-81980128D01*
X103201854Y-82191514D01*
X103196148Y-82475593D01*
X102629481Y-82475593D01*
X102062815Y-82475593D01*
X102062815Y-81940856D01*
X102062815Y-81406120D01*
X101562815Y-81406120D01*
X101062815Y-81406120D01*
X101062815Y-81640067D01*
X101063411Y-81709099D01*
X101082868Y-81823202D01*
X101158744Y-81866932D01*
X101329481Y-81874014D01*
X101596148Y-81874014D01*
X101596148Y-82174804D01*
X101596148Y-82475593D01*
X101296148Y-82475593D01*
X100996148Y-82475593D01*
X100996148Y-82208225D01*
X100996148Y-81940856D01*
X100496148Y-81940856D01*
X99996148Y-81940856D01*
X99996148Y-82208225D01*
X99996148Y-82475593D01*
X99696148Y-82475593D01*
X99396148Y-82475593D01*
X99396148Y-81940856D01*
X99396148Y-81406120D01*
X98629481Y-81406120D01*
X97862815Y-81406120D01*
X97862815Y-81640067D01*
X97863411Y-81709099D01*
X97882868Y-81823202D01*
X97958744Y-81866932D01*
X98129481Y-81874014D01*
X98396148Y-81874014D01*
X98396148Y-82174804D01*
X98396148Y-82475593D01*
X98096148Y-82475593D01*
X97796148Y-82475593D01*
X97796148Y-82208225D01*
X97796148Y-81940856D01*
X97296148Y-81940856D01*
X96796148Y-81940856D01*
X96796148Y-82208225D01*
X96796148Y-82475593D01*
X96496148Y-82475593D01*
X96196148Y-82475593D01*
X96196148Y-82208225D01*
X96195626Y-82129331D01*
X96178602Y-81998928D01*
X96112210Y-81948951D01*
X95962815Y-81940856D01*
X95893964Y-81941454D01*
X95780161Y-81960962D01*
X95736545Y-82037038D01*
X95729481Y-82208225D01*
X95729481Y-82475593D01*
X94096148Y-82475593D01*
X92462815Y-82475593D01*
X92462815Y-81640067D01*
X92462815Y-80804541D01*
X92762815Y-80804541D01*
X93062815Y-80804541D01*
X93062815Y-81339278D01*
X93062815Y-81874014D01*
X94362815Y-81874014D01*
X95662815Y-81874014D01*
X95662815Y-81640067D01*
X96262815Y-81640067D01*
X96262844Y-81657874D01*
X96275625Y-81805289D01*
X96339761Y-81863667D01*
X96496148Y-81874014D01*
X96513908Y-81873985D01*
X96660936Y-81861170D01*
X96719161Y-81796866D01*
X96729481Y-81640067D01*
X96729452Y-81622260D01*
X96716671Y-81474845D01*
X96652536Y-81416467D01*
X96496148Y-81406120D01*
X96478388Y-81406149D01*
X96331360Y-81418964D01*
X96273135Y-81483268D01*
X96262815Y-81640067D01*
X95662815Y-81640067D01*
X95662219Y-81571035D01*
X95642762Y-81456932D01*
X95566885Y-81413202D01*
X95396148Y-81406120D01*
X95129481Y-81406120D01*
X95129481Y-81105330D01*
X95729481Y-81105330D01*
X95729511Y-81123137D01*
X95742292Y-81270552D01*
X95806427Y-81328930D01*
X95962815Y-81339278D01*
X95980575Y-81339248D01*
X96127603Y-81326434D01*
X96185828Y-81262129D01*
X96196148Y-81105330D01*
X96196119Y-81087523D01*
X96183338Y-80940109D01*
X96119202Y-80881730D01*
X95962815Y-80871383D01*
X95945055Y-80871412D01*
X95798027Y-80884227D01*
X95739802Y-80948531D01*
X95729481Y-81105330D01*
X95129481Y-81105330D01*
X95129481Y-80804541D01*
X95396148Y-80804541D01*
X95474835Y-80804018D01*
X95604895Y-80786948D01*
X95654742Y-80720382D01*
X95662815Y-80570593D01*
X95662815Y-80336646D01*
X96262815Y-80336646D01*
X96262815Y-80570593D01*
X96263411Y-80639626D01*
X96282868Y-80753728D01*
X96358744Y-80797458D01*
X96529481Y-80804541D01*
X96796148Y-80804541D01*
X96796148Y-81071909D01*
X96796148Y-81105330D01*
X96796148Y-81339278D01*
X97296148Y-81339278D01*
X97796148Y-81339278D01*
X97796148Y-81105330D01*
X97795552Y-81036298D01*
X97776095Y-80922196D01*
X97700219Y-80878465D01*
X97529481Y-80871383D01*
X97262815Y-80871383D01*
X97262815Y-80604014D01*
X97262815Y-80336646D01*
X97862815Y-80336646D01*
X97862815Y-80570593D01*
X97862815Y-80804541D01*
X99196148Y-80804541D01*
X100529481Y-80804541D01*
X100529481Y-81071909D01*
X100529702Y-81105330D01*
X100530003Y-81150803D01*
X100547028Y-81281206D01*
X100613420Y-81331183D01*
X100762815Y-81339278D01*
X100831666Y-81338680D01*
X100945469Y-81319172D01*
X100989084Y-81243096D01*
X100996148Y-81071909D01*
X100996148Y-80804541D01*
X101262815Y-80804541D01*
X101341502Y-80804018D01*
X101471562Y-80786948D01*
X101521408Y-80720382D01*
X101529481Y-80570593D01*
X104329481Y-80570593D01*
X104329511Y-80588400D01*
X104342292Y-80735815D01*
X104406427Y-80794193D01*
X104562815Y-80804541D01*
X104580575Y-80804512D01*
X104727603Y-80791697D01*
X104785828Y-80727392D01*
X104796148Y-80570593D01*
X105396148Y-80570593D01*
X105396177Y-80588400D01*
X105408958Y-80735815D01*
X105473094Y-80794193D01*
X105629481Y-80804541D01*
X105647242Y-80804512D01*
X105794269Y-80791697D01*
X105852495Y-80727392D01*
X105862815Y-80570593D01*
X105862786Y-80552786D01*
X105850005Y-80405372D01*
X105785869Y-80346993D01*
X105629481Y-80336646D01*
X105611721Y-80336675D01*
X105464694Y-80349490D01*
X105406468Y-80413794D01*
X105396148Y-80570593D01*
X104796148Y-80570593D01*
X104796119Y-80552786D01*
X104783338Y-80405372D01*
X104719202Y-80346993D01*
X104562815Y-80336646D01*
X104545055Y-80336675D01*
X104398027Y-80349490D01*
X104339802Y-80413794D01*
X104329481Y-80570593D01*
X101529481Y-80570593D01*
X101528885Y-80501561D01*
X101509429Y-80387459D01*
X101433552Y-80343728D01*
X101262815Y-80336646D01*
X100996148Y-80336646D01*
X100996148Y-80069278D01*
X100995626Y-79990383D01*
X100978602Y-79859981D01*
X100912210Y-79810003D01*
X100762815Y-79801909D01*
X100693964Y-79802507D01*
X100580161Y-79822015D01*
X100536545Y-79898091D01*
X100529481Y-80069278D01*
X100529481Y-80336646D01*
X100229481Y-80336646D01*
X99929481Y-80336646D01*
X99929481Y-80069278D01*
X99928960Y-79990383D01*
X99911935Y-79859981D01*
X99845543Y-79810003D01*
X99696148Y-79801909D01*
X99627297Y-79802507D01*
X99513494Y-79822015D01*
X99469879Y-79898091D01*
X99462815Y-80069278D01*
X99462815Y-80336646D01*
X98662815Y-80336646D01*
X97862815Y-80336646D01*
X97262815Y-80336646D01*
X96762815Y-80336646D01*
X96262815Y-80336646D01*
X95662815Y-80336646D01*
X95129481Y-80336646D01*
X94596148Y-80336646D01*
X94596148Y-79801909D01*
X94596148Y-79267172D01*
X94329481Y-79267172D01*
X94062815Y-79267172D01*
X94062815Y-78966383D01*
X94062815Y-78665593D01*
X94329481Y-78665593D01*
X94408168Y-78665070D01*
X94538229Y-78648001D01*
X94588075Y-78581434D01*
X94596148Y-78431646D01*
X94596148Y-78197699D01*
X95196148Y-78197699D01*
X95196148Y-78966383D01*
X95196148Y-79735067D01*
X95962815Y-79735067D01*
X96729481Y-79735067D01*
X96729481Y-78966383D01*
X96729481Y-78197699D01*
X95962815Y-78197699D01*
X95196148Y-78197699D01*
X94596148Y-78197699D01*
X94096148Y-78197699D01*
X93596148Y-78197699D01*
X93596148Y-78966383D01*
X93596148Y-79735067D01*
X93862815Y-79735067D01*
X94129481Y-79735067D01*
X94129481Y-80035856D01*
X94129481Y-80336646D01*
X93829481Y-80336646D01*
X93529481Y-80336646D01*
X93529481Y-80069278D01*
X93529481Y-79801909D01*
X92996148Y-79801909D01*
X92462815Y-79801909D01*
X92462815Y-79233751D01*
X92462815Y-78665593D01*
X92729481Y-78665593D01*
X92808168Y-78665070D01*
X92938229Y-78648001D01*
X92988075Y-78581434D01*
X92996148Y-78431646D01*
X92995552Y-78362614D01*
X92976095Y-78248511D01*
X92900219Y-78204781D01*
X92729481Y-78197699D01*
X92462815Y-78197699D01*
X92462815Y-77896909D01*
X93062815Y-77896909D01*
X93062844Y-77914716D01*
X93075625Y-78062131D01*
X93139761Y-78120509D01*
X93296148Y-78130856D01*
X93313908Y-78130827D01*
X93460936Y-78118012D01*
X93519161Y-78053708D01*
X93529481Y-77896909D01*
X93529452Y-77879102D01*
X93516671Y-77731688D01*
X93452536Y-77673309D01*
X93296148Y-77662962D01*
X93278388Y-77662991D01*
X93131360Y-77675806D01*
X93073135Y-77740110D01*
X93062815Y-77896909D01*
X92462815Y-77896909D01*
X92462815Y-77362172D01*
X92462815Y-76526646D01*
X93029481Y-76526646D01*
X93596148Y-76526646D01*
X93596148Y-77061383D01*
X93596148Y-77596120D01*
X94096148Y-77596120D01*
X94596148Y-77596120D01*
X94596148Y-77362172D01*
X95729481Y-77362172D01*
X95729511Y-77379979D01*
X95742292Y-77527394D01*
X95806427Y-77585772D01*
X95962815Y-77596120D01*
X95980575Y-77596091D01*
X96127603Y-77583276D01*
X96185828Y-77518971D01*
X96196148Y-77362172D01*
X98396148Y-77362172D01*
X98396177Y-77379979D01*
X98408958Y-77527394D01*
X98473094Y-77585772D01*
X98629481Y-77596120D01*
X98647242Y-77596091D01*
X98794269Y-77583276D01*
X98852495Y-77518971D01*
X98862815Y-77362172D01*
X98862786Y-77344365D01*
X98850005Y-77196951D01*
X98785869Y-77138572D01*
X98629481Y-77128225D01*
X98611721Y-77128254D01*
X98464694Y-77141069D01*
X98406468Y-77205373D01*
X98396148Y-77362172D01*
X96196148Y-77362172D01*
X96196119Y-77344365D01*
X96183338Y-77196951D01*
X96119202Y-77138572D01*
X95962815Y-77128225D01*
X95945055Y-77128254D01*
X95798027Y-77141069D01*
X95739802Y-77205373D01*
X95729481Y-77362172D01*
X94596148Y-77362172D01*
X94595552Y-77293140D01*
X94576095Y-77179038D01*
X94500219Y-77135307D01*
X94329481Y-77128225D01*
X94062815Y-77128225D01*
X94062815Y-76593488D01*
X94062815Y-76292699D01*
X94662815Y-76292699D01*
X94662844Y-76310505D01*
X94675625Y-76457920D01*
X94739761Y-76516299D01*
X94896148Y-76526646D01*
X94913908Y-76526617D01*
X95060936Y-76513802D01*
X95119161Y-76449497D01*
X95129481Y-76292699D01*
X95129452Y-76274892D01*
X95116671Y-76127477D01*
X95052536Y-76069098D01*
X94896148Y-76058751D01*
X95729481Y-76058751D01*
X95729481Y-76292699D01*
X95730078Y-76361731D01*
X95749534Y-76475833D01*
X95825411Y-76519563D01*
X95996148Y-76526646D01*
X96262815Y-76526646D01*
X96262815Y-76794014D01*
X96263337Y-76872908D01*
X96280361Y-77003311D01*
X96346753Y-77053288D01*
X96496148Y-77061383D01*
X96729481Y-77061383D01*
X96729481Y-76560067D01*
X96729481Y-76058751D01*
X96229481Y-76058751D01*
X95729481Y-76058751D01*
X94896148Y-76058751D01*
X94878388Y-76058780D01*
X94731360Y-76071595D01*
X94673135Y-76135900D01*
X94662815Y-76292699D01*
X94062815Y-76292699D01*
X94062815Y-76058751D01*
X93796148Y-76058751D01*
X93529481Y-76058751D01*
X93529481Y-75757962D01*
X95196148Y-75757962D01*
X95196177Y-75775769D01*
X95208958Y-75923183D01*
X95273094Y-75981562D01*
X95429481Y-75991909D01*
X95447242Y-75991880D01*
X95594269Y-75979065D01*
X95652495Y-75914761D01*
X95662815Y-75757962D01*
X95662786Y-75740155D01*
X95650005Y-75592740D01*
X95585869Y-75534362D01*
X95429481Y-75524014D01*
X95411721Y-75524043D01*
X95264694Y-75536858D01*
X95206468Y-75601163D01*
X95196148Y-75757962D01*
X93529481Y-75757962D01*
X93529481Y-75457172D01*
X94329481Y-75457172D01*
X95129481Y-75457172D01*
X95129481Y-75189804D01*
X95129481Y-74922435D01*
X95429481Y-74922435D01*
X95729481Y-74922435D01*
X95729481Y-75189804D01*
X95730003Y-75268698D01*
X95747028Y-75399100D01*
X95813420Y-75449078D01*
X95962815Y-75457172D01*
X96031666Y-75456574D01*
X96145469Y-75437067D01*
X96189084Y-75360990D01*
X96196148Y-75189804D01*
X96196148Y-74922435D01*
X96496148Y-74922435D01*
X96796148Y-74922435D01*
X96796148Y-75189804D01*
X96796148Y-75457172D01*
X97062815Y-75457172D01*
X97329481Y-75457172D01*
X97329481Y-75757962D01*
X97329481Y-75991909D01*
X97329481Y-76526646D01*
X97562815Y-76526646D01*
X97631666Y-76526048D01*
X97745469Y-76506540D01*
X97789084Y-76430464D01*
X97796148Y-76259278D01*
X97796148Y-75991909D01*
X98096148Y-75991909D01*
X98396148Y-75991909D01*
X98396148Y-76259278D01*
X98396670Y-76338172D01*
X98413694Y-76468574D01*
X98480086Y-76518552D01*
X98629481Y-76526646D01*
X98698333Y-76526048D01*
X98812135Y-76506540D01*
X98855751Y-76430464D01*
X98862815Y-76259278D01*
X98862815Y-75991909D01*
X99162815Y-75991909D01*
X99462815Y-75991909D01*
X99462815Y-76292699D01*
X99462815Y-76560067D01*
X99462815Y-76593488D01*
X99196148Y-76593488D01*
X99117461Y-76594011D01*
X98987401Y-76611080D01*
X98937555Y-76677647D01*
X98929481Y-76827435D01*
X98930078Y-76896468D01*
X98949534Y-77010570D01*
X99025411Y-77054300D01*
X99196148Y-77061383D01*
X99462815Y-77061383D01*
X99462815Y-77362172D01*
X99462815Y-77662962D01*
X99196148Y-77662962D01*
X98929481Y-77662962D01*
X98929481Y-77896909D01*
X98929481Y-77930330D01*
X98929481Y-78197699D01*
X98396148Y-78197699D01*
X97862815Y-78197699D01*
X97862815Y-78465067D01*
X97862815Y-78732435D01*
X97596148Y-78732435D01*
X97329481Y-78732435D01*
X97329481Y-78966383D01*
X97329481Y-79233751D01*
X97329481Y-79735067D01*
X97562815Y-79735067D01*
X97631666Y-79734469D01*
X97745469Y-79714961D01*
X97789084Y-79638885D01*
X97794769Y-79501120D01*
X98396148Y-79501120D01*
X98396177Y-79518926D01*
X98408958Y-79666341D01*
X98473094Y-79724720D01*
X98629481Y-79735067D01*
X98647242Y-79735038D01*
X98794269Y-79722223D01*
X98852495Y-79657919D01*
X98862815Y-79501120D01*
X98862786Y-79483313D01*
X98850005Y-79335898D01*
X98785869Y-79277520D01*
X98629481Y-79267172D01*
X98611721Y-79267201D01*
X98464694Y-79280016D01*
X98406468Y-79344321D01*
X98396148Y-79501120D01*
X97794769Y-79501120D01*
X97796148Y-79467699D01*
X97796148Y-79200330D01*
X98062815Y-79200330D01*
X98329481Y-79200330D01*
X98329481Y-78932962D01*
X98329481Y-78665593D01*
X98629481Y-78665593D01*
X98929481Y-78665593D01*
X98929481Y-78932962D01*
X98929481Y-79200330D01*
X99429481Y-79200330D01*
X99929481Y-79200330D01*
X99929481Y-78932962D01*
X99929481Y-78665593D01*
X100229481Y-78665593D01*
X100529481Y-78665593D01*
X100529481Y-78932962D01*
X100529481Y-79200330D01*
X100796148Y-79200330D01*
X101062815Y-79200330D01*
X101062815Y-79467699D01*
X101063036Y-79501120D01*
X101063337Y-79546593D01*
X101080361Y-79676995D01*
X101146753Y-79726973D01*
X101296148Y-79735067D01*
X101364999Y-79734469D01*
X101478802Y-79714961D01*
X101522418Y-79638885D01*
X101529481Y-79467699D01*
X101529481Y-79267172D01*
X102129481Y-79267172D01*
X102129481Y-79768488D01*
X102129481Y-80269804D01*
X102659111Y-80269804D01*
X103188741Y-80269804D01*
X103188741Y-80035856D01*
X104862815Y-80035856D01*
X104862844Y-80053663D01*
X104875625Y-80201078D01*
X104939761Y-80259457D01*
X105096148Y-80269804D01*
X105113908Y-80269775D01*
X105260936Y-80256960D01*
X105319161Y-80192655D01*
X105329481Y-80035856D01*
X105329452Y-80018050D01*
X105316671Y-79870635D01*
X105252536Y-79812256D01*
X105096148Y-79801909D01*
X105078388Y-79801938D01*
X104931360Y-79814753D01*
X104873135Y-79879058D01*
X104862815Y-80035856D01*
X103188741Y-80035856D01*
X103188741Y-79768488D01*
X103188741Y-79267172D01*
X102659111Y-79267172D01*
X102129481Y-79267172D01*
X101529481Y-79267172D01*
X101529481Y-79200330D01*
X101796148Y-79200330D01*
X101874835Y-79199807D01*
X102004895Y-79182738D01*
X102054742Y-79116171D01*
X102062815Y-78966383D01*
X103796148Y-78966383D01*
X103796148Y-79735067D01*
X104296148Y-79735067D01*
X104796148Y-79735067D01*
X104796148Y-79200330D01*
X104796148Y-78665593D01*
X105062815Y-78665593D01*
X105141502Y-78665070D01*
X105271562Y-78648001D01*
X105321408Y-78581434D01*
X105329481Y-78431646D01*
X105329481Y-78197699D01*
X104562815Y-78197699D01*
X103796148Y-78197699D01*
X103796148Y-78431646D01*
X103796148Y-78966383D01*
X102062815Y-78966383D01*
X102062815Y-78732435D01*
X101529481Y-78732435D01*
X100996148Y-78732435D01*
X100996148Y-78465067D01*
X100996148Y-78431646D01*
X102129481Y-78431646D01*
X102129511Y-78449453D01*
X102142292Y-78596867D01*
X102206427Y-78655246D01*
X102362815Y-78665593D01*
X102380575Y-78665564D01*
X102527603Y-78652749D01*
X102585828Y-78588445D01*
X102596148Y-78431646D01*
X102596119Y-78413839D01*
X102583338Y-78266424D01*
X102519202Y-78208046D01*
X102362815Y-78197699D01*
X102345055Y-78197728D01*
X102198027Y-78210543D01*
X102139802Y-78274847D01*
X102129481Y-78431646D01*
X100996148Y-78431646D01*
X100996148Y-78197699D01*
X100729481Y-78197699D01*
X100462815Y-78197699D01*
X100462815Y-77930330D01*
X100462815Y-77662962D01*
X100196148Y-77662962D01*
X99929481Y-77662962D01*
X99929481Y-77362172D01*
X99929481Y-77128225D01*
X101062815Y-77128225D01*
X101062815Y-77629541D01*
X101062815Y-78130856D01*
X101296148Y-78130856D01*
X101529481Y-78130856D01*
X101529481Y-77662962D01*
X105929481Y-77662962D01*
X105929481Y-77896909D01*
X105929481Y-78130856D01*
X106429481Y-78130856D01*
X106929481Y-78130856D01*
X106929481Y-77896909D01*
X107529481Y-77896909D01*
X107529511Y-77914716D01*
X107542292Y-78062131D01*
X107606427Y-78120509D01*
X107762815Y-78130856D01*
X107780575Y-78130827D01*
X107927603Y-78118012D01*
X107985828Y-78053708D01*
X107996148Y-77896909D01*
X107996119Y-77879102D01*
X107983338Y-77731688D01*
X107919202Y-77673309D01*
X107762815Y-77662962D01*
X107745055Y-77662991D01*
X107598027Y-77675806D01*
X107539802Y-77740110D01*
X107529481Y-77896909D01*
X106929481Y-77896909D01*
X106929481Y-77662962D01*
X106429481Y-77662962D01*
X105929481Y-77662962D01*
X101529481Y-77662962D01*
X101529481Y-77629541D01*
X101529481Y-77128225D01*
X101296148Y-77128225D01*
X101062815Y-77128225D01*
X99929481Y-77128225D01*
X99929481Y-77061383D01*
X100462815Y-77061383D01*
X100996148Y-77061383D01*
X100996148Y-76292699D01*
X100996148Y-75524014D01*
X102129481Y-75524014D01*
X102129481Y-76025330D01*
X102129481Y-76526646D01*
X102396148Y-76526646D01*
X102662815Y-76526646D01*
X102662815Y-76794014D01*
X102662815Y-77061383D01*
X102929481Y-77061383D01*
X103196148Y-77061383D01*
X103196148Y-76794014D01*
X103196148Y-76526646D01*
X103496148Y-76526646D01*
X103796148Y-76526646D01*
X103796148Y-76827435D01*
X103796148Y-77128225D01*
X103496148Y-77128225D01*
X103362647Y-77129668D01*
X103245956Y-77150356D01*
X103202552Y-77218425D01*
X103196148Y-77362172D01*
X103196148Y-77596120D01*
X103996148Y-77596120D01*
X104796148Y-77596120D01*
X104796148Y-77362172D01*
X104795552Y-77293140D01*
X104776095Y-77179038D01*
X104700219Y-77135307D01*
X104529481Y-77128225D01*
X104262815Y-77128225D01*
X104262815Y-76292699D01*
X104262815Y-75524014D01*
X104862815Y-75524014D01*
X104862815Y-76292699D01*
X104862815Y-77061383D01*
X105096148Y-77061383D01*
X105164999Y-77060785D01*
X105278802Y-77041277D01*
X105322418Y-76965201D01*
X105329481Y-76794014D01*
X105329481Y-76526646D01*
X105896148Y-76526646D01*
X106462815Y-76526646D01*
X106462815Y-76794014D01*
X106462815Y-77061383D01*
X106962815Y-77061383D01*
X107462815Y-77061383D01*
X107462815Y-76560067D01*
X107462815Y-76058751D01*
X108062815Y-76058751D01*
X108062815Y-76560067D01*
X108062815Y-77061383D01*
X108296148Y-77061383D01*
X108364999Y-77060785D01*
X108478802Y-77041277D01*
X108522418Y-76965201D01*
X108529481Y-76794014D01*
X108529481Y-76526646D01*
X108796148Y-76526646D01*
X108874835Y-76526123D01*
X109004895Y-76509054D01*
X109054742Y-76442487D01*
X109062815Y-76292699D01*
X109062815Y-76058751D01*
X108562815Y-76058751D01*
X108062815Y-76058751D01*
X107462815Y-76058751D01*
X107196148Y-76058751D01*
X106929481Y-76058751D01*
X106929481Y-75791383D01*
X106929481Y-75524014D01*
X106662815Y-75524014D01*
X106396148Y-75524014D01*
X106396148Y-75256646D01*
X106395626Y-75177752D01*
X106378602Y-75047349D01*
X106312210Y-74997372D01*
X106162815Y-74989278D01*
X106093964Y-74989875D01*
X105980161Y-75009383D01*
X105936545Y-75085459D01*
X105929481Y-75256646D01*
X105929481Y-75524014D01*
X105396148Y-75524014D01*
X104862815Y-75524014D01*
X104262815Y-75524014D01*
X104262815Y-75457172D01*
X104529481Y-75457172D01*
X104796148Y-75457172D01*
X104796148Y-74955856D01*
X104796148Y-74688488D01*
X106996148Y-74688488D01*
X106996744Y-74757520D01*
X107016201Y-74871623D01*
X107092078Y-74915353D01*
X107262815Y-74922435D01*
X107529481Y-74922435D01*
X107529481Y-75457172D01*
X107529481Y-75991909D01*
X107762815Y-75991909D01*
X107996148Y-75991909D01*
X107996148Y-75457172D01*
X107996148Y-74989278D01*
X108596148Y-74989278D01*
X108596148Y-75223225D01*
X108596148Y-75457172D01*
X109096148Y-75457172D01*
X109596148Y-75457172D01*
X109596148Y-75223225D01*
X109596148Y-74989278D01*
X109096148Y-74989278D01*
X108596148Y-74989278D01*
X107996148Y-74989278D01*
X107996148Y-74922435D01*
X108262815Y-74922435D01*
X108529481Y-74922435D01*
X108529481Y-74655067D01*
X108529481Y-74387699D01*
X109062815Y-74387699D01*
X109596148Y-74387699D01*
X109596148Y-74120330D01*
X109596148Y-73852962D01*
X109862815Y-73852962D01*
X109941502Y-73852439D01*
X110071562Y-73835369D01*
X110121408Y-73768803D01*
X110129481Y-73619014D01*
X111262815Y-73619014D01*
X111262844Y-73636821D01*
X111275625Y-73784236D01*
X111339761Y-73842614D01*
X111496148Y-73852962D01*
X111513908Y-73852933D01*
X111660936Y-73840118D01*
X111719161Y-73775813D01*
X111729481Y-73619014D01*
X111729452Y-73601207D01*
X111716671Y-73453793D01*
X111652536Y-73395414D01*
X111496148Y-73385067D01*
X111478388Y-73385096D01*
X111331360Y-73397911D01*
X111273135Y-73462215D01*
X111262815Y-73619014D01*
X110129481Y-73619014D01*
X110129481Y-73385067D01*
X109629481Y-73385067D01*
X109129481Y-73385067D01*
X109129481Y-73652435D01*
X109129481Y-73919804D01*
X108329481Y-73919804D01*
X107529481Y-73919804D01*
X107529481Y-74187172D01*
X107529481Y-74454541D01*
X107262815Y-74454541D01*
X107184128Y-74455064D01*
X107054068Y-74472133D01*
X107004221Y-74538700D01*
X106996148Y-74688488D01*
X104796148Y-74688488D01*
X104796148Y-74454541D01*
X104262815Y-74454541D01*
X103729481Y-74454541D01*
X103729481Y-74187172D01*
X103729481Y-73919804D01*
X103196148Y-73919804D01*
X102662815Y-73919804D01*
X102662815Y-74153751D01*
X102663411Y-74222783D01*
X102682868Y-74336886D01*
X102758744Y-74380616D01*
X102929481Y-74387699D01*
X103000151Y-74386933D01*
X103092801Y-74390861D01*
X103152540Y-74420072D01*
X103186532Y-74496240D01*
X103201942Y-74641039D01*
X103202747Y-74688488D01*
X103205933Y-74876143D01*
X103205672Y-75223225D01*
X103205616Y-75272203D01*
X103204021Y-75543211D01*
X103200910Y-75791383D01*
X103196148Y-76058751D01*
X102896148Y-76058751D01*
X102596148Y-76058751D01*
X102596148Y-75791383D01*
X102595626Y-75712489D01*
X102578602Y-75582086D01*
X102512210Y-75532109D01*
X102362815Y-75524014D01*
X102129481Y-75524014D01*
X100996148Y-75524014D01*
X100196148Y-75524014D01*
X99396148Y-75524014D01*
X99396148Y-75223225D01*
X99396148Y-74922435D01*
X99662815Y-74922435D01*
X99741502Y-74921912D01*
X99871562Y-74904843D01*
X99921408Y-74838276D01*
X99929481Y-74688488D01*
X99929481Y-74454541D01*
X101062815Y-74454541D01*
X101062815Y-74955856D01*
X101062815Y-75457172D01*
X101296148Y-75457172D01*
X101364999Y-75456574D01*
X101478802Y-75437067D01*
X101522418Y-75360990D01*
X101529481Y-75189804D01*
X101529481Y-74922435D01*
X102062815Y-74922435D01*
X102596148Y-74922435D01*
X102596148Y-74688488D01*
X102596148Y-74454541D01*
X101829481Y-74454541D01*
X101062815Y-74454541D01*
X99929481Y-74454541D01*
X99396148Y-74454541D01*
X98862815Y-74454541D01*
X98862815Y-73886383D01*
X98862815Y-73318225D01*
X99129481Y-73318225D01*
X99396148Y-73318225D01*
X99396148Y-73050856D01*
X99396148Y-72783488D01*
X99662815Y-72783488D01*
X99741502Y-72782965D01*
X99871562Y-72765896D01*
X99921408Y-72699329D01*
X99929481Y-72549541D01*
X99928885Y-72480508D01*
X99909429Y-72366406D01*
X99833552Y-72322676D01*
X99662815Y-72315593D01*
X99396148Y-72315593D01*
X99396148Y-72020081D01*
X99396148Y-71724568D01*
X98362815Y-71724568D01*
X97329481Y-71724568D01*
X97329481Y-71986660D01*
X97330122Y-72076530D01*
X97349613Y-72197428D01*
X97425459Y-72242225D01*
X97596148Y-72248751D01*
X97862815Y-72248751D01*
X97862815Y-72549541D01*
X97862815Y-72850330D01*
X97596148Y-72850330D01*
X97329481Y-72850330D01*
X97329481Y-73117699D01*
X97329481Y-73385067D01*
X97062815Y-73385067D01*
X96796148Y-73385067D01*
X96796148Y-73919804D01*
X96796148Y-74454541D01*
X96496148Y-74454541D01*
X96196148Y-74454541D01*
X96196148Y-74187172D01*
X96195626Y-74108278D01*
X96178602Y-73977876D01*
X96112210Y-73927898D01*
X95962815Y-73919804D01*
X95893964Y-73920402D01*
X95780161Y-73939909D01*
X95736545Y-74015986D01*
X95729481Y-74187172D01*
X95729481Y-74454541D01*
X95429481Y-74454541D01*
X95129481Y-74454541D01*
X95129481Y-74187172D01*
X95129481Y-73919804D01*
X94862815Y-73919804D01*
X94596148Y-73919804D01*
X94596148Y-73619014D01*
X94596148Y-73318225D01*
X95396148Y-73318225D01*
X96196148Y-73318225D01*
X96196148Y-72783488D01*
X96196148Y-72248751D01*
X96462815Y-72248751D01*
X96729481Y-72248751D01*
X96729481Y-71976271D01*
X96728764Y-71876100D01*
X96709868Y-71755783D01*
X96638465Y-71714410D01*
X96479481Y-71715379D01*
X96449560Y-71716642D01*
X96199618Y-71721835D01*
X95946148Y-71720491D01*
X95662815Y-71714014D01*
X95662815Y-71446646D01*
X96796148Y-71446646D01*
X96796670Y-71525540D01*
X96813694Y-71655943D01*
X96880086Y-71705920D01*
X97029481Y-71714014D01*
X97098333Y-71713416D01*
X97212135Y-71693909D01*
X97255751Y-71617832D01*
X97262815Y-71446646D01*
X97262293Y-71367752D01*
X97245269Y-71237349D01*
X97178877Y-71187372D01*
X97029481Y-71179278D01*
X96960630Y-71179875D01*
X96846828Y-71199383D01*
X96803212Y-71275459D01*
X96796148Y-71446646D01*
X95662815Y-71446646D01*
X95662293Y-71367752D01*
X95645269Y-71237349D01*
X95578877Y-71187372D01*
X95429481Y-71179278D01*
X95360630Y-71179875D01*
X95246828Y-71199383D01*
X95203212Y-71275459D01*
X95196148Y-71446646D01*
X95196148Y-71714014D01*
X94929481Y-71714014D01*
X94662815Y-71714014D01*
X94662815Y-71981383D01*
X94662815Y-72248751D01*
X94929481Y-72248751D01*
X95196148Y-72248751D01*
X95196148Y-72549541D01*
X95196148Y-72850330D01*
X94629481Y-72850330D01*
X94062815Y-72850330D01*
X94062815Y-72582962D01*
X94062293Y-72504068D01*
X94045269Y-72373665D01*
X93978877Y-72323688D01*
X93829481Y-72315593D01*
X93760630Y-72316191D01*
X93646828Y-72335699D01*
X93603212Y-72411775D01*
X93596148Y-72582962D01*
X93596148Y-72850330D01*
X93329481Y-72850330D01*
X93062815Y-72850330D01*
X93062815Y-73117699D01*
X93062815Y-73385067D01*
X92762815Y-73385067D01*
X92462815Y-73385067D01*
X92462815Y-72816909D01*
X92462815Y-72248751D01*
X92746148Y-72242275D01*
X92779609Y-72241619D01*
X93039696Y-72241314D01*
X93279481Y-72247386D01*
X93529481Y-72258974D01*
X93529481Y-71981383D01*
X93529481Y-71703792D01*
X93279481Y-71715379D01*
X93249560Y-71716642D01*
X92999618Y-71721835D01*
X92746148Y-71720491D01*
X92462815Y-71714014D01*
X92462815Y-70878488D01*
X93062815Y-70878488D01*
X93062815Y-71112435D01*
X93596148Y-71112435D01*
X94129481Y-71112435D01*
X94129481Y-71413225D01*
X94130921Y-71547077D01*
X94151554Y-71664075D01*
X94219445Y-71707593D01*
X94362815Y-71714014D01*
X94596148Y-71714014D01*
X94596148Y-71179278D01*
X94596148Y-70644541D01*
X94329481Y-70644541D01*
X94062815Y-70644541D01*
X94062815Y-70377172D01*
X94062594Y-70343751D01*
X95196148Y-70343751D01*
X95196744Y-70412783D01*
X95216201Y-70526886D01*
X95292078Y-70570616D01*
X95462815Y-70577699D01*
X95729481Y-70577699D01*
X95729481Y-70644541D01*
X95729481Y-70845067D01*
X95729481Y-71112435D01*
X96229481Y-71112435D01*
X96729481Y-71112435D01*
X98396148Y-71112435D01*
X98929481Y-71112435D01*
X99462815Y-71112435D01*
X99462815Y-71418336D01*
X99462815Y-71446646D01*
X99462815Y-71724237D01*
X99712815Y-71712649D01*
X99742737Y-71711387D01*
X99992678Y-71706194D01*
X100246148Y-71707538D01*
X100529481Y-71714014D01*
X100529481Y-72783488D01*
X100529481Y-73852962D01*
X100762815Y-73852962D01*
X100831666Y-73852364D01*
X100945469Y-73832856D01*
X100989084Y-73756780D01*
X100996148Y-73585593D01*
X100996148Y-73318225D01*
X101296148Y-73318225D01*
X101596148Y-73318225D01*
X101596148Y-73585593D01*
X101596670Y-73664487D01*
X101613694Y-73794890D01*
X101680086Y-73844867D01*
X101829481Y-73852962D01*
X102062815Y-73852962D01*
X102062815Y-73351646D01*
X102062815Y-73084278D01*
X103196148Y-73084278D01*
X103196744Y-73153310D01*
X103216201Y-73267412D01*
X103292078Y-73311142D01*
X103462815Y-73318225D01*
X103541502Y-73317702D01*
X103671562Y-73300632D01*
X103721408Y-73234066D01*
X103729481Y-73084278D01*
X104329481Y-73084278D01*
X104330078Y-73153310D01*
X104349534Y-73267412D01*
X104425411Y-73311142D01*
X104596148Y-73318225D01*
X104862815Y-73318225D01*
X104862815Y-73852962D01*
X104862815Y-74387699D01*
X105096148Y-74387699D01*
X105329481Y-74387699D01*
X105329481Y-73852962D01*
X105329481Y-73318225D01*
X105596148Y-73318225D01*
X105674835Y-73317702D01*
X105804895Y-73300632D01*
X105854742Y-73234066D01*
X105862815Y-73084278D01*
X106462815Y-73084278D01*
X106462815Y-73318225D01*
X107762815Y-73318225D01*
X109062815Y-73318225D01*
X109062815Y-73084278D01*
X110196148Y-73084278D01*
X110196148Y-73318225D01*
X110696148Y-73318225D01*
X111196148Y-73318225D01*
X111196148Y-72816909D01*
X111196148Y-72315593D01*
X110962815Y-72315593D01*
X110893964Y-72316191D01*
X110780161Y-72335699D01*
X110736545Y-72411775D01*
X110730860Y-72549541D01*
X110729481Y-72582962D01*
X110729481Y-72850330D01*
X110462815Y-72850330D01*
X110384128Y-72850853D01*
X110254068Y-72867923D01*
X110204221Y-72934489D01*
X110196148Y-73084278D01*
X109062815Y-73084278D01*
X109062219Y-73015245D01*
X109042762Y-72901143D01*
X108966885Y-72857413D01*
X108796148Y-72850330D01*
X108529481Y-72850330D01*
X108529481Y-72549541D01*
X108529481Y-72315593D01*
X109129481Y-72315593D01*
X109129481Y-72549541D01*
X109129481Y-72783488D01*
X109629481Y-72783488D01*
X110129481Y-72783488D01*
X110129481Y-72549541D01*
X110129481Y-72315593D01*
X109629481Y-72315593D01*
X109129481Y-72315593D01*
X108529481Y-72315593D01*
X108529481Y-72248751D01*
X108796148Y-72248751D01*
X108888197Y-72248118D01*
X109010867Y-72228846D01*
X109056243Y-72153857D01*
X109062815Y-71985096D01*
X109062815Y-71721441D01*
X108562815Y-71721441D01*
X108062815Y-71721441D01*
X108062815Y-72285886D01*
X108062815Y-72850330D01*
X107762815Y-72850330D01*
X107462815Y-72850330D01*
X107462815Y-72582962D01*
X107462293Y-72504068D01*
X107445269Y-72373665D01*
X107378877Y-72323688D01*
X107229481Y-72315593D01*
X107160630Y-72316191D01*
X107046828Y-72335699D01*
X107003212Y-72411775D01*
X106997527Y-72549541D01*
X106996148Y-72582962D01*
X106996148Y-72850330D01*
X106729481Y-72850330D01*
X106650795Y-72850853D01*
X106520734Y-72867923D01*
X106470888Y-72934489D01*
X106462815Y-73084278D01*
X105862815Y-73084278D01*
X105862219Y-73015245D01*
X105842762Y-72901143D01*
X105766885Y-72857413D01*
X105596148Y-72850330D01*
X105329481Y-72850330D01*
X105329481Y-72582962D01*
X105329260Y-72549541D01*
X105929481Y-72549541D01*
X105929511Y-72567348D01*
X105942292Y-72714762D01*
X106006427Y-72773141D01*
X106162815Y-72783488D01*
X106180575Y-72783459D01*
X106327603Y-72770644D01*
X106385828Y-72706340D01*
X106396148Y-72549541D01*
X106396119Y-72531734D01*
X106383338Y-72384319D01*
X106319202Y-72325941D01*
X106162815Y-72315593D01*
X106145055Y-72315622D01*
X105998027Y-72328437D01*
X105939802Y-72392742D01*
X105929481Y-72549541D01*
X105329260Y-72549541D01*
X105328960Y-72504068D01*
X105311935Y-72373665D01*
X105245543Y-72323688D01*
X105096148Y-72315593D01*
X105027297Y-72316191D01*
X104913494Y-72335699D01*
X104869879Y-72411775D01*
X104862815Y-72582962D01*
X104862815Y-72783488D01*
X104862815Y-72850330D01*
X104596148Y-72850330D01*
X104517461Y-72850853D01*
X104387401Y-72867923D01*
X104337555Y-72934489D01*
X104329481Y-73084278D01*
X103729481Y-73084278D01*
X103728885Y-73015245D01*
X103709429Y-72901143D01*
X103633552Y-72857413D01*
X103462815Y-72850330D01*
X103384128Y-72850853D01*
X103254068Y-72867923D01*
X103204221Y-72934489D01*
X103196148Y-73084278D01*
X102062815Y-73084278D01*
X102062815Y-72850330D01*
X101529481Y-72850330D01*
X100996148Y-72850330D01*
X100996148Y-72014804D01*
X100996148Y-71179278D01*
X100729481Y-71179278D01*
X100462815Y-71179278D01*
X100462815Y-70911909D01*
X100462815Y-70644541D01*
X101062815Y-70644541D01*
X101062815Y-70878488D01*
X101063411Y-70947520D01*
X101082868Y-71061623D01*
X101158744Y-71105353D01*
X101329481Y-71112435D01*
X101596148Y-71112435D01*
X101596148Y-71413225D01*
X101596148Y-71714014D01*
X101862815Y-71714014D01*
X102129481Y-71714014D01*
X102129481Y-71981383D01*
X102129481Y-72248751D01*
X102396148Y-72248751D01*
X102662815Y-72248751D01*
X102662815Y-72520155D01*
X102662815Y-72791558D01*
X102912815Y-72770812D01*
X102946880Y-72767856D01*
X103094699Y-72739966D01*
X103159200Y-72664896D01*
X103183506Y-72499409D01*
X103194054Y-72391702D01*
X103227952Y-72291644D01*
X103316954Y-72254314D01*
X103500173Y-72248751D01*
X103796148Y-72248751D01*
X103796148Y-72516120D01*
X103796683Y-72596465D01*
X103813918Y-72726067D01*
X103881103Y-72775558D01*
X104032286Y-72783488D01*
X104268423Y-72783488D01*
X104248952Y-72265462D01*
X104229481Y-71747435D01*
X103983279Y-71726917D01*
X103959107Y-71724835D01*
X103807773Y-71697456D01*
X103741427Y-71623551D01*
X103716613Y-71459549D01*
X103715508Y-71446646D01*
X105396148Y-71446646D01*
X105396670Y-71525540D01*
X105413694Y-71655943D01*
X105480086Y-71705920D01*
X105629481Y-71714014D01*
X105698333Y-71713416D01*
X105812135Y-71693909D01*
X105855751Y-71617832D01*
X105862815Y-71446646D01*
X105862293Y-71367752D01*
X105845269Y-71237349D01*
X105778877Y-71187372D01*
X105629481Y-71179278D01*
X105560630Y-71179875D01*
X105446828Y-71199383D01*
X105403212Y-71275459D01*
X105396148Y-71446646D01*
X103715508Y-71446646D01*
X103714537Y-71435312D01*
X103687229Y-71283580D01*
X103613518Y-71217060D01*
X103449946Y-71192180D01*
X103425774Y-71190098D01*
X103274439Y-71162719D01*
X103208094Y-71088814D01*
X103183279Y-70924812D01*
X103180599Y-70893691D01*
X103154119Y-70747219D01*
X103084100Y-70688620D01*
X102929481Y-70677962D01*
X102893784Y-70678123D01*
X102758058Y-70694076D01*
X102698675Y-70764359D01*
X102675457Y-70928620D01*
X102664909Y-71036327D01*
X102631011Y-71136384D01*
X102542009Y-71173714D01*
X102358790Y-71179278D01*
X102062815Y-71179278D01*
X102062815Y-70911909D01*
X102062815Y-70644541D01*
X101562815Y-70644541D01*
X101062815Y-70644541D01*
X100462815Y-70644541D01*
X100196148Y-70644541D01*
X99929481Y-70644541D01*
X99929481Y-70109804D01*
X99929481Y-69575067D01*
X99696148Y-69575067D01*
X99462815Y-69575067D01*
X99462815Y-70109804D01*
X99462815Y-70644541D01*
X98929481Y-70644541D01*
X98396148Y-70644541D01*
X98396148Y-70878488D01*
X98396148Y-71112435D01*
X96729481Y-71112435D01*
X96729481Y-70878488D01*
X96728885Y-70809456D01*
X96709429Y-70695353D01*
X96633552Y-70651623D01*
X96462815Y-70644541D01*
X96196148Y-70644541D01*
X96196148Y-70109804D01*
X96196148Y-69575067D01*
X95962815Y-69575067D01*
X95893964Y-69575665D01*
X95780161Y-69595173D01*
X95736545Y-69671249D01*
X95730860Y-69809014D01*
X95729481Y-69842435D01*
X95729481Y-70109804D01*
X95462815Y-70109804D01*
X95384128Y-70110327D01*
X95254068Y-70127396D01*
X95204221Y-70193963D01*
X95196148Y-70343751D01*
X94062594Y-70343751D01*
X94062293Y-70298278D01*
X94045269Y-70167876D01*
X93978877Y-70117898D01*
X93829481Y-70109804D01*
X93760630Y-70110402D01*
X93646828Y-70129909D01*
X93603212Y-70205986D01*
X93596148Y-70377172D01*
X93596148Y-70644541D01*
X93329481Y-70644541D01*
X93250795Y-70645064D01*
X93120734Y-70662133D01*
X93070888Y-70728700D01*
X93062815Y-70878488D01*
X92462815Y-70878488D01*
X92462815Y-70042962D01*
X92996148Y-70042962D01*
X93529481Y-70042962D01*
X93529481Y-69809014D01*
X94662815Y-69809014D01*
X94662844Y-69826821D01*
X94675625Y-69974236D01*
X94739761Y-70032614D01*
X94896148Y-70042962D01*
X94913908Y-70042933D01*
X95060936Y-70030118D01*
X95119161Y-69965813D01*
X95129481Y-69809014D01*
X95129452Y-69791207D01*
X95116671Y-69643793D01*
X95052536Y-69585414D01*
X94896148Y-69575067D01*
X94878388Y-69575096D01*
X94731360Y-69587911D01*
X94673135Y-69652215D01*
X94662815Y-69809014D01*
X93529481Y-69809014D01*
X93528885Y-69739982D01*
X93509429Y-69625880D01*
X93433552Y-69582149D01*
X93262815Y-69575067D01*
X92996148Y-69575067D01*
X92996148Y-69541646D01*
X96796148Y-69541646D01*
X96796148Y-70042962D01*
X97562815Y-70042962D01*
X98329481Y-70042962D01*
X98329481Y-69809014D01*
X98329481Y-69575067D01*
X97796148Y-69575067D01*
X97262815Y-69575067D01*
X97262815Y-69307699D01*
X97262293Y-69228804D01*
X97245269Y-69098402D01*
X97178877Y-69048424D01*
X97029481Y-69040330D01*
X96796148Y-69040330D01*
X96796148Y-69541646D01*
X92996148Y-69541646D01*
X92996148Y-69307699D01*
X92996148Y-69040330D01*
X92729481Y-69040330D01*
X92462815Y-69040330D01*
X92462815Y-68472172D01*
X92462815Y-67904014D01*
X92996148Y-67904014D01*
X93529481Y-67904014D01*
X93529481Y-67670067D01*
X93529481Y-67436120D01*
X92996148Y-67436120D01*
X92462815Y-67436120D01*
X92462815Y-67135330D01*
X92462815Y-66834541D01*
X93296148Y-66834541D01*
X94129481Y-66834541D01*
X94129481Y-67670067D01*
X94129481Y-68505593D01*
X93862815Y-68505593D01*
X93596148Y-68505593D01*
X93596148Y-69006909D01*
X93596148Y-69508225D01*
X94096148Y-69508225D01*
X94596148Y-69508225D01*
X94596148Y-69240856D01*
X94596148Y-68973488D01*
X94896148Y-68973488D01*
X95196148Y-68973488D01*
X95196148Y-69240856D01*
X95196670Y-69319751D01*
X95213694Y-69450153D01*
X95280086Y-69500131D01*
X95429481Y-69508225D01*
X95662815Y-69508225D01*
X95662815Y-69006909D01*
X95662815Y-68505593D01*
X95129481Y-68505593D01*
X94596148Y-68505593D01*
X94596148Y-68204804D01*
X94596148Y-67904014D01*
X94862815Y-67904014D01*
X95129481Y-67904014D01*
X95129481Y-67436120D01*
X95729481Y-67436120D01*
X95729481Y-67670067D01*
X95730078Y-67739099D01*
X95749534Y-67853202D01*
X95825411Y-67896932D01*
X95996148Y-67904014D01*
X96262815Y-67904014D01*
X96262815Y-68438751D01*
X96262815Y-68973488D01*
X96496148Y-68973488D01*
X96564999Y-68972890D01*
X96678802Y-68953382D01*
X96722418Y-68877306D01*
X96728102Y-68739541D01*
X98396148Y-68739541D01*
X98396177Y-68757348D01*
X98408958Y-68904762D01*
X98473094Y-68963141D01*
X98629481Y-68973488D01*
X98647242Y-68973459D01*
X98794269Y-68960644D01*
X98852495Y-68896340D01*
X98862815Y-68739541D01*
X98862786Y-68721734D01*
X98850005Y-68574319D01*
X98785869Y-68515941D01*
X98629481Y-68505593D01*
X100529481Y-68505593D01*
X100529481Y-68739541D01*
X100529481Y-69541646D01*
X100529481Y-70577699D01*
X100762815Y-70577699D01*
X100831666Y-70577101D01*
X100945469Y-70557593D01*
X100989084Y-70481517D01*
X100996148Y-70310330D01*
X100996148Y-70109804D01*
X103196148Y-70109804D01*
X103196148Y-70343751D01*
X103197999Y-70447859D01*
X103224527Y-70538857D01*
X103311815Y-70572704D01*
X103496148Y-70577699D01*
X103796148Y-70577699D01*
X103796148Y-70845067D01*
X103796670Y-70923961D01*
X103813694Y-71054364D01*
X103880086Y-71104341D01*
X104029481Y-71112435D01*
X104262815Y-71112435D01*
X104262815Y-70878488D01*
X105929481Y-70878488D01*
X105930078Y-70947520D01*
X105949534Y-71061623D01*
X106025411Y-71105353D01*
X106196148Y-71112435D01*
X106462815Y-71112435D01*
X106462815Y-71413225D01*
X106463174Y-71446646D01*
X106464254Y-71547077D01*
X106484888Y-71664075D01*
X106552778Y-71707593D01*
X106696148Y-71714014D01*
X106799982Y-71712159D01*
X106890742Y-71685560D01*
X106924500Y-71598043D01*
X106928580Y-71446646D01*
X109662815Y-71446646D01*
X109663337Y-71525540D01*
X109680361Y-71655943D01*
X109746753Y-71705920D01*
X109896148Y-71714014D01*
X109964999Y-71713416D01*
X110078802Y-71693909D01*
X110122418Y-71617832D01*
X110129481Y-71446646D01*
X110128960Y-71367752D01*
X110111935Y-71237349D01*
X110045543Y-71187372D01*
X109896148Y-71179278D01*
X109827297Y-71179875D01*
X109713494Y-71199383D01*
X109669879Y-71275459D01*
X109662815Y-71446646D01*
X106928580Y-71446646D01*
X106929481Y-71413225D01*
X106929481Y-71112435D01*
X107196148Y-71112435D01*
X107462815Y-71112435D01*
X107462815Y-70878488D01*
X108596148Y-70878488D01*
X108596177Y-70896295D01*
X108608958Y-71043710D01*
X108673094Y-71102088D01*
X108829481Y-71112435D01*
X108847242Y-71112406D01*
X108994269Y-71099591D01*
X109052495Y-71035287D01*
X109062815Y-70878488D01*
X109062786Y-70860681D01*
X109050005Y-70713266D01*
X108985869Y-70654888D01*
X108829481Y-70644541D01*
X108811721Y-70644570D01*
X108664694Y-70657385D01*
X108606468Y-70721689D01*
X108596148Y-70878488D01*
X107462815Y-70878488D01*
X107462815Y-70611120D01*
X107462815Y-70109804D01*
X106962815Y-70109804D01*
X106462815Y-70109804D01*
X106462815Y-70377172D01*
X106462815Y-70611120D01*
X106462815Y-70644541D01*
X106196148Y-70644541D01*
X106117461Y-70645064D01*
X105987401Y-70662133D01*
X105937555Y-70728700D01*
X105929481Y-70878488D01*
X104262815Y-70878488D01*
X104262815Y-70611120D01*
X104262815Y-70109804D01*
X103729481Y-70109804D01*
X103196148Y-70109804D01*
X100996148Y-70109804D01*
X100996148Y-70042962D01*
X102096148Y-70042962D01*
X103196148Y-70042962D01*
X103196148Y-69809014D01*
X104329481Y-69809014D01*
X104330078Y-69878047D01*
X104349534Y-69992149D01*
X104425411Y-70035879D01*
X104596148Y-70042962D01*
X104862815Y-70042962D01*
X104862815Y-70310330D01*
X104863337Y-70389224D01*
X104880361Y-70519627D01*
X104946753Y-70569604D01*
X105096148Y-70577699D01*
X105164999Y-70577101D01*
X105278802Y-70557593D01*
X105322418Y-70481517D01*
X105329481Y-70310330D01*
X105329481Y-70042962D01*
X105596148Y-70042962D01*
X105674835Y-70042439D01*
X105804895Y-70025369D01*
X105854742Y-69958803D01*
X105862815Y-69809014D01*
X105862219Y-69739982D01*
X105842762Y-69625880D01*
X105766885Y-69582149D01*
X105596148Y-69575067D01*
X105329481Y-69575067D01*
X105329481Y-69274278D01*
X105329481Y-69040330D01*
X108062815Y-69040330D01*
X108062815Y-69541646D01*
X108062815Y-70042962D01*
X108596148Y-70042962D01*
X109129481Y-70042962D01*
X109129481Y-70310330D01*
X109130003Y-70389224D01*
X109147028Y-70519627D01*
X109213420Y-70569604D01*
X109362815Y-70577699D01*
X109596148Y-70577699D01*
X109596148Y-70076383D01*
X109596148Y-69575067D01*
X109062815Y-69575067D01*
X108529481Y-69575067D01*
X108529481Y-69307699D01*
X108528960Y-69228804D01*
X108511935Y-69098402D01*
X108445543Y-69048424D01*
X108296148Y-69040330D01*
X108062815Y-69040330D01*
X105329481Y-69040330D01*
X105329481Y-68973488D01*
X106129481Y-68973488D01*
X106929481Y-68973488D01*
X106929481Y-68706120D01*
X106929481Y-68438751D01*
X107229481Y-68438751D01*
X107529481Y-68438751D01*
X107529481Y-68706120D01*
X107530003Y-68785014D01*
X107547028Y-68915416D01*
X107613420Y-68965394D01*
X107762815Y-68973488D01*
X107831666Y-68972890D01*
X107945469Y-68953382D01*
X107989084Y-68877306D01*
X107996148Y-68706120D01*
X107996148Y-68505593D01*
X108596148Y-68505593D01*
X108596148Y-68739541D01*
X108596148Y-68973488D01*
X109362815Y-68973488D01*
X110129481Y-68973488D01*
X110129481Y-68739541D01*
X110129481Y-68505593D01*
X109362815Y-68505593D01*
X108596148Y-68505593D01*
X107996148Y-68505593D01*
X107996148Y-68438751D01*
X108262815Y-68438751D01*
X108341502Y-68438228D01*
X108471562Y-68421159D01*
X108521408Y-68354592D01*
X108529481Y-68204804D01*
X108529481Y-67970856D01*
X107996148Y-67970856D01*
X107462815Y-67970856D01*
X107462815Y-67703488D01*
X107462815Y-67670067D01*
X108596148Y-67670067D01*
X108596177Y-67687874D01*
X108608958Y-67835289D01*
X108673094Y-67893667D01*
X108829481Y-67904014D01*
X109662815Y-67904014D01*
X110162815Y-67904014D01*
X110662815Y-67904014D01*
X110662815Y-67670067D01*
X110662815Y-67436120D01*
X110162815Y-67436120D01*
X109662815Y-67436120D01*
X109662815Y-67670067D01*
X109662815Y-67904014D01*
X108829481Y-67904014D01*
X108847242Y-67903985D01*
X108994269Y-67891170D01*
X109052495Y-67826866D01*
X109062815Y-67670067D01*
X109062786Y-67652260D01*
X109050005Y-67504845D01*
X108985869Y-67446467D01*
X108829481Y-67436120D01*
X108811721Y-67436149D01*
X108664694Y-67448964D01*
X108606468Y-67513268D01*
X108596148Y-67670067D01*
X107462815Y-67670067D01*
X107462815Y-67436120D01*
X106962815Y-67436120D01*
X106462815Y-67436120D01*
X106462815Y-67670067D01*
X106462815Y-67970856D01*
X106462815Y-68505593D01*
X105896148Y-68505593D01*
X105329481Y-68505593D01*
X105329481Y-68238225D01*
X105328960Y-68159331D01*
X105311935Y-68028928D01*
X105245543Y-67978951D01*
X105096148Y-67970856D01*
X104862815Y-67970856D01*
X104862815Y-68772962D01*
X104862815Y-69575067D01*
X104596148Y-69575067D01*
X104517461Y-69575590D01*
X104387401Y-69592659D01*
X104337555Y-69659226D01*
X104329481Y-69809014D01*
X103196148Y-69809014D01*
X103196148Y-69775593D01*
X103196148Y-69508225D01*
X103729481Y-69508225D01*
X104262815Y-69508225D01*
X104262815Y-69274278D01*
X104262388Y-69213996D01*
X104244311Y-69094169D01*
X104170773Y-69047953D01*
X104002861Y-69040330D01*
X103901131Y-69039153D01*
X103788530Y-69016034D01*
X103740389Y-68934160D01*
X103719528Y-68756251D01*
X103717442Y-68728599D01*
X103708978Y-68454566D01*
X103716648Y-68188093D01*
X103737148Y-67904014D01*
X104266648Y-67904014D01*
X104796148Y-67904014D01*
X104796148Y-67670067D01*
X105396148Y-67670067D01*
X105396177Y-67687874D01*
X105408958Y-67835289D01*
X105473094Y-67893667D01*
X105629481Y-67904014D01*
X105647242Y-67903985D01*
X105794269Y-67891170D01*
X105852495Y-67826866D01*
X105862815Y-67670067D01*
X105862786Y-67652260D01*
X105850005Y-67504845D01*
X105785869Y-67446467D01*
X105629481Y-67436120D01*
X105611721Y-67436149D01*
X105464694Y-67448964D01*
X105406468Y-67513268D01*
X105396148Y-67670067D01*
X104796148Y-67670067D01*
X104796148Y-67369278D01*
X104796148Y-66834541D01*
X105062815Y-66834541D01*
X105329481Y-66834541D01*
X105329481Y-66333225D01*
X106996148Y-66333225D01*
X106996148Y-66834541D01*
X107229481Y-66834541D01*
X107462815Y-66834541D01*
X107462815Y-66333225D01*
X107462815Y-65831909D01*
X107229481Y-65831909D01*
X106996148Y-65831909D01*
X106996148Y-66065856D01*
X106996148Y-66333225D01*
X105329481Y-66333225D01*
X105329481Y-66065856D01*
X105929481Y-66065856D01*
X105929511Y-66083663D01*
X105942292Y-66231078D01*
X106006427Y-66289457D01*
X106162815Y-66299804D01*
X106180575Y-66299775D01*
X106327603Y-66286960D01*
X106385828Y-66222655D01*
X106396148Y-66065856D01*
X106396119Y-66048050D01*
X106383338Y-65900635D01*
X106319202Y-65842256D01*
X106162815Y-65831909D01*
X106145055Y-65831938D01*
X105998027Y-65844753D01*
X105939802Y-65909058D01*
X105929481Y-66065856D01*
X105329481Y-66065856D01*
X105329481Y-65297172D01*
X105062815Y-65297172D01*
X104796148Y-65297172D01*
X104796148Y-64762435D01*
X104796148Y-64227699D01*
X104562815Y-64227699D01*
X104329481Y-64227699D01*
X104329481Y-64996383D01*
X104329481Y-65765067D01*
X104596148Y-65765067D01*
X104862815Y-65765067D01*
X104862815Y-66065856D01*
X104862815Y-66333225D01*
X104862815Y-66366646D01*
X104596148Y-66366646D01*
X104329481Y-66366646D01*
X104329481Y-66600593D01*
X104329481Y-66634014D01*
X104329481Y-66901383D01*
X103496148Y-66901383D01*
X102662815Y-66901383D01*
X102662815Y-67135330D01*
X102663411Y-67204362D01*
X102682868Y-67318465D01*
X102758744Y-67362195D01*
X102929481Y-67369278D01*
X103196148Y-67369278D01*
X103196148Y-67670067D01*
X103196148Y-67970856D01*
X102929481Y-67970856D01*
X102850795Y-67971380D01*
X102720734Y-67988449D01*
X102670888Y-68055016D01*
X102662815Y-68204804D01*
X102663411Y-68273836D01*
X102682868Y-68387938D01*
X102758744Y-68431669D01*
X102929481Y-68438751D01*
X103196148Y-68438751D01*
X103196148Y-68739541D01*
X103196148Y-69040330D01*
X102896148Y-69040330D01*
X102596148Y-69040330D01*
X102596148Y-68772962D01*
X102595626Y-68694068D01*
X102578602Y-68563665D01*
X102512210Y-68513688D01*
X102362815Y-68505593D01*
X102129481Y-68505593D01*
X102129481Y-69040330D01*
X102129481Y-69575067D01*
X101829481Y-69575067D01*
X101529481Y-69575067D01*
X101529481Y-69307699D01*
X101529481Y-69040330D01*
X101262815Y-69040330D01*
X100996148Y-69040330D01*
X100996148Y-68772962D01*
X100995626Y-68694068D01*
X100978602Y-68563665D01*
X100912210Y-68513688D01*
X100762815Y-68505593D01*
X100529481Y-68505593D01*
X98629481Y-68505593D01*
X98611721Y-68505622D01*
X98464694Y-68518437D01*
X98406468Y-68582742D01*
X98396148Y-68739541D01*
X96728102Y-68739541D01*
X96729481Y-68706120D01*
X96729481Y-68438751D01*
X96996148Y-68438751D01*
X97262815Y-68438751D01*
X97262815Y-68204804D01*
X99462815Y-68204804D01*
X99462844Y-68222611D01*
X99475625Y-68370025D01*
X99539761Y-68428404D01*
X99696148Y-68438751D01*
X99713908Y-68438722D01*
X99860936Y-68425907D01*
X99919161Y-68361603D01*
X99929481Y-68204804D01*
X99929452Y-68186997D01*
X99916671Y-68039582D01*
X99852536Y-67981204D01*
X99696148Y-67970856D01*
X99678388Y-67970886D01*
X99531360Y-67983700D01*
X99473135Y-68048005D01*
X99462815Y-68204804D01*
X97262815Y-68204804D01*
X97262815Y-67904014D01*
X97262815Y-67670067D01*
X97862815Y-67670067D01*
X97862844Y-67687874D01*
X97875625Y-67835289D01*
X97939761Y-67893667D01*
X98096148Y-67904014D01*
X98113908Y-67903985D01*
X98260936Y-67891170D01*
X98319161Y-67826866D01*
X98329481Y-67670067D01*
X98329452Y-67652260D01*
X98316671Y-67504845D01*
X98252536Y-67446467D01*
X98096148Y-67436120D01*
X98078388Y-67436149D01*
X97931360Y-67448964D01*
X97873135Y-67513268D01*
X97862815Y-67670067D01*
X97262815Y-67670067D01*
X97262815Y-67402699D01*
X99996148Y-67402699D01*
X99996148Y-67670067D01*
X99996148Y-67904014D01*
X100229481Y-67904014D01*
X100462815Y-67904014D01*
X100462815Y-67402699D01*
X100462815Y-66901383D01*
X100229481Y-66901383D01*
X99996148Y-66901383D01*
X99996148Y-67135330D01*
X99996148Y-67402699D01*
X97262815Y-67402699D01*
X97262815Y-67369278D01*
X97529481Y-67369278D01*
X97796148Y-67369278D01*
X97796148Y-67135330D01*
X98396148Y-67135330D01*
X98396177Y-67153137D01*
X98408958Y-67300552D01*
X98473094Y-67358930D01*
X98629481Y-67369278D01*
X98647242Y-67369248D01*
X98794269Y-67356434D01*
X98852495Y-67292129D01*
X98862815Y-67135330D01*
X98862786Y-67117523D01*
X98850005Y-66970109D01*
X98785869Y-66911730D01*
X98629481Y-66901383D01*
X98611721Y-66901412D01*
X98464694Y-66914227D01*
X98406468Y-66978531D01*
X98396148Y-67135330D01*
X97796148Y-67135330D01*
X97796148Y-67101909D01*
X97796148Y-66834541D01*
X98062815Y-66834541D01*
X98141502Y-66834018D01*
X98271562Y-66816948D01*
X98321408Y-66750382D01*
X98329481Y-66600593D01*
X98328885Y-66531561D01*
X98309429Y-66417459D01*
X98233552Y-66373728D01*
X98062815Y-66366646D01*
X97796148Y-66366646D01*
X97796148Y-66333225D01*
X99462815Y-66333225D01*
X99462815Y-66600593D01*
X99462815Y-66834541D01*
X99696148Y-66834541D01*
X99929481Y-66834541D01*
X99929481Y-66366646D01*
X101062815Y-66366646D01*
X101062815Y-66867962D01*
X101062815Y-67369278D01*
X101329481Y-67369278D01*
X101596148Y-67369278D01*
X101596148Y-67402699D01*
X101596148Y-67636646D01*
X101596148Y-67904014D01*
X102096148Y-67904014D01*
X102596148Y-67904014D01*
X102596148Y-67670067D01*
X102595552Y-67601035D01*
X102576095Y-67486932D01*
X102500219Y-67443202D01*
X102329481Y-67436120D01*
X102062815Y-67436120D01*
X102062815Y-67168751D01*
X102062815Y-66901383D01*
X101796148Y-66901383D01*
X101529481Y-66901383D01*
X101529481Y-66634014D01*
X101529260Y-66600593D01*
X102129481Y-66600593D01*
X102129511Y-66618400D01*
X102142292Y-66765815D01*
X102206427Y-66824193D01*
X102362815Y-66834541D01*
X102380575Y-66834512D01*
X102527603Y-66821697D01*
X102585828Y-66757392D01*
X102596148Y-66600593D01*
X102596119Y-66582786D01*
X102583338Y-66435372D01*
X102519202Y-66376993D01*
X102362815Y-66366646D01*
X102345055Y-66366675D01*
X102198027Y-66379490D01*
X102139802Y-66443794D01*
X102129481Y-66600593D01*
X101529260Y-66600593D01*
X101528960Y-66555120D01*
X101511935Y-66424718D01*
X101445543Y-66374740D01*
X101296148Y-66366646D01*
X101062815Y-66366646D01*
X99929481Y-66366646D01*
X99929481Y-66333225D01*
X99929481Y-66065856D01*
X100529481Y-66065856D01*
X100529511Y-66083663D01*
X100542292Y-66231078D01*
X100606427Y-66289457D01*
X100762815Y-66299804D01*
X100780575Y-66299775D01*
X100927603Y-66286960D01*
X100985828Y-66222655D01*
X100996148Y-66065856D01*
X100996119Y-66048050D01*
X100983338Y-65900635D01*
X100919202Y-65842256D01*
X100762815Y-65831909D01*
X100745055Y-65831938D01*
X100598027Y-65844753D01*
X100539802Y-65909058D01*
X100529481Y-66065856D01*
X99929481Y-66065856D01*
X99929481Y-65831909D01*
X99696148Y-65831909D01*
X99462815Y-65831909D01*
X99462815Y-66065856D01*
X99462815Y-66333225D01*
X97796148Y-66333225D01*
X97796148Y-66099278D01*
X97795927Y-66065856D01*
X98396148Y-66065856D01*
X98396177Y-66083663D01*
X98408958Y-66231078D01*
X98473094Y-66289457D01*
X98629481Y-66299804D01*
X98647242Y-66299775D01*
X98794269Y-66286960D01*
X98852495Y-66222655D01*
X98862815Y-66065856D01*
X98862786Y-66048050D01*
X98850005Y-65900635D01*
X98785869Y-65842256D01*
X98629481Y-65831909D01*
X98611721Y-65831938D01*
X98464694Y-65844753D01*
X98406468Y-65909058D01*
X98396148Y-66065856D01*
X97795927Y-66065856D01*
X97795626Y-66020383D01*
X97778602Y-65889981D01*
X97712210Y-65840003D01*
X97562815Y-65831909D01*
X97329481Y-65831909D01*
X97329481Y-66366646D01*
X97329481Y-66901383D01*
X97062815Y-66901383D01*
X96796148Y-66901383D01*
X96796148Y-67168751D01*
X96796148Y-67436120D01*
X96262815Y-67436120D01*
X95729481Y-67436120D01*
X95129481Y-67436120D01*
X95129481Y-67369278D01*
X95129481Y-66834541D01*
X95929481Y-66834541D01*
X96729481Y-66834541D01*
X96729481Y-66032435D01*
X96729481Y-65531120D01*
X98929481Y-65531120D01*
X98929511Y-65548926D01*
X98942292Y-65696341D01*
X99006427Y-65754720D01*
X99162815Y-65765067D01*
X99180575Y-65765038D01*
X99327603Y-65752223D01*
X99385828Y-65687919D01*
X99396148Y-65531120D01*
X99396119Y-65513313D01*
X99383338Y-65365898D01*
X99319202Y-65307520D01*
X99162815Y-65297172D01*
X99145055Y-65297201D01*
X98998027Y-65310016D01*
X98939802Y-65374321D01*
X98929481Y-65531120D01*
X96729481Y-65531120D01*
X96729481Y-65230330D01*
X97262815Y-65230330D01*
X97796148Y-65230330D01*
X97796148Y-64729014D01*
X97796148Y-64227699D01*
X97262815Y-64227699D01*
X96729481Y-64227699D01*
X96729481Y-63659541D01*
X96729481Y-63091383D01*
X97529481Y-63091383D01*
X98329481Y-63091383D01*
X98329481Y-62824014D01*
X98329481Y-62556646D01*
X98896148Y-62556646D01*
X99462815Y-62556646D01*
X99462815Y-62857435D01*
X99462815Y-63158225D01*
X99196148Y-63158225D01*
X98929481Y-63158225D01*
X98929481Y-63425593D01*
X98929481Y-63692962D01*
X98662815Y-63692962D01*
X98396148Y-63692962D01*
X98396148Y-64194278D01*
X98396148Y-64695593D01*
X98896148Y-64695593D01*
X99396148Y-64695593D01*
X99396148Y-64160856D01*
X99396148Y-63626120D01*
X99696148Y-63626120D01*
X99996148Y-63626120D01*
X99996148Y-64695593D01*
X99996148Y-65531120D01*
X99996148Y-65765067D01*
X100229481Y-65765067D01*
X100298333Y-65764469D01*
X100412135Y-65744961D01*
X100455751Y-65668885D01*
X100462815Y-65497699D01*
X100462815Y-65230330D01*
X100762815Y-65230330D01*
X101062815Y-65230330D01*
X101062815Y-65497699D01*
X101062815Y-65765067D01*
X101329481Y-65765067D01*
X101596148Y-65765067D01*
X101596148Y-66032435D01*
X101596369Y-66065856D01*
X101596670Y-66111329D01*
X101613694Y-66241732D01*
X101680086Y-66291710D01*
X101829481Y-66299804D01*
X101898333Y-66299206D01*
X102012135Y-66279698D01*
X102055751Y-66203622D01*
X102062815Y-66032435D01*
X102062815Y-65765067D01*
X102362815Y-65765067D01*
X102662815Y-65765067D01*
X102662815Y-66032435D01*
X102663447Y-66124726D01*
X102682668Y-66247719D01*
X102757460Y-66293214D01*
X102925778Y-66299804D01*
X103188741Y-66299804D01*
X103188741Y-66065856D01*
X103796148Y-66065856D01*
X103796177Y-66083663D01*
X103808958Y-66231078D01*
X103873094Y-66289457D01*
X104029481Y-66299804D01*
X104047242Y-66299775D01*
X104194269Y-66286960D01*
X104252495Y-66222655D01*
X104262815Y-66065856D01*
X104262786Y-66048050D01*
X104250005Y-65900635D01*
X104185869Y-65842256D01*
X104029481Y-65831909D01*
X104011721Y-65831938D01*
X103864694Y-65844753D01*
X103806468Y-65909058D01*
X103796148Y-66065856D01*
X103188741Y-66065856D01*
X103188741Y-65798488D01*
X103188741Y-65297172D01*
X102625778Y-65297172D01*
X102062815Y-65297172D01*
X102062815Y-65029804D01*
X102062815Y-64762435D01*
X101796148Y-64762435D01*
X101529481Y-64762435D01*
X101529481Y-64461646D01*
X101529481Y-64160856D01*
X102062815Y-64160856D01*
X102596148Y-64160856D01*
X102596148Y-63659541D01*
X102596148Y-63158225D01*
X103205672Y-63158225D01*
X103205672Y-63926909D01*
X103205672Y-64695593D01*
X103462815Y-64695593D01*
X103719958Y-64695593D01*
X103719958Y-63926909D01*
X103719958Y-63158225D01*
X103462815Y-63158225D01*
X103205672Y-63158225D01*
X102596148Y-63158225D01*
X102329481Y-63158225D01*
X102062815Y-63158225D01*
X102062815Y-62857435D01*
X102062815Y-62556646D01*
X102362815Y-62556646D01*
X102662815Y-62556646D01*
X102662815Y-62824014D01*
X102662815Y-63091383D01*
X102929481Y-63091383D01*
X103196148Y-63091383D01*
X103196148Y-62824014D01*
X103196148Y-62556646D01*
X103496148Y-62556646D01*
X103796148Y-62556646D01*
X103796148Y-62824014D01*
X103796148Y-63091383D01*
X104329481Y-63091383D01*
X104862815Y-63091383D01*
X104862815Y-63626120D01*
X104862815Y-63926909D01*
X104862815Y-64160856D01*
G37*
G36*
X100529481Y-76292699D02*
G01*
X100529481Y-76593488D01*
X100229481Y-76593488D01*
X99929481Y-76593488D01*
X99929481Y-76292699D01*
X99929481Y-75991909D01*
X100229481Y-75991909D01*
X100529481Y-75991909D01*
X100529481Y-76292699D01*
G37*
G36*
X94129481Y-73619014D02*
G01*
X94129481Y-73919804D01*
X93862815Y-73919804D01*
X93596148Y-73919804D01*
X93596148Y-74454541D01*
X93596148Y-74989278D01*
X93329481Y-74989278D01*
X93062815Y-74989278D01*
X93062815Y-75524014D01*
X93062815Y-76058751D01*
X92762815Y-76058751D01*
X92462815Y-76058751D01*
X92462815Y-74955856D01*
X92462815Y-73852962D01*
X92996148Y-73852962D01*
X93529481Y-73852962D01*
X93529481Y-73585593D01*
X93529481Y-73318225D01*
X93829481Y-73318225D01*
X94129481Y-73318225D01*
X94129481Y-73619014D01*
G37*
G36*
X98396148Y-73886383D02*
G01*
X98396148Y-74454541D01*
X98129481Y-74454541D01*
X98050795Y-74455064D01*
X97920734Y-74472133D01*
X97870888Y-74538700D01*
X97862815Y-74688488D01*
X97863411Y-74757520D01*
X97882868Y-74871623D01*
X97958744Y-74915353D01*
X98129481Y-74922435D01*
X98396148Y-74922435D01*
X98396148Y-75223225D01*
X98396148Y-75524014D01*
X98096148Y-75524014D01*
X97796148Y-75524014D01*
X97796148Y-75256646D01*
X97796148Y-74989278D01*
X97529481Y-74989278D01*
X97262815Y-74989278D01*
X97262815Y-74688488D01*
X97262815Y-74387699D01*
X97529481Y-74387699D01*
X97796148Y-74387699D01*
X97796148Y-73852962D01*
X97796148Y-73318225D01*
X98096148Y-73318225D01*
X98396148Y-73318225D01*
X98396148Y-73886383D01*
G37*
G36*
X98929481Y-72549541D02*
G01*
X98929481Y-72850330D01*
X98629481Y-72850330D01*
X98329481Y-72850330D01*
X98329481Y-72549541D01*
X98329481Y-72248751D01*
X98629481Y-72248751D01*
X98929481Y-72248751D01*
X98929481Y-72549541D01*
G37*
G36*
X112329481Y-66366646D02*
G01*
X110429481Y-66366646D01*
X108529481Y-66366646D01*
X108529481Y-64461646D01*
X108529481Y-63158225D01*
X109129481Y-63158225D01*
X109129481Y-64461646D01*
X109129481Y-65765067D01*
X110429481Y-65765067D01*
X111729481Y-65765067D01*
X111729481Y-64461646D01*
X111729481Y-63158225D01*
X110429481Y-63158225D01*
X109129481Y-63158225D01*
X108529481Y-63158225D01*
X108529481Y-62556646D01*
X110429481Y-62556646D01*
X112329481Y-62556646D01*
X112329481Y-64461646D01*
X112329481Y-66366646D01*
G37*
G36*
X96262815Y-66366646D02*
G01*
X94362815Y-66366646D01*
X92462815Y-66366646D01*
X92462815Y-64461646D01*
X92462815Y-63158225D01*
X93062815Y-63158225D01*
X93062815Y-64461646D01*
X93062815Y-65765067D01*
X94362815Y-65765067D01*
X95662815Y-65765067D01*
X95662815Y-64461646D01*
X95662815Y-63158225D01*
X94362815Y-63158225D01*
X93062815Y-63158225D01*
X92462815Y-63158225D01*
X92462815Y-62556646D01*
X94362815Y-62556646D01*
X96262815Y-62556646D01*
X96262815Y-64461646D01*
X96262815Y-66366646D01*
G37*
G36*
X100529481Y-62824014D02*
G01*
X100529481Y-63091383D01*
X101062815Y-63091383D01*
X101596148Y-63091383D01*
X101596148Y-63392172D01*
X101596148Y-63692962D01*
X101329481Y-63692962D01*
X101062815Y-63692962D01*
X101062815Y-63960330D01*
X101062815Y-64227699D01*
X100762815Y-64227699D01*
X100462815Y-64227699D01*
X100462815Y-63692962D01*
X100462815Y-63158225D01*
X100196148Y-63158225D01*
X99929481Y-63158225D01*
X99929481Y-62857435D01*
X99929481Y-62556646D01*
X100229481Y-62556646D01*
X100529481Y-62556646D01*
X100529481Y-62824014D01*
G37*
G36*
X105929481Y-62857435D02*
G01*
X105929481Y-63158225D01*
X105629481Y-63158225D01*
X105329481Y-63158225D01*
X105329481Y-62857435D01*
X105329481Y-62556646D01*
X105629481Y-62556646D01*
X105929481Y-62556646D01*
X105929481Y-62857435D01*
G37*
G36*
X111262815Y-80570593D02*
G01*
X111262815Y-81406120D01*
X110429481Y-81406120D01*
X109596148Y-81406120D01*
X109596148Y-80570593D01*
X109596148Y-79735067D01*
X110429481Y-79735067D01*
X111262815Y-79735067D01*
X111262815Y-80570593D01*
G37*
G36*
X96262815Y-78966383D02*
G01*
X96262815Y-79267172D01*
X95962815Y-79267172D01*
X95662815Y-79267172D01*
X95662815Y-78966383D01*
X95662815Y-78665593D01*
X95962815Y-78665593D01*
X96262815Y-78665593D01*
X96262815Y-78966383D01*
G37*
G36*
X111262815Y-64461646D02*
G01*
X111262815Y-65297172D01*
X110429481Y-65297172D01*
X109596148Y-65297172D01*
X109596148Y-64461646D01*
X109596148Y-63626120D01*
X110429481Y-63626120D01*
X111262815Y-63626120D01*
X111262815Y-64461646D01*
G37*
G36*
X95196148Y-64461646D02*
G01*
X95196148Y-65297172D01*
X94362815Y-65297172D01*
X93529481Y-65297172D01*
X93529481Y-64461646D01*
X93529481Y-63626120D01*
X94362815Y-63626120D01*
X95196148Y-63626120D01*
X95196148Y-64461646D01*
G37*
%TD*%
M02*
