M48
; DRILL file KiCad 10.0.1 date 2026-08-11T13:47:59
; FORMAT={-:-/ absolute / metric / decimal}
; #@! TF.CreationDate,2026-08-11T13:47:59-07:00
; #@! TF.GenerationSoftware,Kicad,Pcbnew,10.0.1
; #@! TF.FileFunction,MixedPlating,1,4
FMAT,2
METRIC
; #@! TA.AperFunction,Plated,PTH,ViaDrill
T1C0.200
; #@! TA.AperFunction,Plated,PTH,ComponentDrill
T2C0.200
; #@! TA.AperFunction,Plated,PTH,ViaDrill
T3C0.250
; #@! TA.AperFunction,Plated,PTH,ViaDrill
T4C0.300
; #@! TA.AperFunction,Plated,PTH,ComponentDrill
T5C0.600
; #@! TA.AperFunction,Plated,PTH,ComponentDrill
T6C1.000
; #@! TA.AperFunction,Plated,PTH,ComponentDrill
T7C1.100
; #@! TA.AperFunction,Plated,PTH,ComponentDrill
T8C1.200
; #@! TA.AperFunction,Plated,PTH,ComponentDrill
T9C1.300
; #@! TA.AperFunction,NonPlated,NPTH,ComponentDrill
T10C0.650
; #@! TA.AperFunction,NonPlated,NPTH,ComponentDrill
T11C3.200
%
G90
G05
T1
X91.67Y-90.35
X93.41Y-90.75
X94.58Y-68.29
X96.01Y-88.4
X96.03Y-85.57
X96.13Y-84.27
X97.08Y-78.61
X106.57Y-80.32
X114.88Y-80.73
X115.46Y-80.74
X123.76Y-74.45
X127.65Y-61.4
X129.53Y-74.35
X129.61Y-73.58
X129.67Y-75.95
X129.97Y-75.19
X130.6Y-57.93
X130.7Y-76.33
X131.455Y-72.06
X131.83Y-56.34
X132.05Y-71.23
X132.98Y-74.59
X133.057Y-72.713
X133.68Y-59.75
X133.83Y-72.2
X133.83Y-74.6
X135.06Y-62.34
X136.86Y-61.18
X144.65Y-78.04
T2
X99.344Y-86.52
X99.344Y-87.72
X99.344Y-88.92
X100.744Y-86.52
X100.744Y-87.72
X100.744Y-88.92
T3
X91.71Y-59.36
X92.53Y-59.36
X93.04Y-58.38
X93.05Y-60.09
X94.62Y-61.43
X96.12Y-90.04
X96.14Y-89.51
X96.145Y-61.108
X96.19Y-60.51
X96.75Y-60.81
X96.91Y-62.75
X97.92Y-74.71
X101.97Y-90.31
X102.14Y-84.81
X103.2Y-84.81
X103.22Y-90.31
X104.33Y-75.9
X124.02Y-66.755
X124.462Y-65.235
X125.61Y-68.05
X126.17Y-71.57
X127.71Y-71.12
X127.96Y-66.755
X128.7Y-64.71
X128.74Y-66.23
X128.87Y-61.66
X129.77Y-63.82
X129.84Y-68.01
X129.873Y-69.287
X129.97Y-70.35
X130.15Y-72.38
X130.626Y-63.606
X133.346Y-62.224
X135.81Y-73.58
X136.43Y-71.57
X136.61Y-58.02
X137.1Y-60.68
X137.12Y-62.16
X137.21Y-72.31
X137.34Y-56.09
X138.23Y-73.08
X143.04Y-83.73
T4
X94.81Y-70.16
X95.73Y-67.49
X96.05Y-70.25
X96.36Y-59.63
X97.23Y-70.3
X97.33Y-67.46
X100.15Y-61.48
X100.18Y-62.8
X100.2Y-58.07
X100.47Y-79.8
X101.06Y-76.03
X101.23Y-79.81
X101.92Y-76.05
X102.01Y-79.81
X103.51Y-57.27
X103.53Y-72.69
X103.54Y-71.83
X103.55Y-70.98
X106.11Y-83.45
X109.775Y-86.875
X110.33Y-58.37
X110.7Y-86.825
X111.61Y-63.16
X111.63Y-59.71
X111.63Y-62.0
X111.66Y-58.36
X111.66Y-60.78
X113.08Y-65.95
X114.03Y-87.4
X115.05Y-87.41
X115.94Y-87.42
X116.21Y-80.12
X118.78Y-87.44
X119.82Y-87.42
X120.94Y-87.44
X120.96Y-61.07
X122.91Y-75.6
X126.92Y-56.54
X138.66Y-57.29
X139.595Y-69.705
X140.46Y-72.01
X140.87Y-69.83
X142.067Y-60.617
X142.63Y-63.34
X142.63Y-65.38
X142.64Y-64.13
X142.89Y-66.655
X144.86Y-84.03
X145.03Y-72.7
X145.06Y-69.055
X145.47Y-86.95
X146.3Y-68.92
X146.548Y-68.005
X146.6Y-86.93
X147.74Y-86.94
X148.96Y-86.89
X149.78Y-83.97
X151.15Y-83.69
T6
X118.59Y-58.52
X118.59Y-61.06
X118.59Y-63.6
X118.59Y-66.14
X118.59Y-68.68
X118.59Y-71.22
X118.59Y-73.76
X118.59Y-76.3
X141.14Y-57.43
X143.68Y-57.43
X146.22Y-57.43
X148.76Y-57.43
T7
X152.91Y-78.315
X153.065Y-70.24
X153.11Y-62.09
X157.91Y-78.315
X158.065Y-70.24
X158.11Y-62.09
X162.985Y-70.115
X167.985Y-70.115
T8
X127.9Y-88.5
X135.9Y-88.5
T9
X114.875Y-89.35
X119.955Y-89.35
T10
X144.4Y-86.245
X150.18Y-86.245
T11
X87.7Y-60.0
X87.7Y-88.0
X164.0Y-60.0
X164.0Y-88.0
T5
G00X142.97Y-85.195
M15
G01X142.97Y-86.295
M16
G05
G00X142.97Y-89.525
M15
G01X142.97Y-90.325
M16
G05
G00X151.61Y-85.195
M15
G01X151.61Y-86.295
M16
G05
G00X151.61Y-89.525
M15
G01X151.61Y-90.325
M16
G05
M30
