%TF.GenerationSoftware,KiCad,Pcbnew,10.0.1*%
%TF.CreationDate,2026-08-11T13:48:14-07:00*%
%TF.ProjectId,RVSP_Pocket,52565350-5f50-46f6-936b-65742e6b6963,rev?*%
%TF.SameCoordinates,Original*%
%TF.FileFunction,Copper,L3,Inr*%
%TF.FilePolarity,Positive*%
%FSLAX46Y46*%
G04 Gerber Fmt 4.6, Leading zero omitted, Abs format (unit mm)*
G04 Created by KiCad (PCBNEW 10.0.1) date 2026-08-11 13:48:14*
%MOMM*%
%LPD*%
G01*
G04 APERTURE LIST*
G04 Aperture macros list*
%AMRoundRect*
0 Rectangle with rounded corners*
0 $1 Rounding radius*
0 $2 $3 $4 $5 $6 $7 $8 $9 X,Y pos of 4 corners*
0 Add a 4 corners polygon primitive as box body*
4,1,4,$2,$3,$4,$5,$6,$7,$8,$9,$2,$3,0*
0 Add four circle primitives for the rounded corners*
1,1,$1+$1,$2,$3*
1,1,$1+$1,$4,$5*
1,1,$1+$1,$6,$7*
1,1,$1+$1,$8,$9*
0 Add four rect primitives between the rounded corners*
20,1,$1+$1,$2,$3,$4,$5,0*
20,1,$1+$1,$4,$5,$6,$7,0*
20,1,$1+$1,$6,$7,$8,$9,0*
20,1,$1+$1,$8,$9,$2,$3,0*%
G04 Aperture macros list end*
%TA.AperFunction,ComponentPad*%
%ADD10C,1.500000*%
%TD*%
%TA.AperFunction,ComponentPad*%
%ADD11C,2.000000*%
%TD*%
%TA.AperFunction,ComponentPad*%
%ADD12R,1.700000X1.700000*%
%TD*%
%TA.AperFunction,ComponentPad*%
%ADD13C,1.700000*%
%TD*%
%TA.AperFunction,ComponentPad*%
%ADD14O,1.000000X2.100000*%
%TD*%
%TA.AperFunction,ComponentPad*%
%ADD15O,1.000000X1.800000*%
%TD*%
%TA.AperFunction,ComponentPad*%
%ADD16RoundRect,0.650000X-0.650000X-0.650000X0.650000X-0.650000X0.650000X0.650000X-0.650000X0.650000X0*%
%TD*%
%TA.AperFunction,ComponentPad*%
%ADD17C,2.600000*%
%TD*%
%TA.AperFunction,HeatsinkPad*%
%ADD18C,0.500000*%
%TD*%
%TA.AperFunction,ViaPad*%
%ADD19C,0.700000*%
%TD*%
%TA.AperFunction,ViaPad*%
%ADD20C,0.450000*%
%TD*%
%TA.AperFunction,ViaPad*%
%ADD21C,0.500000*%
%TD*%
%TA.AperFunction,ViaPad*%
%ADD22C,0.600000*%
%TD*%
G04 APERTURE END LIST*
D10*
%TO.N,*%
%TO.C,MicroSD_Card1*%
X127900000Y-88500000D03*
X135900000Y-88500000D03*
%TD*%
D11*
%TO.N,/SELECT_BTN*%
%TO.C,SELECT1*%
X153065000Y-70240000D03*
%TO.N,GND*%
X158065000Y-70240000D03*
%TD*%
D12*
%TO.N,+3V3*%
%TO.C,SWD1*%
X141140000Y-57430000D03*
D13*
%TO.N,/SWDIO*%
X143680000Y-57430000D03*
%TO.N,/SWCLK*%
X146220000Y-57430000D03*
%TO.N,GND*%
X148760000Y-57430000D03*
%TD*%
D11*
%TO.N,/UP_BTN*%
%TO.C,UP1*%
X153110000Y-62090000D03*
%TO.N,GND*%
X158110000Y-62090000D03*
%TD*%
%TO.N,/RIGHT_BTN*%
%TO.C,RIGHT1*%
X162985000Y-70115000D03*
%TO.N,GND*%
X167985000Y-70115000D03*
%TD*%
D14*
%TO.N,unconnected-(USB_C1-SHIELD-PadSH)_2*%
%TO.C,USB_C1*%
X142970000Y-85745000D03*
D15*
%TO.N,unconnected-(USB_C1-SHIELD-PadSH)_1*%
X142970000Y-89925000D03*
D14*
%TO.N,unconnected-(USB_C1-SHIELD-PadSH)_3*%
X151610000Y-85745000D03*
D15*
%TO.N,unconnected-(USB_C1-SHIELD-PadSH)*%
X151610000Y-89925000D03*
%TD*%
D11*
%TO.N,/DWN_BTN*%
%TO.C,DOWN1*%
X152910000Y-78315000D03*
%TO.N,GND*%
X157910000Y-78315000D03*
%TD*%
D16*
%TO.N,BAT_Pos*%
%TO.C,BatteryPort1*%
X114875000Y-89350000D03*
D17*
%TO.N,/BAT_Neg*%
X119955000Y-89350000D03*
%TD*%
D18*
%TO.N,GND*%
%TO.C,U4*%
X99343810Y-86520000D03*
X99343810Y-87720000D03*
X99343810Y-88920000D03*
X100743810Y-86520000D03*
X100743810Y-87720000D03*
X100743810Y-88920000D03*
%TD*%
D12*
%TO.N,GND*%
%TO.C,TFT1*%
X118590000Y-58520000D03*
D13*
%TO.N,+3V3*%
X118590000Y-61060000D03*
%TO.N,/TFT_SCLK*%
X118590000Y-63600000D03*
%TO.N,/TFT_MOSI*%
X118590000Y-66140000D03*
%TO.N,/TFT_RST*%
X118590000Y-68680000D03*
%TO.N,/TFT_DC*%
X118590000Y-71220000D03*
%TO.N,/TFT_CS*%
X118590000Y-73760000D03*
%TO.N,/TFT_BL*%
X118590000Y-76300000D03*
%TD*%
D19*
%TO.N,BAT_5V*%
X97230000Y-70300000D03*
D20*
X94620000Y-61430000D03*
D19*
X97330000Y-67460000D03*
X96050000Y-70250000D03*
X95730000Y-67490000D03*
X94810000Y-70160000D03*
D21*
%TO.N,GND*%
X106570000Y-80320000D03*
D19*
X113080000Y-65950000D03*
D21*
X93410000Y-90750000D03*
X129670000Y-75950000D03*
D20*
X137210000Y-72310000D03*
D21*
X130600000Y-57930000D03*
D19*
X100200000Y-58070000D03*
D21*
X91670000Y-90350000D03*
D20*
X129872500Y-69287500D03*
X96910000Y-62750000D03*
X128870000Y-61660000D03*
X125610000Y-68050000D03*
X124462500Y-65235000D03*
X97920000Y-74710000D03*
D21*
X96010000Y-88400000D03*
X94580000Y-68290000D03*
D20*
X137100000Y-60680000D03*
D22*
X140460000Y-72010000D03*
D21*
X123760000Y-74450000D03*
D20*
X130150000Y-72380000D03*
D19*
X100150000Y-61480000D03*
D21*
X136860000Y-61180000D03*
D20*
X104330000Y-75900000D03*
D21*
X127650000Y-61400000D03*
X96130000Y-84270000D03*
X131830000Y-56340000D03*
D20*
X137340000Y-56090000D03*
D19*
X103510000Y-57270000D03*
D22*
X151150000Y-83690000D03*
D20*
X127710000Y-71120000D03*
D21*
X96030000Y-85570000D03*
D20*
X93040000Y-58380000D03*
D21*
X144650000Y-78040000D03*
D20*
X143040000Y-83730000D03*
D21*
X97080000Y-78610000D03*
D19*
X142630000Y-65380000D03*
%TO.N,BAT_Pos*%
X103540000Y-71830000D03*
X115050000Y-87410000D03*
X101920000Y-76050000D03*
D20*
X101970000Y-90310000D03*
D19*
X103550000Y-70980000D03*
X101060000Y-76030000D03*
X122910000Y-75600000D03*
X106110000Y-83450000D03*
X115940000Y-87420000D03*
X114030000Y-87400000D03*
D20*
X103220000Y-90310000D03*
D19*
X116210000Y-80120000D03*
X103530000Y-72690000D03*
%TO.N,/BAT_Neg*%
X119820000Y-87420000D03*
X101230000Y-79810000D03*
D21*
X115460000Y-80740000D03*
D19*
X102010000Y-79810000D03*
X118780000Y-87440000D03*
X120940000Y-87440000D03*
X100470000Y-79800000D03*
D21*
X114880000Y-80730000D03*
D19*
%TO.N,+3V3*%
X111630000Y-59710000D03*
D20*
X138230000Y-73080000D03*
D19*
X111610000Y-63160000D03*
X111630000Y-62000000D03*
D20*
X137120000Y-62160000D03*
X135810000Y-73580000D03*
X129970000Y-70350000D03*
D19*
X111660000Y-60780000D03*
X120960000Y-61070000D03*
X111660000Y-58360000D03*
X145030000Y-72700000D03*
X110330000Y-58370000D03*
X142630000Y-63340000D03*
X142640000Y-64130000D03*
D21*
X129970000Y-75190000D03*
X129610000Y-73580000D03*
%TO.N,/SD_CS*%
X133830000Y-74600000D03*
X133830000Y-72200000D03*
%TO.N,/SD_MOSI*%
X132980000Y-74590000D03*
X133057024Y-72713000D03*
%TO.N,/SD_CLK*%
X130700000Y-76330000D03*
X132050000Y-71230000D03*
%TO.N,/SD_MISO*%
X131455000Y-72060000D03*
X129530000Y-74350000D03*
D20*
%TO.N,/BAT_LVL*%
X126170000Y-71570000D03*
X129840000Y-68010000D03*
D19*
%TO.N,/SELECT_BTN*%
X145060000Y-69055000D03*
D20*
%TO.N,/SWDIO*%
X136430000Y-71570000D03*
D19*
%TO.N,/SWCLK*%
X140870000Y-69830000D03*
%TO.N,/UP_BTN*%
X146547702Y-68005000D03*
D20*
%TO.N,VBUS*%
X96145126Y-61108322D03*
D19*
X110700000Y-86825000D03*
D20*
X96120000Y-90040000D03*
X96750000Y-60810000D03*
X92530000Y-59360000D03*
D19*
X146600000Y-86930000D03*
X144860000Y-84030000D03*
X145470000Y-86950000D03*
X148960000Y-86890000D03*
D20*
X93050000Y-60090000D03*
X96140000Y-89510000D03*
D19*
X109775000Y-86875000D03*
D20*
X91710000Y-59360000D03*
X96190000Y-60510000D03*
D19*
X149780000Y-83970000D03*
D20*
X103200000Y-84810000D03*
X102140000Y-84810000D03*
D19*
X147740000Y-86940000D03*
%TO.N,REG_IN*%
X100180000Y-62800000D03*
X96360000Y-59630000D03*
%TO.N,/RIGHT_BTN*%
X146300000Y-68920000D03*
%TO.N,/BAT_ON*%
X138660000Y-57290000D03*
X139595000Y-69705000D03*
X142067298Y-60617298D03*
X126920000Y-56540000D03*
%TO.N,/DWN_BTN*%
X142890000Y-66655000D03*
D20*
%TO.N,/NRST*%
X136610000Y-58020000D03*
X133346091Y-62223909D03*
D21*
%TO.N,/HSE_IN*%
X135060000Y-62340000D03*
X133680000Y-59750000D03*
D20*
%TO.N,/TFT_CS*%
X129770000Y-63820000D03*
%TO.N,/TFT_BL*%
X130626232Y-63606232D03*
%TO.N,/TFT_SCLK*%
X128700000Y-64710000D03*
%TO.N,/TFT_MOSI*%
X128740000Y-66230000D03*
%TO.N,/TFT_DC*%
X127960000Y-66755000D03*
%TO.N,/TFT_RST*%
X124020000Y-66755000D03*
%TD*%
%TA.AperFunction,Conductor*%
%TO.N,VBUS*%
G36*
X124324403Y-82260277D02*
G01*
X124343511Y-82261195D01*
X124379802Y-82268202D01*
X124380000Y-82270000D01*
X124385595Y-82270054D01*
X124385597Y-82270055D01*
X142999456Y-82451340D01*
X149273277Y-82512442D01*
X149285402Y-82513156D01*
X149462117Y-82532301D01*
X149485910Y-82537276D01*
X149567770Y-82562981D01*
X149649631Y-82588686D01*
X149671996Y-82598206D01*
X149822546Y-82680571D01*
X149842626Y-82694273D01*
X149974217Y-82804430D01*
X149991236Y-82821784D01*
X150098809Y-82955495D01*
X150112112Y-82975829D01*
X150191531Y-83127956D01*
X150200613Y-83150502D01*
X150248830Y-83315207D01*
X150253340Y-83339095D01*
X150269036Y-83516123D01*
X150269515Y-83528282D01*
X150249858Y-85546708D01*
X150229522Y-85613552D01*
X150176275Y-85658791D01*
X150125864Y-85669500D01*
X150104234Y-85669500D01*
X149957863Y-85708719D01*
X149826635Y-85784485D01*
X149826632Y-85784487D01*
X149719487Y-85891632D01*
X149719485Y-85891635D01*
X149643719Y-86022863D01*
X149604500Y-86169234D01*
X149604500Y-86320765D01*
X149643719Y-86467136D01*
X149681602Y-86532750D01*
X149719485Y-86598365D01*
X149826635Y-86705515D01*
X149957865Y-86781281D01*
X150103543Y-86820315D01*
X150113687Y-86826497D01*
X150125409Y-86828445D01*
X150142972Y-86844348D01*
X150163203Y-86856679D01*
X150168394Y-86867366D01*
X150177202Y-86875341D01*
X150183379Y-86898213D01*
X150193732Y-86919526D01*
X150192780Y-86933023D01*
X150195419Y-86942794D01*
X150189636Y-86977611D01*
X150160921Y-87068058D01*
X150151204Y-87090622D01*
X150067163Y-87242336D01*
X150053188Y-87262542D01*
X149940884Y-87394712D01*
X149923199Y-87411766D01*
X149787043Y-87519199D01*
X149766344Y-87532431D01*
X149611682Y-87610912D01*
X149588780Y-87619804D01*
X149421681Y-87666252D01*
X149397476Y-87670455D01*
X149218317Y-87683498D01*
X149206021Y-87683781D01*
X143176975Y-87523661D01*
X143110482Y-87502204D01*
X143066145Y-87448204D01*
X143058041Y-87378806D01*
X143088743Y-87316043D01*
X143148503Y-87279842D01*
X143156076Y-87278088D01*
X143261835Y-87257051D01*
X143443914Y-87181632D01*
X143607782Y-87072139D01*
X143747139Y-86932782D01*
X143856632Y-86768914D01*
X143860540Y-86759478D01*
X143904376Y-86705074D01*
X143970669Y-86683004D01*
X144038369Y-86700279D01*
X144043028Y-86703432D01*
X144046633Y-86705513D01*
X144046635Y-86705515D01*
X144177865Y-86781281D01*
X144324234Y-86820500D01*
X144324236Y-86820500D01*
X144475764Y-86820500D01*
X144475766Y-86820500D01*
X144622135Y-86781281D01*
X144753365Y-86705515D01*
X144860515Y-86598365D01*
X144936281Y-86467135D01*
X144975500Y-86320766D01*
X144975500Y-86169234D01*
X144936281Y-86022865D01*
X144860515Y-85891635D01*
X144753365Y-85784485D01*
X144632448Y-85714673D01*
X144622136Y-85708719D01*
X144548950Y-85689109D01*
X144475766Y-85669500D01*
X144324234Y-85669500D01*
X144177862Y-85708719D01*
X144156499Y-85721054D01*
X144088598Y-85737525D01*
X144022572Y-85714673D01*
X143979382Y-85659751D01*
X143970500Y-85613666D01*
X143970500Y-85096456D01*
X143932052Y-84903170D01*
X143932051Y-84903169D01*
X143932051Y-84903165D01*
X143867954Y-84748419D01*
X143856635Y-84721092D01*
X143856628Y-84721079D01*
X143747139Y-84557218D01*
X143747136Y-84557214D01*
X143607783Y-84417861D01*
X143595756Y-84409825D01*
X143550952Y-84356212D01*
X143542246Y-84286887D01*
X143572402Y-84223860D01*
X143576950Y-84219060D01*
X143603532Y-84192479D01*
X143682929Y-84073653D01*
X143737619Y-83941620D01*
X143765500Y-83801455D01*
X143765500Y-83658545D01*
X143765500Y-83658542D01*
X143737620Y-83518385D01*
X143737619Y-83518384D01*
X143737619Y-83518380D01*
X143682929Y-83386347D01*
X143682928Y-83386346D01*
X143682925Y-83386340D01*
X143603532Y-83267521D01*
X143603529Y-83267517D01*
X143502482Y-83166470D01*
X143502478Y-83166467D01*
X143383659Y-83087074D01*
X143383650Y-83087069D01*
X143251620Y-83032381D01*
X143251614Y-83032379D01*
X143111457Y-83004500D01*
X143111455Y-83004500D01*
X142968545Y-83004500D01*
X142968543Y-83004500D01*
X142828385Y-83032379D01*
X142828379Y-83032381D01*
X142696349Y-83087069D01*
X142696340Y-83087074D01*
X142577521Y-83166467D01*
X142577517Y-83166470D01*
X142476470Y-83267517D01*
X142476467Y-83267521D01*
X142397074Y-83386340D01*
X142397069Y-83386349D01*
X142342381Y-83518379D01*
X142342379Y-83518385D01*
X142314500Y-83658542D01*
X142314500Y-83658545D01*
X142314500Y-83801455D01*
X142314500Y-83801457D01*
X142314499Y-83801457D01*
X142342379Y-83941614D01*
X142342381Y-83941620D01*
X142397069Y-84073650D01*
X142397074Y-84073659D01*
X142467165Y-84178557D01*
X142488043Y-84245235D01*
X142469558Y-84312615D01*
X142432954Y-84350550D01*
X142332218Y-84417860D01*
X142332214Y-84417863D01*
X142192863Y-84557214D01*
X142192860Y-84557218D01*
X142083371Y-84721079D01*
X142083364Y-84721092D01*
X142007950Y-84903160D01*
X142007947Y-84903170D01*
X141969500Y-85096456D01*
X141969500Y-85096459D01*
X141969500Y-86393541D01*
X141969500Y-86393543D01*
X141969499Y-86393543D01*
X142007947Y-86586829D01*
X142007950Y-86586839D01*
X142083364Y-86768907D01*
X142083371Y-86768920D01*
X142192860Y-86932781D01*
X142192863Y-86932785D01*
X142332214Y-87072136D01*
X142332218Y-87072139D01*
X142496079Y-87181628D01*
X142496092Y-87181635D01*
X142659935Y-87249500D01*
X142678165Y-87257051D01*
X142719124Y-87265198D01*
X142781034Y-87297581D01*
X142815609Y-87358297D01*
X142811870Y-87428066D01*
X142771005Y-87484739D01*
X142705987Y-87510321D01*
X142691641Y-87510771D01*
X138411326Y-87397095D01*
X136404784Y-87343804D01*
X136369758Y-87337779D01*
X136192828Y-87280291D01*
X135998422Y-87249500D01*
X135998417Y-87249500D01*
X135801583Y-87249500D01*
X135801578Y-87249500D01*
X135607170Y-87280291D01*
X135507021Y-87312831D01*
X135465412Y-87318856D01*
X121700697Y-86953293D01*
X121634204Y-86931836D01*
X121604863Y-86902239D01*
X121604490Y-86902546D01*
X121601231Y-86898575D01*
X121600888Y-86898229D01*
X121600628Y-86897840D01*
X121600623Y-86897834D01*
X121482162Y-86779373D01*
X121342860Y-86686295D01*
X121188082Y-86622184D01*
X121188074Y-86622182D01*
X121023771Y-86589500D01*
X121023767Y-86589500D01*
X120856233Y-86589500D01*
X120856228Y-86589500D01*
X120691925Y-86622182D01*
X120691917Y-86622184D01*
X120537140Y-86686295D01*
X120463856Y-86735262D01*
X120397179Y-86756139D01*
X120329799Y-86737654D01*
X120326076Y-86735261D01*
X120222865Y-86666298D01*
X120222861Y-86666296D01*
X120068082Y-86602184D01*
X120068074Y-86602182D01*
X119903771Y-86569500D01*
X119903767Y-86569500D01*
X119736233Y-86569500D01*
X119736228Y-86569500D01*
X119571925Y-86602182D01*
X119571917Y-86602184D01*
X119417140Y-86666295D01*
X119417132Y-86666299D01*
X119353923Y-86708534D01*
X119287245Y-86729411D01*
X119219865Y-86710926D01*
X119216143Y-86708534D01*
X119210965Y-86705074D01*
X119182863Y-86686297D01*
X119182858Y-86686295D01*
X119028082Y-86622184D01*
X119028074Y-86622182D01*
X118863771Y-86589500D01*
X118863767Y-86589500D01*
X118696233Y-86589500D01*
X118696228Y-86589500D01*
X118531925Y-86622182D01*
X118531917Y-86622184D01*
X118377139Y-86686295D01*
X118237841Y-86779371D01*
X118237835Y-86779376D01*
X118195690Y-86821519D01*
X118134366Y-86855002D01*
X118104720Y-86857791D01*
X116588425Y-86817522D01*
X116521932Y-86796065D01*
X116504036Y-86781247D01*
X116482162Y-86759373D01*
X116342860Y-86666295D01*
X116188082Y-86602184D01*
X116188074Y-86602182D01*
X116023771Y-86569500D01*
X116023767Y-86569500D01*
X115856233Y-86569500D01*
X115856228Y-86569500D01*
X115691925Y-86602182D01*
X115691917Y-86602184D01*
X115554381Y-86659154D01*
X115484911Y-86666623D01*
X115458923Y-86657584D01*
X115458491Y-86658628D01*
X115298082Y-86592184D01*
X115298074Y-86592182D01*
X115133771Y-86559500D01*
X115133767Y-86559500D01*
X114966233Y-86559500D01*
X114966228Y-86559500D01*
X114801925Y-86592182D01*
X114801917Y-86592184D01*
X114647138Y-86656296D01*
X114616369Y-86676854D01*
X114549691Y-86697729D01*
X114482311Y-86679242D01*
X114478591Y-86676851D01*
X114432869Y-86646300D01*
X114432859Y-86646295D01*
X114278082Y-86582184D01*
X114278074Y-86582182D01*
X114113771Y-86549500D01*
X114113767Y-86549500D01*
X113946233Y-86549500D01*
X113946228Y-86549500D01*
X113781925Y-86582182D01*
X113781917Y-86582184D01*
X113627140Y-86646295D01*
X113627130Y-86646300D01*
X113526654Y-86713437D01*
X113459976Y-86734315D01*
X113454471Y-86734291D01*
X111753981Y-86689129D01*
X111655246Y-87683945D01*
X111565393Y-88589249D01*
X111563420Y-88602160D01*
X111524732Y-88788885D01*
X111516784Y-88813727D01*
X111442540Y-88982221D01*
X111429570Y-89004852D01*
X111321722Y-89154087D01*
X111304305Y-89173503D01*
X111167630Y-89296872D01*
X111146537Y-89312216D01*
X110987073Y-89404268D01*
X110963236Y-89414860D01*
X110788052Y-89471515D01*
X110762529Y-89476887D01*
X110572817Y-89496315D01*
X110559772Y-89496959D01*
X109363844Y-89492986D01*
X103950000Y-89475000D01*
X103950000Y-89714626D01*
X103930315Y-89781665D01*
X103877511Y-89827420D01*
X103808353Y-89837364D01*
X103744797Y-89808339D01*
X103738319Y-89802307D01*
X103682482Y-89746470D01*
X103682478Y-89746467D01*
X103563659Y-89667074D01*
X103563650Y-89667069D01*
X103431620Y-89612381D01*
X103431614Y-89612379D01*
X103291457Y-89584500D01*
X103291455Y-89584500D01*
X103148545Y-89584500D01*
X103148543Y-89584500D01*
X103008385Y-89612379D01*
X103008379Y-89612381D01*
X102876349Y-89667069D01*
X102876340Y-89667074D01*
X102757521Y-89746467D01*
X102757517Y-89746470D01*
X102682681Y-89821307D01*
X102621358Y-89854792D01*
X102551666Y-89849808D01*
X102507319Y-89821307D01*
X102432482Y-89746470D01*
X102432478Y-89746467D01*
X102313659Y-89667074D01*
X102313650Y-89667069D01*
X102181620Y-89612381D01*
X102181614Y-89612379D01*
X102041457Y-89584500D01*
X102041455Y-89584500D01*
X101898545Y-89584500D01*
X101898543Y-89584500D01*
X101758385Y-89612379D01*
X101758379Y-89612381D01*
X101626349Y-89667069D01*
X101626340Y-89667074D01*
X101507521Y-89746467D01*
X101507517Y-89746470D01*
X101406470Y-89847517D01*
X101406467Y-89847521D01*
X101327074Y-89966340D01*
X101327069Y-89966349D01*
X101272381Y-90098379D01*
X101272379Y-90098385D01*
X101244500Y-90238542D01*
X101244500Y-90283328D01*
X101224815Y-90350367D01*
X101172011Y-90396122D01*
X101120821Y-90407328D01*
X94162298Y-90425356D01*
X94095208Y-90405845D01*
X94058876Y-90370247D01*
X93992951Y-90271584D01*
X93992949Y-90271581D01*
X93888419Y-90167051D01*
X93888415Y-90167048D01*
X93765501Y-90084919D01*
X93765488Y-90084912D01*
X93628917Y-90028343D01*
X93628907Y-90028340D01*
X93483920Y-89999500D01*
X93483918Y-89999500D01*
X93336082Y-89999500D01*
X93336080Y-89999500D01*
X93191092Y-90028340D01*
X93191082Y-90028343D01*
X93054511Y-90084912D01*
X93054498Y-90084919D01*
X92931584Y-90167048D01*
X92931580Y-90167051D01*
X92827051Y-90271580D01*
X92827045Y-90271588D01*
X92758897Y-90373580D01*
X92748306Y-90382431D01*
X92741409Y-90394391D01*
X92722022Y-90404397D01*
X92705285Y-90418386D01*
X92690298Y-90420772D01*
X92679322Y-90426438D01*
X92644069Y-90428134D01*
X92532774Y-90417562D01*
X92467896Y-90391626D01*
X92427340Y-90334732D01*
X92420500Y-90294118D01*
X92420500Y-90276079D01*
X92391659Y-90131092D01*
X92391658Y-90131091D01*
X92391658Y-90131087D01*
X92391656Y-90131082D01*
X92335087Y-89994511D01*
X92335080Y-89994498D01*
X92252951Y-89871584D01*
X92252948Y-89871580D01*
X92148419Y-89767051D01*
X92148415Y-89767048D01*
X92025501Y-89684919D01*
X92025488Y-89684912D01*
X91888917Y-89628343D01*
X91888907Y-89628340D01*
X91758060Y-89602312D01*
X91735953Y-89590747D01*
X91712227Y-89583030D01*
X91705528Y-89574832D01*
X91696149Y-89569926D01*
X91683803Y-89548246D01*
X91668017Y-89528927D01*
X91663924Y-89513335D01*
X91661575Y-89509210D01*
X91659056Y-89494789D01*
X91654144Y-89451853D01*
X91653357Y-89439830D01*
X91637325Y-88473920D01*
X95259499Y-88473920D01*
X95288340Y-88618907D01*
X95288343Y-88618917D01*
X95344912Y-88755488D01*
X95344919Y-88755501D01*
X95427048Y-88878415D01*
X95427051Y-88878419D01*
X95531580Y-88982948D01*
X95531584Y-88982951D01*
X95654498Y-89065080D01*
X95654511Y-89065087D01*
X95791082Y-89121656D01*
X95791087Y-89121658D01*
X95791091Y-89121658D01*
X95791092Y-89121659D01*
X95936079Y-89150500D01*
X95936082Y-89150500D01*
X96083920Y-89150500D01*
X96181462Y-89131096D01*
X96228913Y-89121658D01*
X96365495Y-89065084D01*
X96488416Y-88982951D01*
X96592951Y-88878416D01*
X96675084Y-88755495D01*
X96731658Y-88618913D01*
X96741096Y-88571462D01*
X96760500Y-88473920D01*
X96760500Y-88326079D01*
X96731659Y-88181092D01*
X96731658Y-88181091D01*
X96731658Y-88181087D01*
X96687923Y-88075501D01*
X96675087Y-88044511D01*
X96675080Y-88044498D01*
X96592951Y-87921584D01*
X96592948Y-87921580D01*
X96488419Y-87817051D01*
X96488415Y-87817048D01*
X96365501Y-87734919D01*
X96365488Y-87734912D01*
X96228917Y-87678343D01*
X96228907Y-87678340D01*
X96083920Y-87649500D01*
X96083918Y-87649500D01*
X95936082Y-87649500D01*
X95936080Y-87649500D01*
X95791092Y-87678340D01*
X95791082Y-87678343D01*
X95654511Y-87734912D01*
X95654498Y-87734919D01*
X95531584Y-87817048D01*
X95531580Y-87817051D01*
X95427051Y-87921580D01*
X95427048Y-87921584D01*
X95344919Y-88044498D01*
X95344912Y-88044511D01*
X95288343Y-88181082D01*
X95288340Y-88181092D01*
X95259500Y-88326079D01*
X95259500Y-88326082D01*
X95259500Y-88473918D01*
X95259500Y-88473920D01*
X95259499Y-88473920D01*
X91637325Y-88473920D01*
X91606122Y-86593920D01*
X98593309Y-86593920D01*
X98622150Y-86738907D01*
X98622153Y-86738917D01*
X98678722Y-86875488D01*
X98678729Y-86875501D01*
X98760858Y-86998415D01*
X98760861Y-86998419D01*
X98794761Y-87032319D01*
X98828246Y-87093642D01*
X98823262Y-87163334D01*
X98794761Y-87207681D01*
X98760861Y-87241580D01*
X98760858Y-87241584D01*
X98678729Y-87364498D01*
X98678722Y-87364511D01*
X98622153Y-87501082D01*
X98622150Y-87501092D01*
X98593310Y-87646079D01*
X98593310Y-87646082D01*
X98593310Y-87793918D01*
X98593310Y-87793920D01*
X98593309Y-87793920D01*
X98622150Y-87938907D01*
X98622153Y-87938917D01*
X98678722Y-88075488D01*
X98678729Y-88075501D01*
X98760858Y-88198415D01*
X98760861Y-88198419D01*
X98794761Y-88232319D01*
X98828246Y-88293642D01*
X98823262Y-88363334D01*
X98794761Y-88407681D01*
X98760861Y-88441580D01*
X98760858Y-88441584D01*
X98678729Y-88564498D01*
X98678722Y-88564511D01*
X98622153Y-88701082D01*
X98622150Y-88701092D01*
X98593310Y-88846079D01*
X98593310Y-88846082D01*
X98593310Y-88993918D01*
X98593310Y-88993920D01*
X98593309Y-88993920D01*
X98622150Y-89138907D01*
X98622153Y-89138917D01*
X98678722Y-89275488D01*
X98678729Y-89275501D01*
X98760858Y-89398415D01*
X98760861Y-89398419D01*
X98865390Y-89502948D01*
X98865394Y-89502951D01*
X98988308Y-89585080D01*
X98988321Y-89585087D01*
X99124892Y-89641656D01*
X99124897Y-89641658D01*
X99124901Y-89641658D01*
X99124902Y-89641659D01*
X99269889Y-89670500D01*
X99269892Y-89670500D01*
X99417730Y-89670500D01*
X99515272Y-89651096D01*
X99562723Y-89641658D01*
X99699305Y-89585084D01*
X99822226Y-89502951D01*
X99926761Y-89398416D01*
X99940707Y-89377543D01*
X99994319Y-89332738D01*
X100063644Y-89324031D01*
X100126672Y-89354185D01*
X100146913Y-89377544D01*
X100160860Y-89398418D01*
X100265390Y-89502948D01*
X100265394Y-89502951D01*
X100388308Y-89585080D01*
X100388321Y-89585087D01*
X100524892Y-89641656D01*
X100524897Y-89641658D01*
X100524901Y-89641658D01*
X100524902Y-89641659D01*
X100669889Y-89670500D01*
X100669892Y-89670500D01*
X100817730Y-89670500D01*
X100915272Y-89651096D01*
X100962723Y-89641658D01*
X101099305Y-89585084D01*
X101222226Y-89502951D01*
X101326761Y-89398416D01*
X101408894Y-89275495D01*
X101465468Y-89138913D01*
X101494310Y-88993918D01*
X101494310Y-88846082D01*
X101494310Y-88846079D01*
X101465469Y-88701092D01*
X101465468Y-88701091D01*
X101465468Y-88701087D01*
X101443810Y-88648799D01*
X101408897Y-88564511D01*
X101408890Y-88564498D01*
X101326761Y-88441584D01*
X101326758Y-88441580D01*
X101292859Y-88407681D01*
X101259374Y-88346358D01*
X101264358Y-88276666D01*
X101292859Y-88232319D01*
X101326758Y-88198419D01*
X101326761Y-88198416D01*
X101408894Y-88075495D01*
X101465468Y-87938913D01*
X101474906Y-87891462D01*
X101494310Y-87793920D01*
X101494310Y-87646079D01*
X101465469Y-87501092D01*
X101465468Y-87501091D01*
X101465468Y-87501087D01*
X101465466Y-87501082D01*
X101408897Y-87364511D01*
X101408890Y-87364498D01*
X101326761Y-87241584D01*
X101326758Y-87241580D01*
X101292859Y-87207681D01*
X101259374Y-87146358D01*
X101264358Y-87076666D01*
X101292859Y-87032319D01*
X101326758Y-86998419D01*
X101326761Y-86998416D01*
X101408894Y-86875495D01*
X101465468Y-86738913D01*
X101479913Y-86666295D01*
X101494310Y-86593920D01*
X101494310Y-86446079D01*
X101465469Y-86301092D01*
X101465468Y-86301091D01*
X101465468Y-86301087D01*
X101410853Y-86169234D01*
X101408897Y-86164511D01*
X101408890Y-86164498D01*
X101326761Y-86041584D01*
X101326758Y-86041580D01*
X101222229Y-85937051D01*
X101222225Y-85937048D01*
X101099311Y-85854919D01*
X101099298Y-85854912D01*
X100962727Y-85798343D01*
X100962717Y-85798340D01*
X100817730Y-85769500D01*
X100817728Y-85769500D01*
X100669892Y-85769500D01*
X100669890Y-85769500D01*
X100524902Y-85798340D01*
X100524892Y-85798343D01*
X100388321Y-85854912D01*
X100388308Y-85854919D01*
X100265394Y-85937048D01*
X100265390Y-85937051D01*
X100160861Y-86041580D01*
X100160856Y-86041586D01*
X100146911Y-86062457D01*
X100093299Y-86107261D01*
X100023974Y-86115968D01*
X99960946Y-86085813D01*
X99940709Y-86062457D01*
X99926763Y-86041586D01*
X99926758Y-86041580D01*
X99822229Y-85937051D01*
X99822225Y-85937048D01*
X99699311Y-85854919D01*
X99699298Y-85854912D01*
X99562727Y-85798343D01*
X99562717Y-85798340D01*
X99417730Y-85769500D01*
X99417728Y-85769500D01*
X99269892Y-85769500D01*
X99269890Y-85769500D01*
X99124902Y-85798340D01*
X99124892Y-85798343D01*
X98988321Y-85854912D01*
X98988308Y-85854919D01*
X98865394Y-85937048D01*
X98865390Y-85937051D01*
X98760861Y-86041580D01*
X98760858Y-86041584D01*
X98678729Y-86164498D01*
X98678722Y-86164511D01*
X98622153Y-86301082D01*
X98622150Y-86301092D01*
X98593310Y-86446079D01*
X98593310Y-86446082D01*
X98593310Y-86593918D01*
X98593310Y-86593920D01*
X98593309Y-86593920D01*
X91606122Y-86593920D01*
X91591949Y-85739971D01*
X95288059Y-85686953D01*
X95308340Y-85788907D01*
X95308343Y-85788917D01*
X95364912Y-85925488D01*
X95364919Y-85925501D01*
X95447048Y-86048415D01*
X95447051Y-86048419D01*
X95551580Y-86152948D01*
X95551584Y-86152951D01*
X95674498Y-86235080D01*
X95674511Y-86235087D01*
X95811082Y-86291656D01*
X95811087Y-86291658D01*
X95811091Y-86291658D01*
X95811092Y-86291659D01*
X95956079Y-86320500D01*
X95956082Y-86320500D01*
X96103920Y-86320500D01*
X96114613Y-86318373D01*
X96206514Y-86300091D01*
X96248913Y-86291658D01*
X96385495Y-86235084D01*
X96508416Y-86152951D01*
X96612951Y-86048416D01*
X96695084Y-85925495D01*
X96751658Y-85788913D01*
X96767610Y-85708719D01*
X96776185Y-85665607D01*
X101349434Y-85600008D01*
X101341287Y-84303859D01*
X102241993Y-84291733D01*
X102340374Y-84290409D01*
X102340386Y-84290409D01*
X102348396Y-84290301D01*
X102348399Y-84290302D01*
X105778368Y-84244125D01*
X105827483Y-84253552D01*
X105861918Y-84267816D01*
X105974959Y-84290301D01*
X106026228Y-84300499D01*
X106026232Y-84300500D01*
X106026233Y-84300500D01*
X106193768Y-84300500D01*
X106193769Y-84300499D01*
X106358082Y-84267816D01*
X106414687Y-84244369D01*
X106460460Y-84234942D01*
X108957640Y-84201324D01*
X112770000Y-84150000D01*
X114509669Y-82965008D01*
X115270751Y-82446590D01*
X115281239Y-82440186D01*
X115439369Y-82354103D01*
X115462051Y-82344537D01*
X115628144Y-82293229D01*
X115652272Y-82288334D01*
X115831399Y-82270232D01*
X115843700Y-82269605D01*
X124319846Y-82258946D01*
X124324403Y-82260277D01*
G37*
%TD.AperFunction*%
%TA.AperFunction,Conductor*%
G36*
X91585092Y-85326798D02*
G01*
X91571256Y-84493162D01*
X91571267Y-84488472D01*
X91572392Y-84435773D01*
X91573347Y-84435362D01*
X91573347Y-84435361D01*
X91576397Y-84435319D01*
X91585092Y-85326798D01*
G37*
%TD.AperFunction*%
%TD*%
%TA.AperFunction,Conductor*%
%TO.N,VBUS*%
G36*
X101113078Y-57070089D02*
G01*
X101159207Y-57122567D01*
X101170779Y-57174099D01*
X101285063Y-75358007D01*
X101265800Y-75425169D01*
X101213284Y-75471254D01*
X101144190Y-75481632D01*
X101135779Y-75479935D01*
X101132476Y-75479500D01*
X101132475Y-75479500D01*
X100987525Y-75479500D01*
X100858993Y-75513940D01*
X100847511Y-75517017D01*
X100721988Y-75589488D01*
X100721982Y-75589493D01*
X100619493Y-75691982D01*
X100619488Y-75691988D01*
X100547017Y-75817511D01*
X100547016Y-75817515D01*
X100509500Y-75957525D01*
X100509500Y-76102475D01*
X100547016Y-76242485D01*
X100547017Y-76242488D01*
X100619488Y-76368011D01*
X100619490Y-76368013D01*
X100619491Y-76368015D01*
X100721985Y-76470509D01*
X100721986Y-76470510D01*
X100721988Y-76470511D01*
X100847511Y-76542982D01*
X100847512Y-76542982D01*
X100847515Y-76542984D01*
X100987525Y-76580500D01*
X100987528Y-76580500D01*
X101132473Y-76580500D01*
X101132475Y-76580500D01*
X101137389Y-76579183D01*
X101207239Y-76580842D01*
X101265103Y-76620003D01*
X101292609Y-76684230D01*
X101293485Y-76698177D01*
X101308799Y-79134721D01*
X101289536Y-79201883D01*
X101237020Y-79247968D01*
X101184801Y-79259500D01*
X101157525Y-79259500D01*
X101028993Y-79293940D01*
X101017511Y-79297017D01*
X100920660Y-79352935D01*
X100852760Y-79369408D01*
X100796660Y-79352935D01*
X100682488Y-79287017D01*
X100682489Y-79287017D01*
X100671006Y-79283940D01*
X100542475Y-79249500D01*
X100397525Y-79249500D01*
X100268993Y-79283940D01*
X100257511Y-79287017D01*
X100131988Y-79359488D01*
X100131982Y-79359493D01*
X100029493Y-79461982D01*
X100029488Y-79461988D01*
X99957017Y-79587511D01*
X99957016Y-79587515D01*
X99919500Y-79727525D01*
X99919500Y-79872475D01*
X99922180Y-79882475D01*
X99957017Y-80012488D01*
X100029488Y-80138011D01*
X100029490Y-80138013D01*
X100029491Y-80138015D01*
X100131985Y-80240509D01*
X100131986Y-80240510D01*
X100131988Y-80240511D01*
X100257511Y-80312982D01*
X100257512Y-80312982D01*
X100257515Y-80312984D01*
X100397525Y-80350500D01*
X100397528Y-80350500D01*
X100542472Y-80350500D01*
X100542475Y-80350500D01*
X100682485Y-80312984D01*
X100682487Y-80312982D01*
X100682489Y-80312982D01*
X100682490Y-80312981D01*
X100779340Y-80257064D01*
X100847237Y-80240591D01*
X100903337Y-80257063D01*
X101017515Y-80322984D01*
X101157525Y-80360500D01*
X101157528Y-80360500D01*
X101193279Y-80360500D01*
X101260318Y-80380185D01*
X101306073Y-80432989D01*
X101317277Y-80483721D01*
X101341287Y-84303859D01*
X101349434Y-85600008D01*
X96469595Y-85670004D01*
X96480500Y-85629309D01*
X96480500Y-85510691D01*
X96449799Y-85396114D01*
X96390489Y-85293387D01*
X96306613Y-85209511D01*
X96203886Y-85150201D01*
X96089309Y-85119500D01*
X95970691Y-85119500D01*
X95856114Y-85150201D01*
X95856112Y-85150201D01*
X95856112Y-85150202D01*
X95753387Y-85209511D01*
X95753384Y-85209513D01*
X95669513Y-85293384D01*
X95669511Y-85293387D01*
X95610201Y-85396114D01*
X95579500Y-85510691D01*
X95579500Y-85629309D01*
X95590405Y-85670005D01*
X95593771Y-85682568D01*
X91591949Y-85739971D01*
X91590214Y-85739996D01*
X91588640Y-85687962D01*
X91588814Y-85687294D01*
X91588589Y-85685427D01*
X91574206Y-84210691D01*
X95679500Y-84210691D01*
X95679500Y-84329309D01*
X95710201Y-84443886D01*
X95769511Y-84546613D01*
X95853387Y-84630489D01*
X95956114Y-84689799D01*
X96070691Y-84720500D01*
X96070694Y-84720500D01*
X96189306Y-84720500D01*
X96189309Y-84720500D01*
X96303886Y-84689799D01*
X96406613Y-84630489D01*
X96490489Y-84546613D01*
X96549799Y-84443886D01*
X96580500Y-84329309D01*
X96580500Y-84210691D01*
X96549799Y-84096114D01*
X96490489Y-83993387D01*
X96406613Y-83909511D01*
X96303886Y-83850201D01*
X96189309Y-83819500D01*
X96070691Y-83819500D01*
X95956114Y-83850201D01*
X95956112Y-83850201D01*
X95956112Y-83850202D01*
X95853387Y-83909511D01*
X95853384Y-83909513D01*
X95769513Y-83993384D01*
X95769511Y-83993387D01*
X95710201Y-84096114D01*
X95679500Y-84210691D01*
X91574206Y-84210691D01*
X91519006Y-78550691D01*
X96629500Y-78550691D01*
X96629500Y-78669309D01*
X96660201Y-78783886D01*
X96719511Y-78886613D01*
X96803387Y-78970489D01*
X96906114Y-79029799D01*
X97020691Y-79060500D01*
X97020694Y-79060500D01*
X97139306Y-79060500D01*
X97139309Y-79060500D01*
X97253886Y-79029799D01*
X97356613Y-78970489D01*
X97440489Y-78886613D01*
X97499799Y-78783886D01*
X97530500Y-78669309D01*
X97530500Y-78550691D01*
X97499799Y-78436114D01*
X97440489Y-78333387D01*
X97356613Y-78249511D01*
X97253886Y-78190201D01*
X97139309Y-78159500D01*
X97020691Y-78159500D01*
X96906114Y-78190201D01*
X96906112Y-78190201D01*
X96906112Y-78190202D01*
X96803387Y-78249511D01*
X96803384Y-78249513D01*
X96719513Y-78333384D01*
X96719511Y-78333387D01*
X96660201Y-78436114D01*
X96629500Y-78550691D01*
X91519006Y-78550691D01*
X91481003Y-74653982D01*
X97494500Y-74653982D01*
X97494500Y-74766018D01*
X97523497Y-74874237D01*
X97579515Y-74971263D01*
X97658737Y-75050485D01*
X97755763Y-75106503D01*
X97863982Y-75135500D01*
X97863984Y-75135500D01*
X97976016Y-75135500D01*
X97976018Y-75135500D01*
X98084237Y-75106503D01*
X98181263Y-75050485D01*
X98260485Y-74971263D01*
X98316503Y-74874237D01*
X98345500Y-74766018D01*
X98345500Y-74653982D01*
X98316503Y-74545763D01*
X98260485Y-74448737D01*
X98181263Y-74369515D01*
X98084237Y-74313497D01*
X97976018Y-74284500D01*
X97863982Y-74284500D01*
X97755763Y-74313497D01*
X97755760Y-74313498D01*
X97658740Y-74369513D01*
X97658734Y-74369517D01*
X97579517Y-74448734D01*
X97579513Y-74448740D01*
X97523498Y-74545760D01*
X97523497Y-74545763D01*
X97494500Y-74653982D01*
X91481003Y-74653982D01*
X91436468Y-70087525D01*
X94259500Y-70087525D01*
X94259500Y-70232475D01*
X94297016Y-70372485D01*
X94297017Y-70372488D01*
X94369488Y-70498011D01*
X94369490Y-70498013D01*
X94369491Y-70498015D01*
X94471985Y-70600509D01*
X94471986Y-70600510D01*
X94471988Y-70600511D01*
X94597511Y-70672982D01*
X94597512Y-70672982D01*
X94597515Y-70672984D01*
X94737525Y-70710500D01*
X94737528Y-70710500D01*
X94882472Y-70710500D01*
X94882475Y-70710500D01*
X95022485Y-70672984D01*
X95148015Y-70600509D01*
X95250509Y-70498015D01*
X95303019Y-70407064D01*
X95353585Y-70358851D01*
X95422192Y-70345627D01*
X95487056Y-70371595D01*
X95527585Y-70428509D01*
X95530179Y-70436971D01*
X95537015Y-70462483D01*
X95537017Y-70462488D01*
X95609488Y-70588011D01*
X95609490Y-70588013D01*
X95609491Y-70588015D01*
X95711985Y-70690509D01*
X95711986Y-70690510D01*
X95711988Y-70690511D01*
X95837511Y-70762982D01*
X95837512Y-70762982D01*
X95837515Y-70762984D01*
X95977525Y-70800500D01*
X95977528Y-70800500D01*
X96122472Y-70800500D01*
X96122475Y-70800500D01*
X96262485Y-70762984D01*
X96388015Y-70690509D01*
X96490509Y-70588015D01*
X96518179Y-70540088D01*
X96568746Y-70491873D01*
X96637353Y-70478650D01*
X96702218Y-70504618D01*
X96732953Y-70540089D01*
X96789491Y-70638015D01*
X96891985Y-70740509D01*
X96891986Y-70740510D01*
X96891988Y-70740511D01*
X97017511Y-70812982D01*
X97017512Y-70812982D01*
X97017515Y-70812984D01*
X97157525Y-70850500D01*
X97157528Y-70850500D01*
X97302472Y-70850500D01*
X97302475Y-70850500D01*
X97442485Y-70812984D01*
X97568015Y-70740509D01*
X97670509Y-70638015D01*
X97742984Y-70512485D01*
X97780500Y-70372475D01*
X97780500Y-70227525D01*
X97742984Y-70087515D01*
X97714116Y-70037515D01*
X97670511Y-69961988D01*
X97670506Y-69961982D01*
X97568017Y-69859493D01*
X97568011Y-69859488D01*
X97442488Y-69787017D01*
X97442489Y-69787017D01*
X97431006Y-69783940D01*
X97302475Y-69749500D01*
X97157525Y-69749500D01*
X97028993Y-69783940D01*
X97017511Y-69787017D01*
X96891988Y-69859488D01*
X96891982Y-69859493D01*
X96789493Y-69961982D01*
X96789488Y-69961988D01*
X96761819Y-70009912D01*
X96711251Y-70058127D01*
X96642643Y-70071348D01*
X96577779Y-70045379D01*
X96547046Y-70009910D01*
X96490509Y-69911985D01*
X96388015Y-69809491D01*
X96388013Y-69809490D01*
X96388011Y-69809488D01*
X96262488Y-69737017D01*
X96262489Y-69737017D01*
X96251006Y-69733940D01*
X96122475Y-69699500D01*
X95977525Y-69699500D01*
X95848993Y-69733940D01*
X95837511Y-69737017D01*
X95711988Y-69809488D01*
X95711982Y-69809493D01*
X95609493Y-69911982D01*
X95609491Y-69911985D01*
X95556981Y-70002934D01*
X95506413Y-70051149D01*
X95437806Y-70064371D01*
X95372941Y-70038403D01*
X95332414Y-69981488D01*
X95329819Y-69973025D01*
X95322983Y-69947513D01*
X95322982Y-69947511D01*
X95250511Y-69821988D01*
X95250506Y-69821982D01*
X95148017Y-69719493D01*
X95148011Y-69719488D01*
X95022488Y-69647017D01*
X95022489Y-69647017D01*
X95011006Y-69643940D01*
X94882475Y-69609500D01*
X94737525Y-69609500D01*
X94608993Y-69643940D01*
X94597511Y-69647017D01*
X94471988Y-69719488D01*
X94471982Y-69719493D01*
X94369493Y-69821982D01*
X94369488Y-69821988D01*
X94297017Y-69947511D01*
X94297016Y-69947515D01*
X94259500Y-70087525D01*
X91436468Y-70087525D01*
X91418359Y-68230691D01*
X94129500Y-68230691D01*
X94129500Y-68349309D01*
X94160201Y-68463886D01*
X94219511Y-68566613D01*
X94303387Y-68650489D01*
X94406114Y-68709799D01*
X94520691Y-68740500D01*
X94520694Y-68740500D01*
X94639306Y-68740500D01*
X94639309Y-68740500D01*
X94753886Y-68709799D01*
X94856613Y-68650489D01*
X94940489Y-68566613D01*
X94999799Y-68463886D01*
X95030500Y-68349309D01*
X95030500Y-68230691D01*
X94999799Y-68116114D01*
X94940489Y-68013387D01*
X94856613Y-67929511D01*
X94753886Y-67870201D01*
X94639309Y-67839500D01*
X94520691Y-67839500D01*
X94406114Y-67870201D01*
X94406112Y-67870201D01*
X94406112Y-67870202D01*
X94303387Y-67929511D01*
X94303384Y-67929513D01*
X94219513Y-68013384D01*
X94219511Y-68013387D01*
X94160201Y-68116114D01*
X94129500Y-68230691D01*
X91418359Y-68230691D01*
X91410428Y-67417525D01*
X95179500Y-67417525D01*
X95179500Y-67562475D01*
X95217016Y-67702485D01*
X95217017Y-67702488D01*
X95289488Y-67828011D01*
X95289490Y-67828013D01*
X95289491Y-67828015D01*
X95391985Y-67930509D01*
X95391986Y-67930510D01*
X95391988Y-67930511D01*
X95517511Y-68002982D01*
X95517512Y-68002982D01*
X95517515Y-68002984D01*
X95657525Y-68040500D01*
X95657528Y-68040500D01*
X95802472Y-68040500D01*
X95802475Y-68040500D01*
X95942485Y-68002984D01*
X96068015Y-67930509D01*
X96170509Y-67828015D01*
X96242984Y-67702485D01*
X96280500Y-67562475D01*
X96280500Y-67417525D01*
X96272461Y-67387525D01*
X96779500Y-67387525D01*
X96779500Y-67532475D01*
X96787538Y-67562472D01*
X96817017Y-67672488D01*
X96889488Y-67798011D01*
X96889490Y-67798013D01*
X96889491Y-67798015D01*
X96991985Y-67900509D01*
X96991986Y-67900510D01*
X96991988Y-67900511D01*
X97117511Y-67972982D01*
X97117512Y-67972982D01*
X97117515Y-67972984D01*
X97257525Y-68010500D01*
X97257528Y-68010500D01*
X97402472Y-68010500D01*
X97402475Y-68010500D01*
X97542485Y-67972984D01*
X97668015Y-67900509D01*
X97770509Y-67798015D01*
X97842984Y-67672485D01*
X97880500Y-67532475D01*
X97880500Y-67387525D01*
X97842984Y-67247515D01*
X97787831Y-67151988D01*
X97770511Y-67121988D01*
X97770506Y-67121982D01*
X97668017Y-67019493D01*
X97668011Y-67019488D01*
X97542488Y-66947017D01*
X97542489Y-66947017D01*
X97514435Y-66939500D01*
X97402475Y-66909500D01*
X97257525Y-66909500D01*
X97145565Y-66939500D01*
X97117511Y-66947017D01*
X96991988Y-67019488D01*
X96991982Y-67019493D01*
X96889493Y-67121982D01*
X96889488Y-67121988D01*
X96817017Y-67247511D01*
X96817016Y-67247515D01*
X96779500Y-67387525D01*
X96272461Y-67387525D01*
X96242984Y-67277515D01*
X96225663Y-67247515D01*
X96170511Y-67151988D01*
X96170506Y-67151982D01*
X96068017Y-67049493D01*
X96068011Y-67049488D01*
X95942488Y-66977017D01*
X95942489Y-66977017D01*
X95931006Y-66973940D01*
X95802475Y-66939500D01*
X95657525Y-66939500D01*
X95528993Y-66973940D01*
X95517511Y-66977017D01*
X95391988Y-67049488D01*
X95391982Y-67049493D01*
X95289493Y-67151982D01*
X95289488Y-67151988D01*
X95217017Y-67277511D01*
X95217016Y-67277515D01*
X95179500Y-67417525D01*
X91410428Y-67417525D01*
X91364361Y-62693982D01*
X96484500Y-62693982D01*
X96484500Y-62806018D01*
X96513497Y-62914237D01*
X96569515Y-63011263D01*
X96648737Y-63090485D01*
X96745763Y-63146503D01*
X96853982Y-63175500D01*
X96853984Y-63175500D01*
X96966016Y-63175500D01*
X96966018Y-63175500D01*
X97074237Y-63146503D01*
X97171263Y-63090485D01*
X97250485Y-63011263D01*
X97306503Y-62914237D01*
X97335500Y-62806018D01*
X97335500Y-62693982D01*
X97306503Y-62585763D01*
X97250485Y-62488737D01*
X97171263Y-62409515D01*
X97106579Y-62372169D01*
X97074239Y-62353498D01*
X97074238Y-62353497D01*
X97074237Y-62353497D01*
X96966018Y-62324500D01*
X96853982Y-62324500D01*
X96745763Y-62353497D01*
X96745760Y-62353498D01*
X96648740Y-62409513D01*
X96648734Y-62409517D01*
X96569517Y-62488734D01*
X96569513Y-62488740D01*
X96513498Y-62585760D01*
X96513497Y-62585763D01*
X96484500Y-62693982D01*
X91364361Y-62693982D01*
X91351488Y-61373982D01*
X94194500Y-61373982D01*
X94194500Y-61486018D01*
X94223497Y-61594237D01*
X94279515Y-61691263D01*
X94358737Y-61770485D01*
X94455763Y-61826503D01*
X94563982Y-61855500D01*
X94563984Y-61855500D01*
X94676016Y-61855500D01*
X94676018Y-61855500D01*
X94784237Y-61826503D01*
X94881263Y-61770485D01*
X94960485Y-61691263D01*
X95016503Y-61594237D01*
X95045500Y-61486018D01*
X95045500Y-61407525D01*
X99599500Y-61407525D01*
X99599500Y-61552475D01*
X99636689Y-61691263D01*
X99637017Y-61692488D01*
X99709488Y-61818011D01*
X99709490Y-61818013D01*
X99709491Y-61818015D01*
X99811985Y-61920509D01*
X99811986Y-61920510D01*
X99811988Y-61920511D01*
X99937511Y-61992982D01*
X99937512Y-61992982D01*
X99937515Y-61992984D01*
X100054183Y-62024245D01*
X100113841Y-62060609D01*
X100144370Y-62123456D01*
X100136075Y-62192832D01*
X100091590Y-62246710D01*
X100054182Y-62263793D01*
X99982158Y-62283092D01*
X99967511Y-62287017D01*
X99841988Y-62359488D01*
X99841982Y-62359493D01*
X99739493Y-62461982D01*
X99739488Y-62461988D01*
X99667017Y-62587511D01*
X99667016Y-62587515D01*
X99629500Y-62727525D01*
X99629500Y-62872475D01*
X99666689Y-63011263D01*
X99667017Y-63012488D01*
X99739488Y-63138011D01*
X99739490Y-63138013D01*
X99739491Y-63138015D01*
X99841985Y-63240509D01*
X99841986Y-63240510D01*
X99841988Y-63240511D01*
X99967511Y-63312982D01*
X99967512Y-63312982D01*
X99967515Y-63312984D01*
X100107525Y-63350500D01*
X100107528Y-63350500D01*
X100252472Y-63350500D01*
X100252475Y-63350500D01*
X100392485Y-63312984D01*
X100518015Y-63240509D01*
X100620509Y-63138015D01*
X100692984Y-63012485D01*
X100730500Y-62872475D01*
X100730500Y-62727525D01*
X100692984Y-62587515D01*
X100691972Y-62585763D01*
X100620511Y-62461988D01*
X100620506Y-62461982D01*
X100518017Y-62359493D01*
X100518011Y-62359488D01*
X100392488Y-62287017D01*
X100392489Y-62287017D01*
X100305820Y-62263794D01*
X100275817Y-62255754D01*
X100216158Y-62219389D01*
X100185629Y-62156542D01*
X100193924Y-62087167D01*
X100238410Y-62033289D01*
X100275811Y-62016208D01*
X100362485Y-61992984D01*
X100488015Y-61920509D01*
X100590509Y-61818015D01*
X100662984Y-61692485D01*
X100700500Y-61552475D01*
X100700500Y-61407525D01*
X100662984Y-61267515D01*
X100661972Y-61265763D01*
X100590511Y-61141988D01*
X100590506Y-61141982D01*
X100488017Y-61039493D01*
X100488011Y-61039488D01*
X100362488Y-60967017D01*
X100362489Y-60967017D01*
X100351006Y-60963940D01*
X100222475Y-60929500D01*
X100077525Y-60929500D01*
X99948993Y-60963940D01*
X99937511Y-60967017D01*
X99811988Y-61039488D01*
X99811982Y-61039493D01*
X99709493Y-61141982D01*
X99709488Y-61141988D01*
X99637017Y-61267511D01*
X99637016Y-61267515D01*
X99599500Y-61407525D01*
X95045500Y-61407525D01*
X95045500Y-61373982D01*
X95016503Y-61265763D01*
X94960485Y-61168737D01*
X94881263Y-61089515D01*
X94816579Y-61052169D01*
X94784239Y-61033498D01*
X94784238Y-61033497D01*
X94784237Y-61033497D01*
X94676018Y-61004500D01*
X94563982Y-61004500D01*
X94455763Y-61033497D01*
X94455760Y-61033498D01*
X94358740Y-61089513D01*
X94358734Y-61089517D01*
X94279517Y-61168734D01*
X94279513Y-61168740D01*
X94223498Y-61265760D01*
X94223497Y-61265763D01*
X94194500Y-61373982D01*
X91351488Y-61373982D01*
X91333772Y-59557525D01*
X95809500Y-59557525D01*
X95809500Y-59702475D01*
X95847016Y-59842485D01*
X95847017Y-59842488D01*
X95919488Y-59968011D01*
X95919490Y-59968013D01*
X95919491Y-59968015D01*
X96021985Y-60070509D01*
X96021986Y-60070510D01*
X96021988Y-60070511D01*
X96147511Y-60142982D01*
X96147512Y-60142982D01*
X96147515Y-60142984D01*
X96287525Y-60180500D01*
X96287528Y-60180500D01*
X96432472Y-60180500D01*
X96432475Y-60180500D01*
X96572485Y-60142984D01*
X96698015Y-60070509D01*
X96800509Y-59968015D01*
X96872984Y-59842485D01*
X96910500Y-59702475D01*
X96910500Y-59557525D01*
X96872984Y-59417515D01*
X96800509Y-59291985D01*
X96698015Y-59189491D01*
X96698013Y-59189490D01*
X96698011Y-59189488D01*
X96572488Y-59117017D01*
X96572489Y-59117017D01*
X96561006Y-59113940D01*
X96432475Y-59079500D01*
X96287525Y-59079500D01*
X96158993Y-59113940D01*
X96147511Y-59117017D01*
X96021988Y-59189488D01*
X96021982Y-59189493D01*
X95919493Y-59291982D01*
X95919488Y-59291988D01*
X95847017Y-59417511D01*
X95847016Y-59417515D01*
X95809500Y-59557525D01*
X91333772Y-59557525D01*
X91321742Y-58323982D01*
X92614500Y-58323982D01*
X92614500Y-58436018D01*
X92643497Y-58544237D01*
X92699515Y-58641263D01*
X92778737Y-58720485D01*
X92875763Y-58776503D01*
X92983982Y-58805500D01*
X92983984Y-58805500D01*
X93096016Y-58805500D01*
X93096018Y-58805500D01*
X93204237Y-58776503D01*
X93301263Y-58720485D01*
X93380485Y-58641263D01*
X93436503Y-58544237D01*
X93465500Y-58436018D01*
X93465500Y-58323982D01*
X93436503Y-58215763D01*
X93380485Y-58118737D01*
X93301263Y-58039515D01*
X93228534Y-57997525D01*
X99649500Y-57997525D01*
X99649500Y-58142475D01*
X99669137Y-58215760D01*
X99687017Y-58282488D01*
X99759488Y-58408011D01*
X99759490Y-58408013D01*
X99759491Y-58408015D01*
X99861985Y-58510509D01*
X99861986Y-58510510D01*
X99861988Y-58510511D01*
X99987511Y-58582982D01*
X99987512Y-58582982D01*
X99987515Y-58582984D01*
X100127525Y-58620500D01*
X100127528Y-58620500D01*
X100272472Y-58620500D01*
X100272475Y-58620500D01*
X100412485Y-58582984D01*
X100538015Y-58510509D01*
X100640509Y-58408015D01*
X100712984Y-58282485D01*
X100750500Y-58142475D01*
X100750500Y-57997525D01*
X100712984Y-57857515D01*
X100640509Y-57731985D01*
X100538015Y-57629491D01*
X100538013Y-57629490D01*
X100538011Y-57629488D01*
X100412488Y-57557017D01*
X100412489Y-57557017D01*
X100401006Y-57553940D01*
X100272475Y-57519500D01*
X100127525Y-57519500D01*
X99998993Y-57553940D01*
X99987511Y-57557017D01*
X99861988Y-57629488D01*
X99861982Y-57629493D01*
X99759493Y-57731982D01*
X99759488Y-57731988D01*
X99687017Y-57857511D01*
X99687016Y-57857515D01*
X99649500Y-57997525D01*
X93228534Y-57997525D01*
X93204237Y-57983497D01*
X93096018Y-57954500D01*
X92983982Y-57954500D01*
X92875763Y-57983497D01*
X92875760Y-57983498D01*
X92778740Y-58039513D01*
X92778734Y-58039517D01*
X92699517Y-58118734D01*
X92699513Y-58118740D01*
X92643498Y-58215760D01*
X92643497Y-58215763D01*
X92614500Y-58323982D01*
X91321742Y-58323982D01*
X91311212Y-57244321D01*
X91330242Y-57177095D01*
X91382597Y-57130827D01*
X91434324Y-57119117D01*
X101045901Y-57050881D01*
X101113078Y-57070089D01*
G37*
%TD.AperFunction*%
%TD*%
%TA.AperFunction,Conductor*%
%TO.N,+3V3*%
G36*
X131506569Y-55415521D02*
G01*
X131515201Y-55418055D01*
X131573982Y-55455825D01*
X131603011Y-55519379D01*
X131593072Y-55588538D01*
X131552793Y-55637617D01*
X131548639Y-55640612D01*
X131523574Y-55654590D01*
X131500140Y-55664296D01*
X131474511Y-55674912D01*
X131474506Y-55674914D01*
X131474505Y-55674915D01*
X131474491Y-55674923D01*
X131351581Y-55757049D01*
X131351580Y-55757050D01*
X131351574Y-55757055D01*
X131247055Y-55861574D01*
X131247050Y-55861580D01*
X131247049Y-55861581D01*
X131164923Y-55984491D01*
X131164913Y-55984508D01*
X131164908Y-55984517D01*
X131108344Y-56121079D01*
X131108338Y-56121098D01*
X131079500Y-56266076D01*
X131079500Y-56369551D01*
X131074237Y-56387471D01*
X131108338Y-56558899D01*
X131108344Y-56558919D01*
X131164908Y-56695481D01*
X131164913Y-56695490D01*
X131164923Y-56695507D01*
X131247047Y-56818414D01*
X131247050Y-56818418D01*
X131247055Y-56818424D01*
X131351574Y-56922943D01*
X131351580Y-56922948D01*
X131351584Y-56922951D01*
X131474498Y-57005080D01*
X131474511Y-57005087D01*
X131563430Y-57041918D01*
X131605475Y-57059333D01*
X131609885Y-57061419D01*
X131756076Y-57090500D01*
X131756079Y-57090500D01*
X131756082Y-57090500D01*
X131903920Y-57090500D01*
X132001462Y-57071096D01*
X132048913Y-57061658D01*
X132185495Y-57005084D01*
X132308416Y-56922951D01*
X132412951Y-56818416D01*
X132412953Y-56818414D01*
X132433529Y-56787619D01*
X132495084Y-56695495D01*
X132499954Y-56683739D01*
X132551656Y-56558917D01*
X132551658Y-56558913D01*
X132569972Y-56466843D01*
X132580500Y-56413920D01*
X132580500Y-56266079D01*
X132580500Y-56266076D01*
X132551419Y-56119886D01*
X132549331Y-56115470D01*
X132548206Y-56112754D01*
X132548206Y-56112753D01*
X132508827Y-56017682D01*
X132495090Y-55984517D01*
X132495085Y-55984508D01*
X132495080Y-55984498D01*
X132412951Y-55861584D01*
X132412948Y-55861580D01*
X132412943Y-55861574D01*
X132308424Y-55757055D01*
X132308418Y-55757050D01*
X132308417Y-55757049D01*
X132185507Y-55674923D01*
X132185506Y-55674922D01*
X132185501Y-55674919D01*
X132185488Y-55674912D01*
X132139545Y-55655882D01*
X132137852Y-55654518D01*
X132135699Y-55654213D01*
X132109196Y-55637876D01*
X132102189Y-55632230D01*
X132092020Y-55617584D01*
X132085144Y-55612043D01*
X132078377Y-55597935D01*
X132062341Y-55574839D01*
X132059846Y-55505014D01*
X132095498Y-55444924D01*
X132151489Y-55414999D01*
X132156476Y-55413821D01*
X132164804Y-55412850D01*
X132167105Y-55411795D01*
X132170153Y-55412227D01*
X132184982Y-55410500D01*
X136676296Y-55410500D01*
X136711223Y-55415521D01*
X136722076Y-55418707D01*
X136780857Y-55456477D01*
X136809886Y-55520031D01*
X136799947Y-55589190D01*
X136799943Y-55589197D01*
X136796506Y-55596723D01*
X136779016Y-55623926D01*
X136779110Y-55623997D01*
X136778134Y-55625296D01*
X136777393Y-55626451D01*
X136776477Y-55627506D01*
X136776467Y-55627520D01*
X136697070Y-55746344D01*
X136697065Y-55746354D01*
X136642384Y-55878369D01*
X136642377Y-55878389D01*
X136642375Y-55878397D01*
X136614500Y-56018537D01*
X136614500Y-56117088D01*
X136609237Y-56135008D01*
X136642376Y-56301602D01*
X136642377Y-56301608D01*
X136642384Y-56301629D01*
X136697065Y-56433644D01*
X136697070Y-56433654D01*
X136776468Y-56552480D01*
X136776469Y-56552481D01*
X136776474Y-56552487D01*
X136877511Y-56653524D01*
X136877517Y-56653529D01*
X136877521Y-56653532D01*
X136996340Y-56732925D01*
X136996346Y-56732928D01*
X136996347Y-56732929D01*
X137123423Y-56785566D01*
X137123949Y-56785790D01*
X137124127Y-56785937D01*
X137127179Y-56787380D01*
X137128384Y-56787619D01*
X137128385Y-56787620D01*
X137130708Y-56788082D01*
X137268539Y-56815500D01*
X137268542Y-56815500D01*
X137268545Y-56815500D01*
X137411457Y-56815500D01*
X137505751Y-56796742D01*
X137551620Y-56787619D01*
X137683653Y-56732929D01*
X137738861Y-56696038D01*
X137740893Y-56695402D01*
X137742315Y-56693812D01*
X137770691Y-56680807D01*
X137779283Y-56678117D01*
X137797109Y-56677798D01*
X137805538Y-56675159D01*
X137821055Y-56677369D01*
X137849139Y-56676866D01*
X137908584Y-56713582D01*
X137938742Y-56776608D01*
X137932526Y-56839772D01*
X137930737Y-56844570D01*
X137926943Y-56851984D01*
X137926546Y-56854475D01*
X137924492Y-56856772D01*
X137917655Y-56870135D01*
X137906300Y-56887129D01*
X137906298Y-56887133D01*
X137842184Y-57041917D01*
X137842178Y-57041942D01*
X137809500Y-57206225D01*
X137809500Y-57206228D01*
X137809500Y-57373771D01*
X137809500Y-57373773D01*
X137809499Y-57373773D01*
X137842178Y-57538056D01*
X137842184Y-57538083D01*
X137906292Y-57692856D01*
X137999374Y-57832164D01*
X138117833Y-57950623D01*
X138117838Y-57950627D01*
X138144275Y-57968291D01*
X138197153Y-58003623D01*
X138257137Y-58043703D01*
X138411918Y-58107816D01*
X138518700Y-58129056D01*
X138573257Y-58139908D01*
X138575492Y-58140409D01*
X138576230Y-58140500D01*
X138743768Y-58140500D01*
X138747889Y-58140500D01*
X138755742Y-58138117D01*
X138908082Y-58107816D01*
X139062863Y-58043703D01*
X139202162Y-57950626D01*
X139320626Y-57832162D01*
X139413703Y-57692863D01*
X139477816Y-57538082D01*
X139510500Y-57373767D01*
X139510500Y-57206233D01*
X139477816Y-57041918D01*
X139413703Y-56887137D01*
X139367784Y-56818415D01*
X139367784Y-56818414D01*
X139320627Y-56747838D01*
X139320621Y-56747831D01*
X139202166Y-56629376D01*
X139202157Y-56629369D01*
X139062862Y-56536295D01*
X139062858Y-56536293D01*
X139052846Y-56532146D01*
X139790000Y-56532146D01*
X139790000Y-56532155D01*
X139790000Y-57180000D01*
X140527750Y-57180000D01*
X140594789Y-57199685D01*
X140640544Y-57252489D01*
X140650488Y-57321647D01*
X140647524Y-57336095D01*
X140640000Y-57364171D01*
X140640000Y-57495828D01*
X140647524Y-57523905D01*
X140645863Y-57593755D01*
X140606701Y-57651618D01*
X140542473Y-57679123D01*
X140527750Y-57680000D01*
X139790000Y-57680000D01*
X139790000Y-58327852D01*
X139796400Y-58387370D01*
X139796402Y-58387377D01*
X139804250Y-58408418D01*
X139846645Y-58522086D01*
X139846649Y-58522093D01*
X139932809Y-58637187D01*
X139932812Y-58637190D01*
X140047906Y-58723350D01*
X140047913Y-58723354D01*
X140182620Y-58773596D01*
X140182627Y-58773598D01*
X140189468Y-58774333D01*
X140242138Y-58779998D01*
X140242155Y-58779999D01*
X140242172Y-58780000D01*
X140890000Y-58780000D01*
X140890000Y-58042250D01*
X140909685Y-57975211D01*
X140962489Y-57929456D01*
X141031647Y-57919512D01*
X141046093Y-57922475D01*
X141074174Y-57930000D01*
X141205825Y-57930000D01*
X141205826Y-57930000D01*
X141233905Y-57922476D01*
X141303755Y-57924137D01*
X141361618Y-57963299D01*
X141389123Y-58027527D01*
X141390000Y-58042250D01*
X141390000Y-58780000D01*
X142037828Y-58780000D01*
X142037836Y-58780000D01*
X142037847Y-58779999D01*
X142073560Y-58776158D01*
X142097372Y-58773598D01*
X142097379Y-58773596D01*
X142232086Y-58723354D01*
X142232093Y-58723350D01*
X142347187Y-58637190D01*
X142347190Y-58637187D01*
X142433350Y-58522093D01*
X142433354Y-58522086D01*
X142476192Y-58407231D01*
X142493103Y-58376260D01*
X142493115Y-58376244D01*
X142501422Y-58365147D01*
X142557352Y-58323276D01*
X142627042Y-58318289D01*
X142631525Y-58319264D01*
X142692850Y-58352746D01*
X142800216Y-58460112D01*
X142972169Y-58585042D01*
X142972177Y-58585047D01*
X142972179Y-58585048D01*
X142972181Y-58585049D01*
X142972182Y-58585050D01*
X142972200Y-58585060D01*
X142972442Y-58585182D01*
X143161588Y-58681557D01*
X143363757Y-58747246D01*
X143573713Y-58780500D01*
X143573714Y-58780500D01*
X143786286Y-58780500D01*
X143786287Y-58780500D01*
X143996243Y-58747246D01*
X144198412Y-58681557D01*
X144387816Y-58585051D01*
X144474471Y-58522093D01*
X144559782Y-58460112D01*
X144559821Y-58460084D01*
X144559821Y-58460083D01*
X144559842Y-58460068D01*
X144560612Y-58459284D01*
X144710104Y-58309792D01*
X144710106Y-58309788D01*
X144710109Y-58309786D01*
X144835048Y-58137820D01*
X144835047Y-58137820D01*
X144835051Y-58137816D01*
X144835053Y-58137811D01*
X144843066Y-58126782D01*
X144843071Y-58126778D01*
X144853229Y-58114531D01*
X144860647Y-58106678D01*
X144895566Y-58086294D01*
X144898394Y-58084114D01*
X144899458Y-58084022D01*
X144920985Y-58071457D01*
X144990791Y-58074447D01*
X145044503Y-58110612D01*
X145050707Y-58117771D01*
X145062729Y-58134193D01*
X145064949Y-58137817D01*
X145064951Y-58137820D01*
X145189890Y-58309786D01*
X145189892Y-58309788D01*
X145340216Y-58460112D01*
X145512169Y-58585042D01*
X145512177Y-58585047D01*
X145512179Y-58585048D01*
X145512181Y-58585049D01*
X145512182Y-58585050D01*
X145512200Y-58585060D01*
X145512442Y-58585182D01*
X145701588Y-58681557D01*
X145903757Y-58747246D01*
X146113713Y-58780500D01*
X146113714Y-58780500D01*
X146326286Y-58780500D01*
X146326287Y-58780500D01*
X146536243Y-58747246D01*
X146738412Y-58681557D01*
X146927816Y-58585051D01*
X147014471Y-58522093D01*
X147099782Y-58460112D01*
X147099821Y-58460084D01*
X147099821Y-58460083D01*
X147099842Y-58460068D01*
X147100612Y-58459284D01*
X147250104Y-58309792D01*
X147250106Y-58309788D01*
X147250109Y-58309786D01*
X147375048Y-58137820D01*
X147375047Y-58137820D01*
X147375051Y-58137816D01*
X147375053Y-58137811D01*
X147383066Y-58126782D01*
X147383071Y-58126778D01*
X147393229Y-58114531D01*
X147400647Y-58106678D01*
X147435566Y-58086294D01*
X147438394Y-58084114D01*
X147439458Y-58084022D01*
X147460985Y-58071457D01*
X147530791Y-58074447D01*
X147584503Y-58110612D01*
X147590707Y-58117771D01*
X147602729Y-58134193D01*
X147604949Y-58137817D01*
X147604951Y-58137820D01*
X147729890Y-58309786D01*
X147729892Y-58309788D01*
X147880216Y-58460112D01*
X148052169Y-58585042D01*
X148052177Y-58585047D01*
X148052179Y-58585048D01*
X148052181Y-58585049D01*
X148052182Y-58585050D01*
X148052200Y-58585060D01*
X148052442Y-58585182D01*
X148241588Y-58681557D01*
X148443757Y-58747246D01*
X148653713Y-58780500D01*
X148653714Y-58780500D01*
X148866286Y-58780500D01*
X148866287Y-58780500D01*
X149076243Y-58747246D01*
X149278412Y-58681557D01*
X149467816Y-58585051D01*
X149554471Y-58522093D01*
X149639782Y-58460112D01*
X149639821Y-58460084D01*
X149639821Y-58460083D01*
X149639842Y-58460068D01*
X149640612Y-58459284D01*
X149790104Y-58309792D01*
X149790106Y-58309788D01*
X149790109Y-58309786D01*
X149915048Y-58137820D01*
X149915047Y-58137820D01*
X149915051Y-58137816D01*
X149915053Y-58137810D01*
X149935445Y-58109744D01*
X149943730Y-58081529D01*
X150011557Y-57948412D01*
X150077246Y-57746243D01*
X150110500Y-57536287D01*
X150110500Y-57323713D01*
X150077246Y-57113757D01*
X150011557Y-56911588D01*
X149915051Y-56722184D01*
X149915049Y-56722181D01*
X149915048Y-56722179D01*
X149914702Y-56721703D01*
X149914700Y-56721699D01*
X149790112Y-56550216D01*
X149639788Y-56399892D01*
X149639786Y-56399890D01*
X149467820Y-56274951D01*
X149377960Y-56229165D01*
X149300245Y-56189567D01*
X149300240Y-56189565D01*
X149278414Y-56178444D01*
X149278413Y-56178443D01*
X149278412Y-56178443D01*
X149181550Y-56146970D01*
X149085074Y-56115623D01*
X149080552Y-56113770D01*
X149071362Y-56111600D01*
X149066599Y-56111226D01*
X148914957Y-56087208D01*
X148895489Y-56084124D01*
X148866290Y-56079500D01*
X148866287Y-56079500D01*
X148653713Y-56079500D01*
X148653709Y-56079500D01*
X148614776Y-56085666D01*
X148605042Y-56087208D01*
X148567654Y-56093129D01*
X148443763Y-56112752D01*
X148443760Y-56112753D01*
X148293872Y-56161455D01*
X148241582Y-56178445D01*
X148052182Y-56274949D01*
X148052179Y-56274950D01*
X148052179Y-56274951D01*
X147966196Y-56337420D01*
X147880210Y-56399892D01*
X147729892Y-56550210D01*
X147723569Y-56558913D01*
X147604952Y-56722179D01*
X147604945Y-56722188D01*
X147604634Y-56722696D01*
X147603499Y-56724177D01*
X147602085Y-56726125D01*
X147602036Y-56726089D01*
X147589060Y-56743041D01*
X147579353Y-56753319D01*
X147519011Y-56788542D01*
X147449205Y-56785550D01*
X147395488Y-56749378D01*
X147389285Y-56742219D01*
X147377274Y-56725811D01*
X147375053Y-56722187D01*
X147375051Y-56722184D01*
X147375050Y-56722182D01*
X147250109Y-56550213D01*
X147099786Y-56399890D01*
X146927820Y-56274951D01*
X146837960Y-56229165D01*
X146760245Y-56189567D01*
X146760240Y-56189565D01*
X146738414Y-56178444D01*
X146738413Y-56178443D01*
X146738412Y-56178443D01*
X146641550Y-56146970D01*
X146545074Y-56115623D01*
X146540552Y-56113770D01*
X146531362Y-56111600D01*
X146526599Y-56111226D01*
X146374957Y-56087208D01*
X146355489Y-56084124D01*
X146326290Y-56079500D01*
X146326287Y-56079500D01*
X146113713Y-56079500D01*
X146113709Y-56079500D01*
X146074776Y-56085666D01*
X146065042Y-56087208D01*
X146027654Y-56093129D01*
X145903763Y-56112752D01*
X145903760Y-56112753D01*
X145753872Y-56161455D01*
X145701582Y-56178445D01*
X145512182Y-56274949D01*
X145512179Y-56274950D01*
X145512179Y-56274951D01*
X145426196Y-56337420D01*
X145340210Y-56399892D01*
X145189892Y-56550210D01*
X145183569Y-56558913D01*
X145064952Y-56722179D01*
X145064945Y-56722188D01*
X145064634Y-56722696D01*
X145063499Y-56724177D01*
X145062085Y-56726125D01*
X145062036Y-56726089D01*
X145049060Y-56743041D01*
X145039353Y-56753319D01*
X144979011Y-56788542D01*
X144909205Y-56785550D01*
X144855488Y-56749378D01*
X144849285Y-56742219D01*
X144837274Y-56725811D01*
X144835053Y-56722187D01*
X144835051Y-56722184D01*
X144835050Y-56722182D01*
X144710109Y-56550213D01*
X144559786Y-56399890D01*
X144387820Y-56274951D01*
X144297960Y-56229165D01*
X144220245Y-56189567D01*
X144220240Y-56189565D01*
X144198414Y-56178444D01*
X144198413Y-56178443D01*
X144198412Y-56178443D01*
X144101550Y-56146970D01*
X144005074Y-56115623D01*
X144000552Y-56113770D01*
X143991362Y-56111600D01*
X143986599Y-56111226D01*
X143834957Y-56087208D01*
X143815489Y-56084124D01*
X143786290Y-56079500D01*
X143786287Y-56079500D01*
X143573713Y-56079500D01*
X143573709Y-56079500D01*
X143534776Y-56085666D01*
X143525042Y-56087208D01*
X143487654Y-56093129D01*
X143363763Y-56112752D01*
X143363760Y-56112753D01*
X143213872Y-56161455D01*
X143161582Y-56178445D01*
X142972182Y-56274949D01*
X142800218Y-56399886D01*
X142698893Y-56501211D01*
X142698891Y-56501212D01*
X142698891Y-56501213D01*
X142670636Y-56522363D01*
X142658453Y-56529015D01*
X142590180Y-56543865D01*
X142524716Y-56519446D01*
X142524717Y-56519446D01*
X142523024Y-56518179D01*
X142521026Y-56516683D01*
X142479175Y-56460765D01*
X142477485Y-56456233D01*
X142433354Y-56337913D01*
X142433350Y-56337906D01*
X142347190Y-56222812D01*
X142347187Y-56222809D01*
X142347185Y-56222807D01*
X142265229Y-56161455D01*
X142232093Y-56136649D01*
X142232086Y-56136645D01*
X142163934Y-56111226D01*
X142097377Y-56086402D01*
X142097370Y-56086400D01*
X142037852Y-56080000D01*
X142037844Y-56080000D01*
X141390000Y-56080000D01*
X141390000Y-56817749D01*
X141370315Y-56884788D01*
X141317511Y-56930543D01*
X141248353Y-56940487D01*
X141233908Y-56937524D01*
X141205828Y-56930000D01*
X141205826Y-56930000D01*
X141074174Y-56930000D01*
X141074171Y-56930000D01*
X141046092Y-56937524D01*
X140976242Y-56935861D01*
X140918380Y-56896698D01*
X140890877Y-56832469D01*
X140890000Y-56817749D01*
X140890000Y-56080000D01*
X140242155Y-56080000D01*
X140242146Y-56080000D01*
X140182628Y-56086400D01*
X140182621Y-56086402D01*
X140047910Y-56136646D01*
X140047907Y-56136648D01*
X139932813Y-56222807D01*
X139932807Y-56222813D01*
X139846648Y-56337907D01*
X139846646Y-56337910D01*
X139796402Y-56472621D01*
X139796400Y-56472628D01*
X139790000Y-56532146D01*
X139052846Y-56532146D01*
X138908083Y-56472184D01*
X138908056Y-56472178D01*
X138743773Y-56439500D01*
X138743771Y-56439500D01*
X138743767Y-56439500D01*
X138576233Y-56439500D01*
X138576228Y-56439500D01*
X138576226Y-56439500D01*
X138411942Y-56472178D01*
X138411917Y-56472184D01*
X138257138Y-56536295D01*
X138171011Y-56593842D01*
X138171010Y-56593843D01*
X138139172Y-56609075D01*
X138130593Y-56611761D01*
X138060734Y-56613006D01*
X138001292Y-56576285D01*
X137971139Y-56513257D01*
X137977365Y-56450083D01*
X137981252Y-56439667D01*
X137981250Y-56439666D01*
X137987871Y-56421923D01*
X137989450Y-56417908D01*
X138037619Y-56301620D01*
X138046742Y-56255751D01*
X138065500Y-56161457D01*
X138065500Y-56018539D01*
X138037410Y-55877329D01*
X138035790Y-55873949D01*
X138035566Y-55873423D01*
X137982929Y-55746347D01*
X137982928Y-55746346D01*
X137982925Y-55746340D01*
X137903532Y-55627521D01*
X137903529Y-55627517D01*
X137903522Y-55627506D01*
X137900887Y-55623993D01*
X137901303Y-55623680D01*
X137890587Y-55608252D01*
X137888932Y-55605221D01*
X137884229Y-55596608D01*
X137869376Y-55528338D01*
X137893790Y-55462873D01*
X137949720Y-55421001D01*
X137953599Y-55419554D01*
X137956935Y-55418311D01*
X138000249Y-55410500D01*
X166355952Y-55410500D01*
X166358612Y-55410529D01*
X166361315Y-55410587D01*
X166364022Y-55410674D01*
X166744099Y-55427269D01*
X166749447Y-55427620D01*
X166754847Y-55428093D01*
X166760147Y-55428673D01*
X167133304Y-55477800D01*
X167138618Y-55478618D01*
X167143938Y-55479556D01*
X167149228Y-55480607D01*
X167516658Y-55562066D01*
X167521906Y-55563351D01*
X167527118Y-55564748D01*
X167532298Y-55566257D01*
X167891207Y-55679420D01*
X167896292Y-55681146D01*
X167901381Y-55682999D01*
X167906402Y-55684952D01*
X168254089Y-55828969D01*
X168259019Y-55831138D01*
X168263936Y-55833431D01*
X168268760Y-55835811D01*
X168352442Y-55879373D01*
X168602575Y-56009583D01*
X168607267Y-56012158D01*
X168611979Y-56014878D01*
X168616599Y-56017682D01*
X168868941Y-56178443D01*
X168868942Y-56178443D01*
X168933971Y-56219870D01*
X168938465Y-56222873D01*
X168942893Y-56225974D01*
X168947242Y-56229163D01*
X169245804Y-56458258D01*
X169249987Y-56461615D01*
X169254166Y-56465121D01*
X169258203Y-56468663D01*
X169505745Y-56695493D01*
X169535639Y-56722886D01*
X169539547Y-56726627D01*
X169543371Y-56730451D01*
X169547112Y-56734359D01*
X169733278Y-56937524D01*
X169801329Y-57011788D01*
X169804879Y-57015836D01*
X169808379Y-57020006D01*
X169811745Y-57024200D01*
X169951418Y-57206225D01*
X170040833Y-57322753D01*
X170044024Y-57327105D01*
X170047114Y-57331517D01*
X170050123Y-57336019D01*
X170095210Y-57406791D01*
X170252323Y-57653411D01*
X170255133Y-57658043D01*
X170257834Y-57662722D01*
X170260432Y-57667458D01*
X170434175Y-58001212D01*
X170436571Y-58006070D01*
X170438864Y-58010988D01*
X170441040Y-58015934D01*
X170491526Y-58137817D01*
X170577833Y-58346181D01*
X170585043Y-58363586D01*
X170586992Y-58368598D01*
X170588858Y-58373724D01*
X170590586Y-58378816D01*
X170703742Y-58737704D01*
X170705256Y-58742899D01*
X170706649Y-58748098D01*
X170707935Y-58753351D01*
X170789388Y-59120760D01*
X170790442Y-59126061D01*
X170791378Y-59131368D01*
X170792202Y-59136721D01*
X170841316Y-59509778D01*
X170841907Y-59515176D01*
X170842378Y-59520570D01*
X170842730Y-59525948D01*
X170855299Y-59813793D01*
X170859322Y-59905926D01*
X170859410Y-59908625D01*
X170859470Y-59911370D01*
X170859500Y-59914080D01*
X170859500Y-76753186D01*
X170858105Y-76771734D01*
X170857061Y-76778635D01*
X170854827Y-76783431D01*
X170854474Y-76788130D01*
X170853619Y-76791041D01*
X170852921Y-76790836D01*
X170849624Y-76806046D01*
X170846997Y-76812629D01*
X170845965Y-76812217D01*
X170837007Y-76824815D01*
X170835001Y-76833135D01*
X170829026Y-76838847D01*
X170827570Y-76841976D01*
X170822545Y-76845153D01*
X170810638Y-76861897D01*
X170811355Y-76862724D01*
X170808711Y-76865014D01*
X170808269Y-76865228D01*
X170808116Y-76865445D01*
X170806944Y-76866369D01*
X170806661Y-76866010D01*
X170794355Y-76871997D01*
X170784501Y-76881420D01*
X170751164Y-76893010D01*
X170750273Y-76893183D01*
X170732665Y-76895309D01*
X170628397Y-76900383D01*
X170621138Y-76900524D01*
X170613889Y-76900452D01*
X170606638Y-76900168D01*
X169957352Y-76855647D01*
X169875000Y-76850000D01*
X169874999Y-76850000D01*
X169788934Y-78950004D01*
X169540418Y-85013775D01*
X169540026Y-85019780D01*
X169539489Y-85025764D01*
X169538810Y-85031707D01*
X169515989Y-85196334D01*
X169513769Y-85208127D01*
X169510989Y-85219761D01*
X169507640Y-85231278D01*
X169456509Y-85379914D01*
X169452062Y-85391058D01*
X169447102Y-85401927D01*
X169441600Y-85412586D01*
X169362829Y-85548615D01*
X169356319Y-85558698D01*
X169349356Y-85568416D01*
X169341908Y-85577815D01*
X169238443Y-85696146D01*
X169230116Y-85704787D01*
X169221418Y-85712980D01*
X169212300Y-85720772D01*
X169088000Y-85816993D01*
X169078162Y-85823874D01*
X169068049Y-85830241D01*
X169057607Y-85836130D01*
X168917134Y-85906635D01*
X168906166Y-85911491D01*
X168895009Y-85915798D01*
X168883619Y-85919572D01*
X168732184Y-85961744D01*
X168720478Y-85964401D01*
X168708720Y-85966477D01*
X168696825Y-85967989D01*
X168531104Y-85980945D01*
X168525114Y-85981268D01*
X168519110Y-85981446D01*
X168513108Y-85981478D01*
X164210246Y-85900728D01*
X161191425Y-85844073D01*
X161185312Y-85843807D01*
X161179185Y-85843389D01*
X161173101Y-85842823D01*
X161004915Y-85822987D01*
X160992860Y-85820959D01*
X160980953Y-85818346D01*
X160969153Y-85815139D01*
X160816850Y-85765566D01*
X160805423Y-85761213D01*
X160794267Y-85756320D01*
X160783328Y-85750864D01*
X160643691Y-85672399D01*
X160633347Y-85665896D01*
X160623367Y-85658913D01*
X160613701Y-85651413D01*
X160492154Y-85547103D01*
X160483282Y-85538695D01*
X160474857Y-85529883D01*
X160466861Y-85520650D01*
X160368101Y-85394522D01*
X160361058Y-85384550D01*
X160358114Y-85379914D01*
X160354530Y-85374269D01*
X160348503Y-85363654D01*
X160276367Y-85220592D01*
X160271420Y-85209447D01*
X160267028Y-85198068D01*
X160263203Y-85186492D01*
X160220512Y-85032087D01*
X160217839Y-85020156D01*
X160215763Y-85008142D01*
X160214278Y-84996008D01*
X160202012Y-84827084D01*
X160201719Y-84820974D01*
X160201578Y-84814883D01*
X160201587Y-84808770D01*
X160235780Y-83501830D01*
X160400000Y-77225000D01*
X160361877Y-77224487D01*
X159401308Y-77211576D01*
X159401305Y-77211576D01*
X159387292Y-77211387D01*
X159387291Y-77211387D01*
X159181881Y-77208626D01*
X158990372Y-77206052D01*
X158955508Y-77200560D01*
X158928935Y-77192368D01*
X158887011Y-77169896D01*
X158869674Y-77155732D01*
X158869437Y-77155685D01*
X158853891Y-77146057D01*
X158696433Y-77031657D01*
X158485996Y-76924433D01*
X158261368Y-76851446D01*
X158261362Y-76851445D01*
X158028102Y-76814500D01*
X158028097Y-76814500D01*
X158028092Y-76814500D01*
X157791908Y-76814500D01*
X157791903Y-76814500D01*
X157791898Y-76814500D01*
X157558636Y-76851445D01*
X157558634Y-76851445D01*
X157558631Y-76851446D01*
X157334003Y-76924433D01*
X157156831Y-77014708D01*
X157123559Y-77031661D01*
X156969566Y-77143543D01*
X156969565Y-77143545D01*
X156938350Y-77160015D01*
X156909525Y-77170300D01*
X156866188Y-77177501D01*
X153905490Y-77137708D01*
X153905488Y-77137707D01*
X153905485Y-77137708D01*
X153903586Y-77137682D01*
X153903113Y-77137676D01*
X153901851Y-77137659D01*
X153898386Y-77137612D01*
X153863536Y-77132119D01*
X153833144Y-77122749D01*
X153796793Y-77104572D01*
X153696436Y-77031659D01*
X153696435Y-77031658D01*
X153696433Y-77031657D01*
X153624660Y-76995087D01*
X153624660Y-76995086D01*
X153624658Y-76995086D01*
X153486002Y-76924435D01*
X153485998Y-76924434D01*
X153485996Y-76924433D01*
X153261368Y-76851446D01*
X153261362Y-76851445D01*
X153028102Y-76814500D01*
X153028097Y-76814500D01*
X153028092Y-76814500D01*
X152791908Y-76814500D01*
X152791903Y-76814500D01*
X152791898Y-76814500D01*
X152558636Y-76851445D01*
X152558634Y-76851445D01*
X152558631Y-76851446D01*
X152334003Y-76924433D01*
X152156831Y-77014708D01*
X152123559Y-77031661D01*
X152060384Y-77077560D01*
X152060383Y-77077562D01*
X152029168Y-77094032D01*
X152000343Y-77104317D01*
X151957006Y-77111518D01*
X151126614Y-77100357D01*
X151100000Y-77100000D01*
X151099999Y-77100000D01*
X151099998Y-77100000D01*
X151027458Y-77173460D01*
X151015836Y-77185229D01*
X150800801Y-77402985D01*
X150800800Y-77402987D01*
X149433053Y-78788045D01*
X149428537Y-78792393D01*
X149423917Y-78796621D01*
X149419169Y-78800750D01*
X149285031Y-78911544D01*
X149274952Y-78919043D01*
X149264556Y-78925989D01*
X149253779Y-78932425D01*
X149108473Y-79009510D01*
X149097102Y-79014824D01*
X149085511Y-79019541D01*
X149073663Y-79023676D01*
X148915803Y-79069947D01*
X148903597Y-79072863D01*
X148891285Y-79075152D01*
X148878838Y-79076819D01*
X148705484Y-79091153D01*
X148699217Y-79091512D01*
X148692943Y-79091712D01*
X148686660Y-79091753D01*
X144848406Y-79019561D01*
X144813572Y-79013882D01*
X144807744Y-79012051D01*
X144749686Y-78973178D01*
X144721862Y-78909087D01*
X144733104Y-78840128D01*
X144779841Y-78788196D01*
X144781983Y-78786876D01*
X144822850Y-78770820D01*
X144868913Y-78761658D01*
X145005495Y-78705084D01*
X145128416Y-78622951D01*
X145232951Y-78518416D01*
X145315084Y-78395495D01*
X145371658Y-78258913D01*
X145400500Y-78113918D01*
X145400500Y-77966082D01*
X145400500Y-77966079D01*
X145400500Y-77966076D01*
X145371419Y-77819884D01*
X145369332Y-77815472D01*
X145328253Y-77716297D01*
X145328252Y-77716295D01*
X145315089Y-77684515D01*
X145315085Y-77684508D01*
X145315080Y-77684498D01*
X145232951Y-77561584D01*
X145232948Y-77561580D01*
X145232943Y-77561574D01*
X145128421Y-77457052D01*
X145128417Y-77457049D01*
X145005507Y-77374923D01*
X145005506Y-77374922D01*
X145005501Y-77374919D01*
X145005488Y-77374912D01*
X145005481Y-77374908D01*
X144868919Y-77318344D01*
X144868920Y-77318344D01*
X144868917Y-77318343D01*
X144868907Y-77318340D01*
X144868905Y-77318339D01*
X144868900Y-77318338D01*
X144723922Y-77289500D01*
X144723920Y-77289500D01*
X144723918Y-77289500D01*
X144576082Y-77289500D01*
X144576080Y-77289500D01*
X144576078Y-77289500D01*
X144431096Y-77318338D01*
X144431079Y-77318344D01*
X144294517Y-77374908D01*
X144294508Y-77374913D01*
X144294491Y-77374923D01*
X144171582Y-77457049D01*
X144171578Y-77457052D01*
X144067055Y-77561574D01*
X144067050Y-77561580D01*
X144067049Y-77561581D01*
X143984923Y-77684491D01*
X143984913Y-77684508D01*
X143984908Y-77684517D01*
X143928344Y-77821079D01*
X143928338Y-77821098D01*
X143899500Y-77966076D01*
X143899500Y-78069551D01*
X143894237Y-78087471D01*
X143928338Y-78258899D01*
X143928340Y-78258907D01*
X143928342Y-78258914D01*
X143984908Y-78395481D01*
X143984913Y-78395490D01*
X143984923Y-78395507D01*
X144067049Y-78518417D01*
X144067050Y-78518418D01*
X144067055Y-78518424D01*
X144171574Y-78622943D01*
X144171580Y-78622948D01*
X144171584Y-78622951D01*
X144294498Y-78705080D01*
X144294511Y-78705087D01*
X144294513Y-78705087D01*
X144294517Y-78705090D01*
X144361640Y-78732892D01*
X144431082Y-78761656D01*
X144431087Y-78761658D01*
X144433152Y-78762068D01*
X144435581Y-78762552D01*
X144445989Y-78767141D01*
X144453762Y-78767632D01*
X144468867Y-78774292D01*
X144474278Y-78777122D01*
X144479034Y-78781711D01*
X144484879Y-78784288D01*
X144489271Y-78787519D01*
X144500958Y-78802863D01*
X144524560Y-78825634D01*
X144527375Y-78837545D01*
X144531607Y-78843101D01*
X144533097Y-78861751D01*
X144540633Y-78893630D01*
X144536566Y-78905159D01*
X144537173Y-78912749D01*
X144527544Y-78930737D01*
X144517392Y-78959521D01*
X144508397Y-78966509D01*
X144504201Y-78974349D01*
X144483388Y-78985939D01*
X144462218Y-79002388D01*
X144462217Y-79002388D01*
X144461198Y-79002789D01*
X144449283Y-79004933D01*
X144443159Y-79008344D01*
X144433661Y-79007744D01*
X144413459Y-79011380D01*
X142207777Y-78969895D01*
X141197400Y-78950890D01*
X141196527Y-78950615D01*
X141146659Y-78949954D01*
X141146659Y-78949953D01*
X141146422Y-78949950D01*
X141146421Y-78949951D01*
X141146322Y-78949949D01*
X141146212Y-78949948D01*
X141146206Y-78949948D01*
X110124623Y-78538265D01*
X110118581Y-78538037D01*
X110112558Y-78537662D01*
X110106532Y-78537141D01*
X109939968Y-78518601D01*
X109928025Y-78516678D01*
X109916220Y-78514181D01*
X109904522Y-78511103D01*
X109753421Y-78463361D01*
X109742073Y-78459156D01*
X109730985Y-78454420D01*
X109720113Y-78449136D01*
X109581128Y-78372992D01*
X109570812Y-78366667D01*
X109560856Y-78359873D01*
X109551212Y-78352578D01*
X109439180Y-78258907D01*
X109429630Y-78250921D01*
X109420757Y-78242735D01*
X109412305Y-78234138D01*
X109404251Y-78225103D01*
X109304686Y-78101788D01*
X109297557Y-78092021D01*
X109294565Y-78087471D01*
X109290938Y-78081954D01*
X109284799Y-78071544D01*
X109211044Y-77931272D01*
X109205940Y-77920295D01*
X109201397Y-77909129D01*
X109197393Y-77897725D01*
X109172946Y-77815472D01*
X109152245Y-77745822D01*
X109149371Y-77734082D01*
X109147079Y-77722252D01*
X109145360Y-77710281D01*
X109129670Y-77543375D01*
X109129256Y-77537394D01*
X109128982Y-77531306D01*
X109128859Y-77525315D01*
X109129124Y-77457051D01*
X109173229Y-66033773D01*
X112229499Y-66033773D01*
X112262178Y-66198056D01*
X112262184Y-66198083D01*
X112326292Y-66352856D01*
X112419374Y-66492164D01*
X112537833Y-66610623D01*
X112537837Y-66610626D01*
X112630492Y-66672536D01*
X112630494Y-66672538D01*
X112677134Y-66703701D01*
X112677137Y-66703703D01*
X112831918Y-66767816D01*
X112996228Y-66800499D01*
X112996232Y-66800500D01*
X112996233Y-66800500D01*
X113163768Y-66800500D01*
X113163769Y-66800499D01*
X113328082Y-66767816D01*
X113482863Y-66703703D01*
X113622162Y-66610626D01*
X113740626Y-66492162D01*
X113833703Y-66352863D01*
X113897816Y-66198082D01*
X113930500Y-66033767D01*
X113930500Y-65866233D01*
X113897816Y-65701918D01*
X113833703Y-65547137D01*
X113802537Y-65500494D01*
X113740626Y-65407837D01*
X113740623Y-65407833D01*
X113622164Y-65289374D01*
X113482856Y-65196292D01*
X113328083Y-65132184D01*
X113328056Y-65132178D01*
X113163773Y-65099500D01*
X113163771Y-65099500D01*
X113163767Y-65099500D01*
X112996233Y-65099500D01*
X112996228Y-65099500D01*
X112996226Y-65099500D01*
X112831942Y-65132178D01*
X112831915Y-65132184D01*
X112677142Y-65196292D01*
X112537834Y-65289374D01*
X112419374Y-65407834D01*
X112326292Y-65547142D01*
X112262184Y-65701915D01*
X112262178Y-65701942D01*
X112229500Y-65866225D01*
X112229500Y-65866228D01*
X112229500Y-66033771D01*
X112229500Y-66033773D01*
X112229499Y-66033773D01*
X109173229Y-66033773D01*
X109174040Y-65823760D01*
X109174826Y-65620195D01*
X109178681Y-65607251D01*
X109175765Y-65579845D01*
X109175073Y-65565744D01*
X109220573Y-59912517D01*
X109239006Y-57622125D01*
X117239500Y-57622125D01*
X117239500Y-59417876D01*
X117239659Y-59419806D01*
X117239885Y-59421454D01*
X117245907Y-59477482D01*
X117265903Y-59531092D01*
X117296202Y-59612328D01*
X117296206Y-59612335D01*
X117315576Y-59638210D01*
X117382450Y-59727542D01*
X117382452Y-59727544D01*
X117382455Y-59727547D01*
X117497664Y-59813793D01*
X117497671Y-59813797D01*
X117524813Y-59823920D01*
X117632517Y-59864091D01*
X117692127Y-59870500D01*
X117701240Y-59870499D01*
X117716011Y-59874448D01*
X117716737Y-59874890D01*
X117718905Y-59875260D01*
X117745031Y-59882930D01*
X117797781Y-59914227D01*
X118333850Y-60450296D01*
X118367335Y-60511619D01*
X118362351Y-60581311D01*
X118320479Y-60637244D01*
X118308173Y-60645362D01*
X118282996Y-60659898D01*
X118282990Y-60659903D01*
X118189903Y-60752990D01*
X118189898Y-60752996D01*
X118175362Y-60778173D01*
X118124793Y-60826387D01*
X118056185Y-60839607D01*
X117991322Y-60813637D01*
X117980296Y-60803850D01*
X117474728Y-60298282D01*
X117474727Y-60298282D01*
X117435380Y-60352438D01*
X117338903Y-60541784D01*
X117273242Y-60743865D01*
X117272040Y-60751459D01*
X117240000Y-60953753D01*
X117240000Y-61166246D01*
X117263773Y-61316340D01*
X117271715Y-61366485D01*
X117271716Y-61366493D01*
X117273242Y-61376133D01*
X117327449Y-61542962D01*
X117338904Y-61578217D01*
X117432252Y-61761420D01*
X117435374Y-61767548D01*
X117435375Y-61767550D01*
X117470674Y-61816137D01*
X117474728Y-61821716D01*
X117980297Y-61316147D01*
X118041619Y-61282663D01*
X118111311Y-61287647D01*
X118167244Y-61329519D01*
X118175363Y-61341828D01*
X118189896Y-61367000D01*
X118189899Y-61367004D01*
X118189901Y-61367007D01*
X118282993Y-61460099D01*
X118308169Y-61474634D01*
X118356384Y-61525202D01*
X118369606Y-61593809D01*
X118343638Y-61658673D01*
X118333849Y-61669702D01*
X117828321Y-62175229D01*
X117828282Y-62175269D01*
X117828282Y-62175270D01*
X117882452Y-62214626D01*
X117882451Y-62214626D01*
X117884115Y-62215474D01*
X117891857Y-62221058D01*
X117894490Y-62224448D01*
X117904450Y-62231469D01*
X117913868Y-62240363D01*
X117949092Y-62300700D01*
X117946104Y-62370505D01*
X117909932Y-62424229D01*
X117902929Y-62430297D01*
X117885944Y-62441776D01*
X117886331Y-62442407D01*
X117882172Y-62444955D01*
X117710216Y-62569886D01*
X117559892Y-62720210D01*
X117434949Y-62892182D01*
X117338417Y-63081637D01*
X117337946Y-63082578D01*
X117336862Y-63086453D01*
X117325071Y-63122744D01*
X117325070Y-63122746D01*
X117272752Y-63283762D01*
X117255386Y-63393411D01*
X117242250Y-63476349D01*
X117241582Y-63480568D01*
X117239500Y-63493712D01*
X117239500Y-63706286D01*
X117272754Y-63916244D01*
X117272754Y-63916247D01*
X117321761Y-64067073D01*
X117338441Y-64118407D01*
X117338443Y-64118412D01*
X117338444Y-64118414D01*
X117434951Y-64307820D01*
X117559890Y-64479786D01*
X117710213Y-64630109D01*
X117882182Y-64755050D01*
X117882190Y-64755054D01*
X117882693Y-64755363D01*
X117884174Y-64756496D01*
X117886122Y-64757912D01*
X117886086Y-64757960D01*
X117903034Y-64770934D01*
X117913315Y-64780643D01*
X117948541Y-64840983D01*
X117945552Y-64910789D01*
X117909383Y-64964507D01*
X117902227Y-64970708D01*
X117885814Y-64982723D01*
X117882190Y-64984943D01*
X117710210Y-65109892D01*
X117559892Y-65260210D01*
X117533726Y-65296225D01*
X117436531Y-65430005D01*
X117434949Y-65432182D01*
X117338445Y-65621580D01*
X117272752Y-65823759D01*
X117239500Y-66033707D01*
X117239500Y-66246290D01*
X117264942Y-66406925D01*
X117270437Y-66441620D01*
X117272754Y-66456243D01*
X117332179Y-66639135D01*
X117338444Y-66658414D01*
X117434951Y-66847820D01*
X117559890Y-67019786D01*
X117710213Y-67170109D01*
X117882182Y-67295050D01*
X117882190Y-67295054D01*
X117882693Y-67295363D01*
X117884174Y-67296496D01*
X117886122Y-67297912D01*
X117886086Y-67297960D01*
X117903034Y-67310934D01*
X117913315Y-67320643D01*
X117948541Y-67380983D01*
X117945552Y-67450789D01*
X117909383Y-67504507D01*
X117902227Y-67510708D01*
X117885814Y-67522723D01*
X117882190Y-67524943D01*
X117710210Y-67649892D01*
X117559892Y-67800210D01*
X117532157Y-67838385D01*
X117442865Y-67961287D01*
X117434949Y-67972182D01*
X117338417Y-68161637D01*
X117337946Y-68162579D01*
X117336863Y-68166448D01*
X117324500Y-68204500D01*
X117313883Y-68237178D01*
X117313882Y-68237180D01*
X117313881Y-68237182D01*
X117272752Y-68363762D01*
X117249198Y-68512482D01*
X117249198Y-68512483D01*
X117239500Y-68573708D01*
X117239500Y-68786286D01*
X117242768Y-68806919D01*
X117242768Y-68806921D01*
X117268792Y-68971233D01*
X117272752Y-68996235D01*
X117272754Y-68996243D01*
X117326883Y-69162836D01*
X117338442Y-69198410D01*
X117338443Y-69198412D01*
X117431218Y-69380495D01*
X117434951Y-69387820D01*
X117559890Y-69559786D01*
X117710213Y-69710109D01*
X117882182Y-69835050D01*
X117882190Y-69835054D01*
X117882693Y-69835363D01*
X117884174Y-69836496D01*
X117886122Y-69837912D01*
X117886086Y-69837960D01*
X117903034Y-69850934D01*
X117913315Y-69860643D01*
X117948541Y-69920983D01*
X117945552Y-69990789D01*
X117909383Y-70044507D01*
X117902227Y-70050708D01*
X117885814Y-70062723D01*
X117882190Y-70064943D01*
X117710210Y-70189892D01*
X117559892Y-70340210D01*
X117512267Y-70405761D01*
X117460463Y-70477065D01*
X117434949Y-70512182D01*
X117338445Y-70701580D01*
X117272752Y-70903759D01*
X117239500Y-71113707D01*
X117239500Y-71326291D01*
X117270471Y-71521835D01*
X117270472Y-71521843D01*
X117272753Y-71536239D01*
X117272753Y-71536241D01*
X117272754Y-71536243D01*
X117277144Y-71549756D01*
X117277148Y-71549770D01*
X117319362Y-71679688D01*
X117338008Y-71737074D01*
X117338015Y-71737097D01*
X117338442Y-71738411D01*
X117394035Y-71847518D01*
X117434951Y-71927820D01*
X117559890Y-72099786D01*
X117710213Y-72250109D01*
X117882182Y-72375050D01*
X117882190Y-72375054D01*
X117882693Y-72375363D01*
X117884174Y-72376496D01*
X117886122Y-72377912D01*
X117886086Y-72377960D01*
X117903034Y-72390934D01*
X117913315Y-72400643D01*
X117948541Y-72460983D01*
X117945552Y-72530789D01*
X117909383Y-72584507D01*
X117902227Y-72590708D01*
X117885814Y-72602723D01*
X117882190Y-72604943D01*
X117710210Y-72729892D01*
X117559892Y-72880210D01*
X117559890Y-72880213D01*
X117441247Y-73043514D01*
X117434949Y-73052182D01*
X117338445Y-73241580D01*
X117272753Y-73443759D01*
X117243519Y-73628339D01*
X117243519Y-73628340D01*
X117239500Y-73653714D01*
X117239500Y-73866290D01*
X117246463Y-73910255D01*
X117248785Y-73924912D01*
X117263378Y-74017049D01*
X117272754Y-74076243D01*
X117290577Y-74131098D01*
X117324173Y-74234496D01*
X117338442Y-74278410D01*
X117338443Y-74278412D01*
X117420645Y-74439744D01*
X117434951Y-74467820D01*
X117559890Y-74639786D01*
X117710213Y-74790109D01*
X117882182Y-74915050D01*
X117882190Y-74915054D01*
X117882693Y-74915363D01*
X117884174Y-74916496D01*
X117886122Y-74917912D01*
X117886086Y-74917960D01*
X117903034Y-74930934D01*
X117913315Y-74940643D01*
X117948541Y-75000983D01*
X117945552Y-75070789D01*
X117909383Y-75124507D01*
X117902227Y-75130708D01*
X117885814Y-75142723D01*
X117882190Y-75144943D01*
X117710210Y-75269892D01*
X117559892Y-75420210D01*
X117522572Y-75471578D01*
X117435814Y-75590992D01*
X117434949Y-75592182D01*
X117338445Y-75781580D01*
X117272752Y-75983759D01*
X117239500Y-76193707D01*
X117239500Y-76406291D01*
X117272561Y-76615032D01*
X117272752Y-76616237D01*
X117272754Y-76616242D01*
X117335682Y-76809919D01*
X117338442Y-76818411D01*
X117380244Y-76900452D01*
X117434951Y-77007820D01*
X117559890Y-77179786D01*
X117559892Y-77179788D01*
X117710216Y-77330112D01*
X117882169Y-77455042D01*
X117882177Y-77455047D01*
X117882179Y-77455048D01*
X117882181Y-77455049D01*
X117882182Y-77455050D01*
X117882200Y-77455060D01*
X117882442Y-77455182D01*
X118071588Y-77551557D01*
X118273757Y-77617246D01*
X118483713Y-77650500D01*
X118483714Y-77650500D01*
X118696286Y-77650500D01*
X118696287Y-77650500D01*
X118906243Y-77617246D01*
X119108412Y-77551557D01*
X119297816Y-77455051D01*
X119319789Y-77439086D01*
X119469786Y-77330109D01*
X119469786Y-77330108D01*
X119469844Y-77330066D01*
X119470605Y-77329290D01*
X119620104Y-77179792D01*
X119620106Y-77179788D01*
X119620109Y-77179786D01*
X119706341Y-77061096D01*
X119740044Y-77014708D01*
X119740933Y-77013482D01*
X119745048Y-77007820D01*
X119745047Y-77007820D01*
X119745051Y-77007816D01*
X119841557Y-76818412D01*
X119907246Y-76616243D01*
X119940500Y-76406287D01*
X119940500Y-76193713D01*
X119907246Y-75983757D01*
X119841557Y-75781588D01*
X119791718Y-75683773D01*
X122059499Y-75683773D01*
X122092178Y-75848056D01*
X122092184Y-75848083D01*
X122156292Y-76002856D01*
X122249374Y-76142164D01*
X122367834Y-76260624D01*
X122367837Y-76260626D01*
X122434978Y-76305488D01*
X122507137Y-76353703D01*
X122661918Y-76417816D01*
X122826228Y-76450499D01*
X122826232Y-76450500D01*
X122826233Y-76450500D01*
X122993768Y-76450500D01*
X122993769Y-76450499D01*
X123158082Y-76417816D01*
X123312863Y-76353703D01*
X123452162Y-76260626D01*
X123570626Y-76142162D01*
X123663703Y-76002863D01*
X123727816Y-75848082D01*
X123760500Y-75683767D01*
X123760500Y-75516233D01*
X123730481Y-75365318D01*
X123728594Y-75330085D01*
X123729912Y-75315358D01*
X123755494Y-75250340D01*
X123809580Y-75210419D01*
X123828353Y-75203324D01*
X123847994Y-75197700D01*
X123959603Y-75175499D01*
X123978913Y-75171658D01*
X124115495Y-75115084D01*
X124238416Y-75032951D01*
X124342951Y-74928416D01*
X124425084Y-74805495D01*
X124481658Y-74668913D01*
X124501551Y-74568907D01*
X124510500Y-74523920D01*
X124510500Y-74397471D01*
X128774237Y-74397471D01*
X128808338Y-74568899D01*
X128808340Y-74568907D01*
X128808343Y-74568917D01*
X128815973Y-74587338D01*
X128864908Y-74705481D01*
X128864913Y-74705490D01*
X128864923Y-74705507D01*
X128947049Y-74828417D01*
X128947050Y-74828418D01*
X128947055Y-74828424D01*
X129051574Y-74932943D01*
X129051580Y-74932948D01*
X129051584Y-74932951D01*
X129174498Y-75015080D01*
X129174511Y-75015087D01*
X129174513Y-75015087D01*
X129174517Y-75015090D01*
X129217863Y-75033044D01*
X129279418Y-75058540D01*
X129309770Y-75076548D01*
X129312091Y-75078419D01*
X129320375Y-75085094D01*
X129360224Y-75142486D01*
X129362719Y-75212311D01*
X129332569Y-75266948D01*
X129326886Y-75272944D01*
X129305778Y-75290745D01*
X129194156Y-75365330D01*
X129191574Y-75367055D01*
X129087055Y-75471574D01*
X129087050Y-75471580D01*
X129087049Y-75471581D01*
X129004923Y-75594491D01*
X129004913Y-75594508D01*
X129004908Y-75594517D01*
X128948344Y-75731079D01*
X128948338Y-75731098D01*
X128919500Y-75876076D01*
X128919500Y-75979551D01*
X128914237Y-75997471D01*
X128948338Y-76168899D01*
X128948344Y-76168919D01*
X129004908Y-76305481D01*
X129004912Y-76305488D01*
X129004919Y-76305501D01*
X129004922Y-76305506D01*
X129004923Y-76305507D01*
X129087049Y-76428417D01*
X129087050Y-76428418D01*
X129087055Y-76428424D01*
X129191574Y-76532943D01*
X129191580Y-76532948D01*
X129191584Y-76532951D01*
X129314498Y-76615080D01*
X129314511Y-76615087D01*
X129451082Y-76671656D01*
X129451087Y-76671658D01*
X129451091Y-76671658D01*
X129451092Y-76671659D01*
X129451357Y-76671711D01*
X129451358Y-76671712D01*
X129451382Y-76671717D01*
X129596077Y-76700500D01*
X129596079Y-76700500D01*
X129596082Y-76700500D01*
X129743920Y-76700500D01*
X129841462Y-76681096D01*
X129888913Y-76671658D01*
X129895427Y-76668959D01*
X129905866Y-76666619D01*
X129909765Y-76666873D01*
X129919730Y-76664328D01*
X129935278Y-76662656D01*
X130004022Y-76675056D01*
X130010594Y-76678346D01*
X130058200Y-76720343D01*
X130117049Y-76808417D01*
X130117050Y-76808418D01*
X130117055Y-76808424D01*
X130221574Y-76912943D01*
X130221580Y-76912948D01*
X130221584Y-76912951D01*
X130344498Y-76995080D01*
X130344511Y-76995087D01*
X130481082Y-77051656D01*
X130481087Y-77051658D01*
X130481091Y-77051658D01*
X130481092Y-77051659D01*
X130481357Y-77051711D01*
X130481358Y-77051712D01*
X130481382Y-77051717D01*
X130626077Y-77080500D01*
X130626079Y-77080500D01*
X130626082Y-77080500D01*
X130773920Y-77080500D01*
X130871462Y-77061096D01*
X130918913Y-77051658D01*
X131055495Y-76995084D01*
X131178416Y-76912951D01*
X131282951Y-76808416D01*
X131365084Y-76685495D01*
X131370816Y-76671658D01*
X131421656Y-76548917D01*
X131421658Y-76548913D01*
X131441234Y-76450499D01*
X131450500Y-76403920D01*
X131450500Y-76256079D01*
X131450500Y-76256076D01*
X131421717Y-76111383D01*
X131421419Y-76109885D01*
X131419338Y-76105487D01*
X131365087Y-75974511D01*
X131365080Y-75974498D01*
X131282951Y-75851584D01*
X131282948Y-75851580D01*
X131282943Y-75851574D01*
X131178424Y-75747055D01*
X131178418Y-75747050D01*
X131178417Y-75747049D01*
X131055507Y-75664923D01*
X131055506Y-75664922D01*
X131055501Y-75664919D01*
X131055488Y-75664912D01*
X131055481Y-75664908D01*
X130918919Y-75608344D01*
X130918920Y-75608344D01*
X130918917Y-75608343D01*
X130918907Y-75608340D01*
X130918905Y-75608339D01*
X130918900Y-75608338D01*
X130773922Y-75579500D01*
X130773920Y-75579500D01*
X130773918Y-75579500D01*
X130626082Y-75579500D01*
X130626080Y-75579500D01*
X130626078Y-75579500D01*
X130496162Y-75605342D01*
X130496151Y-75605344D01*
X130481093Y-75608340D01*
X130481090Y-75608341D01*
X130481088Y-75608341D01*
X130481087Y-75608342D01*
X130476117Y-75610400D01*
X130467349Y-75612613D01*
X130462912Y-75612442D01*
X130450258Y-75615672D01*
X130434718Y-75617342D01*
X130365967Y-75604937D01*
X130359398Y-75601649D01*
X130311798Y-75559655D01*
X130252947Y-75471578D01*
X130148424Y-75367055D01*
X130148418Y-75367050D01*
X130148417Y-75367049D01*
X130025508Y-75284923D01*
X130025498Y-75284917D01*
X130025496Y-75284916D01*
X129982117Y-75266948D01*
X129920569Y-75241454D01*
X129890224Y-75223447D01*
X129879616Y-75214899D01*
X129839770Y-75157506D01*
X129837279Y-75087681D01*
X129867432Y-75033046D01*
X129873118Y-75027048D01*
X129894210Y-75009260D01*
X130008416Y-74932951D01*
X130112951Y-74828416D01*
X130195084Y-74705495D01*
X130223260Y-74637471D01*
X132224237Y-74637471D01*
X132257661Y-74805495D01*
X132258340Y-74808907D01*
X132258343Y-74808917D01*
X132262485Y-74818917D01*
X132314908Y-74945481D01*
X132314913Y-74945490D01*
X132314923Y-74945507D01*
X132397049Y-75068417D01*
X132397050Y-75068418D01*
X132397055Y-75068424D01*
X132501574Y-75172943D01*
X132501580Y-75172948D01*
X132501584Y-75172951D01*
X132624498Y-75255080D01*
X132624511Y-75255087D01*
X132696533Y-75284919D01*
X132755492Y-75309340D01*
X132759887Y-75311419D01*
X132761085Y-75311657D01*
X132761087Y-75311658D01*
X132761088Y-75311658D01*
X132761091Y-75311658D01*
X132761092Y-75311659D01*
X132799670Y-75319333D01*
X132906076Y-75340500D01*
X132906079Y-75340500D01*
X132906082Y-75340500D01*
X133053920Y-75340500D01*
X133151462Y-75321096D01*
X133198913Y-75311658D01*
X133263479Y-75284914D01*
X133330065Y-75257333D01*
X133352219Y-75250504D01*
X133358797Y-75249134D01*
X133373656Y-75246039D01*
X133439662Y-75250309D01*
X133451845Y-75254545D01*
X133470494Y-75262806D01*
X133473765Y-75264590D01*
X133474505Y-75265084D01*
X133474507Y-75265085D01*
X133474509Y-75265086D01*
X133586940Y-75311656D01*
X133605475Y-75319333D01*
X133605477Y-75319335D01*
X133609884Y-75321419D01*
X133756076Y-75350500D01*
X133756079Y-75350500D01*
X133756082Y-75350500D01*
X133903920Y-75350500D01*
X134001462Y-75331096D01*
X134048913Y-75321658D01*
X134169486Y-75271714D01*
X134185488Y-75265087D01*
X134185488Y-75265086D01*
X134185495Y-75265084D01*
X134308416Y-75182951D01*
X134412951Y-75078416D01*
X134495084Y-74955495D01*
X134551658Y-74818913D01*
X134562104Y-74766398D01*
X134580500Y-74673920D01*
X134580500Y-74526079D01*
X134580500Y-74526076D01*
X134551419Y-74379884D01*
X134549332Y-74375472D01*
X134547512Y-74371079D01*
X134508164Y-74276082D01*
X134495087Y-74244511D01*
X134495080Y-74244498D01*
X134412951Y-74121584D01*
X134412948Y-74121580D01*
X134412943Y-74121574D01*
X134308424Y-74017055D01*
X134308417Y-74017049D01*
X134185507Y-73934923D01*
X134185506Y-73934922D01*
X134185501Y-73934919D01*
X134185488Y-73934912D01*
X134185481Y-73934908D01*
X134048919Y-73878344D01*
X134048920Y-73878344D01*
X134048917Y-73878343D01*
X134048907Y-73878340D01*
X134048905Y-73878339D01*
X134048900Y-73878338D01*
X133903922Y-73849500D01*
X133903920Y-73849500D01*
X133903918Y-73849500D01*
X133756082Y-73849500D01*
X133756080Y-73849500D01*
X133756077Y-73849500D01*
X133611104Y-73878336D01*
X133611096Y-73878338D01*
X133611088Y-73878341D01*
X133479927Y-73932669D01*
X133457746Y-73939505D01*
X133436321Y-73943965D01*
X133370317Y-73939686D01*
X133358763Y-73935667D01*
X133341300Y-73926958D01*
X133340859Y-73927783D01*
X133335487Y-73924911D01*
X133198919Y-73868344D01*
X133198920Y-73868344D01*
X133198917Y-73868343D01*
X133198907Y-73868340D01*
X133198905Y-73868339D01*
X133198900Y-73868338D01*
X133053922Y-73839500D01*
X133053920Y-73839500D01*
X133053918Y-73839500D01*
X132906082Y-73839500D01*
X132906080Y-73839500D01*
X132906078Y-73839500D01*
X132761096Y-73868338D01*
X132761079Y-73868344D01*
X132624517Y-73924908D01*
X132624513Y-73924911D01*
X132624491Y-73924923D01*
X132501581Y-74007049D01*
X132501580Y-74007050D01*
X132501574Y-74007055D01*
X132397055Y-74111574D01*
X132397050Y-74111580D01*
X132397049Y-74111581D01*
X132314923Y-74234491D01*
X132314920Y-74234495D01*
X132314919Y-74234498D01*
X132314914Y-74234506D01*
X132314908Y-74234517D01*
X132258344Y-74371079D01*
X132258338Y-74371098D01*
X132229500Y-74516076D01*
X132229500Y-74619551D01*
X132224237Y-74637471D01*
X130223260Y-74637471D01*
X130251658Y-74568913D01*
X130251658Y-74568908D01*
X130251660Y-74568906D01*
X130280500Y-74423920D01*
X130280500Y-74276076D01*
X130251419Y-74129884D01*
X130249333Y-74125474D01*
X130236505Y-74094505D01*
X130236504Y-74094503D01*
X130228939Y-74076239D01*
X130195087Y-73994511D01*
X130195080Y-73994498D01*
X130112951Y-73871584D01*
X130112948Y-73871580D01*
X130112943Y-73871574D01*
X130008424Y-73767055D01*
X130008418Y-73767050D01*
X130008417Y-73767049D01*
X129885507Y-73684923D01*
X129885506Y-73684922D01*
X129885501Y-73684919D01*
X129885488Y-73684912D01*
X129885481Y-73684908D01*
X129748919Y-73628344D01*
X129748920Y-73628344D01*
X129748917Y-73628343D01*
X129748907Y-73628340D01*
X129748905Y-73628339D01*
X129748900Y-73628338D01*
X129603922Y-73599500D01*
X129603920Y-73599500D01*
X129603918Y-73599500D01*
X129456082Y-73599500D01*
X129456080Y-73599500D01*
X129456078Y-73599500D01*
X129311096Y-73628338D01*
X129311079Y-73628344D01*
X129174517Y-73684908D01*
X129174508Y-73684913D01*
X129174491Y-73684923D01*
X129051581Y-73767049D01*
X129051580Y-73767050D01*
X129051574Y-73767055D01*
X128947055Y-73871574D01*
X128947050Y-73871580D01*
X128947049Y-73871581D01*
X128864923Y-73994491D01*
X128864913Y-73994508D01*
X128864908Y-73994517D01*
X128808344Y-74131079D01*
X128808338Y-74131098D01*
X128779500Y-74276076D01*
X128779500Y-74379551D01*
X128774237Y-74397471D01*
X124510500Y-74397471D01*
X124510500Y-74376079D01*
X124510499Y-74376076D01*
X124494668Y-74296491D01*
X124494209Y-74294182D01*
X124481659Y-74231092D01*
X124481658Y-74231091D01*
X124481658Y-74231087D01*
X124440235Y-74131082D01*
X124425087Y-74094511D01*
X124425080Y-74094498D01*
X124342951Y-73971584D01*
X124342948Y-73971580D01*
X124342943Y-73971574D01*
X124238424Y-73867055D01*
X124238418Y-73867050D01*
X124238417Y-73867049D01*
X124115507Y-73784923D01*
X124115506Y-73784922D01*
X124115501Y-73784919D01*
X124115488Y-73784912D01*
X124115481Y-73784908D01*
X123978919Y-73728344D01*
X123978920Y-73728344D01*
X123978917Y-73728343D01*
X123978907Y-73728340D01*
X123978905Y-73728339D01*
X123978900Y-73728338D01*
X123833922Y-73699500D01*
X123833920Y-73699500D01*
X123833918Y-73699500D01*
X123686082Y-73699500D01*
X123686080Y-73699500D01*
X123686078Y-73699500D01*
X123541096Y-73728338D01*
X123541079Y-73728344D01*
X123404517Y-73784908D01*
X123404508Y-73784913D01*
X123404491Y-73784923D01*
X123281581Y-73867049D01*
X123281580Y-73867050D01*
X123281574Y-73867055D01*
X123177055Y-73971574D01*
X123177050Y-73971580D01*
X123177049Y-73971581D01*
X123094923Y-74094491D01*
X123094910Y-74094513D01*
X123094909Y-74094515D01*
X123038344Y-74231079D01*
X123038338Y-74231098D01*
X123009500Y-74376076D01*
X123009500Y-74376077D01*
X123009500Y-74376079D01*
X123009500Y-74376082D01*
X123009500Y-74523918D01*
X123009500Y-74523920D01*
X123009499Y-74523920D01*
X123022449Y-74589021D01*
X123023037Y-74594297D01*
X123022223Y-74598904D01*
X123023304Y-74619066D01*
X123022067Y-74632889D01*
X123011466Y-74659832D01*
X123010889Y-74663103D01*
X123009653Y-74664439D01*
X122996486Y-74697908D01*
X122939815Y-74738773D01*
X122929432Y-74742436D01*
X122888178Y-74749500D01*
X122826226Y-74749500D01*
X122661942Y-74782178D01*
X122661915Y-74782184D01*
X122507142Y-74846292D01*
X122367834Y-74939374D01*
X122249374Y-75057834D01*
X122156292Y-75197142D01*
X122092184Y-75351915D01*
X122092178Y-75351942D01*
X122059500Y-75516225D01*
X122059500Y-75516228D01*
X122059500Y-75683771D01*
X122059500Y-75683773D01*
X122059499Y-75683773D01*
X119791718Y-75683773D01*
X119745051Y-75592184D01*
X119744701Y-75591702D01*
X119744187Y-75590994D01*
X119744187Y-75590995D01*
X119744185Y-75590992D01*
X119738400Y-75583029D01*
X119738402Y-75583028D01*
X119738394Y-75583021D01*
X119620109Y-75420213D01*
X119469786Y-75269890D01*
X119469782Y-75269886D01*
X119297824Y-75144953D01*
X119297258Y-75144606D01*
X119295627Y-75143357D01*
X119293901Y-75142103D01*
X119293932Y-75142059D01*
X119276960Y-75129062D01*
X119266683Y-75119357D01*
X119231457Y-75059017D01*
X119234445Y-74989212D01*
X119270613Y-74935493D01*
X119277783Y-74929281D01*
X119294187Y-74917275D01*
X119297816Y-74915051D01*
X119297817Y-74915050D01*
X119319789Y-74899086D01*
X119469786Y-74790109D01*
X119469787Y-74790106D01*
X119469790Y-74790105D01*
X119469792Y-74790104D01*
X119469793Y-74790102D01*
X119469847Y-74790063D01*
X119470605Y-74789290D01*
X119620104Y-74639792D01*
X119620106Y-74639788D01*
X119620109Y-74639786D01*
X119745048Y-74467820D01*
X119745047Y-74467820D01*
X119745051Y-74467816D01*
X119745053Y-74467810D01*
X119765445Y-74439744D01*
X119773730Y-74411529D01*
X119841557Y-74278412D01*
X119907246Y-74076243D01*
X119940500Y-73866287D01*
X119940500Y-73653713D01*
X119907246Y-73443757D01*
X119841557Y-73241588D01*
X119745051Y-73052184D01*
X119745049Y-73052181D01*
X119745048Y-73052179D01*
X119744702Y-73051703D01*
X119744700Y-73051699D01*
X119620112Y-72880216D01*
X119469782Y-72729886D01*
X119297824Y-72604953D01*
X119297258Y-72604606D01*
X119295627Y-72603357D01*
X119293901Y-72602103D01*
X119293932Y-72602059D01*
X119276960Y-72589062D01*
X119266683Y-72579357D01*
X119231457Y-72519017D01*
X119234445Y-72449212D01*
X119250741Y-72425008D01*
X129419237Y-72425008D01*
X129452376Y-72591602D01*
X129452377Y-72591608D01*
X129452384Y-72591629D01*
X129507065Y-72723644D01*
X129507070Y-72723654D01*
X129586468Y-72842480D01*
X129586469Y-72842481D01*
X129586474Y-72842487D01*
X129687511Y-72943524D01*
X129687517Y-72943529D01*
X129687521Y-72943532D01*
X129806340Y-73022925D01*
X129806346Y-73022928D01*
X129806347Y-73022929D01*
X129933423Y-73075566D01*
X129933949Y-73075790D01*
X129934127Y-73075937D01*
X129937179Y-73077380D01*
X130078539Y-73105500D01*
X130078542Y-73105500D01*
X130078545Y-73105500D01*
X130221457Y-73105500D01*
X130315751Y-73086742D01*
X130361620Y-73077619D01*
X130493653Y-73022929D01*
X130612479Y-72943532D01*
X130713532Y-72842479D01*
X130792929Y-72723653D01*
X130794279Y-72720393D01*
X130812284Y-72690044D01*
X130820994Y-72679235D01*
X130878384Y-72639387D01*
X130948205Y-72636892D01*
X130958877Y-72639615D01*
X130997101Y-72656660D01*
X131099498Y-72725080D01*
X131099511Y-72725087D01*
X131236082Y-72781656D01*
X131236087Y-72781658D01*
X131236091Y-72781658D01*
X131236092Y-72781659D01*
X131236357Y-72781711D01*
X131236358Y-72781712D01*
X131236382Y-72781717D01*
X131381077Y-72810500D01*
X131381079Y-72810500D01*
X131381082Y-72810500D01*
X131528920Y-72810500D01*
X131626462Y-72791096D01*
X131673913Y-72781658D01*
X131794486Y-72731714D01*
X131810488Y-72725087D01*
X131810488Y-72725086D01*
X131810495Y-72725084D01*
X131933416Y-72642951D01*
X132037951Y-72538416D01*
X132067571Y-72494087D01*
X132092637Y-72456572D01*
X132094294Y-72455187D01*
X132095009Y-72453149D01*
X132116211Y-72430325D01*
X132123122Y-72424549D01*
X132139468Y-72417433D01*
X132146248Y-72411768D01*
X132161415Y-72407879D01*
X132187180Y-72396663D01*
X132256150Y-72407835D01*
X132308132Y-72454522D01*
X132326561Y-72515265D01*
X132326744Y-72520384D01*
X132326072Y-72528729D01*
X132326659Y-72531190D01*
X132325640Y-72534097D01*
X132324440Y-72549006D01*
X132306524Y-72639074D01*
X132306524Y-72742551D01*
X132301261Y-72760471D01*
X132335362Y-72931899D01*
X132335368Y-72931919D01*
X132391932Y-73068481D01*
X132391936Y-73068488D01*
X132391942Y-73068500D01*
X132391947Y-73068507D01*
X132474073Y-73191417D01*
X132474074Y-73191418D01*
X132474079Y-73191424D01*
X132578598Y-73295943D01*
X132578604Y-73295948D01*
X132578608Y-73295951D01*
X132701522Y-73378080D01*
X132701535Y-73378087D01*
X132838106Y-73434656D01*
X132838111Y-73434658D01*
X132838115Y-73434658D01*
X132838116Y-73434659D01*
X132838381Y-73434711D01*
X132838382Y-73434712D01*
X132838406Y-73434717D01*
X132983101Y-73463500D01*
X133130944Y-73463500D01*
X133130945Y-73463500D01*
X133180569Y-73453628D01*
X133230194Y-73443757D01*
X133230195Y-73443757D01*
X133241706Y-73441466D01*
X133275937Y-73434658D01*
X133412519Y-73378084D01*
X133535440Y-73295951D01*
X133639975Y-73191416D01*
X133722108Y-73068495D01*
X133732461Y-73043497D01*
X133750463Y-73013162D01*
X133760275Y-73000986D01*
X133817661Y-72961146D01*
X133830584Y-72956844D01*
X133869741Y-72950500D01*
X133903920Y-72950500D01*
X134001462Y-72931096D01*
X134048913Y-72921658D01*
X134185495Y-72865084D01*
X134308416Y-72782951D01*
X134412951Y-72678416D01*
X134495084Y-72555495D01*
X134551658Y-72418913D01*
X134571333Y-72320005D01*
X134580500Y-72273920D01*
X134580500Y-72126079D01*
X134580500Y-72126076D01*
X134551419Y-71979885D01*
X134549334Y-71975476D01*
X134549333Y-71975475D01*
X134537946Y-71947984D01*
X134495087Y-71844511D01*
X134495080Y-71844498D01*
X134412951Y-71721584D01*
X134412948Y-71721580D01*
X134412943Y-71721574D01*
X134308424Y-71617055D01*
X134308418Y-71617050D01*
X134308417Y-71617049D01*
X134305362Y-71615008D01*
X135699237Y-71615008D01*
X135732376Y-71781602D01*
X135732377Y-71781608D01*
X135732384Y-71781629D01*
X135787065Y-71913644D01*
X135787070Y-71913654D01*
X135866468Y-72032480D01*
X135866469Y-72032481D01*
X135866474Y-72032487D01*
X135967511Y-72133524D01*
X135967517Y-72133529D01*
X135967521Y-72133532D01*
X136086340Y-72212925D01*
X136086346Y-72212928D01*
X136086347Y-72212929D01*
X136213423Y-72265566D01*
X136213949Y-72265790D01*
X136214127Y-72265937D01*
X136217179Y-72267380D01*
X136364517Y-72296689D01*
X136364505Y-72296747D01*
X136380404Y-72299836D01*
X136397744Y-72304928D01*
X136456516Y-72342698D01*
X136461328Y-72348251D01*
X136489235Y-72405266D01*
X136512375Y-72521601D01*
X136512377Y-72521609D01*
X136512384Y-72521629D01*
X136567065Y-72653644D01*
X136567070Y-72653654D01*
X136646468Y-72772480D01*
X136646469Y-72772481D01*
X136646474Y-72772487D01*
X136747511Y-72873524D01*
X136747517Y-72873529D01*
X136747521Y-72873532D01*
X136866340Y-72952925D01*
X136866346Y-72952928D01*
X136866347Y-72952929D01*
X136993423Y-73005566D01*
X136993949Y-73005790D01*
X136994127Y-73005937D01*
X136997179Y-73007380D01*
X137138539Y-73035500D01*
X137138542Y-73035500D01*
X137138545Y-73035500D01*
X137281457Y-73035500D01*
X137375751Y-73016742D01*
X137421620Y-73007619D01*
X137553653Y-72952929D01*
X137672479Y-72873532D01*
X137773532Y-72772479D01*
X137852929Y-72653653D01*
X137907619Y-72521620D01*
X137926837Y-72425008D01*
X137932419Y-72396946D01*
X137932419Y-72396943D01*
X137932745Y-72395308D01*
X137935500Y-72381457D01*
X137935500Y-72238542D01*
X137935500Y-72238539D01*
X137907381Y-72097181D01*
X137905301Y-72092784D01*
X137903670Y-72088848D01*
X139659499Y-72088848D01*
X139690257Y-72243471D01*
X139690264Y-72243502D01*
X139750598Y-72389165D01*
X139750603Y-72389174D01*
X139750613Y-72389191D01*
X139838211Y-72520290D01*
X139838212Y-72520291D01*
X139838217Y-72520297D01*
X139949701Y-72631781D01*
X139949707Y-72631786D01*
X139949711Y-72631789D01*
X140080814Y-72719390D01*
X140080827Y-72719397D01*
X140226498Y-72779735D01*
X140226503Y-72779737D01*
X140381153Y-72810499D01*
X140381156Y-72810500D01*
X140381158Y-72810500D01*
X140538844Y-72810500D01*
X140538845Y-72810499D01*
X140693497Y-72779737D01*
X140828919Y-72723644D01*
X140839172Y-72719397D01*
X140839172Y-72719396D01*
X140839179Y-72719394D01*
X140970289Y-72631789D01*
X141081789Y-72520289D01*
X141169394Y-72389179D01*
X141173588Y-72379055D01*
X141194143Y-72329430D01*
X141229737Y-72243497D01*
X141252303Y-72130050D01*
X141260500Y-72088845D01*
X141260500Y-71930972D01*
X141260066Y-71928976D01*
X141253324Y-71895082D01*
X141229739Y-71776510D01*
X141229736Y-71776501D01*
X141227107Y-71770155D01*
X141206989Y-71721584D01*
X141169397Y-71630827D01*
X141169390Y-71630814D01*
X141081789Y-71499711D01*
X141081786Y-71499707D01*
X141081781Y-71499701D01*
X140970297Y-71388217D01*
X140970290Y-71388211D01*
X140970287Y-71388209D01*
X140839191Y-71300613D01*
X140839190Y-71300612D01*
X140839185Y-71300609D01*
X140839172Y-71300602D01*
X140839165Y-71300598D01*
X140693502Y-71240264D01*
X140693471Y-71240257D01*
X140538847Y-71209500D01*
X140538845Y-71209500D01*
X140538842Y-71209500D01*
X140381158Y-71209500D01*
X140381155Y-71209500D01*
X140381153Y-71209500D01*
X140226527Y-71240257D01*
X140226496Y-71240264D01*
X140080833Y-71300598D01*
X140080824Y-71300603D01*
X140080807Y-71300613D01*
X139949712Y-71388209D01*
X139949709Y-71388211D01*
X139949701Y-71388217D01*
X139838217Y-71499701D01*
X139838212Y-71499707D01*
X139838211Y-71499708D01*
X139750613Y-71630807D01*
X139750603Y-71630824D01*
X139750598Y-71630833D01*
X139690264Y-71776496D01*
X139690257Y-71776527D01*
X139659500Y-71931150D01*
X139659500Y-71931153D01*
X139659500Y-72088846D01*
X139659500Y-72088848D01*
X139659499Y-72088848D01*
X137903670Y-72088848D01*
X137903668Y-72088842D01*
X137855486Y-71972518D01*
X137852931Y-71966352D01*
X137852930Y-71966350D01*
X137852928Y-71966345D01*
X137852927Y-71966343D01*
X137773530Y-71847518D01*
X137773529Y-71847517D01*
X137773524Y-71847511D01*
X137672487Y-71746474D01*
X137672481Y-71746469D01*
X137672480Y-71746468D01*
X137553653Y-71667070D01*
X137553654Y-71667070D01*
X137553644Y-71667065D01*
X137421629Y-71612384D01*
X137421609Y-71612377D01*
X137421601Y-71612375D01*
X137275483Y-71583311D01*
X137275494Y-71583253D01*
X137259598Y-71580164D01*
X137242257Y-71575072D01*
X137231749Y-71568319D01*
X137183483Y-71537301D01*
X137183480Y-71537297D01*
X137183479Y-71537297D01*
X137183478Y-71537295D01*
X137178671Y-71531748D01*
X137150764Y-71474734D01*
X137148558Y-71463646D01*
X137127620Y-71358385D01*
X137127619Y-71358384D01*
X137127380Y-71357179D01*
X137125294Y-71352768D01*
X137116536Y-71331625D01*
X137078692Y-71240261D01*
X137072930Y-71226349D01*
X137072925Y-71226340D01*
X136993532Y-71107521D01*
X136993529Y-71107517D01*
X136993524Y-71107511D01*
X136892487Y-71006474D01*
X136892481Y-71006469D01*
X136892480Y-71006468D01*
X136773653Y-70927070D01*
X136773654Y-70927070D01*
X136773644Y-70927065D01*
X136641629Y-70872384D01*
X136641609Y-70872377D01*
X136641601Y-70872375D01*
X136501460Y-70844500D01*
X136501457Y-70844500D01*
X136501455Y-70844500D01*
X136358545Y-70844500D01*
X136358543Y-70844500D01*
X136358538Y-70844500D01*
X136218397Y-70872375D01*
X136218389Y-70872377D01*
X136218369Y-70872384D01*
X136086354Y-70927065D01*
X136086344Y-70927070D01*
X135967518Y-71006468D01*
X135967517Y-71006469D01*
X135967511Y-71006474D01*
X135866474Y-71107511D01*
X135866469Y-71107517D01*
X135866468Y-71107518D01*
X135787070Y-71226344D01*
X135787065Y-71226354D01*
X135732384Y-71358369D01*
X135732377Y-71358389D01*
X135732375Y-71358397D01*
X135704500Y-71498537D01*
X135704500Y-71597088D01*
X135699237Y-71615008D01*
X134305362Y-71615008D01*
X134276249Y-71595555D01*
X134185507Y-71534923D01*
X134185506Y-71534922D01*
X134185501Y-71534919D01*
X134185488Y-71534912D01*
X134185481Y-71534908D01*
X134048919Y-71478344D01*
X134048920Y-71478344D01*
X134048917Y-71478343D01*
X134048907Y-71478340D01*
X134048905Y-71478339D01*
X134048900Y-71478338D01*
X133903922Y-71449500D01*
X133903920Y-71449500D01*
X133903918Y-71449500D01*
X133756082Y-71449500D01*
X133756080Y-71449500D01*
X133756078Y-71449500D01*
X133611096Y-71478338D01*
X133611079Y-71478344D01*
X133474517Y-71534908D01*
X133474508Y-71534913D01*
X133474491Y-71534923D01*
X133351581Y-71617049D01*
X133351580Y-71617050D01*
X133351574Y-71617055D01*
X133247055Y-71721574D01*
X133247050Y-71721580D01*
X133247049Y-71721581D01*
X133164923Y-71844490D01*
X133164918Y-71844498D01*
X133164914Y-71844505D01*
X133164911Y-71844514D01*
X133164518Y-71845464D01*
X133164503Y-71845500D01*
X133164503Y-71845501D01*
X133154567Y-71869487D01*
X133136561Y-71899835D01*
X133126756Y-71912003D01*
X133112107Y-71922174D01*
X133110725Y-71923890D01*
X133108634Y-71924585D01*
X133069365Y-71951853D01*
X133069362Y-71951854D01*
X133056443Y-71956154D01*
X133017283Y-71962500D01*
X132983102Y-71962500D01*
X132838120Y-71991338D01*
X132838103Y-71991344D01*
X132701541Y-72047908D01*
X132701532Y-72047913D01*
X132701515Y-72047923D01*
X132578605Y-72130049D01*
X132578604Y-72130050D01*
X132578598Y-72130055D01*
X132474077Y-72234576D01*
X132474074Y-72234580D01*
X132419389Y-72316422D01*
X132407819Y-72331184D01*
X132403031Y-72336423D01*
X132398614Y-72339099D01*
X132395819Y-72342666D01*
X132393435Y-72344659D01*
X132392956Y-72344086D01*
X132381494Y-72355126D01*
X132378078Y-72357462D01*
X132357005Y-72364309D01*
X132343275Y-72372629D01*
X132332297Y-72372338D01*
X132311629Y-72379055D01*
X132280901Y-72370979D01*
X132273430Y-72370782D01*
X132269204Y-72367905D01*
X132244054Y-72361296D01*
X132218344Y-72333285D01*
X132215671Y-72331466D01*
X132214805Y-72329430D01*
X132196808Y-72309822D01*
X132184450Y-72264636D01*
X132184377Y-72263689D01*
X132186392Y-72229970D01*
X132205500Y-72133918D01*
X132205500Y-72073681D01*
X132207050Y-72065796D01*
X132206155Y-72060949D01*
X132214064Y-72030141D01*
X132214739Y-72026715D01*
X132215001Y-72026073D01*
X132217258Y-72020733D01*
X132217438Y-72020119D01*
X132218809Y-72016770D01*
X132238899Y-71991620D01*
X132254846Y-71969653D01*
X132254047Y-71968730D01*
X132262989Y-71960981D01*
X132296736Y-71940132D01*
X132405495Y-71895084D01*
X132528416Y-71812951D01*
X132578442Y-71762925D01*
X132632950Y-71708418D01*
X132632951Y-71708416D01*
X132677693Y-71641455D01*
X132715084Y-71585495D01*
X132716013Y-71583253D01*
X132716341Y-71582463D01*
X132730361Y-71548613D01*
X132740828Y-71523343D01*
X132771658Y-71448913D01*
X132783733Y-71388210D01*
X132800500Y-71303920D01*
X132800500Y-71156079D01*
X132800500Y-71156076D01*
X132771419Y-71009884D01*
X132769332Y-71005472D01*
X132729118Y-70908385D01*
X132715087Y-70874511D01*
X132715080Y-70874498D01*
X132632951Y-70751584D01*
X132632948Y-70751580D01*
X132632943Y-70751574D01*
X132528424Y-70647055D01*
X132528418Y-70647050D01*
X132528417Y-70647049D01*
X132405507Y-70564923D01*
X132405506Y-70564922D01*
X132405501Y-70564919D01*
X132405488Y-70564912D01*
X132405481Y-70564908D01*
X132268919Y-70508344D01*
X132268920Y-70508344D01*
X132268917Y-70508343D01*
X132268907Y-70508340D01*
X132268905Y-70508339D01*
X132268900Y-70508338D01*
X132123922Y-70479500D01*
X132123920Y-70479500D01*
X132123918Y-70479500D01*
X131976082Y-70479500D01*
X131976080Y-70479500D01*
X131976078Y-70479500D01*
X131831096Y-70508338D01*
X131831079Y-70508344D01*
X131694517Y-70564908D01*
X131694508Y-70564913D01*
X131694491Y-70564923D01*
X131571581Y-70647049D01*
X131571580Y-70647050D01*
X131571574Y-70647055D01*
X131467055Y-70751574D01*
X131467050Y-70751580D01*
X131467049Y-70751581D01*
X131384923Y-70874491D01*
X131384913Y-70874508D01*
X131384908Y-70874517D01*
X131328344Y-71011079D01*
X131328338Y-71011098D01*
X131299500Y-71156076D01*
X131299500Y-71211391D01*
X131299499Y-71211397D01*
X131299500Y-71211400D01*
X131294475Y-71246335D01*
X131290070Y-71261333D01*
X131252303Y-71320097D01*
X131252291Y-71320106D01*
X131252291Y-71320108D01*
X131252289Y-71320108D01*
X131242010Y-71329017D01*
X131208254Y-71349870D01*
X131099504Y-71394914D01*
X131099503Y-71394915D01*
X130976581Y-71477049D01*
X130976580Y-71477050D01*
X130976574Y-71477055D01*
X130872055Y-71581574D01*
X130872050Y-71581580D01*
X130872049Y-71581581D01*
X130789923Y-71704490D01*
X130789918Y-71704498D01*
X130789912Y-71704512D01*
X130779772Y-71728992D01*
X130779770Y-71728995D01*
X130779770Y-71728997D01*
X130761759Y-71759349D01*
X130753050Y-71770155D01*
X130695656Y-71810001D01*
X130625838Y-71812492D01*
X130625833Y-71812490D01*
X130625830Y-71812491D01*
X130625826Y-71812489D01*
X130615169Y-71809769D01*
X130576943Y-71792723D01*
X130525964Y-71758660D01*
X130493659Y-71737074D01*
X130493658Y-71737073D01*
X130493653Y-71737070D01*
X130493654Y-71737070D01*
X130493644Y-71737065D01*
X130361629Y-71682384D01*
X130361609Y-71682377D01*
X130361601Y-71682375D01*
X130221460Y-71654500D01*
X130221457Y-71654500D01*
X130221455Y-71654500D01*
X130078545Y-71654500D01*
X130078543Y-71654500D01*
X130078538Y-71654500D01*
X129938397Y-71682375D01*
X129938389Y-71682377D01*
X129938369Y-71682384D01*
X129806354Y-71737065D01*
X129806344Y-71737070D01*
X129687518Y-71816468D01*
X129687517Y-71816469D01*
X129687511Y-71816474D01*
X129586474Y-71917511D01*
X129586469Y-71917517D01*
X129586468Y-71917518D01*
X129507070Y-72036344D01*
X129507065Y-72036354D01*
X129452384Y-72168369D01*
X129452377Y-72168389D01*
X129452375Y-72168397D01*
X129424500Y-72308537D01*
X129424500Y-72407088D01*
X129419237Y-72425008D01*
X119250741Y-72425008D01*
X119270612Y-72395495D01*
X119277783Y-72389281D01*
X119294201Y-72377266D01*
X119297815Y-72375052D01*
X119322212Y-72357326D01*
X119344894Y-72340847D01*
X119469786Y-72250109D01*
X119469787Y-72250107D01*
X119469847Y-72250063D01*
X119470605Y-72249290D01*
X119620104Y-72099792D01*
X119620106Y-72099788D01*
X119620109Y-72099786D01*
X119669010Y-72032479D01*
X119742626Y-71931155D01*
X119742630Y-71931148D01*
X119745051Y-71927816D01*
X119841557Y-71738412D01*
X119881654Y-71615008D01*
X125439237Y-71615008D01*
X125472376Y-71781602D01*
X125472377Y-71781608D01*
X125472384Y-71781629D01*
X125527065Y-71913644D01*
X125527070Y-71913654D01*
X125606468Y-72032480D01*
X125606469Y-72032481D01*
X125606474Y-72032487D01*
X125707511Y-72133524D01*
X125707517Y-72133529D01*
X125707521Y-72133532D01*
X125826340Y-72212925D01*
X125826346Y-72212928D01*
X125826347Y-72212929D01*
X125953423Y-72265566D01*
X125953949Y-72265790D01*
X125954127Y-72265937D01*
X125957179Y-72267380D01*
X126098539Y-72295500D01*
X126098542Y-72295500D01*
X126098545Y-72295500D01*
X126241457Y-72295500D01*
X126349953Y-72273918D01*
X126381620Y-72267619D01*
X126513653Y-72212929D01*
X126513659Y-72212925D01*
X126533975Y-72199351D01*
X126585308Y-72165050D01*
X126632479Y-72133532D01*
X126733532Y-72032479D01*
X126812929Y-71913653D01*
X126867619Y-71781620D01*
X126882180Y-71708419D01*
X126895500Y-71641457D01*
X126895500Y-71623719D01*
X126897027Y-71614080D01*
X126898838Y-71610259D01*
X126900521Y-71598554D01*
X126903707Y-71587701D01*
X126925927Y-71553119D01*
X126926958Y-71550946D01*
X126927568Y-71550566D01*
X126941477Y-71528920D01*
X127005031Y-71499891D01*
X127074171Y-71509822D01*
X127076299Y-71510794D01*
X127127911Y-71554708D01*
X127134564Y-71564664D01*
X127140477Y-71573513D01*
X127146470Y-71582483D01*
X127247511Y-71683524D01*
X127247517Y-71683529D01*
X127247521Y-71683532D01*
X127366340Y-71762925D01*
X127366346Y-71762928D01*
X127366347Y-71762929D01*
X127493423Y-71815566D01*
X127493949Y-71815790D01*
X127494127Y-71815937D01*
X127497179Y-71817380D01*
X127638539Y-71845500D01*
X127781457Y-71845500D01*
X127781458Y-71845500D01*
X127820952Y-71837643D01*
X127899942Y-71821931D01*
X127921620Y-71817619D01*
X128053653Y-71762929D01*
X128172479Y-71683532D01*
X128273532Y-71582479D01*
X128352929Y-71463653D01*
X128407619Y-71331620D01*
X128416742Y-71285751D01*
X128435500Y-71191457D01*
X128435500Y-71048542D01*
X128435500Y-71048539D01*
X128407410Y-70907329D01*
X128405790Y-70903949D01*
X128405566Y-70903423D01*
X128352929Y-70776347D01*
X128352928Y-70776346D01*
X128352925Y-70776340D01*
X128273532Y-70657521D01*
X128273529Y-70657517D01*
X128273524Y-70657511D01*
X128172487Y-70556474D01*
X128172481Y-70556469D01*
X128172480Y-70556468D01*
X128053653Y-70477070D01*
X128053654Y-70477070D01*
X128053644Y-70477065D01*
X127921629Y-70422384D01*
X127921609Y-70422377D01*
X127921601Y-70422375D01*
X127781460Y-70394500D01*
X127781457Y-70394500D01*
X127781455Y-70394500D01*
X127638545Y-70394500D01*
X127638543Y-70394500D01*
X127638538Y-70394500D01*
X127498397Y-70422375D01*
X127498389Y-70422377D01*
X127498369Y-70422384D01*
X127366354Y-70477065D01*
X127366344Y-70477070D01*
X127247518Y-70556468D01*
X127247517Y-70556469D01*
X127247511Y-70556474D01*
X127146474Y-70657511D01*
X127146469Y-70657517D01*
X127146468Y-70657518D01*
X127067070Y-70776344D01*
X127067065Y-70776354D01*
X127012384Y-70908369D01*
X127012379Y-70908385D01*
X127012377Y-70908394D01*
X126984500Y-71048537D01*
X126984500Y-71056517D01*
X126980947Y-71070634D01*
X126981842Y-71082054D01*
X126979476Y-71091455D01*
X126976289Y-71102308D01*
X126970846Y-71110776D01*
X126969732Y-71115206D01*
X126964422Y-71125089D01*
X126956463Y-71133155D01*
X126938514Y-71161085D01*
X126921034Y-71169066D01*
X126915352Y-71174827D01*
X126901709Y-71177891D01*
X126874957Y-71190108D01*
X126858111Y-71187685D01*
X126847181Y-71190141D01*
X126828998Y-71183499D01*
X126805799Y-71180163D01*
X126805781Y-71180155D01*
X126803658Y-71179185D01*
X126793485Y-71170526D01*
X126781553Y-71166168D01*
X126769112Y-71149781D01*
X126752089Y-71135292D01*
X126733536Y-71107527D01*
X126733529Y-71107517D01*
X126733524Y-71107511D01*
X126632487Y-71006474D01*
X126632481Y-71006469D01*
X126632480Y-71006468D01*
X126513653Y-70927070D01*
X126513654Y-70927070D01*
X126513644Y-70927065D01*
X126381629Y-70872384D01*
X126381609Y-70872377D01*
X126381601Y-70872375D01*
X126241460Y-70844500D01*
X126241457Y-70844500D01*
X126241455Y-70844500D01*
X126098545Y-70844500D01*
X126098543Y-70844500D01*
X126098538Y-70844500D01*
X125958397Y-70872375D01*
X125958389Y-70872377D01*
X125958369Y-70872384D01*
X125826354Y-70927065D01*
X125826344Y-70927070D01*
X125707518Y-71006468D01*
X125707517Y-71006469D01*
X125707511Y-71006474D01*
X125606474Y-71107511D01*
X125606469Y-71107517D01*
X125606468Y-71107518D01*
X125527070Y-71226344D01*
X125527065Y-71226354D01*
X125472384Y-71358369D01*
X125472377Y-71358389D01*
X125472375Y-71358397D01*
X125444500Y-71498537D01*
X125444500Y-71597088D01*
X125439237Y-71615008D01*
X119881654Y-71615008D01*
X119907246Y-71536243D01*
X119940500Y-71326287D01*
X119940500Y-71113713D01*
X119907246Y-70903757D01*
X119841557Y-70701588D01*
X119745051Y-70512184D01*
X119745049Y-70512181D01*
X119745048Y-70512179D01*
X119744702Y-70511703D01*
X119744700Y-70511699D01*
X119620112Y-70340216D01*
X119469782Y-70189886D01*
X119297824Y-70064953D01*
X119297258Y-70064606D01*
X119295627Y-70063357D01*
X119293901Y-70062103D01*
X119293932Y-70062059D01*
X119276960Y-70049062D01*
X119266683Y-70039357D01*
X119231457Y-69979017D01*
X119234445Y-69909212D01*
X119270612Y-69855495D01*
X119277783Y-69849281D01*
X119294201Y-69837266D01*
X119297812Y-69835052D01*
X119297816Y-69835051D01*
X119334079Y-69808703D01*
X119334082Y-69808703D01*
X119469769Y-69710121D01*
X119469786Y-69710109D01*
X119469787Y-69710107D01*
X119469847Y-69710063D01*
X119470605Y-69709290D01*
X119620104Y-69559792D01*
X119620106Y-69559788D01*
X119620109Y-69559786D01*
X119745048Y-69387820D01*
X119745047Y-69387820D01*
X119745051Y-69387816D01*
X119745053Y-69387810D01*
X119765445Y-69359744D01*
X119773730Y-69331529D01*
X119841557Y-69198412D01*
X119907246Y-68996243D01*
X119940500Y-68786287D01*
X119940500Y-68573713D01*
X119907246Y-68363757D01*
X119841557Y-68161588D01*
X119807633Y-68095008D01*
X124879237Y-68095008D01*
X124912376Y-68261602D01*
X124912377Y-68261608D01*
X124912384Y-68261629D01*
X124967065Y-68393644D01*
X124967070Y-68393654D01*
X125046468Y-68512480D01*
X125046469Y-68512481D01*
X125046474Y-68512487D01*
X125147511Y-68613524D01*
X125147517Y-68613529D01*
X125147521Y-68613532D01*
X125266340Y-68692925D01*
X125266346Y-68692928D01*
X125266347Y-68692929D01*
X125393423Y-68745566D01*
X125393949Y-68745790D01*
X125394127Y-68745937D01*
X125397179Y-68747380D01*
X125538539Y-68775500D01*
X125681457Y-68775500D01*
X125681458Y-68775500D01*
X125796172Y-68752681D01*
X125821620Y-68747619D01*
X125953653Y-68692929D01*
X126072479Y-68613532D01*
X126173532Y-68512479D01*
X126252929Y-68393653D01*
X126307619Y-68261620D01*
X126335500Y-68121455D01*
X126335500Y-68055008D01*
X129109237Y-68055008D01*
X129142376Y-68221602D01*
X129142377Y-68221608D01*
X129142384Y-68221629D01*
X129197065Y-68353644D01*
X129197070Y-68353654D01*
X129276468Y-68472480D01*
X129276469Y-68472481D01*
X129276474Y-68472487D01*
X129368695Y-68564708D01*
X129368698Y-68564710D01*
X129389849Y-68592964D01*
X129397341Y-68606684D01*
X129412195Y-68674948D01*
X129412066Y-68676754D01*
X129392698Y-68734956D01*
X129388519Y-68741459D01*
X129371883Y-68762103D01*
X129308978Y-68825007D01*
X129308970Y-68825017D01*
X129308964Y-68825025D01*
X129229570Y-68943844D01*
X129229565Y-68943854D01*
X129174884Y-69075869D01*
X129174877Y-69075889D01*
X129174875Y-69075897D01*
X129147000Y-69216037D01*
X129147000Y-69314588D01*
X129141738Y-69332507D01*
X129146999Y-69358957D01*
X129155367Y-69401027D01*
X129174876Y-69499102D01*
X129174877Y-69499108D01*
X129174884Y-69499129D01*
X129229565Y-69631144D01*
X129229570Y-69631154D01*
X129308966Y-69749977D01*
X129308969Y-69749981D01*
X129308974Y-69749987D01*
X129410011Y-69851024D01*
X129410017Y-69851029D01*
X129410021Y-69851032D01*
X129528840Y-69930425D01*
X129528846Y-69930428D01*
X129528847Y-69930429D01*
X129655923Y-69983066D01*
X129656449Y-69983290D01*
X129656627Y-69983437D01*
X129659679Y-69984880D01*
X129801039Y-70013000D01*
X129801042Y-70013000D01*
X129801045Y-70013000D01*
X129943957Y-70013000D01*
X130038251Y-69994242D01*
X130084120Y-69985119D01*
X130216153Y-69930429D01*
X130334979Y-69851032D01*
X130397238Y-69788773D01*
X138744499Y-69788773D01*
X138777178Y-69953056D01*
X138777184Y-69953082D01*
X138841292Y-70107856D01*
X138934374Y-70247164D01*
X139052833Y-70365623D01*
X139052837Y-70365626D01*
X139145492Y-70427536D01*
X139145494Y-70427538D01*
X139192134Y-70458701D01*
X139192137Y-70458703D01*
X139346918Y-70522816D01*
X139511228Y-70555499D01*
X139511232Y-70555500D01*
X139511233Y-70555500D01*
X139678768Y-70555500D01*
X139678769Y-70555499D01*
X139843082Y-70522816D01*
X139997863Y-70458703D01*
X140077101Y-70405757D01*
X140108926Y-70390530D01*
X140123846Y-70385858D01*
X140193698Y-70384609D01*
X140200800Y-70386557D01*
X140255664Y-70418453D01*
X140295912Y-70458701D01*
X140327836Y-70490625D01*
X140376016Y-70522818D01*
X140376015Y-70522818D01*
X140467134Y-70583701D01*
X140467137Y-70583703D01*
X140621918Y-70647816D01*
X140786228Y-70680499D01*
X140786232Y-70680500D01*
X140786233Y-70680500D01*
X140953768Y-70680500D01*
X140953769Y-70680499D01*
X141118082Y-70647816D01*
X141272863Y-70583703D01*
X141412162Y-70490626D01*
X141530626Y-70372162D01*
X141623703Y-70232863D01*
X141669667Y-70121896D01*
X151564500Y-70121896D01*
X151564500Y-70358102D01*
X151600232Y-70583701D01*
X151601446Y-70591368D01*
X151674433Y-70815996D01*
X151674434Y-70815997D01*
X151674435Y-70816002D01*
X151731030Y-70927072D01*
X151731030Y-70927074D01*
X151731031Y-70927074D01*
X151781657Y-71026433D01*
X151920483Y-71217510D01*
X152087490Y-71384517D01*
X152278567Y-71523343D01*
X152377991Y-71574002D01*
X152482560Y-71627283D01*
X152489875Y-71631011D01*
X152493630Y-71632070D01*
X152562663Y-71654500D01*
X152713631Y-71703553D01*
X152946903Y-71740500D01*
X152946908Y-71740500D01*
X153183096Y-71740500D01*
X153183097Y-71740500D01*
X153416368Y-71703553D01*
X153477995Y-71683529D01*
X153640992Y-71630568D01*
X153851433Y-71523343D01*
X154042510Y-71384517D01*
X154209517Y-71217510D01*
X154348343Y-71026433D01*
X154455568Y-70815992D01*
X154528553Y-70591368D01*
X154529767Y-70583701D01*
X154534234Y-70555500D01*
X154534234Y-70555499D01*
X154546271Y-70479500D01*
X154565500Y-70358097D01*
X154565500Y-70121902D01*
X154565499Y-70121896D01*
X156564500Y-70121896D01*
X156564500Y-70358102D01*
X156600232Y-70583701D01*
X156601446Y-70591368D01*
X156674433Y-70815996D01*
X156674434Y-70815997D01*
X156674435Y-70816002D01*
X156731030Y-70927072D01*
X156731030Y-70927074D01*
X156731031Y-70927074D01*
X156781657Y-71026433D01*
X156920483Y-71217510D01*
X157087490Y-71384517D01*
X157278567Y-71523343D01*
X157377991Y-71574002D01*
X157482560Y-71627283D01*
X157489875Y-71631011D01*
X157493630Y-71632070D01*
X157562663Y-71654500D01*
X157713631Y-71703553D01*
X157946903Y-71740500D01*
X157946908Y-71740500D01*
X158183096Y-71740500D01*
X158183097Y-71740500D01*
X158416368Y-71703553D01*
X158477995Y-71683529D01*
X158640992Y-71630568D01*
X158851433Y-71523343D01*
X159042510Y-71384517D01*
X159209517Y-71217510D01*
X159348343Y-71026433D01*
X159455568Y-70815992D01*
X159528553Y-70591368D01*
X159529767Y-70583701D01*
X159534234Y-70555500D01*
X159534234Y-70555499D01*
X159546271Y-70479500D01*
X159565500Y-70358097D01*
X159565500Y-70121902D01*
X159556127Y-70062723D01*
X159548003Y-70011433D01*
X159548003Y-70011432D01*
X159548002Y-70011428D01*
X159545700Y-69996896D01*
X161484500Y-69996896D01*
X161484500Y-70233102D01*
X161515296Y-70427537D01*
X161521446Y-70466368D01*
X161594433Y-70690996D01*
X161701657Y-70901433D01*
X161840483Y-71092510D01*
X162007490Y-71259517D01*
X162198567Y-71398343D01*
X162297804Y-71448907D01*
X162353037Y-71477050D01*
X162402554Y-71502280D01*
X162402553Y-71502280D01*
X162409877Y-71506011D01*
X162413629Y-71507070D01*
X162459393Y-71521939D01*
X162503414Y-71536242D01*
X162503415Y-71536243D01*
X162541486Y-71548613D01*
X162633631Y-71578553D01*
X162866903Y-71615500D01*
X162866908Y-71615500D01*
X163103096Y-71615500D01*
X163103097Y-71615500D01*
X163336368Y-71578553D01*
X163378649Y-71564815D01*
X163560992Y-71505568D01*
X163771433Y-71398343D01*
X163962510Y-71259517D01*
X164129517Y-71092510D01*
X164268343Y-70901433D01*
X164375568Y-70690992D01*
X164448553Y-70466368D01*
X164454703Y-70427537D01*
X164455520Y-70422380D01*
X164455520Y-70422379D01*
X164465702Y-70358096D01*
X164485500Y-70233097D01*
X164485500Y-69996902D01*
X164485499Y-69996896D01*
X166484500Y-69996896D01*
X166484500Y-70233102D01*
X166515296Y-70427537D01*
X166521446Y-70466368D01*
X166594433Y-70690996D01*
X166701657Y-70901433D01*
X166840483Y-71092510D01*
X167007490Y-71259517D01*
X167198567Y-71398343D01*
X167297804Y-71448907D01*
X167353037Y-71477050D01*
X167402554Y-71502280D01*
X167402553Y-71502280D01*
X167409877Y-71506011D01*
X167413629Y-71507070D01*
X167459393Y-71521939D01*
X167503414Y-71536242D01*
X167503415Y-71536243D01*
X167541486Y-71548613D01*
X167633631Y-71578553D01*
X167866903Y-71615500D01*
X167866908Y-71615500D01*
X168103096Y-71615500D01*
X168103097Y-71615500D01*
X168336368Y-71578553D01*
X168378649Y-71564815D01*
X168560992Y-71505568D01*
X168771433Y-71398343D01*
X168962510Y-71259517D01*
X169129517Y-71092510D01*
X169268343Y-70901433D01*
X169375568Y-70690992D01*
X169448553Y-70466368D01*
X169454703Y-70427537D01*
X169455520Y-70422380D01*
X169455520Y-70422379D01*
X169465702Y-70358096D01*
X169485500Y-70233097D01*
X169485500Y-69996902D01*
X169448553Y-69763631D01*
X169414689Y-69659412D01*
X169414689Y-69659410D01*
X169377069Y-69543625D01*
X169376008Y-69539865D01*
X169375011Y-69537859D01*
X169373216Y-69534154D01*
X169372283Y-69532560D01*
X169268342Y-69328566D01*
X169129517Y-69137490D01*
X168962510Y-68970483D01*
X168771433Y-68831657D01*
X168722878Y-68806917D01*
X168560996Y-68724433D01*
X168336368Y-68651446D01*
X168336362Y-68651445D01*
X168103102Y-68614500D01*
X168103097Y-68614500D01*
X168103092Y-68614500D01*
X167866908Y-68614500D01*
X167866903Y-68614500D01*
X167866898Y-68614500D01*
X167633636Y-68651445D01*
X167633634Y-68651445D01*
X167633631Y-68651446D01*
X167409003Y-68724433D01*
X167353566Y-68752680D01*
X167198565Y-68831657D01*
X167167126Y-68854500D01*
X167122141Y-68887184D01*
X167019360Y-68961858D01*
X167011981Y-68965990D01*
X166835990Y-69141981D01*
X166831858Y-69149360D01*
X166796219Y-69198413D01*
X166701661Y-69328560D01*
X166701653Y-69328573D01*
X166671469Y-69387813D01*
X166594433Y-69539003D01*
X166521446Y-69763631D01*
X166521445Y-69763634D01*
X166521445Y-69763636D01*
X166484500Y-69996896D01*
X164485499Y-69996896D01*
X164448553Y-69763631D01*
X164414689Y-69659412D01*
X164414689Y-69659410D01*
X164377069Y-69543625D01*
X164376008Y-69539865D01*
X164375011Y-69537859D01*
X164373216Y-69534154D01*
X164372283Y-69532560D01*
X164268342Y-69328566D01*
X164129517Y-69137490D01*
X163962510Y-68970483D01*
X163771433Y-68831657D01*
X163722878Y-68806917D01*
X163560996Y-68724433D01*
X163336368Y-68651446D01*
X163336362Y-68651445D01*
X163103102Y-68614500D01*
X163103097Y-68614500D01*
X163103092Y-68614500D01*
X162866908Y-68614500D01*
X162866903Y-68614500D01*
X162866898Y-68614500D01*
X162633636Y-68651445D01*
X162633634Y-68651445D01*
X162633631Y-68651446D01*
X162409003Y-68724433D01*
X162353566Y-68752680D01*
X162198565Y-68831657D01*
X162167126Y-68854500D01*
X162122141Y-68887184D01*
X162019360Y-68961858D01*
X162011981Y-68965990D01*
X161835990Y-69141981D01*
X161831858Y-69149360D01*
X161796219Y-69198413D01*
X161701661Y-69328560D01*
X161701653Y-69328573D01*
X161671469Y-69387813D01*
X161594433Y-69539003D01*
X161521446Y-69763631D01*
X161521445Y-69763634D01*
X161521445Y-69763636D01*
X161484500Y-69996896D01*
X159545700Y-69996896D01*
X159538761Y-69953082D01*
X159537432Y-69944692D01*
X159528553Y-69888632D01*
X159470263Y-69709235D01*
X159458180Y-69672046D01*
X159458178Y-69672041D01*
X159455568Y-69664008D01*
X159455566Y-69664005D01*
X159455566Y-69664003D01*
X159453327Y-69659609D01*
X159453017Y-69658814D01*
X159452283Y-69657560D01*
X159352722Y-69462162D01*
X159352720Y-69462157D01*
X159348348Y-69453577D01*
X159348343Y-69453567D01*
X159209517Y-69262490D01*
X159042510Y-69095483D01*
X158851433Y-68956657D01*
X158640996Y-68849433D01*
X158416368Y-68776446D01*
X158416362Y-68776445D01*
X158183102Y-68739500D01*
X158183097Y-68739500D01*
X158183092Y-68739500D01*
X157946908Y-68739500D01*
X157946903Y-68739500D01*
X157946898Y-68739500D01*
X157713636Y-68776445D01*
X157713634Y-68776445D01*
X157713631Y-68776446D01*
X157489003Y-68849433D01*
X157479059Y-68854500D01*
X157278565Y-68956657D01*
X157258515Y-68971225D01*
X157202141Y-69012184D01*
X157099360Y-69086858D01*
X157091981Y-69090990D01*
X156915991Y-69266980D01*
X156911858Y-69274361D01*
X156876619Y-69322863D01*
X156781657Y-69453565D01*
X156758455Y-69499102D01*
X156674433Y-69664003D01*
X156601446Y-69888631D01*
X156601446Y-69888632D01*
X156601445Y-69888636D01*
X156564500Y-70121896D01*
X154565499Y-70121896D01*
X154528553Y-69888631D01*
X154483503Y-69749983D01*
X154483501Y-69749977D01*
X154457070Y-69668631D01*
X154457070Y-69668630D01*
X154456007Y-69664862D01*
X154455014Y-69662865D01*
X154453215Y-69659152D01*
X154452283Y-69657560D01*
X154352722Y-69462162D01*
X154352720Y-69462157D01*
X154348348Y-69453577D01*
X154348343Y-69453567D01*
X154209517Y-69262490D01*
X154042510Y-69095483D01*
X153851433Y-68956657D01*
X153640996Y-68849433D01*
X153416368Y-68776446D01*
X153416362Y-68776445D01*
X153183102Y-68739500D01*
X153183097Y-68739500D01*
X153183092Y-68739500D01*
X152946908Y-68739500D01*
X152946903Y-68739500D01*
X152946898Y-68739500D01*
X152713636Y-68776445D01*
X152713634Y-68776445D01*
X152713631Y-68776446D01*
X152489003Y-68849433D01*
X152479059Y-68854500D01*
X152278565Y-68956657D01*
X152258515Y-68971225D01*
X152202141Y-69012184D01*
X152099360Y-69086858D01*
X152091981Y-69090990D01*
X151915991Y-69266980D01*
X151911858Y-69274361D01*
X151876619Y-69322863D01*
X151781657Y-69453565D01*
X151758455Y-69499102D01*
X151674433Y-69664003D01*
X151601446Y-69888631D01*
X151601446Y-69888632D01*
X151601445Y-69888636D01*
X151564500Y-70121896D01*
X141669667Y-70121896D01*
X141687816Y-70078082D01*
X141720500Y-69913767D01*
X141720500Y-69746233D01*
X141687816Y-69581918D01*
X141623703Y-69427137D01*
X141597432Y-69387820D01*
X141592538Y-69380495D01*
X141592537Y-69380494D01*
X141530626Y-69287837D01*
X141530623Y-69287833D01*
X141412165Y-69169375D01*
X141412157Y-69169369D01*
X141366367Y-69138773D01*
X144209499Y-69138773D01*
X144242178Y-69303056D01*
X144242184Y-69303083D01*
X144306012Y-69457178D01*
X144306271Y-69457814D01*
X144306292Y-69457855D01*
X144306294Y-69457858D01*
X144306295Y-69457860D01*
X144333852Y-69499102D01*
X144399374Y-69597164D01*
X144517834Y-69715624D01*
X144569256Y-69749983D01*
X144657130Y-69808699D01*
X144657134Y-69808701D01*
X144657137Y-69808703D01*
X144811918Y-69872816D01*
X144976228Y-69905499D01*
X144976232Y-69905500D01*
X144976233Y-69905500D01*
X145143768Y-69905500D01*
X145143769Y-69905499D01*
X145308082Y-69872816D01*
X145462863Y-69808703D01*
X145602162Y-69715626D01*
X145660883Y-69656903D01*
X145689132Y-69635757D01*
X145702851Y-69628265D01*
X145714265Y-69625783D01*
X145771122Y-69613414D01*
X145778450Y-69613938D01*
X145838496Y-69634520D01*
X145897137Y-69673703D01*
X146051918Y-69737816D01*
X146181700Y-69763631D01*
X146213257Y-69769908D01*
X146215492Y-69770409D01*
X146216230Y-69770500D01*
X146383768Y-69770500D01*
X146387889Y-69770500D01*
X146395742Y-69768117D01*
X146548082Y-69737816D01*
X146702863Y-69673703D01*
X146842162Y-69580626D01*
X146960626Y-69462162D01*
X146960627Y-69462160D01*
X146960630Y-69462157D01*
X147010300Y-69387820D01*
X147053703Y-69322863D01*
X147117816Y-69168082D01*
X147150500Y-69003767D01*
X147150500Y-68836233D01*
X147128542Y-68725843D01*
X147126653Y-68690610D01*
X147128524Y-68669703D01*
X147148319Y-68612787D01*
X147152006Y-68607161D01*
X147168029Y-68587459D01*
X147208328Y-68547162D01*
X147301405Y-68407863D01*
X147365518Y-68253082D01*
X147398202Y-68088767D01*
X147398202Y-67921233D01*
X147365518Y-67756918D01*
X147301405Y-67602137D01*
X147249831Y-67524951D01*
X147249831Y-67524950D01*
X147249829Y-67524949D01*
X147220130Y-67480500D01*
X147208329Y-67462838D01*
X147208325Y-67462833D01*
X147089866Y-67344374D01*
X146950558Y-67251292D01*
X146795785Y-67187184D01*
X146795758Y-67187178D01*
X146631475Y-67154500D01*
X146631473Y-67154500D01*
X146631469Y-67154500D01*
X146463935Y-67154500D01*
X146463930Y-67154500D01*
X146463928Y-67154500D01*
X146299644Y-67187178D01*
X146299617Y-67187184D01*
X146144844Y-67251292D01*
X146005536Y-67344374D01*
X145887076Y-67462834D01*
X145793994Y-67602142D01*
X145729886Y-67756915D01*
X145729880Y-67756942D01*
X145697202Y-67921225D01*
X145697202Y-68088775D01*
X145719156Y-68199146D01*
X145721479Y-68219484D01*
X145721747Y-68228104D01*
X145720763Y-68231886D01*
X145721047Y-68234371D01*
X145720691Y-68238356D01*
X145719780Y-68238274D01*
X145719107Y-68255028D01*
X145719434Y-68255079D01*
X145719196Y-68256630D01*
X145719028Y-68256987D01*
X145718976Y-68258303D01*
X145718038Y-68262617D01*
X145716545Y-68262292D01*
X145708233Y-68280045D01*
X145704155Y-68295722D01*
X145698415Y-68301016D01*
X145689571Y-68319908D01*
X145652951Y-68342955D01*
X145652799Y-68343096D01*
X145652700Y-68343113D01*
X145630439Y-68357124D01*
X145587770Y-68361504D01*
X145587170Y-68361462D01*
X145581531Y-68361058D01*
X145521502Y-68340478D01*
X145488229Y-68318246D01*
X145462863Y-68301297D01*
X145462860Y-68301295D01*
X145462859Y-68301295D01*
X145462810Y-68301262D01*
X145462810Y-68301261D01*
X145461821Y-68300602D01*
X145457197Y-68298949D01*
X145308083Y-68237184D01*
X145308056Y-68237178D01*
X145143773Y-68204500D01*
X145143771Y-68204500D01*
X145143767Y-68204500D01*
X144976233Y-68204500D01*
X144976228Y-68204500D01*
X144976226Y-68204500D01*
X144811942Y-68237178D01*
X144811915Y-68237184D01*
X144657142Y-68301292D01*
X144517834Y-68394374D01*
X144399374Y-68512834D01*
X144306292Y-68652142D01*
X144242184Y-68806915D01*
X144242183Y-68806921D01*
X144242182Y-68806925D01*
X144236352Y-68836233D01*
X144209500Y-68971225D01*
X144209500Y-68971228D01*
X144209500Y-69138771D01*
X144209500Y-69138773D01*
X144209499Y-69138773D01*
X141366367Y-69138773D01*
X141272868Y-69076299D01*
X141272862Y-69076296D01*
X141195793Y-69044373D01*
X141118082Y-69012184D01*
X141118074Y-69012182D01*
X141118066Y-69012180D01*
X141118056Y-69012178D01*
X140953773Y-68979500D01*
X140953771Y-68979500D01*
X140953767Y-68979500D01*
X140786233Y-68979500D01*
X140786228Y-68979500D01*
X140786226Y-68979500D01*
X140621942Y-69012178D01*
X140621917Y-69012184D01*
X140467142Y-69076293D01*
X140467128Y-69076301D01*
X140387905Y-69129235D01*
X140387904Y-69129238D01*
X140356066Y-69144470D01*
X140341151Y-69149140D01*
X140271297Y-69150388D01*
X140264210Y-69148444D01*
X140209332Y-69116543D01*
X140137162Y-69044373D01*
X139997860Y-68951295D01*
X139997861Y-68951295D01*
X139997856Y-68951292D01*
X139843083Y-68887184D01*
X139843056Y-68887178D01*
X139678773Y-68854500D01*
X139678771Y-68854500D01*
X139678767Y-68854500D01*
X139511233Y-68854500D01*
X139511228Y-68854500D01*
X139511226Y-68854500D01*
X139346942Y-68887178D01*
X139346915Y-68887184D01*
X139192142Y-68951292D01*
X139052834Y-69044374D01*
X138934374Y-69162834D01*
X138841292Y-69302142D01*
X138777184Y-69456915D01*
X138777178Y-69456942D01*
X138744500Y-69621225D01*
X138744500Y-69621228D01*
X138744500Y-69788771D01*
X138744500Y-69788773D01*
X138744499Y-69788773D01*
X130397238Y-69788773D01*
X130436032Y-69749979D01*
X130436033Y-69749978D01*
X130436034Y-69749977D01*
X130515425Y-69631159D01*
X130515432Y-69631147D01*
X130521788Y-69615802D01*
X130521789Y-69615799D01*
X130541721Y-69567681D01*
X130541721Y-69567680D01*
X130546388Y-69556412D01*
X130546388Y-69556409D01*
X130570119Y-69499120D01*
X130570122Y-69499108D01*
X130584438Y-69427138D01*
X130584438Y-69427137D01*
X130598000Y-69358959D01*
X130598000Y-69216039D01*
X130569910Y-69074829D01*
X130568290Y-69071449D01*
X130568066Y-69070923D01*
X130515429Y-68943847D01*
X130515428Y-68943846D01*
X130515425Y-68943840D01*
X130436032Y-68825021D01*
X130436029Y-68825017D01*
X130436024Y-68825011D01*
X130343803Y-68732790D01*
X130343801Y-68732789D01*
X130322650Y-68704535D01*
X130315158Y-68690815D01*
X130300304Y-68622551D01*
X130300433Y-68620742D01*
X130319803Y-68562541D01*
X130323987Y-68556030D01*
X130340617Y-68535395D01*
X130403530Y-68472482D01*
X130403532Y-68472479D01*
X130482929Y-68353653D01*
X130537619Y-68221620D01*
X130557543Y-68121457D01*
X130565500Y-68081457D01*
X130565500Y-67938542D01*
X130565500Y-67938541D01*
X130565500Y-67938539D01*
X130537410Y-67797329D01*
X130535790Y-67793949D01*
X130535566Y-67793423D01*
X130482929Y-67666347D01*
X130482928Y-67666346D01*
X130482925Y-67666340D01*
X130403532Y-67547521D01*
X130403529Y-67547517D01*
X130403524Y-67547511D01*
X130302487Y-67446474D01*
X130302481Y-67446469D01*
X130302480Y-67446468D01*
X130183653Y-67367070D01*
X130183654Y-67367070D01*
X130183644Y-67367065D01*
X130051629Y-67312384D01*
X130051609Y-67312377D01*
X130051601Y-67312375D01*
X129911460Y-67284500D01*
X129911457Y-67284500D01*
X129911455Y-67284500D01*
X129768545Y-67284500D01*
X129768543Y-67284500D01*
X129768538Y-67284500D01*
X129628397Y-67312375D01*
X129628389Y-67312377D01*
X129628369Y-67312384D01*
X129496354Y-67367065D01*
X129496344Y-67367070D01*
X129377518Y-67446468D01*
X129377517Y-67446469D01*
X129377511Y-67446474D01*
X129276474Y-67547511D01*
X129276469Y-67547517D01*
X129276468Y-67547518D01*
X129197070Y-67666344D01*
X129197065Y-67666354D01*
X129142384Y-67798369D01*
X129142377Y-67798389D01*
X129142375Y-67798397D01*
X129114500Y-67938537D01*
X129114500Y-68037088D01*
X129109237Y-68055008D01*
X126335500Y-68055008D01*
X126335500Y-67978545D01*
X126335499Y-67978542D01*
X126331144Y-67956646D01*
X126331144Y-67956645D01*
X126307620Y-67838385D01*
X126307410Y-67837329D01*
X126305790Y-67833949D01*
X126305566Y-67833423D01*
X126252929Y-67706347D01*
X126252928Y-67706346D01*
X126252925Y-67706340D01*
X126173532Y-67587521D01*
X126173529Y-67587517D01*
X126173524Y-67587511D01*
X126072487Y-67486474D01*
X126072481Y-67486469D01*
X126072480Y-67486468D01*
X125953653Y-67407070D01*
X125953654Y-67407070D01*
X125953644Y-67407065D01*
X125821629Y-67352384D01*
X125821609Y-67352377D01*
X125821601Y-67352375D01*
X125681460Y-67324500D01*
X125681457Y-67324500D01*
X125681455Y-67324500D01*
X125538545Y-67324500D01*
X125538543Y-67324500D01*
X125538538Y-67324500D01*
X125398397Y-67352375D01*
X125398389Y-67352377D01*
X125398369Y-67352384D01*
X125266354Y-67407065D01*
X125266344Y-67407070D01*
X125147518Y-67486468D01*
X125147517Y-67486469D01*
X125147511Y-67486474D01*
X125046474Y-67587511D01*
X125046469Y-67587517D01*
X125046468Y-67587518D01*
X124967070Y-67706344D01*
X124967065Y-67706354D01*
X124912384Y-67838369D01*
X124912377Y-67838389D01*
X124912375Y-67838397D01*
X124884500Y-67978537D01*
X124884500Y-68077088D01*
X124879237Y-68095008D01*
X119807633Y-68095008D01*
X119745051Y-67972184D01*
X119720609Y-67938542D01*
X119620109Y-67800213D01*
X119469786Y-67649890D01*
X119469782Y-67649886D01*
X119297824Y-67524953D01*
X119297258Y-67524606D01*
X119295627Y-67523357D01*
X119293901Y-67522103D01*
X119293932Y-67522059D01*
X119276960Y-67509062D01*
X119266683Y-67499357D01*
X119231457Y-67439017D01*
X119234445Y-67369212D01*
X119270612Y-67315495D01*
X119277783Y-67309281D01*
X119294194Y-67297269D01*
X119297792Y-67295063D01*
X119297816Y-67295051D01*
X119338042Y-67265824D01*
X119358040Y-67251297D01*
X119404587Y-67217478D01*
X119469786Y-67170109D01*
X119469788Y-67170106D01*
X119469792Y-67170104D01*
X119469800Y-67170095D01*
X119469852Y-67170058D01*
X119470593Y-67169302D01*
X119620104Y-67019792D01*
X119620106Y-67019788D01*
X119620109Y-67019786D01*
X119666815Y-66955500D01*
X119740283Y-66854380D01*
X119742731Y-66851008D01*
X119745048Y-66847820D01*
X119745047Y-66847820D01*
X119745051Y-66847816D01*
X119769410Y-66800008D01*
X123289237Y-66800008D01*
X123322376Y-66966602D01*
X123322377Y-66966608D01*
X123322384Y-66966629D01*
X123377065Y-67098644D01*
X123377070Y-67098654D01*
X123456468Y-67217480D01*
X123456469Y-67217481D01*
X123456474Y-67217487D01*
X123557511Y-67318524D01*
X123557517Y-67318529D01*
X123557521Y-67318532D01*
X123676340Y-67397925D01*
X123676346Y-67397928D01*
X123676347Y-67397929D01*
X123803423Y-67450566D01*
X123803949Y-67450790D01*
X123804127Y-67450937D01*
X123807179Y-67452380D01*
X123948539Y-67480500D01*
X123948542Y-67480500D01*
X123948545Y-67480500D01*
X124091457Y-67480500D01*
X124185751Y-67461742D01*
X124231620Y-67452619D01*
X124363653Y-67397929D01*
X124482479Y-67318532D01*
X124583532Y-67217479D01*
X124662929Y-67098653D01*
X124717619Y-66966620D01*
X124730259Y-66903074D01*
X124745500Y-66826457D01*
X124745500Y-66800008D01*
X127229237Y-66800008D01*
X127262376Y-66966602D01*
X127262377Y-66966608D01*
X127262384Y-66966629D01*
X127317065Y-67098644D01*
X127317070Y-67098654D01*
X127396468Y-67217480D01*
X127396469Y-67217481D01*
X127396474Y-67217487D01*
X127497511Y-67318524D01*
X127497517Y-67318529D01*
X127497521Y-67318532D01*
X127616340Y-67397925D01*
X127616346Y-67397928D01*
X127616347Y-67397929D01*
X127743423Y-67450566D01*
X127743949Y-67450790D01*
X127744127Y-67450937D01*
X127747179Y-67452380D01*
X127888539Y-67480500D01*
X127888542Y-67480500D01*
X127888545Y-67480500D01*
X128031457Y-67480500D01*
X128125751Y-67461742D01*
X128171620Y-67452619D01*
X128303653Y-67397929D01*
X128422479Y-67318532D01*
X128523532Y-67217479D01*
X128602929Y-67098653D01*
X128623695Y-67048518D01*
X128641702Y-67018169D01*
X128651512Y-67005994D01*
X128708899Y-66966147D01*
X128721833Y-66961842D01*
X128760984Y-66955500D01*
X128811457Y-66955500D01*
X128905751Y-66936742D01*
X128951620Y-66927619D01*
X129083653Y-66872929D01*
X129202479Y-66793532D01*
X129303532Y-66692479D01*
X129382929Y-66573653D01*
X129437619Y-66441620D01*
X129465500Y-66301455D01*
X129465500Y-66158545D01*
X129465500Y-66158542D01*
X129465500Y-66158539D01*
X129437380Y-66017177D01*
X129435293Y-66012765D01*
X129434250Y-66010248D01*
X129391361Y-65906703D01*
X129382930Y-65886349D01*
X129382925Y-65886340D01*
X129303532Y-65767521D01*
X129303529Y-65767517D01*
X129303524Y-65767511D01*
X129202487Y-65666474D01*
X129202481Y-65666469D01*
X129202480Y-65666468D01*
X129083665Y-65587078D01*
X129083664Y-65587077D01*
X129083659Y-65587074D01*
X129083646Y-65587067D01*
X129083647Y-65587067D01*
X129083645Y-65587066D01*
X129083637Y-65587062D01*
X129073010Y-65582661D01*
X129042659Y-65564653D01*
X129033436Y-65557221D01*
X128993587Y-65499830D01*
X128992298Y-65463773D01*
X141779499Y-65463773D01*
X141812178Y-65628056D01*
X141812184Y-65628083D01*
X141876292Y-65782856D01*
X141969374Y-65922164D01*
X142087828Y-66040618D01*
X142087833Y-66040622D01*
X142087834Y-66040623D01*
X142087838Y-66040626D01*
X142100892Y-66049349D01*
X142101120Y-66049501D01*
X142127370Y-66073080D01*
X142132428Y-66079131D01*
X142137394Y-66085074D01*
X142165283Y-66149135D01*
X142165290Y-66149189D01*
X142165515Y-66150986D01*
X142157869Y-66211783D01*
X142155038Y-66218980D01*
X142142748Y-66242478D01*
X142136308Y-66252116D01*
X142136306Y-66252119D01*
X142136293Y-66252142D01*
X142072184Y-66406917D01*
X142072182Y-66406925D01*
X142039500Y-66571225D01*
X142039500Y-66571228D01*
X142039500Y-66738771D01*
X142039500Y-66738773D01*
X142039499Y-66738773D01*
X142072178Y-66903056D01*
X142072184Y-66903083D01*
X142136292Y-67057856D01*
X142229374Y-67197164D01*
X142347833Y-67315623D01*
X142347838Y-67315627D01*
X142361118Y-67324500D01*
X142424835Y-67367074D01*
X142487137Y-67408703D01*
X142641918Y-67472816D01*
X142806228Y-67505499D01*
X142806232Y-67505500D01*
X142806233Y-67505500D01*
X142973768Y-67505500D01*
X142973769Y-67505499D01*
X143138082Y-67472816D01*
X143292863Y-67408703D01*
X143432162Y-67315626D01*
X143550626Y-67197162D01*
X143643703Y-67057863D01*
X143707816Y-66903082D01*
X143707816Y-66903079D01*
X143707818Y-66903076D01*
X143707817Y-66903074D01*
X143740500Y-66738767D01*
X143740500Y-66571233D01*
X143707816Y-66406918D01*
X143643703Y-66252137D01*
X143639794Y-66246287D01*
X143612538Y-66205495D01*
X143612537Y-66205494D01*
X143564439Y-66133510D01*
X143550627Y-66112838D01*
X143550623Y-66112833D01*
X143432170Y-65994380D01*
X143432163Y-65994374D01*
X143432159Y-65994371D01*
X143418878Y-65985497D01*
X143417674Y-65984416D01*
X143392626Y-65961917D01*
X143382597Y-65949917D01*
X143354713Y-65885858D01*
X143354484Y-65884028D01*
X143362129Y-65823213D01*
X143364965Y-65816006D01*
X143377250Y-65792518D01*
X143383703Y-65782863D01*
X143447816Y-65628082D01*
X143480500Y-65463767D01*
X143480500Y-65296233D01*
X143447816Y-65131918D01*
X143385090Y-64980486D01*
X143383704Y-64977139D01*
X143290626Y-64837837D01*
X143290624Y-64837834D01*
X143172165Y-64719375D01*
X143032856Y-64626292D01*
X142878083Y-64562184D01*
X142878056Y-64562178D01*
X142713773Y-64529500D01*
X142713771Y-64529500D01*
X142713767Y-64529500D01*
X142546233Y-64529500D01*
X142546228Y-64529500D01*
X142546226Y-64529500D01*
X142381942Y-64562178D01*
X142381915Y-64562184D01*
X142227142Y-64626292D01*
X142087833Y-64719375D01*
X141969374Y-64837834D01*
X141876292Y-64977142D01*
X141812184Y-65131915D01*
X141812178Y-65131942D01*
X141779500Y-65296225D01*
X141779500Y-65296228D01*
X141779500Y-65463771D01*
X141779500Y-65463773D01*
X141779499Y-65463773D01*
X128992298Y-65463773D01*
X128991091Y-65430005D01*
X128991122Y-65429952D01*
X129025541Y-65371049D01*
X129038633Y-65358531D01*
X129055418Y-65345068D01*
X129113206Y-65306455D01*
X129162479Y-65273532D01*
X129175803Y-65260208D01*
X129233552Y-65202460D01*
X129263529Y-65172482D01*
X129263532Y-65172479D01*
X129342929Y-65053653D01*
X129397619Y-64921620D01*
X129420321Y-64807491D01*
X129425500Y-64781457D01*
X129425500Y-64657373D01*
X129425620Y-64654651D01*
X129426766Y-64651299D01*
X129430522Y-64625178D01*
X129434433Y-64611859D01*
X129446895Y-64592466D01*
X129448238Y-64588543D01*
X129450640Y-64586640D01*
X129472206Y-64553082D01*
X129535758Y-64524057D01*
X129546664Y-64522489D01*
X129588496Y-64523609D01*
X129676340Y-64541083D01*
X129698541Y-64545500D01*
X129698542Y-64545500D01*
X129698545Y-64545500D01*
X129841457Y-64545500D01*
X129935751Y-64526742D01*
X129981620Y-64517619D01*
X130113653Y-64462929D01*
X130232479Y-64383532D01*
X130270979Y-64345030D01*
X130299223Y-64323886D01*
X130312948Y-64316392D01*
X130381214Y-64301541D01*
X130407490Y-64303420D01*
X130422831Y-64305486D01*
X130554772Y-64331732D01*
X130554774Y-64331732D01*
X130554777Y-64331732D01*
X130697689Y-64331732D01*
X130791983Y-64312974D01*
X130837852Y-64303851D01*
X130969885Y-64249161D01*
X131088711Y-64169764D01*
X131189764Y-64068711D01*
X131269161Y-63949885D01*
X131323851Y-63817852D01*
X131351732Y-63677687D01*
X131351732Y-63534777D01*
X131351732Y-63534774D01*
X131351732Y-63534771D01*
X131323612Y-63393411D01*
X131321526Y-63389000D01*
X131315040Y-63373342D01*
X131281550Y-63292490D01*
X131269162Y-63262581D01*
X131269157Y-63262572D01*
X131189764Y-63143753D01*
X131189761Y-63143749D01*
X131189756Y-63143743D01*
X131088719Y-63042706D01*
X131088712Y-63042700D01*
X131088710Y-63042699D01*
X130969885Y-62963302D01*
X130969886Y-62963302D01*
X130969876Y-62963297D01*
X130837861Y-62908616D01*
X130837841Y-62908609D01*
X130837833Y-62908607D01*
X130697692Y-62880732D01*
X130697689Y-62880732D01*
X130697687Y-62880732D01*
X130554777Y-62880732D01*
X130554775Y-62880732D01*
X130554770Y-62880732D01*
X130414629Y-62908607D01*
X130414621Y-62908609D01*
X130414601Y-62908616D01*
X130282586Y-62963297D01*
X130282576Y-62963302D01*
X130163757Y-63042696D01*
X130163741Y-63042708D01*
X130163739Y-63042710D01*
X130125257Y-63081193D01*
X130125256Y-63081194D01*
X130113622Y-63089903D01*
X130097001Y-63102345D01*
X130083280Y-63109837D01*
X130015007Y-63124688D01*
X129988728Y-63122808D01*
X129973385Y-63120741D01*
X129841461Y-63094500D01*
X129841457Y-63094500D01*
X129841455Y-63094500D01*
X129698545Y-63094500D01*
X129698543Y-63094500D01*
X129698538Y-63094500D01*
X129558397Y-63122375D01*
X129558389Y-63122377D01*
X129558369Y-63122384D01*
X129426354Y-63177065D01*
X129426344Y-63177070D01*
X129307518Y-63256468D01*
X129307517Y-63256469D01*
X129307511Y-63256474D01*
X129206474Y-63357511D01*
X129206469Y-63357517D01*
X129206468Y-63357518D01*
X129127070Y-63476344D01*
X129127068Y-63476350D01*
X129072384Y-63608369D01*
X129072377Y-63608389D01*
X129072375Y-63608397D01*
X129044500Y-63748537D01*
X129044500Y-63869887D01*
X129044499Y-63869891D01*
X129044500Y-63869894D01*
X129039475Y-63904828D01*
X129035564Y-63918145D01*
X128997787Y-63976921D01*
X128934237Y-64005942D01*
X128923339Y-64007509D01*
X128881500Y-64006388D01*
X128771462Y-63984500D01*
X128771459Y-63984500D01*
X128771455Y-63984500D01*
X128628545Y-63984500D01*
X128628543Y-63984500D01*
X128628538Y-63984500D01*
X128488397Y-64012375D01*
X128488389Y-64012377D01*
X128488369Y-64012384D01*
X128356354Y-64067065D01*
X128356344Y-64067070D01*
X128237518Y-64146468D01*
X128237517Y-64146469D01*
X128237511Y-64146474D01*
X128136474Y-64247511D01*
X128136469Y-64247517D01*
X128136468Y-64247518D01*
X128057070Y-64366344D01*
X128057065Y-64366354D01*
X128002384Y-64498369D01*
X128002377Y-64498389D01*
X128002375Y-64498397D01*
X127974500Y-64638537D01*
X127974500Y-64737088D01*
X127969237Y-64755008D01*
X128002376Y-64921602D01*
X128002377Y-64921608D01*
X128002384Y-64921629D01*
X128057065Y-65053644D01*
X128057070Y-65053654D01*
X128136468Y-65172480D01*
X128136469Y-65172481D01*
X128136474Y-65172487D01*
X128237511Y-65273524D01*
X128237517Y-65273529D01*
X128237518Y-65273530D01*
X128237521Y-65273532D01*
X128356340Y-65352925D01*
X128356344Y-65352927D01*
X128356347Y-65352929D01*
X128366985Y-65357335D01*
X128390933Y-65371543D01*
X128397336Y-65375341D01*
X128406566Y-65382779D01*
X128446415Y-65440171D01*
X128448911Y-65509996D01*
X128414474Y-65568940D01*
X128401428Y-65581419D01*
X128384607Y-65594914D01*
X128277519Y-65666468D01*
X128277514Y-65666471D01*
X128176474Y-65767511D01*
X128176469Y-65767517D01*
X128176468Y-65767518D01*
X128097078Y-65886333D01*
X128097069Y-65886348D01*
X128097067Y-65886353D01*
X128076303Y-65936482D01*
X128058297Y-65966830D01*
X128048489Y-65979002D01*
X127991098Y-66018853D01*
X127991096Y-66018853D01*
X127978179Y-66023153D01*
X127939016Y-66029500D01*
X127888538Y-66029500D01*
X127748397Y-66057375D01*
X127748389Y-66057377D01*
X127748369Y-66057384D01*
X127616354Y-66112065D01*
X127616344Y-66112070D01*
X127497518Y-66191468D01*
X127497517Y-66191469D01*
X127497511Y-66191474D01*
X127396474Y-66292511D01*
X127396469Y-66292517D01*
X127396468Y-66292518D01*
X127317070Y-66411344D01*
X127317065Y-66411354D01*
X127262384Y-66543369D01*
X127262377Y-66543389D01*
X127262375Y-66543397D01*
X127234500Y-66683537D01*
X127234500Y-66782088D01*
X127229237Y-66800008D01*
X124745500Y-66800008D01*
X124745500Y-66683542D01*
X124745500Y-66683539D01*
X124717410Y-66542329D01*
X124715790Y-66538949D01*
X124715566Y-66538423D01*
X124662929Y-66411347D01*
X124662928Y-66411346D01*
X124662925Y-66411340D01*
X124583532Y-66292521D01*
X124583529Y-66292517D01*
X124583524Y-66292511D01*
X124482490Y-66191477D01*
X124479929Y-66189185D01*
X124480119Y-66188972D01*
X124465847Y-66174998D01*
X124457296Y-66164766D01*
X124429411Y-66100702D01*
X124440587Y-66031733D01*
X124487275Y-65979757D01*
X124492068Y-65976796D01*
X124533027Y-65960685D01*
X124590491Y-65949254D01*
X124674120Y-65932619D01*
X124806153Y-65877929D01*
X124924979Y-65798532D01*
X125026032Y-65697479D01*
X125105429Y-65578653D01*
X125160119Y-65446620D01*
X125178082Y-65356314D01*
X125188000Y-65306457D01*
X125188000Y-65163542D01*
X125188000Y-65163539D01*
X125159910Y-65022329D01*
X125158290Y-65018949D01*
X125158066Y-65018423D01*
X125105429Y-64891347D01*
X125105428Y-64891346D01*
X125105425Y-64891340D01*
X125026032Y-64772521D01*
X125026029Y-64772517D01*
X125026024Y-64772511D01*
X124924987Y-64671474D01*
X124924981Y-64671469D01*
X124924980Y-64671468D01*
X124806153Y-64592070D01*
X124806154Y-64592070D01*
X124806144Y-64592065D01*
X124674129Y-64537384D01*
X124674109Y-64537377D01*
X124674101Y-64537375D01*
X124533960Y-64509500D01*
X124533957Y-64509500D01*
X124533955Y-64509500D01*
X124391045Y-64509500D01*
X124391043Y-64509500D01*
X124391038Y-64509500D01*
X124250897Y-64537375D01*
X124250889Y-64537377D01*
X124250869Y-64537384D01*
X124118854Y-64592065D01*
X124118844Y-64592070D01*
X124000018Y-64671468D01*
X124000017Y-64671469D01*
X124000011Y-64671474D01*
X123898974Y-64772511D01*
X123898969Y-64772517D01*
X123898968Y-64772518D01*
X123819570Y-64891344D01*
X123819565Y-64891354D01*
X123764884Y-65023369D01*
X123764877Y-65023389D01*
X123764875Y-65023397D01*
X123737000Y-65163537D01*
X123737000Y-65262088D01*
X123731737Y-65280008D01*
X123764876Y-65446602D01*
X123764877Y-65446608D01*
X123764884Y-65446629D01*
X123819562Y-65578636D01*
X123819570Y-65578654D01*
X123898968Y-65697480D01*
X123898969Y-65697481D01*
X123898974Y-65697487D01*
X124000010Y-65798523D01*
X124000870Y-65799239D01*
X124001672Y-65800040D01*
X124002085Y-65800417D01*
X124002068Y-65800435D01*
X124016645Y-65814992D01*
X124021212Y-65820457D01*
X124025208Y-65825239D01*
X124053089Y-65889305D01*
X124041906Y-65958274D01*
X123995221Y-66010243D01*
X123995212Y-66010248D01*
X123995212Y-66010249D01*
X123995210Y-66010249D01*
X123990447Y-66013192D01*
X123949472Y-66029314D01*
X123808396Y-66057376D01*
X123808390Y-66057377D01*
X123808369Y-66057384D01*
X123676354Y-66112065D01*
X123676344Y-66112070D01*
X123557518Y-66191468D01*
X123557517Y-66191469D01*
X123557511Y-66191474D01*
X123456474Y-66292511D01*
X123456469Y-66292517D01*
X123456468Y-66292518D01*
X123377070Y-66411344D01*
X123377065Y-66411354D01*
X123322384Y-66543369D01*
X123322377Y-66543389D01*
X123322375Y-66543397D01*
X123294500Y-66683537D01*
X123294500Y-66782088D01*
X123289237Y-66800008D01*
X119769410Y-66800008D01*
X119841557Y-66658412D01*
X119907246Y-66456243D01*
X119940500Y-66246287D01*
X119940500Y-66033713D01*
X119907246Y-65823757D01*
X119841557Y-65621588D01*
X119745051Y-65432184D01*
X119745049Y-65432181D01*
X119745048Y-65432179D01*
X119744702Y-65431703D01*
X119744700Y-65431699D01*
X119620112Y-65260216D01*
X119469782Y-65109886D01*
X119297824Y-64984953D01*
X119297258Y-64984606D01*
X119295627Y-64983357D01*
X119293901Y-64982103D01*
X119293932Y-64982059D01*
X119276960Y-64969062D01*
X119266683Y-64959357D01*
X119231457Y-64899017D01*
X119234445Y-64829212D01*
X119270612Y-64775495D01*
X119277783Y-64769281D01*
X119294194Y-64757269D01*
X119297791Y-64755063D01*
X119297816Y-64755051D01*
X119346923Y-64719373D01*
X119469786Y-64630109D01*
X119469786Y-64630108D01*
X119469845Y-64630065D01*
X119470605Y-64629290D01*
X119620104Y-64479792D01*
X119620106Y-64479788D01*
X119620109Y-64479786D01*
X119641302Y-64450614D01*
X119740698Y-64313809D01*
X119743076Y-64310533D01*
X119745048Y-64307820D01*
X119745047Y-64307820D01*
X119745051Y-64307816D01*
X119841557Y-64118412D01*
X119907246Y-63916243D01*
X119940500Y-63706287D01*
X119940500Y-63493713D01*
X119907246Y-63283757D01*
X119841557Y-63081588D01*
X119745051Y-62892184D01*
X119745049Y-62892181D01*
X119745048Y-62892179D01*
X119744702Y-62891703D01*
X119744700Y-62891699D01*
X119620112Y-62720216D01*
X119469788Y-62569892D01*
X119469786Y-62569890D01*
X119297817Y-62444949D01*
X119297812Y-62444946D01*
X119296584Y-62444194D01*
X119276242Y-62428624D01*
X119266127Y-62419071D01*
X119230906Y-62358734D01*
X119233896Y-62288929D01*
X119270066Y-62235210D01*
X119277122Y-62229096D01*
X119293537Y-62217083D01*
X119297542Y-62214628D01*
X119297555Y-62214622D01*
X119319119Y-62198953D01*
X119345858Y-62189412D01*
X119351717Y-62175269D01*
X118846149Y-61669702D01*
X118812664Y-61608379D01*
X118817648Y-61538688D01*
X118859519Y-61482754D01*
X118871822Y-61474639D01*
X118897007Y-61460099D01*
X118990099Y-61367007D01*
X119004634Y-61341830D01*
X119055199Y-61293616D01*
X119123805Y-61280391D01*
X119188671Y-61306358D01*
X119199702Y-61316149D01*
X119705269Y-61821717D01*
X119705269Y-61821716D01*
X119705270Y-61821717D01*
X119705270Y-61821716D01*
X119718738Y-61816137D01*
X119724955Y-61794967D01*
X119728954Y-61789118D01*
X119744621Y-61767555D01*
X119746968Y-61762949D01*
X119841095Y-61578217D01*
X119883577Y-61447471D01*
X126894237Y-61447471D01*
X126928338Y-61618899D01*
X126928344Y-61618919D01*
X126984908Y-61755481D01*
X126984909Y-61755483D01*
X126984923Y-61755507D01*
X127067049Y-61878417D01*
X127067050Y-61878418D01*
X127067055Y-61878424D01*
X127171574Y-61982943D01*
X127171580Y-61982948D01*
X127171584Y-61982951D01*
X127294498Y-62065080D01*
X127294511Y-62065087D01*
X127431082Y-62121656D01*
X127431087Y-62121658D01*
X127431091Y-62121658D01*
X127431092Y-62121659D01*
X127431357Y-62121711D01*
X127431358Y-62121712D01*
X127431382Y-62121717D01*
X127576077Y-62150500D01*
X127576079Y-62150500D01*
X127576082Y-62150500D01*
X127723920Y-62150500D01*
X127821462Y-62131096D01*
X127868913Y-62121658D01*
X128005495Y-62065084D01*
X128069141Y-62022555D01*
X128100966Y-62007330D01*
X128115891Y-62002657D01*
X128185739Y-62001412D01*
X128187492Y-62001893D01*
X128240788Y-62032243D01*
X128246357Y-62037617D01*
X128263354Y-62057956D01*
X128306468Y-62122480D01*
X128306469Y-62122481D01*
X128306474Y-62122487D01*
X128407511Y-62223524D01*
X128407517Y-62223529D01*
X128407521Y-62223532D01*
X128526340Y-62302925D01*
X128526346Y-62302928D01*
X128526347Y-62302929D01*
X128653423Y-62355566D01*
X128653949Y-62355790D01*
X128654127Y-62355937D01*
X128657179Y-62357380D01*
X128658384Y-62357619D01*
X128658385Y-62357620D01*
X128677941Y-62361510D01*
X128798539Y-62385500D01*
X128941457Y-62385500D01*
X128941458Y-62385500D01*
X128980265Y-62377780D01*
X129057881Y-62362341D01*
X129081620Y-62357619D01*
X129213653Y-62302929D01*
X129264556Y-62268917D01*
X132615328Y-62268917D01*
X132648467Y-62435511D01*
X132648468Y-62435517D01*
X132648475Y-62435538D01*
X132703156Y-62567553D01*
X132703161Y-62567563D01*
X132782559Y-62686389D01*
X132782560Y-62686390D01*
X132782565Y-62686396D01*
X132883602Y-62787433D01*
X132883608Y-62787438D01*
X132883612Y-62787441D01*
X133002431Y-62866834D01*
X133002437Y-62866837D01*
X133002438Y-62866838D01*
X133129514Y-62919475D01*
X133130040Y-62919699D01*
X133130218Y-62919846D01*
X133133270Y-62921289D01*
X133134475Y-62921528D01*
X133134476Y-62921529D01*
X133141610Y-62922948D01*
X133274630Y-62949409D01*
X133274633Y-62949409D01*
X133274636Y-62949409D01*
X133417548Y-62949409D01*
X133511842Y-62930651D01*
X133557711Y-62921528D01*
X133689744Y-62866838D01*
X133808570Y-62787441D01*
X133909623Y-62686388D01*
X133989020Y-62567562D01*
X134043710Y-62435529D01*
X134057136Y-62368028D01*
X134089520Y-62306121D01*
X134093761Y-62303706D01*
X134259419Y-62303706D01*
X134276677Y-62316151D01*
X134300370Y-62368030D01*
X134338338Y-62558899D01*
X134338340Y-62558907D01*
X134338343Y-62558917D01*
X134342888Y-62569890D01*
X134394908Y-62695481D01*
X134394913Y-62695490D01*
X134394923Y-62695507D01*
X134477049Y-62818417D01*
X134477050Y-62818418D01*
X134477055Y-62818424D01*
X134581574Y-62922943D01*
X134581580Y-62922948D01*
X134581584Y-62922951D01*
X134704498Y-63005080D01*
X134704511Y-63005087D01*
X134795318Y-63042700D01*
X134835475Y-63059333D01*
X134839885Y-63061419D01*
X134986076Y-63090500D01*
X134986079Y-63090500D01*
X134986082Y-63090500D01*
X135133920Y-63090500D01*
X135231462Y-63071096D01*
X135278913Y-63061658D01*
X135415495Y-63005084D01*
X135538416Y-62922951D01*
X135642951Y-62818416D01*
X135725084Y-62695495D01*
X135781658Y-62558913D01*
X135787035Y-62531876D01*
X135791096Y-62511465D01*
X135791096Y-62511462D01*
X135810500Y-62413920D01*
X135810500Y-62266079D01*
X135810500Y-62266076D01*
X135781419Y-62119885D01*
X135779332Y-62115472D01*
X135769662Y-62092127D01*
X135758461Y-62065084D01*
X135725087Y-61984511D01*
X135725080Y-61984498D01*
X135716660Y-61971896D01*
X151609500Y-61971896D01*
X151609500Y-62208102D01*
X151645518Y-62435511D01*
X151646446Y-62441368D01*
X151719433Y-62665996D01*
X151781313Y-62787441D01*
X151826657Y-62876433D01*
X151965483Y-63067510D01*
X152132490Y-63234517D01*
X152323567Y-63373343D01*
X152365308Y-63394611D01*
X152534003Y-63480566D01*
X152534876Y-63481011D01*
X152538630Y-63482070D01*
X152574462Y-63493712D01*
X152654410Y-63519688D01*
X152654411Y-63519689D01*
X152654412Y-63519689D01*
X152758631Y-63553553D01*
X152991903Y-63590500D01*
X152991908Y-63590500D01*
X153228096Y-63590500D01*
X153228097Y-63590500D01*
X153461368Y-63553553D01*
X153519154Y-63534777D01*
X153685992Y-63480568D01*
X153896433Y-63373343D01*
X154087510Y-63234517D01*
X154254517Y-63067510D01*
X154393343Y-62876433D01*
X154500568Y-62665992D01*
X154573553Y-62441368D01*
X154586070Y-62362341D01*
X154610500Y-62208097D01*
X154610500Y-61971902D01*
X154610499Y-61971896D01*
X156609500Y-61971896D01*
X156609500Y-62208102D01*
X156645518Y-62435511D01*
X156646446Y-62441368D01*
X156719433Y-62665996D01*
X156781313Y-62787441D01*
X156826657Y-62876433D01*
X156965483Y-63067510D01*
X157132490Y-63234517D01*
X157323567Y-63373343D01*
X157365308Y-63394611D01*
X157534003Y-63480566D01*
X157534876Y-63481011D01*
X157538630Y-63482070D01*
X157574462Y-63493712D01*
X157654410Y-63519688D01*
X157654411Y-63519689D01*
X157654412Y-63519689D01*
X157758631Y-63553553D01*
X157991903Y-63590500D01*
X157991908Y-63590500D01*
X158228096Y-63590500D01*
X158228097Y-63590500D01*
X158461368Y-63553553D01*
X158519154Y-63534777D01*
X158685992Y-63480568D01*
X158896433Y-63373343D01*
X159087510Y-63234517D01*
X159254517Y-63067510D01*
X159393343Y-62876433D01*
X159500568Y-62665992D01*
X159573553Y-62441368D01*
X159586070Y-62362341D01*
X159610500Y-62208097D01*
X159610500Y-61971902D01*
X159573553Y-61738631D01*
X159525097Y-61589500D01*
X159509976Y-61542962D01*
X159502069Y-61518627D01*
X159501008Y-61514865D01*
X159500016Y-61512869D01*
X159498217Y-61509155D01*
X159497283Y-61507559D01*
X159404813Y-61326079D01*
X159404812Y-61326076D01*
X159393345Y-61303570D01*
X159393342Y-61303566D01*
X159254517Y-61112490D01*
X159087510Y-60945483D01*
X158896433Y-60806657D01*
X158685996Y-60699433D01*
X158461368Y-60626446D01*
X158461362Y-60626445D01*
X158228102Y-60589500D01*
X158228097Y-60589500D01*
X158228092Y-60589500D01*
X157991908Y-60589500D01*
X157991903Y-60589500D01*
X157991898Y-60589500D01*
X157758636Y-60626445D01*
X157758634Y-60626445D01*
X157758631Y-60626446D01*
X157534003Y-60699433D01*
X157355319Y-60790478D01*
X157323562Y-60806659D01*
X157214549Y-60885861D01*
X157214550Y-60885862D01*
X157144361Y-60936858D01*
X157136980Y-60940991D01*
X156960991Y-61116980D01*
X156956858Y-61124361D01*
X156931357Y-61159460D01*
X156826657Y-61303565D01*
X156815187Y-61326076D01*
X156719433Y-61514003D01*
X156646446Y-61738631D01*
X156646446Y-61738633D01*
X156646445Y-61738636D01*
X156609500Y-61971896D01*
X154610499Y-61971896D01*
X154573553Y-61738631D01*
X154525097Y-61589500D01*
X154509976Y-61542962D01*
X154502069Y-61518627D01*
X154501008Y-61514865D01*
X154500016Y-61512869D01*
X154498217Y-61509155D01*
X154497283Y-61507559D01*
X154404813Y-61326079D01*
X154404812Y-61326076D01*
X154393345Y-61303570D01*
X154393342Y-61303566D01*
X154254517Y-61112490D01*
X154087510Y-60945483D01*
X153896433Y-60806657D01*
X153685996Y-60699433D01*
X153461368Y-60626446D01*
X153461362Y-60626445D01*
X153228102Y-60589500D01*
X153228097Y-60589500D01*
X153228092Y-60589500D01*
X152991908Y-60589500D01*
X152991903Y-60589500D01*
X152991898Y-60589500D01*
X152758636Y-60626445D01*
X152758634Y-60626445D01*
X152758631Y-60626446D01*
X152534003Y-60699433D01*
X152355319Y-60790478D01*
X152323562Y-60806659D01*
X152214549Y-60885861D01*
X152214550Y-60885862D01*
X152144361Y-60936858D01*
X152136980Y-60940991D01*
X151960991Y-61116980D01*
X151956858Y-61124361D01*
X151931357Y-61159460D01*
X151826657Y-61303565D01*
X151815187Y-61326076D01*
X151719433Y-61514003D01*
X151646446Y-61738631D01*
X151646446Y-61738633D01*
X151646445Y-61738636D01*
X151609500Y-61971896D01*
X135716660Y-61971896D01*
X135642951Y-61861584D01*
X135642948Y-61861580D01*
X135642943Y-61861574D01*
X135538424Y-61757055D01*
X135538418Y-61757050D01*
X135538417Y-61757049D01*
X135415507Y-61674923D01*
X135415506Y-61674922D01*
X135415501Y-61674919D01*
X135415488Y-61674912D01*
X135415481Y-61674908D01*
X135297338Y-61625973D01*
X135278917Y-61618343D01*
X135278907Y-61618340D01*
X135278905Y-61618339D01*
X135278900Y-61618338D01*
X135133922Y-61589500D01*
X135133920Y-61589500D01*
X135133918Y-61589500D01*
X134986082Y-61589500D01*
X134986080Y-61589500D01*
X134986078Y-61589500D01*
X134841096Y-61618338D01*
X134841079Y-61618344D01*
X134704517Y-61674908D01*
X134704508Y-61674913D01*
X134704491Y-61674923D01*
X134581581Y-61757049D01*
X134581580Y-61757050D01*
X134581574Y-61757055D01*
X134477055Y-61861574D01*
X134477050Y-61861580D01*
X134477049Y-61861581D01*
X134394923Y-61984491D01*
X134394913Y-61984508D01*
X134394908Y-61984517D01*
X134338344Y-62121079D01*
X134338338Y-62121099D01*
X134318241Y-62222129D01*
X134318215Y-62222267D01*
X134317211Y-62227311D01*
X134284838Y-62289226D01*
X134259419Y-62303706D01*
X134093761Y-62303706D01*
X134114921Y-62291655D01*
X134097679Y-62279227D01*
X134072086Y-62214213D01*
X134071591Y-62203139D01*
X134071591Y-62152448D01*
X134043501Y-62011238D01*
X134041881Y-62007858D01*
X134041655Y-62007327D01*
X133989020Y-61880256D01*
X133989019Y-61880255D01*
X133989016Y-61880249D01*
X133909623Y-61761430D01*
X133909620Y-61761426D01*
X133909615Y-61761420D01*
X133808578Y-61660383D01*
X133808572Y-61660378D01*
X133808571Y-61660377D01*
X133689744Y-61580979D01*
X133689745Y-61580979D01*
X133689735Y-61580974D01*
X133557720Y-61526293D01*
X133557700Y-61526286D01*
X133557692Y-61526284D01*
X133417551Y-61498409D01*
X133417548Y-61498409D01*
X133417546Y-61498409D01*
X133274636Y-61498409D01*
X133274634Y-61498409D01*
X133274629Y-61498409D01*
X133134488Y-61526284D01*
X133134480Y-61526286D01*
X133134460Y-61526293D01*
X133002445Y-61580974D01*
X133002435Y-61580979D01*
X132883609Y-61660377D01*
X132883608Y-61660378D01*
X132883602Y-61660383D01*
X132782565Y-61761420D01*
X132782560Y-61761426D01*
X132782559Y-61761427D01*
X132703161Y-61880253D01*
X132703156Y-61880263D01*
X132648475Y-62012278D01*
X132648468Y-62012298D01*
X132648466Y-62012306D01*
X132620591Y-62152446D01*
X132620591Y-62250997D01*
X132615328Y-62268917D01*
X129264556Y-62268917D01*
X129332479Y-62223532D01*
X129433532Y-62122479D01*
X129449205Y-62099021D01*
X129463606Y-62077471D01*
X129509979Y-62008067D01*
X129511997Y-62005310D01*
X129513514Y-62002897D01*
X129515249Y-61998051D01*
X129567619Y-61871620D01*
X129576742Y-61825751D01*
X129595500Y-61731457D01*
X129595500Y-61588542D01*
X129595500Y-61588539D01*
X129567410Y-61447329D01*
X129565790Y-61443949D01*
X129565566Y-61443423D01*
X129512929Y-61316347D01*
X129512928Y-61316346D01*
X129512925Y-61316340D01*
X129508659Y-61309955D01*
X129494980Y-61289483D01*
X129494979Y-61289482D01*
X129453544Y-61227471D01*
X136104237Y-61227471D01*
X136138338Y-61398899D01*
X136138344Y-61398919D01*
X136194908Y-61535481D01*
X136194913Y-61535490D01*
X136194923Y-61535507D01*
X136277049Y-61658417D01*
X136277050Y-61658418D01*
X136277055Y-61658424D01*
X136381574Y-61762943D01*
X136381580Y-61762948D01*
X136381584Y-61762951D01*
X136504498Y-61845080D01*
X136504511Y-61845087D01*
X136641082Y-61901656D01*
X136641087Y-61901658D01*
X136641091Y-61901658D01*
X136641092Y-61901659D01*
X136641357Y-61901711D01*
X136641358Y-61901712D01*
X136641382Y-61901717D01*
X136786077Y-61930500D01*
X136786079Y-61930500D01*
X136786082Y-61930500D01*
X136933920Y-61930500D01*
X137031462Y-61911096D01*
X137078913Y-61901658D01*
X137215495Y-61845084D01*
X137338416Y-61762951D01*
X137442951Y-61658416D01*
X137525084Y-61535495D01*
X137528899Y-61526286D01*
X137553125Y-61467797D01*
X137581658Y-61398913D01*
X137596146Y-61326079D01*
X137610500Y-61253920D01*
X137610500Y-61251621D01*
X137612048Y-61243593D01*
X137612936Y-61241869D01*
X137614827Y-61232136D01*
X137617585Y-61222743D01*
X137622934Y-61204524D01*
X137654231Y-61151779D01*
X137663530Y-61142481D01*
X137663532Y-61142479D01*
X137742929Y-61023653D01*
X137797619Y-60891620D01*
X137798765Y-60885862D01*
X137812453Y-60817049D01*
X137812453Y-60817048D01*
X137825500Y-60751459D01*
X137825500Y-60701071D01*
X141216797Y-60701071D01*
X141249476Y-60865354D01*
X141249482Y-60865381D01*
X141313590Y-61020154D01*
X141406671Y-61159460D01*
X141406673Y-61159463D01*
X141525132Y-61277922D01*
X141597206Y-61326080D01*
X141597205Y-61326080D01*
X141664432Y-61370999D01*
X141664435Y-61371001D01*
X141819216Y-61435114D01*
X141983526Y-61467797D01*
X141983530Y-61467798D01*
X141983531Y-61467798D01*
X142151066Y-61467798D01*
X142151067Y-61467797D01*
X142315380Y-61435114D01*
X142470161Y-61371001D01*
X142609460Y-61277924D01*
X142727924Y-61159460D01*
X142821001Y-61020161D01*
X142885114Y-60865380D01*
X142917798Y-60701065D01*
X142917798Y-60533531D01*
X142885114Y-60369216D01*
X142835525Y-60249499D01*
X142821002Y-60214437D01*
X142727924Y-60075135D01*
X142727922Y-60075132D01*
X142609462Y-59956672D01*
X142492783Y-59878710D01*
X162149500Y-59878710D01*
X162149500Y-60121289D01*
X162177811Y-60336348D01*
X162177812Y-60336348D01*
X162181161Y-60361786D01*
X162195444Y-60415090D01*
X162209725Y-60468385D01*
X162243947Y-60596104D01*
X162336773Y-60820205D01*
X162336777Y-60820214D01*
X162339258Y-60824511D01*
X162339259Y-60824513D01*
X162458060Y-61030283D01*
X162458062Y-61030286D01*
X162458281Y-61030615D01*
X162459284Y-61031879D01*
X162605726Y-61222728D01*
X162605730Y-61222733D01*
X162605733Y-61222736D01*
X162605739Y-61222743D01*
X162777256Y-61394260D01*
X162777263Y-61394266D01*
X162830499Y-61435115D01*
X162969711Y-61541936D01*
X163104727Y-61619888D01*
X163179780Y-61663220D01*
X163179785Y-61663222D01*
X163179788Y-61663224D01*
X163208032Y-61674923D01*
X163375269Y-61744195D01*
X163402542Y-61755492D01*
X163402541Y-61755492D01*
X163403886Y-61756049D01*
X163403890Y-61756050D01*
X163403900Y-61756054D01*
X163638211Y-61818838D01*
X163818586Y-61842584D01*
X163878710Y-61850500D01*
X163878711Y-61850500D01*
X163878712Y-61850500D01*
X164121283Y-61850500D01*
X164121289Y-61850500D01*
X164169388Y-61844167D01*
X164361789Y-61818838D01*
X164596100Y-61756054D01*
X164820212Y-61663224D01*
X165030289Y-61541936D01*
X165222738Y-61394265D01*
X165394265Y-61222738D01*
X165541936Y-61030289D01*
X165663224Y-60820212D01*
X165756054Y-60596100D01*
X165818838Y-60361789D01*
X165850500Y-60121288D01*
X165850500Y-59878712D01*
X165849465Y-59870854D01*
X165837445Y-59779551D01*
X165818838Y-59638211D01*
X165756054Y-59403900D01*
X165752167Y-59394517D01*
X165752161Y-59394502D01*
X165752160Y-59394500D01*
X165701245Y-59271580D01*
X165701244Y-59271578D01*
X165701242Y-59271574D01*
X165663226Y-59179794D01*
X165663225Y-59179790D01*
X165663224Y-59179788D01*
X165541936Y-58969711D01*
X165394265Y-58777262D01*
X165394260Y-58777256D01*
X165394259Y-58777255D01*
X165394247Y-58777242D01*
X165222751Y-58605747D01*
X165222743Y-58605739D01*
X165222736Y-58605733D01*
X165222733Y-58605730D01*
X165222728Y-58605726D01*
X165031879Y-58459284D01*
X165030615Y-58458281D01*
X165030286Y-58458062D01*
X165030284Y-58458060D01*
X164875386Y-58368631D01*
X164820212Y-58336776D01*
X164814947Y-58334595D01*
X164596104Y-58243947D01*
X164361785Y-58181161D01*
X164361784Y-58181160D01*
X164361781Y-58181160D01*
X164121290Y-58149500D01*
X164121289Y-58149500D01*
X164121288Y-58149500D01*
X163878712Y-58149500D01*
X163878711Y-58149500D01*
X163878710Y-58149500D01*
X163638217Y-58181160D01*
X163403894Y-58243947D01*
X163179790Y-58336774D01*
X163179782Y-58336778D01*
X162969706Y-58458067D01*
X162969697Y-58458073D01*
X162777270Y-58605726D01*
X162777255Y-58605740D01*
X162777247Y-58605747D01*
X162605747Y-58777247D01*
X162605740Y-58777255D01*
X162605726Y-58777270D01*
X162458073Y-58969697D01*
X162458067Y-58969706D01*
X162336778Y-59179782D01*
X162336774Y-59179790D01*
X162243947Y-59403894D01*
X162211966Y-59523248D01*
X162181161Y-59638214D01*
X162164233Y-59766798D01*
X162149500Y-59878710D01*
X142492783Y-59878710D01*
X142470154Y-59863590D01*
X142315381Y-59799482D01*
X142315354Y-59799476D01*
X142151071Y-59766798D01*
X142151069Y-59766798D01*
X142151065Y-59766798D01*
X141983531Y-59766798D01*
X141983526Y-59766798D01*
X141983524Y-59766798D01*
X141819240Y-59799476D01*
X141819213Y-59799482D01*
X141664440Y-59863590D01*
X141525132Y-59956672D01*
X141406672Y-60075132D01*
X141313590Y-60214440D01*
X141249482Y-60369213D01*
X141249476Y-60369240D01*
X141216798Y-60533523D01*
X141216798Y-60533526D01*
X141216798Y-60701069D01*
X141216798Y-60701071D01*
X141216797Y-60701071D01*
X137825500Y-60701071D01*
X137825500Y-60608539D01*
X137814391Y-60552696D01*
X137814189Y-60551683D01*
X137814178Y-60551626D01*
X137810579Y-60533531D01*
X137798271Y-60471658D01*
X137798223Y-60471419D01*
X137797620Y-60468384D01*
X137797619Y-60468381D01*
X137797619Y-60468380D01*
X137742929Y-60336347D01*
X137742928Y-60336346D01*
X137742927Y-60336344D01*
X137742927Y-60336343D01*
X137663530Y-60217518D01*
X137663529Y-60217517D01*
X137663524Y-60217511D01*
X137562487Y-60116474D01*
X137562481Y-60116469D01*
X137562480Y-60116468D01*
X137443653Y-60037070D01*
X137443654Y-60037070D01*
X137443644Y-60037065D01*
X137311629Y-59982384D01*
X137311609Y-59982377D01*
X137311601Y-59982375D01*
X137171460Y-59954500D01*
X137171457Y-59954500D01*
X137171455Y-59954500D01*
X137028545Y-59954500D01*
X137028543Y-59954500D01*
X137028538Y-59954500D01*
X136888397Y-59982375D01*
X136888389Y-59982377D01*
X136888369Y-59982384D01*
X136756354Y-60037065D01*
X136756344Y-60037070D01*
X136637518Y-60116468D01*
X136637517Y-60116469D01*
X136637511Y-60116474D01*
X136536474Y-60217511D01*
X136536469Y-60217517D01*
X136536468Y-60217518D01*
X136457070Y-60336344D01*
X136457069Y-60336348D01*
X136402380Y-60468378D01*
X136402379Y-60468385D01*
X136386411Y-60548658D01*
X136375727Y-60578945D01*
X136374671Y-60581938D01*
X136359307Y-60611311D01*
X136337112Y-60641519D01*
X136277054Y-60701577D01*
X136277041Y-60701593D01*
X136194923Y-60824491D01*
X136194913Y-60824508D01*
X136194911Y-60824513D01*
X136138344Y-60961079D01*
X136138338Y-60961098D01*
X136109500Y-61106076D01*
X136109500Y-61209551D01*
X136104237Y-61227471D01*
X129453544Y-61227471D01*
X129433530Y-61197518D01*
X129433529Y-61197517D01*
X129433524Y-61197511D01*
X129332487Y-61096474D01*
X129332481Y-61096469D01*
X129332480Y-61096468D01*
X129213653Y-61017070D01*
X129213654Y-61017070D01*
X129213644Y-61017065D01*
X129081629Y-60962384D01*
X129081609Y-60962377D01*
X129081601Y-60962375D01*
X128941460Y-60934500D01*
X128941457Y-60934500D01*
X128941455Y-60934500D01*
X128798545Y-60934500D01*
X128798543Y-60934500D01*
X128798538Y-60934500D01*
X128658397Y-60962375D01*
X128658389Y-60962377D01*
X128658369Y-60962384D01*
X128526358Y-61017064D01*
X128526343Y-61017071D01*
X128485545Y-61044330D01*
X128485544Y-61044333D01*
X128453706Y-61059565D01*
X128438792Y-61064235D01*
X128368967Y-61065492D01*
X128368934Y-61065482D01*
X128368933Y-61065483D01*
X128368932Y-61065482D01*
X128367219Y-61065013D01*
X128313893Y-61034659D01*
X128308323Y-61029285D01*
X128291325Y-61008947D01*
X128233019Y-60921686D01*
X128233009Y-60921655D01*
X128232954Y-60921587D01*
X128232954Y-60921588D01*
X128232951Y-60921584D01*
X128232949Y-60921581D01*
X128232947Y-60921579D01*
X128232944Y-60921575D01*
X128128424Y-60817055D01*
X128128417Y-60817049D01*
X128128415Y-60817048D01*
X128005507Y-60734923D01*
X128005506Y-60734922D01*
X128005501Y-60734919D01*
X128005488Y-60734912D01*
X128005481Y-60734908D01*
X127868919Y-60678344D01*
X127868920Y-60678344D01*
X127868917Y-60678343D01*
X127868907Y-60678340D01*
X127868905Y-60678339D01*
X127868900Y-60678338D01*
X127723922Y-60649500D01*
X127723920Y-60649500D01*
X127723918Y-60649500D01*
X127576082Y-60649500D01*
X127576080Y-60649500D01*
X127576078Y-60649500D01*
X127431096Y-60678338D01*
X127431079Y-60678344D01*
X127294517Y-60734908D01*
X127294508Y-60734913D01*
X127294491Y-60734923D01*
X127171584Y-60817048D01*
X127171582Y-60817049D01*
X127171574Y-60817055D01*
X127067055Y-60921574D01*
X127067050Y-60921580D01*
X127067049Y-60921581D01*
X126984923Y-61044491D01*
X126984913Y-61044508D01*
X126984908Y-61044517D01*
X126928344Y-61181079D01*
X126928338Y-61181098D01*
X126899500Y-61326076D01*
X126899500Y-61429551D01*
X126894237Y-61447471D01*
X119883577Y-61447471D01*
X119906757Y-61376130D01*
X119906757Y-61376129D01*
X119918722Y-61300591D01*
X119918722Y-61300590D01*
X119940000Y-61166246D01*
X119940000Y-60953753D01*
X119925999Y-60865354D01*
X119908284Y-60753511D01*
X119908283Y-60753505D01*
X119908283Y-60753506D01*
X119906756Y-60743865D01*
X119879473Y-60659898D01*
X119841095Y-60541782D01*
X119744624Y-60352449D01*
X119705270Y-60298282D01*
X119705269Y-60298282D01*
X119705268Y-60298282D01*
X119199702Y-60803849D01*
X119138379Y-60837334D01*
X119068687Y-60832350D01*
X119012754Y-60790478D01*
X119004634Y-60778169D01*
X118990099Y-60752993D01*
X118897007Y-60659901D01*
X118897004Y-60659899D01*
X118897000Y-60659896D01*
X118871828Y-60645363D01*
X118823613Y-60594796D01*
X118810391Y-60526189D01*
X118836359Y-60461324D01*
X118846133Y-60450312D01*
X119377028Y-59919416D01*
X119405272Y-59898274D01*
X119428364Y-59885666D01*
X119484598Y-59871313D01*
X119484576Y-59870900D01*
X119484571Y-59870854D01*
X119484573Y-59870853D01*
X119484564Y-59870676D01*
X119487767Y-59870504D01*
X119487789Y-59870499D01*
X119487871Y-59870499D01*
X119487872Y-59870499D01*
X119547483Y-59864091D01*
X119682331Y-59813796D01*
X119704138Y-59797471D01*
X132924237Y-59797471D01*
X132955474Y-59954500D01*
X132958340Y-59968907D01*
X132958343Y-59968915D01*
X132958344Y-59968919D01*
X133014908Y-60105481D01*
X133014913Y-60105490D01*
X133014923Y-60105507D01*
X133097049Y-60228417D01*
X133097050Y-60228418D01*
X133097055Y-60228424D01*
X133201574Y-60332943D01*
X133201580Y-60332948D01*
X133201584Y-60332951D01*
X133324498Y-60415080D01*
X133324511Y-60415087D01*
X133324513Y-60415087D01*
X133324517Y-60415090D01*
X133409514Y-60450296D01*
X133453175Y-60468381D01*
X133453183Y-60468384D01*
X133455467Y-60469330D01*
X133459885Y-60471419D01*
X133606076Y-60500500D01*
X133606079Y-60500500D01*
X133606082Y-60500500D01*
X133753920Y-60500500D01*
X133851462Y-60481096D01*
X133898913Y-60471658D01*
X134035495Y-60415084D01*
X134158416Y-60332951D01*
X134262951Y-60228416D01*
X134345084Y-60105495D01*
X134357660Y-60075135D01*
X134373425Y-60037074D01*
X134401658Y-59968913D01*
X134401658Y-59968910D01*
X134401660Y-59968906D01*
X134413377Y-59910001D01*
X134413377Y-59909999D01*
X134413651Y-59908625D01*
X134430500Y-59823920D01*
X134430500Y-59676079D01*
X134430500Y-59676076D01*
X134401419Y-59529886D01*
X134399335Y-59525479D01*
X134399331Y-59525469D01*
X134399330Y-59525468D01*
X134396172Y-59517843D01*
X134345087Y-59394511D01*
X134345080Y-59394498D01*
X134262951Y-59271584D01*
X134262948Y-59271580D01*
X134262946Y-59271578D01*
X134262943Y-59271574D01*
X134158424Y-59167055D01*
X134158418Y-59167050D01*
X134158417Y-59167049D01*
X134035507Y-59084923D01*
X134035506Y-59084922D01*
X134035501Y-59084919D01*
X134035488Y-59084912D01*
X134035481Y-59084908D01*
X133898919Y-59028344D01*
X133898920Y-59028344D01*
X133898917Y-59028343D01*
X133898907Y-59028340D01*
X133898905Y-59028339D01*
X133898900Y-59028338D01*
X133753922Y-58999500D01*
X133753920Y-58999500D01*
X133753918Y-58999500D01*
X133606082Y-58999500D01*
X133606080Y-58999500D01*
X133606078Y-58999500D01*
X133461096Y-59028338D01*
X133461079Y-59028344D01*
X133324517Y-59084908D01*
X133324508Y-59084913D01*
X133324491Y-59084923D01*
X133201581Y-59167049D01*
X133201580Y-59167050D01*
X133201574Y-59167055D01*
X133097055Y-59271574D01*
X133097050Y-59271580D01*
X133014923Y-59394491D01*
X133014917Y-59394502D01*
X133014908Y-59394517D01*
X132958344Y-59531079D01*
X132958338Y-59531098D01*
X132929500Y-59676076D01*
X132929500Y-59779551D01*
X132924237Y-59797471D01*
X119704138Y-59797471D01*
X119797546Y-59727546D01*
X119864422Y-59638211D01*
X119883795Y-59612333D01*
X119883796Y-59612331D01*
X119917022Y-59523248D01*
X119934091Y-59477483D01*
X119940500Y-59417873D01*
X119940499Y-57977471D01*
X129844237Y-57977471D01*
X129876668Y-58140502D01*
X129878340Y-58148907D01*
X129878343Y-58148917D01*
X129885973Y-58167338D01*
X129934908Y-58285481D01*
X129934913Y-58285490D01*
X129934923Y-58285507D01*
X130017049Y-58408417D01*
X130017050Y-58408418D01*
X130017055Y-58408424D01*
X130121574Y-58512943D01*
X130121580Y-58512948D01*
X130121584Y-58512951D01*
X130244498Y-58595080D01*
X130244511Y-58595087D01*
X130346158Y-58637190D01*
X130375482Y-58649336D01*
X130379886Y-58651419D01*
X130526076Y-58680500D01*
X130526079Y-58680500D01*
X130526082Y-58680500D01*
X130673920Y-58680500D01*
X130771462Y-58661096D01*
X130818913Y-58651658D01*
X130955495Y-58595084D01*
X131078416Y-58512951D01*
X131182951Y-58408416D01*
X131265084Y-58285495D01*
X131321658Y-58148913D01*
X131334566Y-58084022D01*
X131338348Y-58065008D01*
X135879237Y-58065008D01*
X135912376Y-58231602D01*
X135912377Y-58231608D01*
X135912384Y-58231629D01*
X135967065Y-58363644D01*
X135967070Y-58363654D01*
X136046468Y-58482480D01*
X136046469Y-58482481D01*
X136046474Y-58482487D01*
X136147511Y-58583524D01*
X136147517Y-58583529D01*
X136147521Y-58583532D01*
X136266340Y-58662925D01*
X136266346Y-58662928D01*
X136266347Y-58662929D01*
X136393423Y-58715566D01*
X136393949Y-58715790D01*
X136394127Y-58715937D01*
X136397179Y-58717380D01*
X136538539Y-58745500D01*
X136538542Y-58745500D01*
X136538545Y-58745500D01*
X136681457Y-58745500D01*
X136775751Y-58726742D01*
X136821620Y-58717619D01*
X136953653Y-58662929D01*
X137072479Y-58583532D01*
X137173532Y-58482479D01*
X137252929Y-58363653D01*
X137307619Y-58231620D01*
X137323954Y-58149500D01*
X137325744Y-58140502D01*
X137325744Y-58140499D01*
X137326999Y-58134193D01*
X137335500Y-58091457D01*
X137335500Y-57948542D01*
X137335500Y-57948539D01*
X137307410Y-57807329D01*
X137305790Y-57803949D01*
X137305566Y-57803423D01*
X137252929Y-57676347D01*
X137252928Y-57676346D01*
X137252925Y-57676340D01*
X137173532Y-57557521D01*
X137173529Y-57557517D01*
X137173524Y-57557511D01*
X137072487Y-57456474D01*
X137072481Y-57456469D01*
X137072480Y-57456468D01*
X136953653Y-57377070D01*
X136953654Y-57377070D01*
X136953644Y-57377065D01*
X136821629Y-57322384D01*
X136821609Y-57322377D01*
X136821601Y-57322375D01*
X136681460Y-57294500D01*
X136681457Y-57294500D01*
X136681455Y-57294500D01*
X136538545Y-57294500D01*
X136538543Y-57294500D01*
X136538538Y-57294500D01*
X136398397Y-57322375D01*
X136398389Y-57322377D01*
X136398369Y-57322384D01*
X136266354Y-57377065D01*
X136266344Y-57377070D01*
X136147518Y-57456468D01*
X136147517Y-57456469D01*
X136147511Y-57456474D01*
X136046474Y-57557511D01*
X136046469Y-57557517D01*
X136046468Y-57557518D01*
X135967070Y-57676344D01*
X135967065Y-57676354D01*
X135912384Y-57808369D01*
X135912377Y-57808389D01*
X135912375Y-57808397D01*
X135884500Y-57948537D01*
X135884500Y-58047088D01*
X135879237Y-58065008D01*
X131338348Y-58065008D01*
X131342586Y-58043704D01*
X131344524Y-58033961D01*
X131344524Y-58033959D01*
X131350500Y-58003920D01*
X131350500Y-57856079D01*
X131350500Y-57856076D01*
X131321717Y-57711383D01*
X131321419Y-57709885D01*
X131319338Y-57705487D01*
X131265087Y-57574511D01*
X131265080Y-57574498D01*
X131182951Y-57451584D01*
X131182948Y-57451580D01*
X131182943Y-57451574D01*
X131078424Y-57347055D01*
X131078418Y-57347050D01*
X131078417Y-57347049D01*
X130955507Y-57264923D01*
X130955506Y-57264922D01*
X130955501Y-57264919D01*
X130955488Y-57264912D01*
X130955481Y-57264908D01*
X130818919Y-57208344D01*
X130818920Y-57208344D01*
X130818917Y-57208343D01*
X130818907Y-57208340D01*
X130818905Y-57208339D01*
X130818900Y-57208338D01*
X130673922Y-57179500D01*
X130673920Y-57179500D01*
X130673918Y-57179500D01*
X130526082Y-57179500D01*
X130526080Y-57179500D01*
X130526078Y-57179500D01*
X130381096Y-57208338D01*
X130381079Y-57208344D01*
X130244517Y-57264908D01*
X130244508Y-57264913D01*
X130244491Y-57264923D01*
X130121581Y-57347049D01*
X130121580Y-57347050D01*
X130121574Y-57347055D01*
X130017055Y-57451574D01*
X130017050Y-57451580D01*
X130017049Y-57451581D01*
X129934923Y-57574491D01*
X129934913Y-57574508D01*
X129934908Y-57574517D01*
X129878344Y-57711079D01*
X129878338Y-57711098D01*
X129849500Y-57856076D01*
X129849500Y-57959551D01*
X129844237Y-57977471D01*
X119940499Y-57977471D01*
X119940499Y-57622128D01*
X119934091Y-57562517D01*
X119932226Y-57557518D01*
X119924978Y-57538086D01*
X119924977Y-57538082D01*
X119883797Y-57427671D01*
X119883793Y-57427664D01*
X119797547Y-57312455D01*
X119797544Y-57312452D01*
X119797542Y-57312450D01*
X119734054Y-57264923D01*
X119682335Y-57226206D01*
X119682332Y-57226204D01*
X119682330Y-57226203D01*
X119682328Y-57226202D01*
X119547482Y-57175908D01*
X119547483Y-57175908D01*
X119487883Y-57169501D01*
X119487881Y-57169500D01*
X119487873Y-57169500D01*
X119487864Y-57169500D01*
X119486841Y-57169500D01*
X117692123Y-57169500D01*
X117690192Y-57169659D01*
X117688545Y-57169885D01*
X117632516Y-57175908D01*
X117545554Y-57208343D01*
X117497666Y-57226204D01*
X117497665Y-57226205D01*
X117382456Y-57312450D01*
X117382450Y-57312456D01*
X117296205Y-57427665D01*
X117296203Y-57427668D01*
X117245908Y-57562516D01*
X117239500Y-57622125D01*
X109239006Y-57622125D01*
X109247041Y-56623773D01*
X126069499Y-56623773D01*
X126102178Y-56788056D01*
X126102184Y-56788083D01*
X126166292Y-56942856D01*
X126259374Y-57082164D01*
X126377833Y-57200623D01*
X126377838Y-57200627D01*
X126389379Y-57208338D01*
X126470492Y-57262536D01*
X126470494Y-57262538D01*
X126517134Y-57293701D01*
X126517137Y-57293703D01*
X126671918Y-57357816D01*
X126836228Y-57390499D01*
X126836232Y-57390500D01*
X126836233Y-57390500D01*
X127003768Y-57390500D01*
X127003769Y-57390499D01*
X127168082Y-57357816D01*
X127322863Y-57293703D01*
X127462162Y-57200626D01*
X127580626Y-57082162D01*
X127673703Y-56942863D01*
X127737816Y-56788082D01*
X127770500Y-56623767D01*
X127770500Y-56456233D01*
X127737816Y-56291918D01*
X127673703Y-56137137D01*
X127657410Y-56112753D01*
X127642538Y-56090495D01*
X127642537Y-56090494D01*
X127592911Y-56016223D01*
X127580627Y-55997838D01*
X127580623Y-55997833D01*
X127462164Y-55879374D01*
X127322856Y-55786292D01*
X127168083Y-55722184D01*
X127168056Y-55722178D01*
X127003773Y-55689500D01*
X127003771Y-55689500D01*
X127003767Y-55689500D01*
X126836233Y-55689500D01*
X126836228Y-55689500D01*
X126836226Y-55689500D01*
X126671942Y-55722178D01*
X126671915Y-55722184D01*
X126517142Y-55786292D01*
X126377834Y-55879374D01*
X126259374Y-55997834D01*
X126166292Y-56137142D01*
X126102184Y-56291915D01*
X126102178Y-56291942D01*
X126069500Y-56456225D01*
X126069500Y-56456228D01*
X126069500Y-56623771D01*
X126069500Y-56623773D01*
X126069499Y-56623773D01*
X109247041Y-56623773D01*
X109252777Y-55911019D01*
X109252973Y-55904995D01*
X109253320Y-55898907D01*
X109253806Y-55892936D01*
X109258060Y-55852864D01*
X109271512Y-55726093D01*
X109273370Y-55714168D01*
X109275815Y-55702313D01*
X109278827Y-55690631D01*
X109325872Y-55539114D01*
X109330016Y-55527761D01*
X109334698Y-55516648D01*
X109339933Y-55505744D01*
X109347857Y-55491114D01*
X109368909Y-55462793D01*
X109381537Y-55450079D01*
X109438648Y-55417370D01*
X109448322Y-55414884D01*
X109450204Y-55414401D01*
X109481061Y-55410500D01*
X131471642Y-55410500D01*
X131506569Y-55415521D01*
G37*
%TD.AperFunction*%
%TD*%
M02*
